<?xml version="1.0" encoding="utf-8"?>
<!-- Generator: Adobe Illustrator 27.9.4, SVG Export Plug-In . SVG Version: 9.03 Build 54784)  -->
<svg version="1.1" id="Layer_1" xmlns="http://www.w3.org/2000/svg" xmlns:xlink="http://www.w3.org/1999/xlink" x="0px" y="0px"
	 viewBox="0 0 366 398" style="enable-background:new 0 0 366 398;" xml:space="preserve">
<style type="text/css">
	.st0{clip-path:url(#SVGID_00000147902844711497526380000001989731064654621355_);}
</style>
<g>
	<defs>
		<rect id="SVGID_1_" width="366" height="398"/>
	</defs>
	<clipPath id="SVGID_00000126306972772634162460000002894284374876740244_">
		<use xlink:href="#SVGID_1_"  style="overflow:visible;"/>
	</clipPath>
	<g style="clip-path:url(#SVGID_00000126306972772634162460000002894284374876740244_);">
		<path d="M279.7,360.1c-0.6,10.7-4.6,19.6-12.7,26.5c-6.4,5.5-13.8,8.9-22.3,9.1c-15.7,0.3-31.5,0.5-47.2,0.6
			c-39.2,0.4-78.5,0.8-117.7,1.2c-10.7,0.1-21.3,0.4-32,0.5c-10.6,0.1-20.6-2.2-29.3-8.5c-11.2-8-16.7-19.1-18.3-32.4
			c-0.4-3.7-0.1-7.6-0.1-11.8h40.4v-279H76V30.5h32.1V0.2c1.3-0.1,2.3-0.2,3.3-0.2C166.6,0,221.8,0,277,0c1.9,0,3.3,0.4,4.7,1.8
			c19.3,19.3,38.5,38.7,58.2,57.6c5.4,5.2,7.5,10.4,7.4,17.8c-0.4,33.1-0.2,66.3-0.1,99.4c0,1.4,0.6,3.1,1.5,4.2
			c16.4,20.7,21.2,43.8,13.9,69.1c-2.8,9.5-7.7,18-14,25.8c-0.8,1-1.4,2.6-1.4,4c-0.2,4.6-0.1,9.3-0.1,14c-0.1,17-12.3,31-28.5,34.8
			c-2.8,0.7-4.1,1.6-5.1,4.6c-4.5,14.4-14.4,23.3-29.4,26.3C282.8,359.6,281.4,359.8,279.7,360.1L279.7,360.1z M51.4,77.2
			c0,1.3,0,2.2,0,3.1c0,45.2,0,90.5,0,135.7c0,42.2,0,84.3,0,126.5c0,2.1,0.4,2.9,2.8,2.9c52.2-0.1,104.4-0.1,156.6-0.1
			c1.7,0,3.5,0,5.9,0c0,6.2-0.6,12,0.1,17.7c1.6,14.1,15.6,24,29.2,21.9c14.2-2.2,23.2-13.2,23.1-27.4c-0.1-18.6-0.1-37.2,0-55.8
			c0-2.1-0.5-3-2.6-3.8c-21.7-8.2-37-23-44.9-44.9c-8.1-22.6-5.4-44.1,7.2-64.4c9-14.5,21.9-24.2,37.9-30.2c0.8-0.3,2.1-1.1,2.2-1.7
			c0.2-4.7,0.1-9.4,0.1-14.3h-64.2V77.2H51.4z M291.5,165c-34.7,0-62.3,27.3-63.6,60.5c-1.6,37.5,29,66,63.5,66.1
			c35.4,0,63.8-28.5,63.8-63.3C355.2,193.1,326.7,165,291.5,165L291.5,165z M205.2,356.1c-11.2-0.9-188.3-0.2-194.7,0.8
			c0.6,2.1,1.2,4.2,1.8,6.3c4.3,14.3,16.4,23.9,31.5,24c18,0.1,36-0.3,54.1-0.5c38.5-0.4,77-0.8,115.5-1.1c0.9,0,1.7,0,2.9,0
			C204.7,369,206.6,368.6,205.2,356.1L205.2,356.1z M236.8,90.5c0-16.1,0-31.4,0.1-46.6c0-2.3-0.6-3-3-3
			c-47.6,0.1-95.2,0.1-142.7,0.1c-1.4,0-2.8,0-4.3,0v25.1c1.2,0,2.2,0,3.2,0c39.7,0,79.5,0,119.2,0c1.2,0,2.8,0.2,3.5,0.9
			c4.4,4.1,8.6,8.5,12.9,12.7C229.2,83.2,232.8,86.6,236.8,90.5L236.8,90.5z M119,10.8c0,6.2,0,12.2,0.1,18.2c0,0.5,1,1.3,1.6,1.3
			c6.8,0.1,92.9,0.1,123.8,0c2.1,0,3.7,0.5,5.2,2.1c3.2,3.3,6.5,6.5,9.7,9.7c4.2,4.2,8.4,8.5,13.2,13.3V10.8H119z M336.4,168.6V74.4
			h-43.9l-0.5,0.9c6,5.8,11.9,11.7,18.1,17.3c3.4,3.1,5.3,6.1,5.2,11.1c-0.4,16.4-0.1,32.8-0.1,49.2c0,3.3,1.5,5.5,4.6,6.8
			c1,0.4,1.9,0.8,2.8,1.3C327.1,163.5,331.6,166,336.4,168.6z M252.3,106.1c7.7,7.6,14.5,14.7,21.7,21.5c3.9,3.6,6.5,7.3,5.7,13
			c-0.5,3.2-0.1,6.5-0.1,9.8c0,1.6,0,3.2,0,4.6h24.6v-48.7L252.3,106.1L252.3,106.1z M247.7,46.6v48.5h48.4
			C280.1,79.1,264,62.9,247.7,46.6L247.7,46.6z M215.6,131.5h45.8c-15.1-15.1-30.5-30.5-45.8-45.9V131.5z M279.8,301.5v47.4
			c10.5,0.1,21.1-8.8,23.4-18.9c0.9-3.9,1-8.1,1.2-12.1c0.2-5.5,0-11.1,0-16.4H279.8L279.8,301.5z M326.9,63.3
			c-14.4-14.4-29.1-29-43.4-43.3v43.3H326.9L326.9,63.3z M336.3,287.8c-5.2,2.7-10,6-15.3,8c-4.7,1.7-6.1,4.2-5.7,8.9
			c0.4,4.5,0.1,9,0.1,13.5C325.8,316.6,338.7,306,336.3,287.8L336.3,287.8z"/>
		<path d="M145.5,244.9c21.1,0,42.2,0,63.2,0.1c1.6,0,3.6,0.4,4.6,1.4c1.2,1.1,2.2,3.3,1.9,4.8c-0.3,1.6-2.1,3-3.5,4.2
			c-0.6,0.5-1.8,0.4-2.7,0.4c-26,0-51.9,0-77.9,0c-16.2,0-32.4,0-48.6,0c-4.1,0-6.3-1.7-6.5-4.9c-0.2-3.4,2.1-5.8,5.9-5.9
			c5.2-0.1,10.5,0,15.7,0C113.6,244.9,129.6,244.9,145.5,244.9L145.5,244.9z"/>
		<path d="M145.8,179c-21.2,0-42.3,0-63.5,0c-3.9,0-6.2-2-6.2-5.2c0-2.9,2-5.1,4.9-5.4c0.7-0.1,1.5,0,2.2,0c41.7,0,83.4,0,125.1,0
			c0.7,0,1.3,0,2,0c3.1,0.2,5.3,2.5,5.3,5.4c0,2.9-2.3,5.2-5.4,5.3c-5.6,0.1-11.2,0-16.9,0C177.5,179,161.6,179,145.8,179L145.8,179
			z"/>
		<path d="M145.5,217.4c-21,0-42,0-63,0c-3.7,0-6-1.6-6.5-4.5c-0.5-3,1.3-5.6,4.3-6.1c1.1-0.2,2.2-0.2,3.4-0.2c29.6,0,59.2,0,88.8,0
			c11.9,0,23.7,0,35.6-0.1c0.8,0,1.7,0,2.5,0.1c2.8,0.4,4.8,2.7,4.8,5.3c0,2.6-2.1,5-4.8,5.3c-0.8,0.1-1.7,0.1-2.5,0.1
			C187.3,217.4,166.4,217.4,145.5,217.4L145.5,217.4z"/>
		<path d="M145.8,283.3c21.1,0,42.2,0,63.2,0c2.5,0,4.6,0.5,5.9,2.9c1.5,2.9,0.2,6.2-2.9,7.2c-1.2,0.4-2.6,0.6-3.8,0.6
			c-40.9,0-81.9,0-122.8,0c-1.8,0-3.5-0.2-5.3-0.6c-2.7-0.5-4.4-3.1-4.1-5.8c0.3-2.3,2.6-4.2,5.2-4.2
			C102.8,283.4,124.3,283.4,145.8,283.3L145.8,283.3L145.8,283.3z"/>
		<path d="M287.6,189.9c0-1.8-0.1-3.3,0-4.9c0.2-3.1,1.4-4.6,3.5-4.4c2.8,0.2,3,2.4,3.1,4.5c0.1,1.6,0,3.1,0,4.7
			c1.7,0.3,3.2,0.6,4.6,0.9c7.2,1.6,12.2,5.9,14.8,12.6c0.8,2,0.7,4.7,0,6.7c-0.9,2.6-3.5,3.6-6.2,3.3c-2.8-0.3-4.5-2-5.4-4.6
			c-1.5-4.8-3.6-7.1-7.9-8.4c0,6.4,0,12.7,0.1,19c0,0.5,1.1,1.3,1.8,1.5c3.7,1.4,7.8,2.3,11.2,4.2c7.7,4.4,10.3,11.5,9.4,19.9
			c-0.9,7.8-5.2,13.5-12.3,16.7c-3.1,1.4-6.5,2.1-10.1,3.2c0,3.7,0,7.7,0,11.7c0,1-0.3,2-0.4,3c-0.2,1.7-1.1,2.7-2.9,2.7
			c-2,0-2.9-1.4-3-3c-0.2-3.3-0.2-6.7-0.3-10c0-1.5,0-3,0-3.7c-4.9-2.1-9.6-3.7-13.8-6.1c-5.3-3.1-8.2-8.3-9.1-14.3
			c-0.5-3.1,1.5-6.8,4.3-7.3c3.9-0.6,6.6-0.6,8.3,3.7c0.7,1.6,1.1,3.3,1.8,5c1.5,3.8,4.2,6.2,8.5,7.3c0-5.1,0-10,0-15
			c0-4.7-2.2-7.9-6.6-9.5c-5.9-2.2-11.2-5.2-13.2-11.5c-4-12.8,1.4-25.1,17.6-27.5C286,190.1,286.6,190,287.6,189.9L287.6,189.9z
			 M294.4,254.1c6.5-0.7,10.3-5.3,10-11.8c-0.2-4.3-5.1-8.5-10-8.5V254.1L294.4,254.1z M287.5,200.2c-4.6,0.4-8.2,3.6-8.5,7.5
			c-0.4,5.5,2.3,8.8,8.5,10.2V200.2L287.5,200.2z"/>
	</g>
</g>
</svg>
