<?xml version="1.0" encoding="UTF-8"?>
<svg id="Layer_1" data-name="Layer 1" xmlns="http://www.w3.org/2000/svg" viewBox="0 0 594 633">
  <defs>
    <style>
      .cls-1 {
        stroke-width: 0px;
      }
    </style>
  </defs>
  <path class="cls-1" d="m594,110v458c-.32,1.26-.76,2.5-.95,3.77-3.21,22.07-14.58,38.72-33.34,50.58-9.14,5.79-19.29,8.54-29.72,10.64H65c-1.09-.32-2.16-.78-3.28-.95-25.99-3.91-44.66-17.8-55.27-41.76-3.23-7.29-4.36-15.51-6.46-23.3C0,413.67,0,260.33,0,107c.68-2.15,1.27-4.34,2.06-6.45,2.85-7.59,4.76-15.74,8.84-22.61,13.24-22.27,33.51-33.49,59.24-34.81,7.75-.4,15.54-.06,23.79-.06,0-4.68-.28-8.82.07-12.91.43-5.08.6-10.39,2.28-15.1,3.05-8.54,10.72-12.2,18.72-15.07,3,0,6,0,9,0,.58.3,1.13.68,1.74.88,11.84,3.87,18.09,11.86,18.53,24.12.21,5.91.04,11.84.04,17.71h305.52c0-2,0-3.64,0-5.27.01-4.49-.24-9.01.09-13.48.92-12.74,8.83-19.79,20.08-23.96h10c15.4,5.23,22.11,15.87,20.23,32.07-.41,3.53-.06,7.15-.06,10.41,11.9.6,22.99.16,33.73,1.9,24.83,4.03,43.18,17.58,53.2,40.93,3.34,7.79,4.66,16.44,6.9,24.69Zm-343.86,242.13c0-5.83-.03-11.66.01-17.49.03-3.83-1.82-6.2-5.59-6.25-12.32-.16-24.65-.17-36.97-.01-3.66.05-5.71,2.17-5.68,6.14.08,11.66.06,23.32,0,34.98-.02,4.15,2.1,6.32,6.04,6.36,11.99.11,23.99.08,35.98-.02,4.26-.04,6.29-2.4,6.23-6.71-.09-5.66-.02-11.33-.03-16.99Zm-24.03,118.07c-5.83,0-11.65,0-17.48,0-4.38,0-6.79,1.85-6.74,6.61.12,11.32.11,22.63,0,33.95-.05,4.89,2.36,7.01,6.99,7.02,11.32.03,22.64.11,33.95-.03,5.48-.07,7.22-1.87,7.27-7.26.1-11.15-.04-22.3.08-33.45.05-4.64-2.15-6.78-6.6-6.83-5.82-.06-11.65-.01-17.47-.02Zm-71.62-94.29c5.99,0,11.97-.02,17.96,0,3.73.01,6.07-1.44,6.06-5.52,0-12.14-.02-24.27,0-36.41,0-4-2.15-5.72-5.91-5.73-11.64-.03-23.28-.07-34.92,0-4.58.03-6.96,2.22-6.89,7.13.15,11.14.01,22.28.06,33.43.03,5.56,1.44,6.97,7.17,7.09,5.49.11,10.98.02,16.46.01Zm-23.65,118.07c0,5.67.08,11.33-.03,16.99-.09,4.63,2.2,6.8,6.65,6.81,11.49.04,22.99.04,34.48,0,4.21-.01,6.49-1.99,6.47-6.42-.05-11.82-.09-23.65.02-35.47.04-4.12-1.98-5.71-5.8-5.7-11.83,0-23.66.03-35.49-.02-4.67-.02-6.55,2.16-6.36,6.81.22,5.66.05,11.33.05,16.99Zm95.15-47.58c5.83,0,11.67-.03,17.5,0,4.54.03,6.7-2.09,6.67-6.71-.08-11.33-.04-22.66,0-34,.02-4.58-2.27-6.75-6.75-6.75-11.67,0-23.33,0-35,0-4.22,0-6.51,1.91-6.49,6.36.06,11.66.07,23.33,0,34.99-.03,4.23,2,6.09,6.09,6.08,6-.02,12,0,18,0Zm-71.28,94.53c-5.82,0-11.65.07-17.47-.02-4.33-.07-6.46,1.74-6.42,6.23.09,11.48.11,22.97,0,34.45-.04,4.63,2.07,6.77,6.59,6.77,11.65,0,23.3-.02,34.95.04,4.08.02,6.24-1.75,6.24-5.93,0-11.98,0-23.96,0-35.94,0-3.9-1.9-5.72-5.9-5.62-5.99.14-11.98.04-17.97.04Zm379.66-188.58h.02c0-5.99-.04-11.97.01-17.96.04-4.14-1.96-6.16-6.04-6.17-11.64-.02-23.28-.07-34.92.02-4.31.03-6.76,2.12-6.72,6.78.08,11.47.1,22.95-.01,34.42-.04,4.13,1.79,6.38,5.83,6.41,12.14.09,24.27.03,36.41.01,3.67,0,5.47-1.82,5.43-5.55-.06-5.98-.02-11.97-.02-17.96Zm-308.37,188.58c-5.83,0-11.65.02-17.48,0-4.22-.02-6.6,1.8-6.59,6.25.02,11.65,0,23.31.01,34.96,0,4.06,1.95,6.15,6.11,6.15,11.82-.01,23.64,0,35.46.05,4.57.02,6.66-2.17,6.64-6.74-.06-11.32-.04-22.64.01-33.96.02-4.55-2.1-6.76-6.67-6.72-5.83.05-11.65.01-17.48.01Zm308.4-47.37c0-5.65-.09-11.31.03-16.95.09-4.33-1.7-6.47-6.17-6.44-11.8.07-23.6.03-35.41.03-3.99,0-6.18,1.64-6.14,5.98.1,11.63.08,23.27.01,34.91-.03,4.57,2.1,6.74,6.64,6.73,11.47-.02,22.94-.02,34.4,0,4.56,0,6.67-2.28,6.63-6.79-.05-5.82-.01-11.64,0-17.45Zm-474.55.14c0,5.82.11,11.65-.04,17.47-.11,4.42,1.99,6.57,6.23,6.59,11.81.07,23.62.08,35.43-.01,3.64-.03,5.96-1.72,5.94-5.79-.04-12.14-.03-24.29-.01-36.43,0-3.5-1.79-5.28-5.19-5.3-12.31-.05-24.62-.05-36.93-.01-3.91.01-5.6,2.03-5.47,6.02.19,5.82.05,11.64.05,17.46Zm284.77-141.71h-.02c0,5.82.09,11.64-.03,17.46-.09,4.38,1.89,6.46,6.24,6.45,11.81-.02,23.61,0,35.42-.02,4.04,0,6.08-1.91,6.05-6.13-.09-11.64-.1-23.28-.04-34.92.02-4.4-2.27-6.53-6.38-6.56-11.8-.11-23.61-.06-35.41-.04-4.16,0-5.92,2.22-5.85,6.31.1,5.82.03,11.64.03,17.46Zm47.53,141.76c0-5.99-.08-11.97.03-17.96.07-3.75-1.59-5.62-5.31-5.62-12.31,0-24.61,0-36.92.04-3.34,0-5.31,1.49-5.3,5.11.02,12.14-.04,24.28-.02,36.42,0,3.82,2.06,5.96,5.83,5.99,11.81.09,23.62.13,35.42,0,4.02-.04,6.49-1.93,6.32-6.52-.21-5.81-.05-11.64-.05-17.46Zm-95.15-23.57c-5.83,0-11.65.05-17.48-.02-4.16-.04-6.01,1.83-5.96,6.06.12,11.49-.02,22.97.06,34.46.04,5.65,1.43,7.03,7.19,7.07,10.99.09,21.97.1,32.96,0,5.75-.05,7.35-1.76,7.38-7.55.05-10.99.05-21.97,0-32.96-.03-5.61-1.39-6.96-7.15-7.06-5.66-.09-11.32-.02-16.98-.01Zm-23.4-118.19c0,6.16.03,12.32-.01,18.48-.02,3.48,1.69,5.36,5.11,5.38,12.15.05,24.31.06,36.46-.06,4-.04,6-2.29,5.99-6.39-.04-11.49-.06-22.98.02-34.46.03-4.36-2.07-6.63-6.27-6.68-11.82-.11-23.64-.08-35.46-.05-4.12.01-5.97,2.15-5.88,6.3.13,5.82.03,11.65.04,17.48Zm189.65.39c0-5.83-.09-11.66.03-17.48.09-4.39-2.08-6.62-6.27-6.65-11.82-.1-23.65-.1-35.47.02-3.66.04-5.84,1.91-5.82,5.94.07,11.99.07,23.98,0,35.97-.02,3.79,1.88,5.62,5.43,5.64,12.15.08,24.31.06,36.47,0,3.85-.02,5.73-1.98,5.66-5.96-.11-5.83-.03-11.66-.03-17.48Zm0,141.48c0-5.83-.13-11.67.04-17.49.13-4.18-1.55-6.22-5.8-6.2-12,.05-23.99.01-35.99.02-3.81,0-5.83,1.63-5.8,5.73.1,11.66.11,23.32,0,34.98-.04,4.61,2.11,6.85,6.58,6.87,11.5.05,22.99.03,34.49,0,4.56-.01,6.6-2.37,6.5-6.92-.12-5.66-.03-11.33-.03-16.99ZM59.85,352.19c0,6,.08,11.99-.03,17.99-.07,3.79,1.84,5.65,5.4,5.67,12.16.08,24.32.06,36.48,0,3.82-.02,5.73-1.99,5.71-5.94-.06-11.66-.06-23.32.02-34.98.03-4.37-2.13-6.62-6.3-6.66-11.82-.11-23.65-.11-35.48,0-4.04.04-5.93,2.31-5.84,6.44.13,5.83.03,11.66.04,17.49Zm94.84,94.2c6.15,0,12.31-.03,18.46.01,3.42.02,5.31-1.41,5.31-5.01,0-12.14.09-24.27,0-36.41-.02-3.99-2.18-6.03-6.31-6.01-11.64.06-23.28.03-34.93.01-4.32,0-6.41,2.06-6.39,6.42.04,11.64.1,23.29-.03,34.93-.05,4.6,2.12,6.2,6.42,6.11,5.82-.12,11.64-.03,17.46-.04Zm213.73.01c5.83,0,11.67-.08,17.5.03,4.31.08,6.45-1.6,6.39-6.18-.14-11.5.02-23-.08-34.5-.05-5.29-1.6-6.72-7.02-6.75-11.17-.06-22.33-.06-33.5,0-5.27.03-7.01,1.6-7.07,6.8-.12,11.5.04,23-.09,34.5-.05,4.55,1.99,6.26,6.36,6.14,5.83-.15,11.66-.04,17.5-.04Zm70.79,0c6,0,11.99-.05,17.99.02,4.07.04,6.15-1.57,6.1-5.92-.12-11.66-.07-23.32-.03-34.98.01-4.28-1.86-6.55-6.28-6.54-11.66.02-23.32,0-34.97,0-4,0-6.27,1.81-6.27,6.01,0,11.99.04,23.98-.02,35.97-.02,3.79,1.77,5.47,5.49,5.44,6-.05,11.99-.01,17.99,0Zm71.35,0c6.15,0,12.31-.03,18.46,0,3.42.02,5.32-1.41,5.32-5.02,0-12.14.08-24.28.01-36.42-.02-4.02-2.21-6.01-6.32-5.99-11.64.05-23.28.04-34.92,0-4.36-.01-6.37,2.07-6.35,6.42.06,11.81.09,23.61.02,35.42-.02,4.07,1.92,5.67,5.82,5.61,5.99-.09,11.97-.02,17.96-.03Zm-142.14,94.54c-5.99,0-11.98.09-17.97-.03-3.97-.08-5.84,1.65-5.83,5.63.03,11.98.02,23.95-.01,35.93-.01,3.88,1.77,5.89,5.71,5.89,11.98-.01,23.95.01,35.93-.03,4.11-.01,6.02-2.22,6.01-6.28-.03-11.81-.04-23.62-.01-35.43,0-3.99-1.95-5.72-5.86-5.68-5.99.07-11.98.02-17.97.01Zm71.27-283.18c-5.99,0-11.98.06-17.96-.02-4.19-.06-6.04,1.87-6.01,6.06.08,11.81.07,23.62.01,35.43-.02,4.26,2.07,5.92,6.18,5.89,11.81-.08,23.62-.07,35.43,0,4.23.02,5.97-1.98,5.95-6.13-.08-11.81-.1-23.62,0-35.43.04-4.34-2.03-5.91-6.14-5.82-5.82.12-11.64.03-17.46.03ZM83.3,446.39c6.16,0,12.33-.01,18.49,0,3.63.01,5.61-1.6,5.6-5.4-.02-11.99.03-23.99-.03-35.98-.02-4.05-2.14-6.05-6.27-6.04-11.66.05-23.32,0-34.98.02-3.98,0-6.27,1.78-6.27,6.01.02,11.99.05,23.99-.02,35.98-.02,3.81,1.76,5.46,5.48,5.42,6-.05,11.99-.01,17.99-.03Zm213.22,94.55c-5.83,0-11.66.06-17.49-.02-3.8-.06-5.46,1.73-5.45,5.45.04,11.99.04,23.99-.01,35.98-.02,4.17,1.79,6,6.06,5.96,11.66-.14,23.32-.11,34.98-.02,4.63.03,6.62-2.01,6.57-6.66-.13-11.33-.1-22.65-.01-33.98.03-4.62-2.11-6.75-6.66-6.72-6,.04-11.99,0-17.99.01Zm214.27-235.87c5.83,0,11.65-.12,17.48.04,4.25.11,6.12-1.82,6.12-5.95-.02-11.82-.02-23.64,0-35.45,0-4.1-1.8-6.04-6.07-6-11.65.12-23.3.08-34.95.03-4.55-.02-6.7,2-6.65,6.66.1,11.32-.03,22.64.07,33.96.04,5.2,1.68,6.67,7.04,6.72,5.66.05,11.32.01,16.98.01Zm-166.2-23.91c0,5.99.06,11.99-.02,17.98-.05,4.21,1.91,5.99,6.1,5.95,11.66-.09,23.31-.07,34.97-.01,4.3.02,6.52-1.83,6.51-6.26-.03-11.65-.05-23.31.01-34.96.02-4.15-1.87-6.14-6.04-6.12-11.82.03-23.65.09-35.47-.03-4.25-.04-6.11,1.82-6.07,5.97.06,5.83.01,11.66,0,17.48ZM83.61,540.94c-5.99,0-11.98.02-17.97,0-3.87-.01-5.83,1.72-5.81,5.74.06,11.81.04,23.62.01,35.44,0,4.08,1.81,6.18,6.02,6.16,11.81-.04,23.62-.05,35.43,0,4.2.02,6.09-2.13,6.1-6.15.02-11.81,0-23.62.02-35.44,0-3.94-1.93-5.78-5.83-5.76-5.99.04-11.98,0-17.97,0Zm213.29-94.55c5.99,0,11.99-.02,17.98,0,4.34.02,6.34-2,6.3-6.42-.1-11.32.01-22.64-.05-33.96-.03-5.24-1.65-6.96-6.81-7-11.49-.09-22.98.01-34.46-.05-4.09-.02-6.26,1.71-6.26,5.92,0,11.99.06,23.98-.03,35.96-.03,4.12,1.98,5.62,5.84,5.57,5.83-.08,11.65-.02,17.48-.03Zm142.86,94.55c-6.16,0-12.31-.02-18.47,0-3.61.01-5.55,1.72-5.54,5.49.03,11.98.03,23.96.01,35.94,0,3.91,1.91,5.86,5.79,5.87,11.81.02,23.62-.03,35.43.04,4.44.03,6.32-2.1,6.3-6.42-.05-11.65-.06-23.29,0-34.94.02-4.19-1.87-6.09-6.05-6.02-5.82.09-11.65.02-17.47.04Zm10.16-471.14c-9.95,8.55-13.04,24.37-7.96,37.04,5.85,14.6,19.76,23.23,36,22.33,14.46-.8,27.64-11.5,31.63-25.68,3.42-12.13-.7-27.47-9.42-33.33,0,8.11.15,15.86-.07,23.6-.09,3.27-.42,6.73-1.58,9.73-4.23,10.95-16.35,17.43-27.9,15.32-11.46-2.09-20.27-12-20.65-23.69-.26-8.1-.05-16.22-.05-25.32Zm-305.61.08c0,4.15.07,7.26-.01,10.35-.17,6.65.47,13.47-.81,19.9-2.49,12.46-14.47,20.25-27.34,18.86-12.05-1.3-21.9-12.07-22.15-24.46-.16-7.89-.03-15.79-.03-24.17-12.84,9.7-13.47,33.19-1.88,46.33,14.2,16.11,37.9,17.04,52.79,2.06,13.23-13.31,13.51-36.89-.55-48.88Zm327.5-9.89c0-12.16.08-24.33-.04-36.49-.05-4.91-2.67-7.56-6.87-7.43-4.64.15-6.29,3.11-6.54,7.25-.08,1.33-.03,2.67-.03,4,0,21.16-.02,42.33.02,63.49,0,2.48-.41,5.37.68,7.34,1.17,2.11,3.88,4.62,5.94,4.64,2.08.02,4.51-2.52,6.17-4.47.89-1.04.64-3.18.65-4.83.05-11.16.02-22.33.02-33.49Zm-355.89-.5c0-10.15,0-20.3,0-30.46,0-2.33.2-4.7-.16-6.97-.59-3.7-2.75-6.06-6.77-5.94-3.7.11-5.83,2.17-6.25,5.84-.25,2.14-.38,4.31-.38,6.47-.03,20.97-.04,41.94.02,62.91,0,2.48-.23,5.35.91,7.32,1.13,1.95,3.77,3.94,5.89,4.11,1.86.15,4.39-1.83,5.73-3.57,1.05-1.37.97-3.79.98-5.75.08-11.32.04-22.63.04-33.95Z"/>
</svg>