<?xml version="1.0" encoding="UTF-8"?>
<svg id="Layer_1" xmlns="http://www.w3.org/2000/svg" viewBox="0 0 1426.71 1070">
  <path d="M871.05,559.91c81.83,6.65,151.12,80.35,153.48,162.58,2.55,89.07,1.03,178.27.45,267.4-.03,4.95-6.58,11.93-11.8,14.47-61.33,29.91-126.12,48.96-193.63,58.09-139.4,18.86-274.07,3.13-402.81-55.97-12.12-5.57-15.86-12.05-15.75-25.11.64-79.97.25-159.95.33-239.92.1-105.7,76.98-183.48,182.64-184.5,43.29-.42,235.03-1.28,287.11,2.95Z"/>
  <path d="M870.67,513.07c36.52-57,85.92-88.15,151.5-89.31,75.86-1.34,151.79-1.25,227.66-.07,100.05,1.56,176.03,79.09,176.62,178.92.41,68.25-.06,136.5.27,204.75.04,9.19-2.39,14.32-11.18,18.77-105.01,53.21-216.23,72.76-333.15,63.73-11.8-.91-12.48-6.39-12.51-15.56-.18-53.46,1.9-107.11-1.79-160.34-6.78-97.75-83.52-179.93-180.02-197.44-4.95-.9-9.88-1.95-17.39-3.45Z"/>
  <path d="M556.39,513.47c-37.04,5.45-69.36,15.91-97.98,35.42-65.66,44.74-100.02,106.98-101.44,186.56-.8,44.81-.15,89.64-.15,134.46,0,5.55,0,11.1,0,18.68-9.92.64-18.84,1.21-27.75,1.79-111.23,7.32-216.73-13.64-316.51-63.61C3.66,822.33-.07,817.55,0,807.22c.49-68.25-.13-136.5.33-204.75.67-98.76,74.98-176.15,173.73-178.53,77.37-1.86,154.85-1.65,232.23-.06,64.93,1.33,113.74,32.82,150.1,89.59Z"/>
  <path d="M715.4,111.2c111.51,1.67,200.52,92.82,198.82,203.62-1.69,110.39-93.22,199.83-202.85,198.21-111.31-1.64-200.79-93.37-198.77-203.77,2.03-110.89,92.97-199.71,202.79-198.06Z"/>
  <path d="M479.21,190.21c-.17,104.79-84.98,189.03-190.07,188.81-103.77-.22-188.83-85.18-188.98-188.77C100,84.7,185.12-.31,290.62,0c104.97.32,188.76,84.83,188.59,190.2Z"/>
  <path d="M1326.6,190.29c-.37,104.43-86.04,189.31-190.53,188.77-104.89-.54-188.84-85.34-188.52-190.43C947.88,83.07,1032.88-.56,1139.27,0c103.35.55,187.7,86.23,187.33,190.29Z"/>
</svg>