<?xml version="1.0" encoding="UTF-8"?>
<svg id="Layer_1" data-name="Layer 1" xmlns="http://www.w3.org/2000/svg" viewBox="0 0 363.81 413.67">
  <defs>
    <style>
      .cls-1 {
        fill: #231f20;
        stroke-width: 0px;
      }
    </style>
  </defs>
  <path class="cls-1" d="m363.81,256.4c-13.98,10.18-31.2,16.19-49.82,16.19-6.15,0-12.16-.65-17.93-1.91-5.61,21.36-25.04,37.11-48.17,37.11,11.12,0,20.6-19.27,24.22-46.27-25.62-14.59-42.89-42.13-42.89-73.71,0-46.81,37.96-84.77,84.77-84.77,18.62,0,35.84,6,49.82,16.19-21.19,15.41-34.96,40.39-34.96,68.58s13.77,53.19,34.96,68.58Z"/>
  <path class="cls-1" d="m232.81,413.67c-22.92,0-42.22-15.47-48.02-36.55-4.9.88-9.93,1.34-15.09,1.34-18.61,0-35.83-6-49.81-16.19-21.19-15.4-34.96-40.38-34.96-68.58s13.77-53.18,34.96-68.58c13.98-10.18,31.2-16.19,49.81-16.19,46.82,0,84.77,37.96,84.77,84.77,0,32.72-18.53,61.1-45.67,75.23,3.77,26.2,13.1,44.74,24.02,44.74Z"/>
  <path class="cls-1" d="m212.7,106.35c0,21.31-6.28,41.17-17.08,57.81-6.72,10.37-15.21,19.5-25.04,26.95-17.85,13.55-40.1,21.59-64.23,21.59C47.62,212.7,0,165.08,0,106.35S47.62,0,106.35,0s106.35,47.61,106.35,106.35Z"/>
  <path class="cls-1" d="m254.46,221.65v.29c-6.35,0-12.57-.39-18.58-1.15-27.72-3.45-51.27-14.5-65.3-29.68,9.83-7.45,18.32-16.58,25.04-26.95,2.73,23.34,17.79,42.93,38.51,52.13,6.31,2.82,13.15,4.66,20.33,5.36Z"/>
</svg>