<?xml version="1.0" encoding="UTF-8"?>
<svg id="Layer_1" xmlns="http://www.w3.org/2000/svg" viewBox="0 0 1132 980.66">
<defs><style>.cls-1{fill:inherit;}</style></defs><path class="cls-1" d="M397.09,928.16c0-10.35,.01-20.7,0-31.06-.01-5.05,.11-10.08-1.21-15.06-.6-2.28-.43-4.78-.44-7.18-.04-10.59,.01-21.19-.04-31.78-.02-3.64,.5-7.15,1.5-10.66,2.45-8.58,3.28-17.45,4.6-26.25,1.8-11.99,1.29-24.01,1.34-36.03,.1-25.04-.08-50.08,.08-75.11,.08-12.57-1.21-24.98-3.39-37.31-.8-4.54-1.14-9.07-1.14-13.64,.02-22.63,.1-45.26,.11-67.89,0-4.12,.15-8.18,1.94-12,.95-2.03,.94-4.22,.94-6.38,.02-10.35-.04-20.7-.02-31.06,0-2.7-.49-5.25-1.61-7.7-.81-1.76-1.55-3.6-1.37-5.55,.85-8.95-1.85-17.7-1.37-26.62,.13-2.41-.22-4.79-1.15-7.07-1.38-3.38-1.7-6.94-1.97-10.58-.35-4.78-1-9.57-1.94-14.28-1-5.04-1.31-10.11-.31-15.07,3.6-17.89,2.44-35.97,2-53.97-.18-7.16-.99-14.37-1.3-21.58-.13-3.07-1.59-6.08-1.72-9.15-.14-3.24,3.18-5.31,3.81-8.43,.33-1.64,.77-3.3,.82-4.96,.14-5.05,.09-10.11,.15-15.16,.04-3.49-1.39-6.55-2.72-9.64-.73-1.68-2.18-2.52-3.78-3.13-9.31-3.52-8.93-6.96-7.85-14.43,1.17-8.09,1.67-16.27,3.38-24.3,.6-2.83,.75-5.74,.36-8.62-.45-3.24-2.18-4.62-5.49-4.13-9.03,1.34-198.13,35.68-199.81,35.54-2.98-.26-4.64,.97-6.32,3.56-4.99,7.67-8.1,16.36-13.33,23.9-1.73,2.5-2.67,5.67-3.5,8.66-2.25,8.21-8.3,12.64-15.44,16-5.51,2.6-11.36,3.76-17.48,3.8-3.35,.02-6.73,.41-10.05,.88-5.61,.8-10.98,.2-16.27-1.9-12.45-4.93-23.54-11.81-32.93-21.49-4.54-4.68-8.59-9.74-12.9-14.59-.48-.54-.95-1.11-1.29-1.74-3.86-7.19-8.69-13.78-12.3-21.16-8.24-16.85-15.23-34.2-20.92-52.03-2.69-8.44-5.15-17.02-6.55-25.84-.67-4.25-1.06-8.58-3.33-12.46-1.12-1.9-.97-4.21-.94-6.37,.12-7.5-1.39-14.84-2.15-22.25-.37-3.59-.8-7.16-.8-10.78,0-8.43,0-16.85,0-25.28,0-3.85,.07-7.68,.91-11.49,.46-2.09,.59-4.32,.46-6.46-.44-7.27,1.12-14.37,1.56-21.56,.11-1.73,.51-3.36,1.61-4.7,2.26-2.77,2.8-6.02,2.99-9.45,.22-4.11,1.13-8.06,2.68-11.91,1.52-3.79,2.76-7.69,4.06-11.57,2.38-7.09,5.52-13.83,8.93-20.46,.88-1.71,1.86-3.38,2.61-5.14,5.92-13.81,16.53-22.75,29.87-28.86,.44-.2,.88-.53,1.33-.55,7.71-.28,14.84-3.77,22.67-3.7,9.16,.08,18.26,.28,27.26,2.18,1.18,.25,2.38,.62,3.55,.56,7.85-.41,32.43,20.06,33.2,24.89,.82,5.23,4.51,9.48,7.8,13.65,1.09,1.38,2.61,2.07,4.39,2.16,6.9,.35,904.83,65.94,905.35,65.99,5.48,.57,11.05,.34,16.58,.33,3.23,0,6.15-1.37,8.69-3.19,4.98-3.57,10.76-5.3,16.31-7.56,3.36-1.37,6.97-1.65,10.6-1.88,4.51-.28,7.33,1.8,9.09,5.67,.79,1.74,1.48,3.56,1.95,5.42,2.04,8.08,2.07,16.2,.04,24.29-.47,1.86-1.08,3.71-1.9,5.43-2.35,4.95-4.12,5.81-9.6,5.5-4.32-.25-8.65-.28-12.98-.36-2.69-.05-5.27-.29-7.44-2.17-1.7-1.47-3.82-1.92-6-2.21-1.9-.26-3.93-.38-5.62-1.16-3.05-1.41-5.74-1.76-8.84,0-1.56,.89-3.72,.79-5.63,.98-7.41,.71-567.51,97.61-579.22,100.31-3.06,.7-6.1,1.24-9.21,1.65-5.48,.72-10.94,1.65-16.39,2.6-4.84,.84-9,3.46-12.96,6.06-4.6,3.02-8.64,6.9-12.99,10.31-2.43,1.91-3.84,4.3-3.93,7.37-.15,5.09-1.44,9.98-2.46,14.92-.53,2.57-.67,5.24-.77,7.87-.14,3.61-.09,7.22-.12,10.83-.02,2.21-.18,4.53-1.73,6.12-2.68,2.75-2.55,6.03-2.55,9.41,.02,17.09,0,34.19,0,51.28,0,4.57-.37,9.1-.9,13.66-1.14,9.83-.83,19.7,1,29.47,.09,.47,.03,1.04,.28,1.4,2.76,4.04,2.48,7.99,.15,12.19-.74,1.34-.49,3.3-.5,4.97-.02,12.28-.15,24.56,.08,36.83,.11,5.76,.66,11.54,1.54,17.24,1.69,10.92,1.55,22.05,4.09,32.86,.54,2.29,.26,4.79,.26,7.2,.01,27.2,0,54.41,.02,81.61,0,5.05,.36,10.06,.93,15.1,.72,6.43,.43,12.98,.54,19.47,.07,4.09-.02,8.15,.95,12.2,.55,2.3,.41,4.78,.43,7.19,.05,7.94,.12,15.89,0,23.83-.08,5.34,.42,10.6,1.76,15.74,.86,3.31,1.14,6.62,1.14,10-.01,23.83-.08,47.67,.02,71.5,.03,7.26-.66,14.42-1.91,21.53-.76,4.3-1,8.59-.98,12.93,.02,4.09-.08,8.19,.04,12.28,.31,10.14-.57,20.17-2.32,30.16-.62,3.52-.49,7.19-.59,10.79-.22,7.92,.55,15.88-1.43,23.71-.4,1.6-.24,3.35-.24,5.04-.02,13.24-.02,26.48,0,39.72,0,3.37,.38,6.68,.98,10.03,1.27,7.14,.63,14.4,.55,21.61-.02,2.22-1.41,3.44-3.24,4.36-3.52,1.78-7.34,2.24-11.17,2.6-5.33,.5-10.55-.03-15.66-1.66-3.9-1.25-6.1-3.63-5.86-7.94,.11-1.92-.03-3.85-.03-5.78,0-11.32,0-22.63,0-33.95Z"/></svg>