<svg viewBox="0 0 359 516" xmlns="http://www.w3.org/2000/svg">
<style>
      .cls-1 {
        fill: inherit;
      }
    </style>
  </defs>
<path class="cls-1" d="M0.322675 110.669H358.839C357.614 119.963 356.459 128.916 355.24 137.862C345.688 208.103 336.124 278.35 326.559 348.59C319.4 401.145 312.222 453.693 305.05 506.241C304.102 513.181 301.071 515.981 294.208 515.987C217.601 516.006 140.993 516.006 64.3794 515.987C57.9169 515.987 54.6728 513.052 53.7893 506.518C46.1724 450.39 38.62 394.256 30.9773 338.135C23.9602 286.606 16.8464 235.083 9.79058 183.554C6.61096 160.424 3.47004 137.288 0.342024 114.158C0.206584 113.165 0.322675 112.14 0.322675 110.669ZM197.001 318.888H196.911C197.827 269.79 198.762 220.693 199.639 171.602C199.755 165.094 200.239 158.489 199.342 152.097C197.904 141.784 189.21 134.424 179.652 134.276C169.945 134.121 161.174 141.603 159.387 152.097C158.704 156.103 158.968 160.295 159.039 164.397C160.039 221.39 161.064 278.382 162.116 335.374C162.999 383.439 163.908 431.505 164.844 479.57C164.992 487.104 170.926 492.141 179.407 492.141C187.927 492.141 193.815 487.136 193.963 479.564C195.002 426.009 195.995 372.449 197.007 318.894L197.001 318.888ZM118.717 479.422C117.672 465.69 116.627 452.345 115.647 438.993C112.686 398.597 109.739 358.194 106.804 317.791C104.553 286.806 102.341 255.813 100.071 224.828C98.3942 201.885 96.756 178.942 94.8985 156.019C93.8731 143.364 81.9543 132.992 70.5 134.36C59.0908 135.714 52.867 145.325 54.3826 159.244C55.7951 172.208 57.2075 185.173 58.6264 198.137C62.954 237.715 67.2817 277.298 71.6093 316.875C75.5629 353.041 79.5035 389.212 83.47 425.377C85.4887 443.799 87.4687 462.233 89.6422 480.635C90.4806 487.723 98.4458 492.902 106.721 492.07C113.364 491.4 120.026 487.233 118.723 479.422H118.717ZM240.2 478.422C239.968 478.48 239.736 478.538 239.497 478.596C240.239 481.331 240.413 484.414 241.832 486.736C244.669 491.38 251.68 493.135 258.084 491.496C264.953 489.735 268.526 486.059 269.255 479.719C270.796 466.251 272.254 452.771 273.744 439.29C277.704 403.467 281.69 367.65 285.617 331.827C289.964 292.249 294.253 252.659 298.581 213.082C300.651 194.145 302.831 175.221 304.792 156.277C305.875 145.821 299.968 137.204 290.429 134.747C278.646 131.715 264.973 142.351 263.915 155.903C261.006 193.035 258.349 230.194 255.627 267.339C252.667 307.742 249.745 348.145 246.798 388.541C244.611 418.502 242.399 448.455 240.2 478.416V478.422Z"/>
<path class="cls-1" d="M0.15487 100.265C0.15487 93.112 -0.238552 86.4105 0.238713 79.767C1.0965 67.8603 12.022 58.0369 24.6244 57.2952C25.824 57.2242 27.03 57.2629 28.2297 57.2629C129.036 57.2629 229.842 57.2887 330.654 57.2178C339.593 57.2178 347.688 59.514 352.789 66.9379C355.833 71.3626 357.6 77.0709 358.516 82.4437C359.477 88.0939 358.729 94.0344 358.729 100.265H0.15487Z"/>
<path class="cls-1" d="M179.426 0.0641626C190.938 0.0641626 202.45 -0.0648374 213.956 0.0899626C237.097 0.399563 256.459 19.0723 257.658 41.8086C257.891 46.2075 256.775 48.4263 252.054 47.6587C251.718 47.6071 251.37 47.6587 251.022 47.6523C247.417 47.62 242.986 48.8391 240.458 47.175C238.265 45.7302 238.207 41.0217 237.226 37.7451C234.008 27.0123 224.914 19.5883 213.679 19.4787C190.835 19.2465 167.978 19.2013 145.134 19.4851C132.041 19.6464 121.76 29.6116 120.696 42.8212C120.387 46.6525 119.239 48.0135 115.485 47.7039C112.415 47.4459 109.281 47.4007 106.217 47.7103C101.889 48.1554 100.999 46.201 101.135 42.2988C101.902 19.698 121.341 0.522113 144.379 0.102863C156.059 -0.109987 167.739 0.0641626 179.426 0.0641626V0.0641626Z"/>
</svg>
