<?xml version="1.0" encoding="UTF-8"?>
<svg id="Layer_1" data-name="Layer 1" xmlns="http://www.w3.org/2000/svg" viewBox="0 0 359 522.35">
  <defs>
    <style>
      .cls-1 {
        fill: #000;
      }

      .cls-1, .cls-2 {
        stroke-width: 0px;
      }

      .cls-2 {
        fill: #fff;
      }
    </style>
  </defs>
  <path class="cls-1" d="M0,514.37c0-168.81,0-337.61,0-506.42.17-.52.38-1.04.5-1.57C1.13,3.54,2.67,1.52,5.54.71c.87-.25,1.8-.33,2.69-.49.38-.07.77-.14,1.15-.21,83.7,0,167.4,0,251.1,0,.58.12,1.16.25,1.73.36,2.99.59,5.57,1.98,7.86,3.95,5.3,4.54,10.61,9.07,15.91,13.62,17.33,14.87,34.65,29.74,51.98,44.61,6,5.15,12.01,10.28,18.02,15.41,1.21,1.04,2.25,2.23,2.67,3.78.28,1.03.33,2.14.33,3.21.01,24.04,0,48.08,0,72.12,0,118.24,0,236.47,0,354.71,0,1,.03,2.01-.06,3.01-.4,4.49-2.8,6.49-5.88,7.09-1.45.28-2.94.45-4.41.45-112.67.02-225.34.02-338,.02-.32,0-.65.03-.96,0-1.11-.12-2.24-.19-3.33-.42-3.32-.68-5.21-2.79-5.87-6.07-.1-.5-.31-.98-.47-1.47ZM16.54,261.31c0,3.73,0,7.47,0,11.2-.02,57.11-.03,114.22-.05,171.33,0,19.75,0,39.49,0,59.24,0,.52,0,1.05.08,1.56.12.83.5,1.19,1.33,1.29.52.06,1.04.05,1.56.05,17.21,0,34.43-.02,51.64-.02,78.56,0,157.13,0,235.69,0,.44,0,.88,0,1.32,0,10.79,0,21.59.02,32.38.02,1.87,0,2.27-.41,2.31-2.24,0-.32,0-.64,0-.96,0-3.05-.02-6.1-.02-9.15,0-44.87-.02-89.74-.02-134.61,0-39.33.01-78.66.02-118,0-48.56.01-97.13.02-145.69,0-.48,0-.97-.07-1.44-.1-.71-.5-1.19-1.25-1.25-.72-.06-1.44-.12-2.16-.11-5.7.02-11.39.08-17.09.08-18.82.01-37.64,0-56.45,0-.92,0-1.85-.05-2.76-.15-3.69-.4-6.14-2.54-6.92-6.16-.25-1.17-.35-2.39-.35-3.58-.02-15.49-.02-30.98-.01-46.48,0-5.58.06-11.16.09-16.73.02-2.69-.41-3.13-3.14-3.13-4.73,0-9.47.02-14.2.02-22.31.01-44.62.03-66.93.02-32.46,0-64.92-.02-97.38-.02-18.06,0-36.11-.01-54.17-.02-.64,0-1.29-.01-1.92.07-1.02.14-1.39.51-1.55,1.54-.08.51-.1,1.04-.1,1.56,0,7.46.04,14.93.04,22.39.02,20.07.04,40.13.05,60.2,0,53.06,0,106.12,0,159.17Z"/>
  <path class="cls-2" d="M9.39,0c-.38.07-.77.14-1.15.21-.9.16-1.82.25-2.69.49C2.67,1.52,1.13,3.54.5,6.38c-.12.53-.33,1.05-.5,1.57V0C3.13,0,6.26,0,9.39,0Z"/>
  <path class="cls-1" d="M75.73,157.77c-2.86-.36-4.88-2.63-4.86-5.37.02-2.7,1.96-4.9,4.78-5.34.63-.1,1.28-.11,1.92-.11,34.02,0,170.2,0,204.27,0,.8,0,1.61.04,2.39.2,2.5.54,4.28,2.89,4.19,5.46-.09,2.51-1.98,4.7-4.46,5.12-.55.1-1.12.16-1.67.16"/>
  <path class="cls-1" d="M281.53,288.39c.56,0,1.12,0,1.68.04,2.95.21,5.15,2.47,5.19,5.31.05,2.89-2.13,5.25-5.1,5.54-.44.04-.88.03-1.32.03-68.23,0-136.47,0-204.7,0-.72,0-1.45-.04-2.15-.19-2.58-.56-4.42-2.99-4.25-5.53.19-2.78,2.23-4.89,4.98-5.14.64-.06,1.28-.06,1.92-.06"/>
  <path class="cls-1" d="M79.13,375.43c-1,0-2.01.04-3.01,0-2.93-.14-5.22-2.51-5.26-5.39-.03-2.91,2.32-5.33,5.31-5.46.44-.02.88-.01,1.32-.01,68.11,0,136.23,0,204.34.01.91,0,1.86.03,2.73.28,2.5.71,4.08,3.18,3.81,5.72-.28,2.59-2.41,4.67-5.03,4.85-1,.07-2,.02-3.01.02"/>
  <path class="cls-1" d="M281.67,223.13c.44,0,.88-.01,1.32,0,3.07.14,5.37,2.42,5.41,5.35.04,2.97-2.29,5.36-5.38,5.54-.28.02-.56.01-.84.01-68.01,0-136.02,0-204.03-.01-1,0-2.02,0-2.99-.19-2.59-.51-4.44-2.95-4.29-5.49.17-2.76,2.23-4.92,4.96-5.17.6-.05,1.2-.05,1.8-.05"/>
</svg>