<?xml version="1.0" encoding="UTF-8"?>
    <svg id="Layer_1" xmlns="http://www.w3.org/2000/svg" viewBox="0 0 800 564.45">
    <defs>
        <style>.cls-1{fill:inherit;}</style>
    </defs>
    <path class="cls-1" d="M293.4,218.47h-50.62C271.68,93.31,383.83,0,517.77,0c155.87,0,282.23,126.36,282.23,282.23s-126.36,282.23-282.23,282.23c-133.94,0-246.09-93.31-274.99-218.47h50.62c27.73,97.8,117.69,169.44,224.37,169.44,128.79,0,233.2-104.4,233.2-233.2s-104.4-233.2-233.2-233.2c-106.68,0-196.64,71.64-224.37,169.44Z"/>
    <g>
    <path class="cls-1" d="M520.04,238.69l-46.02-23.39-42.29-21.48-46.02-23.39-39.42-20.03v52.81l23.32,12.09,45.13,23.39,41.51,21.5,41.11,21.31-1.09,.56-41.48,21.5-42.29,21.91-41.48,21.5-24.73,12.82v52.98l41.11-20.94,42.18-21.48,45.93-23.39,42.22-21.5,40.23-20.48v-47.04l-37.92-19.27h0Z"/>
    <rect class="cls-1" x="0" y="257.95" width="557.96" height="46.01"/>
    </g>
</svg>