<?xml version="1.0" encoding="UTF-8"?>
<svg id="Layer_1" data-name="Layer 1" xmlns="http://www.w3.org/2000/svg" viewBox="0 0 800 564.45">
  <defs>
    <style>
      .cls-1 {
        fill: #838b6a;
        stroke-width: 0px;
      }
    </style>
  </defs>
  <path class="cls-1" d="m293.4,218.47h-50.62C271.68,93.31,383.83,0,517.77,0c155.87,0,282.23,126.36,282.23,282.23s-126.36,282.23-282.23,282.23c-133.94,0-246.09-93.31-274.99-218.47h50.62c27.73,97.8,117.69,169.44,224.37,169.44,128.79,0,233.2-104.4,233.2-233.2s-104.4-233.2-233.2-233.2c-106.68,0-196.64,71.64-224.37,169.44Z"/>
  <g>
    <path class="cls-1" d="m37.93,324.5l46.02,23.39,42.29,21.48,46.02,23.39,39.42,20.03v-52.81s-23.32-12.09-23.32-12.09l-45.13-23.39-41.51-21.5-41.11-21.31,1.09-.56,41.48-21.5,42.29-21.91,41.48-21.5,24.73-12.82v-52.98s-41.11,20.94-41.11,20.94l-42.18,21.48-45.93,23.39-42.22,21.5L0,258.19v47.04s37.92,19.27,37.92,19.27h0Z"/>
    <rect class="cls-1" x="0" y="259.22" width="557.96" height="46.01" transform="translate(557.96 564.45) rotate(-180)"/>
  </g>
</svg>