<?xml version="1.0" encoding="UTF-8"?>
<svg id="Layer_1" data-name="Layer 1" xmlns="http://www.w3.org/2000/svg" viewBox="0 0 325.29 677.98">
  <defs>
    <style>
      .cls-1 {
        stroke-width: 0px;
      }
    </style>
  </defs>
  <path class="cls-1" d="m281.59,677.98c-13.41,0-25.36-2.17-36.52-6.53-9.28-3.63-12.26-8.88-9.65-17.02,1.79-5.57,6.27-6.85,10.61-8.09.79-.22,1.59-.45,2.39-.71l.33-10.49c.37-12.08.76-24.56,1.23-36.89.04-1.17-.45-1.97-1.07-3-.28-.46-.56-.93-.82-1.47-.08-.17-.18-.36-.29-.56-.78-1.49-2.62-4.98.7-7,5.61-3.43,5.27-8.58,4.9-14.04-.12-1.71-.23-3.49-.15-5.16.95-17.73,1.36-35.79,1.77-53.26.22-9.39.44-19.11.75-28.66,1.04-32.56,2.25-65.67,3.43-97.68l.2-5.33c.33-8.97.7-19.13,1.56-29.08.17-2.04-.75-3.24-2.04-4.91-.36-.47-.74-.96-1.09-1.47-.44-.63-.32-1.5.26-2,2-1.69,3.04-3.35,3.09-4.91.06-1.58-.88-3.31-2.76-5.16-1.76-1.72-1.21-3.8-.81-5.32.38-1.45.49-2.1-.03-2.69-.27-.31-.41-.72-.38-1.13.03-.41.24-.79.56-1.05,3.76-2.99,4.33-6.45,1.83-11.21-.98-1.87.05-3.4.73-4.42.08-.12.17-.25.25-.37-.04-.05-.09-.11-.13-.15-10.5-.79-11.29-2.95-10.66-13.24.54-8.76,1.15-18.69-1.38-27.76-4.31-15.5-16.97-26.54-28.8-25.12-7.15.85-13.23,3.24-18.06,7.09-13.43,10.73-29.68,15.39-46.99,13.47-15.8-1.75-31.3-8.93-43.66-20.22-.47-.43-.95-.86-1.42-1.29-3.39-3.05-6.89-6.21-9.25-10.59-1.22-2.28-3.13-3.29-5.67-3.01-3.72.4-6,.34-7.41-1.14-1.36-1.43-1.43-3.66-.89-7.6-5.74-1.04-11.68-.83-17.43-.62-2.1.07-4.26.15-6.4.17-5.79.04-8.99-1.26-10.5-8.52-1.59-7.62-3.83-15.27-5.99-22.67-1.79-6.12-3.63-12.44-5.12-18.76-.85-3.61-2.06-3.93-5.29-3.9-6.94.06-14.03.05-20.88.04-2.8,0-5.61,0-8.43,0-.74,0-1.37-.54-1.48-1.27-1.63-10.48-1.17-20.77-.73-30.72.29-6.41.58-13.04.28-19.5-.02-.49-.04-.98-.06-1.47-.12-3.16-.23-6.15-1.41-8.84-1.79-4.06-1.82-7.8-.12-12.13,1.69-4.29,1.54-8.24-.43-11.73-3.05-5.4-3-10.27.18-16.83,2.28-4.69,2.94-10.13,3.64-15.9.3-2.45.61-4.98,1.05-7.43.02-.13.01-.27.01-.41,0-.92-.02-2.64,2.44-4.1.34-.2.74-.26,1.12-.17.85.21,2.03,0,3.27-.22,3.28-.59,7.76-1.39,10.91,4.83.4.17,2.46.72,10.35-.57,3.08-.5,6.08-.53,8.98-.56,10.15-.1,20.48-.14,30.46-.19,19.8-.09,40.27-.19,60.38-.65,41.86-.97,76.07-1.42,107.63-1.39h.06c3.75,0,7.58-.21,11.28-.42,1.77-.1,3.54-.2,5.31-.27.03,0,.05,0,.08,0-.02-.45-.04-.89-.06-1.34-.03-.83.61-1.53,1.44-1.56.82-.03,1.53.61,1.56,1.44,1.42,33.67,2.07,69.88,2.02,113.95,0,.78.31,1.53.66,2.4.13.33.27.67.4,1.03.12-14.25.26-28.91.5-43.35.13-7.99.43-16.11.71-23.96.24-6.66.49-13.54.64-20.3.02-.75.05-1.5.08-2.25.17-4.07.33-7.91-1.89-11.48-2.63-4.23.98-7.63,2.92-9.46l.25-.24c3.13-2.96,5.2-4.92,5.27-6.29.07-1.38-1.76-3.55-4.75-6.98-3.24-3.71-4.6-8.21-3.83-12.67.82-4.71,3.87-8.75,8.59-11.39,5.07-2.83,10.94-2.9,15.7-.17,4.59,2.63,7.39,7.51,7.5,13.06.08,4.27.2,10.13-6.32,13.89-1.61.93-2.5,2.17-2.56,3.59-.08,1.78,1.15,3.73,3.28,5.23,4.92,3.44,5.89,6.54,4.01,12.74-1.7,5.61-1.23,12.16-.78,18.49.13,1.81.26,3.69.34,5.51.75,16.77,1,33.82,1.24,50.31.08,5.25.15,10.5.25,15.75.14,8.25.31,16.5.47,24.75.49,24.7.99,50.24.99,75.38,0,13.44.43,27.11.85,40.34.19,5.89.37,11.77.52,17.66v.62c.04,1.7.06,3.04,1.07,4.41l.29.39c2.39,3.25,5.67,7.7,1.34,13.07-.36.45-.41,2.48.02,3.05,4.76,6.28,4.53,12.71-.68,19.12,2.63,3.04,5.71,7.58.61,12.73-.11.37.02,1.45.1,2.11.07.61.15,1.24.16,1.83.14,9.36.26,18.72.38,28.08.27,21.94.56,44.62,1.17,66.92l.13,4.56c.54,19.67,1.11,40.01,1.29,60.03.09,10.17.36,20.51.61,30.52.27,10.68.55,21.72.63,32.59.02,3,1.44,4.37,3.41,6.26l.67.65c2.07,2.04,5.53,5.45.89,10.24-1.29,1.34-1.27,4.36-1.24,6.78.1,11.16.09,22.44.07,33.36,0,3.54,0,7.06,0,10.57,1.4.9,2.83,1.41,4.33,1.94,1.52.54,3.09,1.1,4.55,2.09,3.76,2.56,6.09,6.78,6.08,11.04-.01,3.65-1.75,6.9-4.78,8.92-3.81,2.55-6.98,3.99-9.98,4.54-10.42,1.91-20.01,2.87-28.94,2.87Zm-20.54-332.01c.08.1.15.2.23.29,1.37,1.78,2.93,3.8,2.65,7-.85,9.87-1.23,20-1.55,28.93l-.2,5.33c-1.18,32.01-2.39,65.11-3.43,97.67-.3,9.54-.53,19.25-.74,28.63-.4,17.49-.82,35.58-1.77,53.35-.08,1.49.03,3.1.14,4.8.37,5.54.84,12.43-6.33,16.8-.62.38-.79.8.39,3.05.12.24.24.46.34.66.2.41.43.8.68,1.21.74,1.22,1.58,2.6,1.5,4.67-.47,12.32-.85,24.8-1.23,36.87l-.36,11.53c-.02.62-.41,1.16-.99,1.36-1.19.43-2.39.77-3.54,1.1-4.07,1.16-7.28,2.07-8.57,6.11-1.8,5.61-1.1,9.79,7.89,13.31,18.05,7.07,38.33,8.18,63.83,3.5,2.55-.47,5.45-1.8,8.86-4.08,2.21-1.48,3.43-3.76,3.44-6.44.01-3.27-1.81-6.54-4.76-8.54-1.14-.77-2.46-1.24-3.87-1.74-1.77-.63-3.77-1.34-5.73-2.78-.38-.28-.61-.73-.61-1.21,0-3.77,0-7.56,0-11.36.01-10.91.03-22.18-.07-33.33-.03-2.97-.06-6.67,2.09-8.89,2.37-2.45,1.74-3.48-.84-6.02l-.65-.63c-2.11-2.04-4.3-4.14-4.33-8.4-.08-10.84-.36-21.87-.63-32.54-.25-10.02-.51-20.37-.61-30.57-.18-20-.75-40.32-1.29-59.97l-.13-4.56c-.61-22.32-.9-45.02-1.17-66.96-.12-9.36-.23-18.72-.38-28.08,0-.43-.07-.96-.14-1.51-.2-1.68-.41-3.42.69-4.53,3.24-3.23,2.2-5.49-1.53-9.65-.51-.57-.51-1.43,0-2,5.15-5.76,5.58-10.8,1.39-16.33-1.25-1.65-1.23-5.17.03-6.74,2.74-3.4,1.25-5.8-1.42-9.42l-.29-.39c-1.57-2.14-1.6-4.26-1.63-6.13v-.59c-.16-5.88-.35-11.76-.53-17.64-.42-13.25-.85-26.95-.85-40.43,0-25.11-.5-50.64-.99-75.32-.16-8.25-.32-16.5-.47-24.75-.09-5.25-.17-10.5-.25-15.75-.24-16.47-.49-33.49-1.23-50.22-.08-1.78-.21-3.63-.34-5.43-.47-6.6-.96-13.42.9-19.57,1.59-5.27.73-6.9-2.86-9.41-3.02-2.12-4.68-4.96-4.56-7.82.11-2.46,1.55-4.61,4.06-6.06,4.62-2.67,4.91-6.34,4.82-11.23-.09-4.55-2.27-8.38-6-10.51-3.83-2.2-8.6-2.13-12.74.18-3.92,2.19-6.43,5.48-7.09,9.28-.62,3.55.5,7.17,3.13,10.18,7.48,8.57,7.43,9.71-.72,17.42l-.26.24c-2.55,2.4-3.57,3.87-2.43,5.69,2.71,4.36,2.52,8.85,2.34,13.2-.03.73-.06,1.46-.08,2.19-.15,6.79-.4,13.68-.64,20.35-.28,7.83-.58,15.93-.71,23.9-.25,15.36-.39,30.98-.52,46.09-.08,9.06-.16,18.11-.26,27.17-.03,2.84,0,5.73.03,8.53.09,7.97.18,16.21-1.18,24.27-.1.59-.54,1.06-1.11,1.21-7.12,1.79-13.94,1.75-20.25,1.44-.78-.04-1.4-.66-1.42-1.44-.23-6.14-.16-12.26-.09-18.17.11-9.41.22-18.29-.8-27.3-.4-3.51.17-5.95,1.74-7.46,1.55-1.49,3.93-1.97,7.29-1.47,4.89.73,7.95-.94,10.21-5.61.66-1.37.33-2.31-.3-3.86-.42-1.02-.89-2.17-.89-3.54.04-42.15-.55-77.09-1.84-109.49-.02,0-.05,0-.07,0-1.76.08-3.52.17-5.27.27-3.75.21-7.62.42-11.45.42-.67,0-1.39,0-2.09,0-30.99,0-64.59.44-105.53,1.39-20.15.47-40.63.56-60.44.66-9.98.05-20.3.1-30.45.19-2.79.03-5.67.05-8.52.52-10.58,1.72-12.71.59-13.44-.89-2.15-4.38-4.64-3.94-7.77-3.37-1.27.23-2.57.46-3.84.31-.54.4-.54.68-.53,1.21,0,.29,0,.61-.06.97-.43,2.36-.73,4.85-1.02,7.26-.7,5.76-1.43,11.71-3.92,16.85-2.76,5.69-2.84,9.5-.27,14.04,2.41,4.26,2.62,9.2.61,14.3-1.42,3.62-1.4,6.47.07,9.82,1.42,3.22,1.54,6.63,1.67,9.94.02.48.04.96.06,1.45.3,6.59,0,13.29-.28,19.77-.42,9.4-.85,19.1.51,28.86,2.39,0,4.77,0,7.14,0,6.85.01,13.93.02,20.85-.04,4.41-.02,6.99.94,8.23,6.21,1.47,6.24,3.31,12.52,5.08,18.6,2.18,7.45,4.42,15.16,6.04,22.89,1.12,5.37,2.74,6.17,7.54,6.13,2.09-.02,4.24-.09,6.31-.17,6.4-.23,13.01-.46,19.55.96.77.17,1.28.91,1.16,1.7-.31,1.99-.88,5.68-.12,6.48.66.69,3.64.37,4.92.23,3.77-.41,6.83,1.21,8.64,4.57,2.11,3.92,5.27,6.77,8.61,9.78.48.43.96.87,1.44,1.3,21.34,19.51,57.59,29.9,86.75,6.62,5.27-4.21,11.86-6.81,19.58-7.73,13.25-1.58,27.34,10.41,32.05,27.3,2.66,9.55,2.03,19.75,1.48,28.74-.57,9.28-.58,9.46,8.2,10.08,1.01.07,1.63.85,2.08,1.42.12.15.23.3.36.43.4.39.54.98.37,1.51-.22.7-.62,1.29-.97,1.81-.62.92-.68,1.12-.56,1.35,2.93,5.59,2.38,10.32-1.62,14.09.58,1.47.19,2.97-.12,4.14-.39,1.48-.44,1.98,0,2.41,2.52,2.46,3.75,4.95,3.67,7.41-.07,2.11-1.12,4.17-3.11,6.15Zm-.74-37.87h0Zm-13.14-95.09c5.39.22,11.14.16,17.04-1.19,1.15-7.49,1.06-15.25.98-22.77-.03-2.82-.06-5.73-.03-8.6.09-8.31.17-16.62.24-24.94-.04.1-.09.19-.13.29-2.81,5.81-7.18,8.19-13.35,7.26-2.34-.35-3.95-.13-4.77.66-.84.81-1.12,2.48-.84,4.97,1.04,9.19.93,18.59.82,27.67-.06,5.43-.13,11.03.04,16.64Z"/>
  <path class="cls-1" d="m162.68,254.18c-2.68,0-5.39-.21-8.15-.63-12.83-1.94-30.97-6.68-40.4-25.24-.17-.33-.2-.69-.12-1.02-.04-.02-.07-.03-.11-.05-.56-.27-.79-.36-1.04-.31-.81.17-1.6-.36-1.77-1.17-.17-.81.36-1.6,1.17-1.77,1.25-.26,2.18.18,2.93.54.64.3,1.04.48,1.61.42,8.38-.87,16.74-.91,24.84-.95,15.03-.08,30.3-.06,45.08-.04h14.54c.37.02.78,0,1.17,0,2.26-.06,4.82-.13,7.29,1.71.33.24.54.61.59,1.01.05.4-.06.81-.31,1.13-.52.66-1.02,1.31-1.5,1.96-1.07,1.42-2.08,2.75-3.28,3.99-13.35,13.71-27.33,20.45-42.52,20.45Zm-45.38-26.28c6.8,12.6,18.81,19.82,37.68,22.68,17.37,2.63,33.09-3.57,48.08-18.95,1.07-1.1,2.02-2.36,3.03-3.7.15-.21.31-.41.47-.62-1.25-.45-2.58-.42-4.06-.38-.42.01-.84.05-1.26.02h-14.54c-14.77-.03-30.04-.05-45.06.03-7.96.04-16.18.08-24.34.92Z"/>
  <path class="cls-1" d="m68.46,109.49c-5.04,0-10.09-1.33-15.04-5.47-.1-.09-.36-.2-.59-.29-.19-.08-.38-.16-.56-.25-.51-.25-.83-.77-.83-1.34,0-11.43.67-12.13,12.02-12.43h.34c2.34-.07,4.65-.42,7.1-.78,1.44-.22,2.93-.44,4.41-.6,11.81-1.25,23.63-2.48,35.44-3.71l13.26-1.38c.18-.02.35,0,.52.04.05-.01.11-.02.16-.03,2.83-.38,4.96.07,6.5,1.38,1.59,1.35,2.42,3.5,2.52,6.58.18,5.32-1.76,7.56-7.15,8.26-7.52.97-15.13,2.37-22.49,3.72-4.77.88-9.69,1.78-14.56,2.57-2.45.39-4.98,1-7.43,1.58-4.49,1.07-9.06,2.16-13.63,2.16Zm-14.02-8.33c.3.14.61.31.91.56,8.28,6.92,16.91,4.87,26.05,2.69,2.5-.6,5.09-1.21,7.65-1.62,4.84-.78,9.75-1.68,14.5-2.56,7.4-1.36,15.05-2.77,22.65-3.75,4.05-.52,4.66-1.69,4.54-5.18-.07-2.15-.56-3.63-1.46-4.39-.85-.72-2.25-.95-4.17-.7-.19.03-.38.01-.56-.03-.07.02-.14.03-.21.04l-13.27,1.38c-11.81,1.23-23.63,2.46-35.44,3.71-1.42.15-2.88.37-4.29.58-2.43.36-4.94.74-7.47.81h-.34c-4.56.13-7.31.2-8.2,1.13-.83.86-.9,3.32-.9,7.34Z"/>
  <path class="cls-1" d="m262.66,280.68c-1.11,0-2.04-.26-2.83-.79-2.04-1.36-2.31-4-2.5-5.94l-.05-.48c-2.61-24.07-13.54-36.55-34.42-39.28-2.45-.32-4.33-1.93-4.79-4.11-.44-2.1.53-4.05,2.67-5.34,1.17-.71,2.33-1.18,3.46-1.64.39-.16.79-.32,1.18-.49.31-.14.65-.16.96-.08.16-.04.32-.05.48-.04l38.53,3.11c.78.06,1.38.71,1.38,1.5v51.63c0,.66-.43,1.24-1.07,1.44-1.11.34-2.1.5-2.99.5Zm-36.3-55.22c-.35.15-.69.29-1.04.43-1.06.43-2.07.84-3.03,1.42-1.55.94-1.35,1.86-1.29,2.16.2.93,1.06,1.6,2.25,1.76,22.17,2.89,34.27,16.61,37.01,41.93l.05.5c.14,1.41.32,3.17,1.18,3.74.46.31,1.22.36,2.22.17v-49.08l-37.15-3c-.07,0-.14-.02-.21-.03Z"/>
</svg>