<?xml version="1.0" encoding="UTF-8"?>
<svg id="Layer_1" data-name="Layer 1" xmlns="http://www.w3.org/2000/svg" viewBox="0 0 342.89 717.36">
  <defs>
    <style>
      .cls-1 {
        stroke-width: 0px;
      }
    </style>
  </defs>
  <path class="cls-1" d="m336.46,687.38c-1.52-1.03-3.17-1.62-4.77-2.19-1.53-.55-3.11-1.1-4.61-2.08,0-3.82,0-7.63.02-11.47.02-11.45.03-23.28-.08-34.98-.03-2.71-.06-5.78,1.32-7.2,4.84-5.01,1.36-8.46-.93-10.74l-.69-.67c-2.02-1.93-3.6-3.46-3.63-6.67-.08-11.57-.38-23.34-.66-34.72-.26-10.48-.54-21.31-.64-31.96-.18-21.37-.78-43.07-1.36-64.07l-.12-4.17c-.64-23.67-.95-47.73-1.24-71.01-.12-9.79-.25-19.57-.4-29.37-.02-.58-.09-1.24-.17-1.92-.09-.74-.23-1.96-.15-2.21,5.46-5.46,2.18-10.27-.6-13.47,5.49-6.77,5.73-13.55.74-20.17-.44-.58-.46-2.76-.03-3.28,4.54-5.66,1.1-10.35-1.41-13.76l-.29-.4c-1.07-1.46-1.1-2.88-1.13-4.69l-.02-.66c-.15-6.18-.35-12.37-.55-18.55-.43-14.01-.89-28.49-.89-42.72,0-26.49-.52-53.39-1.04-79.41-.17-8.78-.34-17.58-.49-26.38-.11-5.64-.18-11.3-.26-16.95-.26-17.31-.52-35.21-1.3-52.82-.09-1.93-.23-3.88-.37-5.84-.48-6.68-.97-13.6.83-19.54,1.96-6.51.93-9.78-4.23-13.4-2.25-1.59-3.56-3.66-3.46-5.56.06-1.52,1-2.85,2.71-3.83,6.87-3.99,6.73-10.15,6.64-14.64-.11-5.84-3.07-10.99-7.89-13.76-5-2.87-11.16-2.79-16.49.2-4.97,2.77-8.17,7.04-9.03,12-.81,4.69.61,9.43,4.03,13.34,3.16,3.63,5.09,5.93,5.01,7.4-.08,1.49-2.25,3.56-5.56,6.68l-.25.25c-2.04,1.92-5.84,5.5-3.1,9.93,2.35,3.77,2.18,7.83,1.99,12.12-.03.81-.06,1.61-.08,2.42-.15,7.22-.43,14.56-.67,21.67-.31,8.22-.61,16.71-.75,25.08-.26,15.34-.4,30.92-.54,46.08-.15-.48-.34-.92-.51-1.33-.38-.93-.71-1.73-.71-2.56.05-46.26-.63-84.52-2.13-120.39-.03-.71-.52-1.29-1.21-1.44-.67-.14-1.38.2-1.69.81l-1.13,2.27c-1.53.08-3.07.15-4.6.25-3.95.21-8.06.44-12.06.44-33.26-.02-69.31.43-113.46,1.46-21.15.49-42.66.6-63.46.71-10.78.05-21.55.09-32.33.2-3.07.03-6.24.06-9.46.58-8.41,1.38-10.55.77-10.96.6-3.3-6.56-8-5.7-11.45-5.09-1.32.23-2.56.46-3.46.23-.38-.09-.8-.03-1.15.17-2.38,1.41-2.58,2.96-2.56,4.29,0,.17.02.31,0,.44-.48,2.59-.8,5.27-1.12,7.88-.74,6.09-1.44,11.83-3.85,16.78-3.34,6.9-3.4,12.03-.18,17.72,2.08,3.72,2.24,7.91.46,12.45-1.79,4.57-1.75,8.51.12,12.77,1.26,2.88,1.38,6.07,1.49,9.46l.06,1.47c.32,6.82,0,13.83-.29,20.6-.46,10.51-.95,21.37.77,32.43.12.75.77,1.3,1.52,1.3l8.94.02c7.2.02,14.67.02,21.96-.05,3.43-.03,4.71.31,5.63,4.17,1.56,6.65,3.51,13.32,5.38,19.77,2.28,7.83,4.63,15.93,6.32,23.99,1.61,7.63,4.97,8.98,11.04,8.95,2.25-.02,4.52-.09,6.79-.18,6.07-.21,12.32-.43,18.38.67-.58,4.18-.51,6.55.92,8.03,1.47,1.55,3.88,1.61,7.77,1.18,2.7-.29,4.74.8,6.04,3.22,2.45,4.6,6.12,7.91,9.67,11.11.52.48,1.04.95,1.55,1.43,23.45,21.47,63.35,32.85,95.51,7.11,5.1-4.08,11.53-6.59,19.07-7.51,12.31-1.47,25.95,10.47,30.43,26.59,2.67,9.6,2.01,20.08,1.44,29.34-.67,11.01.09,13.11,11.22,13.93.05.06.11.14.17.21-.08.14-.17.28-.28.41-.71,1.06-1.79,2.65-.78,4.61,2.67,5.06,2.05,8.74-1.93,11.93-.34.26-.54.64-.58,1.06-.03.43.11.84.38,1.15.57.64.46,1.33.05,2.9-.41,1.59-.98,3.77.84,5.58,2.01,1.95,2.99,3.8,2.94,5.47-.06,1.67-1.16,3.43-3.28,5.24-.6.51-.71,1.39-.26,2.04.37.54.75,1.04,1.13,1.55,1.36,1.76,2.35,3.03,2.16,5.21-.89,10.21-1.27,20.62-1.66,30.72l-.57,15.54c-1.1,30.56-2.27,62.19-3.25,93.3-.32,10.12-.57,20.42-.8,30.38-.41,18.42-.86,37.48-1.85,56.18-.09,1.76.03,3.63.15,5.44.38,5.78.75,11.25-5.18,14.88-3.45,2.1-1.55,5.75-.74,7.3.12.21.23.43.32.61.26.55.55,1.04.86,1.55.66,1.09,1.18,1.96,1.13,3.2-.48,12.29-.86,24.71-1.23,36.73-.14,4.49-.28,8.97-.41,13.4-.11.06-.2.12-.29.17-.25.15-.54.31-.63.34-5.15.66-12.17,2.64-13.64,12.02-1.46,9.26,6.15,12.68,10.22,14.52,9.46,4.28,19.73,5.66,29.66,6.99,1.99.26,3.97.52,5.95.81,1.81.26,3.62.38,5.41.38,5.59,0,11.08-1.1,16.45-2.16,3.51-.71,7.14-1.43,10.71-1.82,4.28-.46,7.8-2.58,10.91-4.45l1.06-.63c3.17-1.85,5.07-5.07,5.2-8.83v-.41c0-4.51-2.44-8.95-6.44-11.68Zm-58.43-394.13c-1.09.21-1.92.15-2.42-.18-.93-.61-1.12-2.48-1.27-4l-.06-.52c-2.87-26.72-15.62-41.19-38.96-44.24-1.29-.17-2.21-.9-2.41-1.92-.08-.32-.28-1.32,1.38-2.33,1.04-.63,2.15-1.07,3.3-1.55.31-.12.61-.25.92-.37h.32l39.21,3.16v51.95ZM109.28,105.88c-5.06.92-10.28,1.89-15.44,2.71-2.7.44-5.43,1.09-8.08,1.72-9.64,2.31-18.75,4.49-27.48-2.84-.32-.28-.66-.46-.98-.61,0-4.28.06-6.9.97-7.82.95-1,3.86-1.07,8.68-1.2l.37-.02c2.64-.08,5.27-.46,7.82-.84,1.5-.23,3.05-.46,4.57-.63,11.51-1.23,23.01-2.42,34.52-3.62l16.74-1.75h.69c.06,0,.14,0,.2-.02,2.04-.28,3.53-.02,4.43.75.97.81,1.49,2.39,1.56,4.68.12,3.72-.52,4.98-4.83,5.53-7.96,1.03-15.97,2.51-23.73,3.94Zm107.97,134.93c-1.06,1.41-2.07,2.74-3.19,3.89h-.02c-15.8,16.26-32.39,22.84-50.72,20.05-19.94-3.03-32.63-10.7-39.79-24.06,8.66-.89,17.73-.93,25.74-.98,14.79-.08,29.83-.06,44.37-.05,6.15.02,12.31.02,18.45.02.46,0,.92,0,1.38-.02,1.56-.05,2.99-.08,4.32.43-.18.25-.37.48-.55.72Zm62.32-41.2c.09,7.97.18,16.22-1.04,24.17-6.27,1.46-12.35,1.52-18.04,1.27-.18-5.96-.12-11.91-.05-17.69.11-9.58.21-19.48-.87-29.17-.29-2.64,0-4.41.9-5.29.87-.84,2.58-1.07,5.06-.71,6.48.95,11.08-1.55,14.04-7.65.08-.18.15-.35.23-.52-.08,8.86-.15,17.72-.26,26.58-.03,2.99,0,5.99.03,9Z"/>
</svg>