<?xml version="1.0" encoding="UTF-8"?>
<svg id="Layer_1" data-name="Layer 1" xmlns="http://www.w3.org/2000/svg" viewBox="0 0 1168.4 1026.59">
  <defs>
    <style>
      .cls-1 {
        stroke-width: 0px;
      }
    </style>
  </defs>
  <path class="cls-1" d="m1115.73,1026.59h-.08c-209.89-.28-423.28-.25-629.65-.23-57.05,0-114.09.01-171.14.01-87.36,0-174.72,0-262.08,0-26.69-.01-43.38-12.46-51-38.08-1.34-4.45-1.52-9.34-1.52-13.54-.02-70.01-.02-140.02-.02-210.04,0-163.94,0-333.45-.24-500.18-.02-14.21,5.81-28.01,15.97-37.86,9.94-9.63,22.9-14.67,36.51-14.23,13.85.45,27.53.24,42.68-.06.77-.02,2.05-.77,3.19-1.44.2-.12.4-.23.6-.35l-.17-3.93h3.14c.9,0,1.8.02,2.69.04,1.99.04,3.88.09,5.7-.1.91-.09,1.8.02,2.59.12.28.04.65.08.95.1.01-.14.02-.31.02-.52,0-3.85,6.01-3.95,6.07-3.95,6.27-.08,12.66-.06,18.84-.04h1.52c.19,0,.36,0,.55,0,1.49-.03,3.72-.08,4.81,1.88.58,1.07,1.03,1.84,1.39,2.38.22-.55.48-1.3.76-2.31.63-2.21,3.21-3.8,6.04-3.73,2.2.06,4.79,1.27,6.04,4.4.16-.18.33-.36.49-.54,1.09-1.21,2.44-2.72,4.45-3.16,2.73-.58,5.5,2.14,6.52,4.19,2.17-2.31,7.25-2.98,8.29-2.86l1.77.21.73,1.68c1.24,2.89,2.42,2.89,6.3,2.43,1.4-.17,2.97-.35,4.6-.24.13-2.6.88-4.63,2.24-6.15,2.95-3.28,7.72-3.07,11.93-2.89l.56.02c6.24.26,11.85.26,17.13,0,4.28-.22,8.68-.19,11.13,2.88,1.25,1.56,1.73,3.57,1.45,6.11.77.03,1.65-.06,2.52-.14,2.5-.23,5.62-.52,7.98,1.6,1.17,1.05,1.94,2.51,2.33,4.42,5.38.01,10.76.05,15.99.1,16.96.13,32.98.26,49.25-.57,4.56-.23,10.58-6.41,13.46-9.38,8.59-8.83,14.42-15.97,18.93-23.17,5.02-8.02,11.81-7.92,18.43-7.64v-1.84c0-3.21.01-6.34,0-9.48-.03-40.94,10.53-77.41,31.4-108.4,18.72-27.79,45.25-44.56,76.73-48.5,21.98-2.74,44.54-2.99,66.36-3.24l5.1-.06c32.54-.38,71.1-.64,110.45.36,23.48.59,48.34,2.18,71.39,14.31,21.35,11.24,38.24,27.99,50.2,49.78,11.74,21.36,18.89,45.55,21.23,71.88.73,8.14,1.45,16.29,2.17,24.48l.95,10.81c5.5-.84,11.86.1,17.51,7.95,7.07,9.81,15.87,18.76,24.37,27.42l1.2,1.22c2.05,2.09,5.72,3.71,8.53,3.76,16.39.32,32.43.28,49.42.24,4.91-.01,9.84-.02,14.79-.03l1.41-5.18,1.82-.36c1.79-.36,3.64-.28,5.43-.21,1.5.06,4,.17,4.46-.38.03-.04.72-.91-.12-4.72l-.8-3.65h40.6l.84,1.63c.58,1.13,1.17,2.43,1.75,3.69.38.83.88,1.93,1.29,2.74,1.45.01,2.86.34,4.15.64,3.64.84,4.3.8,5.29-1.65,1.1-2.64,3.7-2.08,7.31-1.31.95.2,1.93.41,2.65.52.47.07,1.04.19,1.61.32.16.03.35.08.54.12,1.04-1.31,2.76-2.91,5.09-2.99,2.54-.08,4.44,1.6,5.77,3.21.36-.04.76-.13.95-.22.99-.58,1.97-1.49,3.21-2.65.62-.58,1.29-1.2,2.02-1.84l3.53-3.08,1.32,4.49c.95,3.22,1.6,4.65,2,5.29.38-.31,1.03-.95,1.96-2.22,1.65-2.22,5-2.31,6.8-2.35,5.21-.13,10.31-.23,15.47.03.25.01.74-.06,1.17-.12,1.52-.21,3.83-.54,5.78.98.92.71,1.58,1.69,1.99,2.95,1.17.11,2.83.2,3.97.26,1.11.06,2.18.12,3.05.19.49.04,1.06.02,1.66,0,2.37-.07,7.1-.2,8.58,5.31.73.23,1.85.45,2.62.46,5.7.06,11.5.03,17.1,0,8.21-.04,16.7-.08,25.06.15,21.22.56,36.32,8.74,44.86,24.31,4.82,8.75,7.6,19.1,7.61,28.4h0c.23,142.21.27,286.79.3,426.61.02,92.48.04,188.11.12,282.17,0,13.72-5.46,26.74-15.39,36.66-10.08,10.07-23.67,15.84-37.28,15.84Zm-460.24-6.24c152.55,0,307.27.04,460.17.24h.07c12.03,0,24.07-5.13,33.04-14.09,8.79-8.78,13.63-20.29,13.63-32.41-.08-94.06-.1-189.69-.12-282.17-.03-139.82-.06-284.4-.3-426.6h0c0-8.2-2.58-17.74-6.87-25.52-7.45-13.57-20.82-20.7-39.76-21.2-8.27-.22-16.72-.18-24.88-.14-5.62.03-11.44.05-17.17,0-.06,0-7.59-.09-8.23-4.23q-.24-1.61-2.75-1.54c-.71.02-1.5.04-2.31-.02-.83-.07-1.84-.12-2.89-.18-6.06-.32-8.83-.47-9.18-3.48-.05-.44-.12-.72-.17-.89-.34,0-.88.08-1.23.13-.7.1-1.49.21-2.31.17-4.95-.25-9.93-.16-15.01-.03-1.4.04-2.05.14-2.36.23-1.74,2.31-4.37,5.1-7.62,4.53-2.49-.44-4.02-2.53-5.18-5.31-.9.79-1.82,1.52-2.86,2.13-1.58.91-6.14,2.05-8.06-.52-.72-.97-1.2-1.4-1.44-1.57-.22.19-.64.61-1.22,1.52-1.38,2.12-3.9,1.56-5.92,1.12-.43-.1-.86-.19-1.22-.25-.89-.14-1.96-.37-3-.59-.44-.09-.99-.21-1.49-.31-3.18,5.1-8.31,3.92-11.21,3.25-1.31-.3-2.67-.62-3.46-.42-2.86.69-4.01-1.79-6.08-6.3-.28-.61-.56-1.22-.84-1.82h-29.69c.12,2.18-.21,4.47-1.68,6.22-2.35,2.81-6.05,2.65-9.3,2.52-.76-.03-1.52-.07-2.24-.06l-1.57,5.81h-2.3c-5.72,0-11.41.01-17.07.03-17.02.04-33.09.08-49.55-.24-4.34-.08-9.56-2.37-12.69-5.56l-1.19-1.22c-8.66-8.82-17.61-17.93-24.96-28.12-4.46-6.21-8.71-6.5-14.54-4.91l-3.46.94-1.57-17.78c-.72-8.18-1.44-16.33-2.17-24.47-2.27-25.5-9.17-48.89-20.51-69.52-11.54-21.04-27.16-36.53-47.74-47.36-21.9-11.53-45.97-13.06-68.75-13.63-39.25-.99-77.75-.74-110.23-.36l-5.1.06c-21.65.24-44.04.49-65.68,3.19-29.7,3.71-54.77,19.59-72.49,45.9-20.19,29.98-30.41,65.32-30.38,105.03.01,3.14,0,6.29,0,9.5v8.02s-3.08-.08-3.08-.08c-.92-.02-1.82-.06-2.71-.1-6.94-.3-10.41-.22-13.55,4.81-4.74,7.57-10.82,15.02-19.71,24.17-5.48,5.63-11.38,10.88-17.46,11.18-16.44.84-32.55.72-49.6.58-6.09-.05-12.39-.1-18.64-.1h-2.95l-.05-2.95c-.04-2.4-.58-2.95-.64-3-.42-.37-2.23-.21-3.43-.1-2.51.23-5.62.52-8.27-1.37l-1.71-1.22.56-2.03c.77-2.77.27-3.5.21-3.58-.49-.61-2.56-.83-6.15-.64-5.48.27-11.26.28-17.69.01l-.58-.03c-2.88-.13-6.15-.27-7.2.9-.76.84-.94,2.87-.5,5.69l.96,6.24-5.44-3.21c-1.49-.88-3.4-.65-5.61-.39-3.36.4-8.26.98-11.47-4.02-.77.19-1.56.45-1.92.68-1.18,1.65-2.92,3.98-5.57,3.57-2.72-.41-3.69-3.37-4.27-5.13-.05-.09-.17-.23-.31-.38-.27.27-.56.59-.77.83-.35.39-.71.78-1.06,1.14-.41.4-.82.89-1.25,1.4-.19.23-.38.45-.58.68l-2.23,2.57-2.27-2.53c-.14-.15-.38-.36-.61-.57-.85-.75-2-1.77-2.36-3.39-.13-.59-.37-1.04-.59-1.12-.14-.06-.34-.04-.5,0-1.07,3.56-2.54,6.75-5.61,7.09-3.13.34-5.18-2.63-6.71-5.35-.03,0-.07,0-.1,0-.25,0-.5,0-.71,0h-1.5c-6.15-.02-12.52-.04-18.76.04-.08,0-.2.01-.33.04-.28,1.32-.85,2.35-1.73,3.13-1.86,1.65-4.23,1.35-5.79,1.16-.45-.06-1.01-.13-1.25-.1-1.99.2-3.95.18-5.86.14l.08,1.49-1.84.86c-.59.28-1.23.65-1.91,1.05-1.76,1.04-3.76,2.21-6.1,2.26-15.25.3-29,.51-43,.06-11.96-.39-23.38,4.06-32.14,12.55-9,8.72-14.16,20.95-14.14,33.54.25,166.73.25,336.25.24,500.19,0,70.01,0,140.02.02,210.04,0,3.95.15,8.11,1.27,11.81,6.86,23.05,21.24,33.79,45.25,33.8,87.36,0,174.72,0,262.08,0,57.05,0,114.09,0,171.14-.01,56.04,0,112.63-.01,169.49-.01ZM166.21,207.08h0Zm10.39-.31c.02.05.04.11.07.16-.02-.05-.05-.1-.07-.16Zm564.45,11.38h-313.1v-43.53l-10.88,1.26v34.93l-8.14-.1v-38.83c-2.02-31.72,8.71-59.73,31.88-83.23h0c17.26-17.48,37.57-25.14,60.34-22.77,6.02.63,12.06,1.63,17.91,2.6,7.12,1.18,14.49,2.41,21.71,2.92,17.12,1.21,35.36,2.31,53.59,1.34,12.24-.66,24.69-2.14,36.73-3.58,9.91-1.18,20.16-2.41,30.29-3.17,23.04-1.74,40.81,2.9,55.91,14.62,15.19,11.78,26.38,26.21,33.26,42.9,6.38,15.44,9.4,31.71,8.98,48.36v38.85s-8.14.1-8.14.1v-34.95l-10.36-1.31v43.6Zm-307.1-6h301.1v-44.4l18.53,2.34c.17-15.29-2.71-30.16-8.55-44.3-6.57-15.93-16.84-29.16-31.4-40.45-13.86-10.75-30.32-15.01-51.79-13.38-10.01.75-20.19,1.97-30.03,3.15-12.14,1.45-24.69,2.95-37.12,3.62-18.57,1-37.02-.12-54.33-1.34-7.51-.53-15.01-1.78-22.27-2.99-5.76-.96-11.71-1.95-17.54-2.55-20.88-2.17-39.53,4.9-55.45,21.01h0c-21.59,21.89-31.76,47.87-30.25,77.24l19.11-2.22v44.27Z"/>
</svg>