<?xml version="1.0" encoding="UTF-8"?>
<svg id="Layer_1" data-name="Layer 1" xmlns="http://www.w3.org/2000/svg" viewBox="0 0 369.91 369.88">
  <defs>
    <style>
      .open_mail {
        fill: inherit;
      }
    </style>
  </defs>
  <path class="open_mail" d="M183.28.21c1.55-.35,3.06-.31,4.49.44l181.18,148.17.95,4.29v208.91c-.04,4.66-3.23,7.81-7.85,7.86H7.91c-4.66-.05-7.81-3.24-7.86-7.86v-208.16c-.65-5.7,4.27-8.36,7.92-11.55C54.5,101.55,106.34,61.6,154.68,22.54c7.43-6,16.78-14.76,24.38-19.79,1.21-.8,2.87-2.24,4.22-2.54ZM184.02,17.39L19.57,151.64l125.55,87.83c1.28.33,2.18-.4,3.15-1.04,10.52-6.92,20.99-19.18,31.52-26.11,4.16-2.73,6.21-2.51,10.38,0,10.01,6.04,20.67,18.51,30.81,25.32,1.1.74,2.38,2.19,3.86,1.84l125.55-87.85L184.02,17.39ZM355.65,346.64v-180.4l-119.75,83.46,119.75,96.94ZM14.31,346.64l119.75-96.94L14.31,166.99v179.65ZM341.42,355.62l-156.11-128.04L28.54,355.62h312.89Z"/>
</svg>