<svg viewBox="0 0 20 22" fill="inherit" xmlns="http://www.w3.org/2000/svg">
    <g>
        <path d="M8.03091e-06 17.9736C0.0144469 16.8118 0.357276 15.9153 1.07589 15.1869C2.42314 13.8218 3.78668 12.4726 5.1443 11.1175C6.78404 9.48038 8.42525 7.84478 10.0631 6.20584C10.5104 5.75832 11.039 5.47821 11.664 5.37141C13.3874 5.07688 15.0119 6.5595 14.8739 8.2971C14.8168 9.01291 14.5395 9.62044 14.0323 10.1267C11.5677 12.586 9.10351 15.0454 6.64039 17.5062C6.49452 17.6521 6.33606 17.7604 6.1217 17.7634C5.82774 17.7674 5.6119 17.6363 5.49084 17.3728C5.37273 17.1159 5.41161 16.8691 5.59561 16.6522C5.66854 16.5664 5.75259 16.4903 5.83255 16.4108C8.24717 14.0003 10.6625 11.5905 13.0764 9.17957C13.7943 8.46266 13.6443 7.32593 12.7732 6.85513C12.2067 6.54915 11.5274 6.65077 11.0524 7.12158C10.3008 7.86695 9.55333 8.61639 8.80436 9.36435C6.56856 11.5964 4.33055 13.8262 2.09734 16.0609C0.764155 17.3949 1.28691 19.6436 3.07104 20.2127C4.04732 20.5242 4.92328 20.3033 5.65114 19.5797C7.82622 17.4164 9.99538 15.2464 12.1668 13.079C13.9768 11.2723 15.7894 9.46782 17.5965 7.65815C19.2162 6.03585 18.9256 3.37217 16.9997 2.13678C15.5976 1.2373 13.7591 1.44018 12.5548 2.63271C11.7451 3.43388 10.9417 4.24171 10.1357 5.04621C7.46599 7.711 4.79629 10.3751 2.1277 13.041C1.92444 13.2438 1.69416 13.3351 1.41205 13.2523C0.945936 13.1156 0.779335 12.5399 1.0981 12.1729C1.14364 12.1204 1.19547 12.0727 1.24508 12.0236C4.68967 8.58387 8.12796 5.13786 11.5837 1.70921C12.9476 0.355938 14.6017 -0.0897336 16.4466 0.442042C18.2792 0.970492 19.4461 2.21919 19.8652 4.07763C20.2595 5.82484 19.7805 7.36806 18.5139 8.63745C15.0416 12.1178 11.5574 15.586 8.07761 19.0594C7.57558 19.5605 7.08318 20.0716 6.56968 20.5605C5.4901 21.5889 4.2117 21.9389 2.77856 21.5228C1.34541 21.1067 0.456867 20.1259 0.0995989 18.6795C0.0318475 18.4056 0.0188896 18.1185 -0.000732422 17.9736H8.03091e-06Z"/>
    </g>
</svg>
