<?xml version="1.0" encoding="UTF-8"?>
<svg id="Layer_1" xmlns="http://www.w3.org/2000/svg" viewBox="0 0 658.44 799.91">
    <path d="M215.59,228.61c-1.04,1.9-2.01,3.37-3.91,.7-3.49-4.94-8.75-4.22-13.65-3.77-2.52,.23-3.99-1.76-6.44-1.69-7.38,.24-14.77-.06-22.16-.07-3.05,0-5.75,3.08-8.85,1.64-6.42-2.97-13.19-1.38-19.77-1.98-9.49-.86-19.05,.14-28.5-.1-8.73-.22-17.62,.26-26.49-1.57-6.07-1.26-12.99-2.4-19.23,.89-1.91,1-2.11-1.53-3.59-1.51-5.07,.07-10.14,.04-15.21,0V799.91H0V0H47.79V208.99c.8,.6,1.92,.88,3.39,.84,21.01-.61,41.97,1.37,62.97,.89,4.93-.12,9.9-.46,14.78,.05,22.28,2.33,44.63,1.46,66.95,1.74,1.69,.02,3.37,.71,5.04,.71,3.86,0,7.5-.63,10.61-3.41,2.14-1.91,5.83-.37,5.9,2.48,.13,5.49,.99,11.13-1.84,16.32Z"/>
    <path d="M453.65,214.52c12.3,10.49,24.62,20.96,36.9,31.48,2.66,2.28,3.99,4.5,2.8,8.69-.82,2.88,.79,7.16,2.65,9.92,2.12,3.16,5.56,5.54,8.72,7.88,3.88,2.87,7.95,1.98,11.78-.41,2.98-1.86,5.69-4.35,8.9-5.55,2.48-.93,6.39-1.46,8.22-.15,19.44,13.88,39.11,27.51,57.66,42.52,15.9,12.87,26.27,30.71,37.43,47.6,10.93,16.53,20.76,33.72,26.49,52.88,1.2,4.02,2.15,8.12,2.92,12.24,.38,2.06,1.05,4.72-2.27,5.03-7.48-9.99-14.62-20.08-22.34-29.71-13.95-17.42-30.45-31.96-50.37-42.32-8.57-4.46-17.41-7.76-27.41-5.76-7.45,1.49-13.15,5.97-17.91,11.25-10.92,12.11-21.27,24.72-31.85,37.13-.18,.21-.32,.46-.49,.69-4.68,6.22-5.86,6.42-12.55,1.74-3.73,4.61-7.51,9.23-11.23,13.89-25.35,31.77-50.71,63.54-75.99,95.37-.9,1.13-.96,2.9-1.48,4.35-.51,1.41-.86,2.97-1.71,4.16-19.28,26.97-37.91,54.46-58.23,80.64-12.38,15.95-27.31,29.94-41.25,44.66-24.82,26.22-46.79,54.73-67.61,84.15-9.82,13.87-19.5,27.84-28.91,41.98-2.85,4.28-4.72,9.23-6.81,13.97-2.36,5.34-7.31,6.91-11.93,3.27-9.95-7.83-19.76-15.83-29.63-23.76-4.17-3.35-8.39-6.63-12.5-10.05-5.64-4.7-5.42-9.38,.6-13.62,11.84-8.34,21.65-18.82,31.17-29.58,17.7-20.04,36.09-39.54,52.7-60.45,17.38-21.88,33.47-44.82,49.23-67.91,14.41-21.1,30.45-40.74,47.91-59.31,10.8-11.49,21.44-23.15,32.34-34.54,1.86-1.95,4.77-2.87,7.11-4.4,1.02-.67,1.94-1.57,2.72-2.52,17.78-21.81,35.53-43.65,53.29-65.47,11.63-14.29,23.27-28.57,34.86-42.81-.13-.38-.15-.69-.31-.84-5.66-5.38-5.37-5.24-.71-11.95,7.53-10.82,14.62-21.94,21.89-32.94,.08-.12,.16-.24,.22-.36,7.33-15.29,4.07-20.67-10.48-30.37-1.91-1.27-5.84-.79-8.22,.27-2.83,1.26-5.07,1.53-7.41-.24-12.67-9.58-25.29-19.23-37.94-28.85-3.47-2.64-1.69-5.13,.23-7.53,7.22-8.99,14.45-17.98,21.74-26.91,4.79-5.87,9.68-11.64,14.53-17.46,.85,0,1.69,0,2.54,0Z"/>
</svg>