<svg width="40" height="40" viewBox="0 0 40 40" fill="inherit" xmlns="http://www.w3.org/2000/svg">
    <path d="M7.84669 3.93067C8.07886 4.036 8.2654 4.096 8.42509 4.196C9.70671 5.00933 10.987 5.828 12.2605 6.656C12.4337 6.76933 12.5531 6.756 12.7356 6.67467C13.577 6.30267 14.4265 5.948 15.28 5.60267C15.4357 5.54 15.5162 5.476 15.5538 5.30533C15.8933 3.75867 16.2436 2.21467 16.5925 0.669333C16.6972 0.205333 16.9576 0 17.4434 0C18.8914 0 20.3407 0 21.7888 0C22.2773 0 22.5322 0.197333 22.6396 0.669333C22.9899 2.21333 23.3401 3.75733 23.6796 5.304C23.7172 5.47467 23.7951 5.54 23.9507 5.60267C24.8217 5.956 25.6873 6.31867 26.5462 6.69867C26.7085 6.77067 26.8092 6.75867 26.9461 6.66933C28.2223 5.84533 29.5013 5.028 30.7802 4.208C31.2875 3.88267 31.5948 3.91867 32.0162 4.35067C33.0119 5.36933 34.0104 6.38667 35.0061 7.40533C35.3698 7.77733 35.4061 8.112 35.1323 8.556C34.3137 9.88533 33.4977 11.2147 32.6737 12.54C32.5825 12.6867 32.5999 12.7907 32.663 12.9427C33.0294 13.812 33.3877 14.6867 33.7259 15.568C33.7957 15.7493 33.8883 15.8307 34.0654 15.872C35.5268 16.2067 36.9869 16.5467 38.4484 16.8853C39.0456 17.024 39.2267 17.2467 39.2267 17.852C39.2267 19.3 39.2267 20.748 39.2267 22.1973C39.2267 22.7427 39.0281 22.9827 38.486 23.108C36.999 23.4547 35.5121 23.8093 34.0225 24.148C33.844 24.188 33.789 24.28 33.7299 24.428C33.3837 25.3067 33.0321 26.1827 32.6657 27.052C32.5973 27.2147 32.5879 27.3253 32.6831 27.4787C33.4843 28.7627 34.2761 30.0533 35.0706 31.3427C35.4316 31.928 35.4007 32.196 34.9136 32.6933C33.9299 33.6973 32.9435 34.7013 31.9571 35.7027C31.5908 36.0747 31.2727 36.1107 30.8325 35.8307C29.5455 35.008 28.2572 34.1853 26.9756 33.3533C26.8065 33.244 26.683 33.244 26.4965 33.328C25.6551 33.7013 24.8042 34.0547 23.9521 34.4013C23.7991 34.4627 23.7132 34.5213 23.6756 34.696C23.3361 36.2427 22.9858 37.7867 22.6356 39.332C22.5309 39.7973 22.2866 39.9973 21.8129 39.9987C20.3461 40.0013 18.8793 40.0013 17.4111 39.9987C16.9374 39.9987 16.6918 39.7973 16.5872 39.332C16.249 37.832 15.9094 36.3333 15.5847 34.8307C15.5297 34.576 15.421 34.4573 15.17 34.36C14.338 34.0387 13.5193 33.6787 12.7034 33.3173C12.5397 33.2453 12.4296 33.2373 12.2726 33.3387C11.0299 34.1453 9.77918 34.9387 8.5338 35.74C7.91648 36.1373 7.66821 36.116 7.14885 35.5867C6.18261 34.604 5.21771 33.62 4.25415 32.6333C3.83813 32.2067 3.8086 31.9053 4.12398 31.392C4.93186 30.0787 5.73841 28.7653 6.55032 27.4547C6.63218 27.3227 6.63352 27.2267 6.57179 27.0787C6.20005 26.2 5.84308 25.3173 5.4955 24.4293C5.43109 24.264 5.35862 24.1813 5.17745 24.14C3.68782 23.8013 2.20223 23.4493 0.713946 23.1027C0.206668 22.984 0 22.732 0 22.2C0 20.7333 0 19.2667 0 17.8C0 17.276 0.202642 17.0187 0.721998 16.8973C2.1821 16.556 3.6422 16.212 5.10632 15.8853C5.34922 15.8307 5.44316 15.7133 5.52771 15.4907C5.85113 14.6427 6.19871 13.8053 6.55434 12.9707C6.62681 12.8013 6.64292 12.6827 6.54092 12.5187C5.72499 11.2107 4.91978 9.896 4.11056 8.58267C3.818 8.10667 3.85289 7.78533 4.24341 7.388C5.24723 6.364 6.24702 5.33467 7.26024 4.32C7.41993 4.16 7.64405 4.06267 7.84669 3.93067ZM19.6067 29.224C19.612 29.2507 19.6161 29.2787 19.6214 29.3053C20.436 29.1627 21.2707 29.0907 22.0612 28.8653C25.6591 27.84 28.2384 24.6947 28.6021 20.9613C28.837 18.5613 28.2532 16.3787 26.8172 14.436C23.9279 10.5293 18.5586 9.624 14.5661 12.356C11.4553 14.4853 9.98182 18.3027 10.8072 22.096C11.7023 26.208 15.421 29.22 19.6067 29.224Z" fill="inherit"/>
</svg>
