<?xml version="1.0" encoding="UTF-8"?>
<svg id="Layer_1" data-name="Layer 1" xmlns="http://www.w3.org/2000/svg" viewBox="0 0 468.86 445.22">
  <defs>
    <style>
      .cls-1 {
        fill: #000;
        stroke-width: 0px;
      }
    </style>
  </defs>
  <path class="cls-1" d="M137.14,254.44c-1.55-4.59-3.03-8.99-4.52-13.38-23.61-69.51-47.23-139.02-70.84-208.53-2.66-7.84-8.65-12.12-16.97-12.13-11.32,0-22.64.01-33.97,0-5.33,0-9.33-2.96-10.52-7.68C-1.26,6.43,3.26.19,9.73.13,22.42.02,35.11-.12,47.79.2c14.5.36,27.76,10.4,32.69,24.46,4.9,13.98,9.61,28.03,14.3,42.08.57,1.7,1.3,2.21,3.07,2.21,80.95-.05,161.9-.04,242.85-.04,36.7,0,73.4.01,110.1-.02,4.8,0,9.13,1.19,12.62,4.56,5.18,5,6.62,11.07,4.48,17.89-5.17,16.42-10.43,32.82-15.66,49.22-11.25,35.31-22.5,70.62-33.76,105.93-5.15,16.15-19.1,26.36-36.02,26.36-77.23,0-154.46,0-231.69,0-11.37,0-20.86,6.9-23.97,17.4-4.62,15.6,7.08,31.17,23.43,31.17,91.18,0,182.36,0,273.53-.02,4.49,0,8.06,1.49,10.19,5.56,3.41,6.49-1.07,14.25-8.45,14.76-.54.04-1.09.03-1.64.03-91.12,0-182.25,0-273.37,0-25.27,0-45.21-20.11-45-45.36.15-18.34,12.11-34.93,29.75-41.28.56-.2,1.12-.4,1.89-.68ZM447.26,89.32H102.57c.18.6.3,1.06.45,1.51,18.1,53.31,36.21,106.61,54.29,159.93.45,1.33.98,1.85,2.49,1.85,74.11-.05,148.21-.04,222.32-.04,8.46,0,14.51-4.39,17.07-12.43,14.04-44,28.06-88.01,42.08-132.01,1.97-6.19,3.95-12.38,5.99-18.8Z"/>
  <path class="cls-1" d="M125.65,396.36c-.04-26.81,21.89-48.72,48.78-48.73,26.89,0,48.75,21.78,48.83,48.69.09,26.9-21.88,48.91-48.8,48.89-26.99-.02-48.78-21.82-48.82-48.86ZM174.35,367.92c-15.66.04-28.56,13.01-28.44,28.6.13,15.83,12.9,28.42,28.8,28.38,15.58-.04,28.25-12.86,28.23-28.57-.01-15.68-12.86-28.45-28.59-28.41Z"/>
  <path class="cls-1" d="M321.89,396.45c-.04-26.93,21.83-48.78,48.85-48.82,26.69-.03,48.72,21.86,48.74,48.44.02,27.21-21.63,49.06-48.69,49.15-26.92.09-48.86-21.79-48.9-48.77ZM370.66,424.9c15.66.03,28.45-12.66,28.52-28.29.07-15.81-12.7-28.67-28.48-28.69-15.68-.01-28.53,12.8-28.56,28.48-.03,15.67,12.78,28.47,28.52,28.49Z"/>
</svg>