<?xml version="1.0" encoding="UTF-8"?>
<svg id="Layer_1" xmlns="http://www.w3.org/2000/svg" viewBox="0 0 736.04 748.62">
    <path d="M368.02,748.62C164.77,748.62,0,583.85,0,380.6,0,226.95,94.16,95.3,227.92,40.19L218.21,0l66.18,22.12,54.02,18.06-30.07,30.76h-.01l-58.52,59.87-9.34-38.64C129.88,141.15,52.73,251.87,52.73,380.6c0,174.13,141.16,315.3,315.29,315.3s315.3-141.17,315.3-315.3h52.72c0,203.25-164.77,368.02-368.02,368.02Z"/>
    <g>
        <rect x="335.13" y="222.5" width="65.78" height="164.07"/>
        <rect x="427.8" y="354.49" width="54.12" height="254.19" transform="translate(1117.03 500.48) rotate(135)"/>
        <circle cx="368.02" cy="386.57" r="32.89"/>
    </g>
</svg>