<?xml version="1.0" encoding="UTF-8"?>
<svg id="Layer_1" xmlns="http://www.w3.org/2000/svg" version="1.1" viewBox="0 0 200 200">
<defs>
    <style>
      .cls-1 {
        fill: inherit;
        color: inherit;
      }
    </style>
  </defs>
  <!-- Generator: Adobe Illustrator 29.6.1, SVG Export Plug-In . SVG Version: 2.1.1 Build 9)  -->
  <path class="cls-1" d="M183.84,67.16l.22,68.4-1.67,3.33-58.82,33.15-59.09-34.02-.32-70.86,59.5-34,60.18,33.99ZM176,69.99l-51.66-30.76-52.34,30.75,51.66,26.79,52.33-26.79ZM121,165v-63.5l-52-27.5v60.5l52,30.5ZM179,74l-53,28.5v62.5l53-30.5v-60.5Z"/>
  <rect class="cls-1" x="45" y="33" width="62" height="5"/>
  <rect class="cls-1" x="45" y="167" width="62" height="5"/>
  <path class="cls-1" d="M16.5,102h38c1.98,0,1.99,6,0,6H16.5c-1.64,0-2.41-5.03,0-6Z"/>
  <path class="cls-1" d="M25,98v-6h33.5c1.98,0,1.99,6,0,6H25Z"/>
  <path class="cls-1" d="M25,118v-6h33.5c1.98,0,1.99,6,0,6H25Z"/>
</svg>