<?xml version="1.0" encoding="UTF-8"?>
<svg id="Layer_1" data-name="Layer 1" xmlns="http://www.w3.org/2000/svg" viewBox="0 0 1060.72 1062.37">
  <defs>
    <style>
      .cls-1 {
        stroke-width: 0px;
      }
    </style>
  </defs>
  <path class="cls-1" d="m869.85,720.79c26.66,14.08,46.84,33.71,60.29,60.08,3.13,6.14,3.81,6.25,9.81,2.86,28.09-15.84,43.15-40.65,49.42-71.54.13-.63.02-1.31.02-2.56h-60.86v-59.68h-70.71v-24.07h92.5v60.24h42.07c-3.22-11.45-5.71-22.58-9.5-33.27-5.63-15.86-15.54-28.91-28.66-39.54-5.67-4.59-11.92-7.19-19.22-7.19-35.99,0-71.98.02-107.96,0-34.13-.03-68.27-.11-102.4-.16-3.83,0-7.65,0-11.86,0v-22h5.11c75.99,0,151.99-.04,227.98.13,3.43,0,7.26,1.22,10.22,3,15.29,9.21,28.19,21.07,38.13,36.35,10.73-5.47,18.91-13.29,25.3-23.08,8.61-13.18,13.12-27.93,16.43-43.14.74-3.41-.71-5.1-4.1-5.23-1.5-.06-3-.03-4.5-.03-102.83,0-205.66,0-308.49,0h-6.27v-22.33c3.31-.16,6.72-.48,10.12-.48,102.33-.03,204.66-.02,306.99-.02,1.5,0,3-.01,4.5-.02,3.02-.01,4.31-1.53,3.67-4.47-2.86-13.15-3.97-27.05-9.05-39.29-9.8-23.6-25.34-43.03-48.49-55.68-14.52-7.94-30.08-11.68-46.2-13.26-11.96-1.17-23.56,2.09-34.5,6.57-3.36,1.38-6.62,5.56-7.83,9.17-4.28,12.73-7.73,25.74-11.33,38.69-2.4,8.63-4.52,17.34-6.74,25.91h-160.84v-21.79h5.68c44,0,88-.05,132,.08,3.77.01,5.33-.78,6.26-4.81,3.11-13.43,6.4-26.85,10.46-40.02,6.52-21.11,22.18-31.8,43.24-34.94,19.47-2.9,39.01-2.61,57.8,3.84,10.16,3.49,19.75,8.68,29.65,13.12,35.37-53.28,9.75-138.22-53.54-156.11-2.02,4.2-4.2,8.46-6.15,12.82-15.09,33.75-38.98,59.05-72.85,74.07-9.61,4.26-20.32,6.12-30.63,8.64-4.02.98-6.36,2.72-7.69,6.7-8.81,26.18-17.88,52.27-26.64,78.47-1.56,4.67-3.86,6.47-8.95,6.41-24.33-.26-48.66-.12-73-.12h-5.66v-22.17c4.05,0,7.84.01,11.62,0,16.33-.05,32.66-.2,48.99-.12,5.46.03,8.56-2.25,10.29-7.45,8.44-25.42,17.18-50.74,25.57-76.18,1.47-4.45,3.81-6.5,8.42-6.94,6.79-.65,13.59-1.48,20.27-2.82,21.09-4.22,38.88-14.93,53.61-30.1,23.2-23.89,36.87-53.02,36.08-86.25-.74-30.95-7.17-61.27-29.65-85.4-20.02-21.49-43.25-36.54-73.3-39.78-34.39-3.71-63.35,7.49-88.8,29.99-8.9,7.86-15.37,17.44-21.48,27.39-1.56,2.54-3.14,5.06-4.91,7.91-6.78-3.11-13.39-6.14-20.85-9.56,2.63-4.69,4.9-9.22,7.61-13.47,12.27-19.24,27.86-35.19,47.3-47.3,5.82-3.63,5.92-4.52,2.41-10.29-17.86-29.35-43.31-46.95-78.21-47.68-26.46-.55-49.37,9.1-66.19,30.13-12.89,16.12-20.18,34.57-20.36,55.68-.22,25.97-1.13,51.94-1.69,77.91-.27,12.64,1.86,24.78,6.85,36.51,6.5,15.29,9.93,31.04,9.38,48-.87,26.97-.23,53.99-.23,80.99,0,1.78,0,3.57,0,5.6h-22.17c0-1.65,0-3.39,0-5.14,0-28.83.28-57.66-.17-86.48-.11-7.18-2.03-14.49-4.07-21.45-3.03-10.36-7.01-20.44-10.35-30.72-.91-2.79-1.33-5.86-1.34-8.81-.09-32.16-.51-64.33.05-96.48.79-44.74,32.3-97.42,90.23-106.98,53.72-8.87,101.19,21.82,121.79,63.53.43.88.93,1.72,1.02,1.89,12.14-1.75,23.74-4.5,35.43-4.91,49.49-1.76,88.31,18.96,117.43,58.28,16.56,22.36,25.76,47.57,26.03,75.71.1,10.98.27,21.96.79,32.92.08,1.76,1.83,4.36,3.43,5,53.16,21.19,78.88,61.6,82.97,117.45,1.66,22.63-4.62,43.44-13.69,63.71-5.87,13.11-6.72,11.36,3.58,22.68,21.2,23.3,31.7,51.23,33.75,82.48,1.66,25.26-1.03,49.95-11.03,73.4-8.63,20.22-21.74,36.97-40.84,48.38-3.44,2.06-2.36,4.28-1.72,6.67,4.55,16.97,7.36,34.11,6.79,51.79-1.08,33.43-14,61.46-37.48,85-8.7,8.73-18.42,15.82-29.71,20.72-4.26,1.85-5.27,4.38-4.02,9.07,4.81,18,3.97,36.14,1.21,54.45-5.27,35-22.1,63.32-49.31,85.25-29.78,24.01-63.99,32.25-101.72,25.53-.82-.15-1.62-.4-2.44-.53-1.64-.26-3.28-.47-5.38-.77-.73,1.72-1.52,3.5-2.26,5.3-16.72,40.31-45.39,67.72-88.78,75.44-36.88,6.56-70.68-2.35-98.34-29.58-17.67-17.39-30.8-37.43-35.05-62-2.28-13.19-1.88-26.84-2.58-40.29-.2-3.95-.03-7.91-.03-12.14h22c0,6.47-.02,13.06,0,19.64.06,14.63,2.1,29.05,7.86,42.47,11.99,27.95,31.14,48.57,61.56,56.76,3.69.99,7.34,2.18,11.08,2.96,2.56.53,5.24.5,8.33.76v-5.18c0-45.5,0-91,0-136.5,0-7.21-.65-7.84-8.09-7.85-44.83,0-89.66,0-134.5,0-7.01,0-7.41-.39-7.41-7.31,0-50.83,0-101.66,0-152.49,0-1.96.19-3.92.3-6.1h23.17v142.13h148.67v171.85c6.73-2.13,12.89-3.48,18.54-5.98,25.29-11.16,41.99-30.36,51.57-56.09,1.24-3.32.69-4.9-2.51-6.61-18.38-9.83-33.14-23.94-45.78-40.26-2.43-3.14-3.94-7.84-3.97-11.84-.26-32.83-.07-65.66-.01-98.49,0-1.8,0-3.6,0-5.96h-5.72c-22.83,0-45.67,0-68.5,0-6.26,0-6.79-.59-6.8-6.9-.04-25.33-.1-50.66-.15-75.99,0-1.81,0-3.63,0-6.18,7.07,0,13.79-.15,20.49.16.99.05,2.48,2.2,2.68,3.54.5,3.27.48,6.63.48,9.95.04,15.33,0,30.67.02,46,0,6.74.43,7.27,6.97,7.24,23.99-.13,47.98-.35,71.97-.53.48,0,.95.17,2.06.39,0,1.9,0,3.85,0,5.81-.17,35.82-.2,71.65-.59,107.47-.11,10.77,3.62,19.18,11.64,26.37,17,15.23,35.87,26.86,58.86,29.54,33.76,3.93,62.47-6.2,87.14-30.44,34.88-34.27,42.99-91.24,21.66-134.66-9.47-19.27-23.24-35.67-42.34-46.72-1.44-.83-2.75-1.9-4.19-2.71-3.85-2.15-4.39-4.91-2.18-8.7,2.76-4.73,5.2-9.65,7.94-14.8Z"/>
  <path class="cls-1" d="m48.97,638.71c-17.28-15.1-30.34-32.61-38.4-53.52-18.96-49.19-12.24-95.13,18.74-137.41,6.22-8.49,14.34-15.67,22.04-22.98,4.08-3.88,4.67-7.26,3.08-12.72-13.09-44.98-8.61-87.13,21.08-125.04,9.91-12.66,21.61-23.05,35.86-30.5,2.49-1.3,5.09-2.39,7.58-3.55-.85-9.76-1.6-19.5-2.57-29.22-2.75-27.46,4.32-52.41,17.09-76.69,23.93-45.48,76.77-75.01,131.07-67,4.09.6,8.12,1.66,11.97,2.46,3.95-8.36,7.72-16.64,11.74-24.8,15.17-30.82,40.59-48.6,73.59-54.98,24.61-4.76,48.87-4.07,72.56,7.57,38.57,18.94,60.27,49.59,67.85,91.03,1.48,8.13,1.75,16.54,1.9,24.83.29,15.83.08,31.66.08,47.5v5.95h36.99v178.11h-22.82c0-1.9,0-3.84,0-5.77.06-46.16.11-92.33.17-138.49.01-11.98-1.31-13.01-14.17-10.33v56.68h-24.16v-5.88c0-47.66.09-95.31-.12-142.97-.03-5.74-.75-11.82-2.74-17.15-12.17-32.7-31.66-58.57-67.26-68.06-8.13-2.17-16.73-2.6-25.51-3.9v39.97h47v295.94h-21.89v-204.31c-2.61,0-4.56,0-6.5,0-19.33,0-38.67-.23-57.99.12-6.96.13-11.44-1.96-15.83-7.76-52.37-69.08-149.73-52.44-180.69,22.65-18.92,45.88-12.72,88.77,19.91,126.25,20.06,23.05,46.32,35.39,77.59,35.24,11.65-.06,23.31,0,35.47,0,.2,2.5.54,4.76.53,7.02-.07,24.99-.21,49.99-.29,74.98-.03,8.33.72,9,9.16,9,18.62,0,37.24,0,56.18,0v21.94c-1.84.08-3.46.21-5.09.21-25.33.01-50.66.01-76,0-7.01,0-7.79-1-7.76-8.16.11-26.5.11-52.99.13-79.49,0-.96-.19-1.93-.34-3.35-61.08,4.31-102.7-24.62-131.13-77.16-4.55,2.48-9.28,4.28-13.1,7.25-18.95,14.76-33.74,32.66-39.86,56.44-9.41,36.55-1.6,69.64,21.43,99.08,4.49,5.74,11.37,9.62,17.16,14.36,6.04,4.95,6.34,6.43,2.21,12.87-2.41,3.77-4.96,7.44-7.52,11.26-9.16-3.98-16.25-10.1-22.55-17.26-4.51-5.13-9.15-10.15-13.7-15.24-1.73-1.93-3.52-3.27-5.83-.88-15.27,15.74-29.07,32.22-36.34,53.63-18.2,53.59,9.07,117.59,60.67,140.64,19.72,8.81,40.61,11.77,61.92,5.67,20.31-5.82,32.24-20.63,39.64-39.29,5.99-15.12,10.69-30.76,16.18-46.08.77-2.16,2.39-4.88,4.29-5.65,18.04-7.27,36.17-14.31,54.41-21.07,3.49-1.29,7.53-1.48,11.33-1.51,21.33-.14,42.66-.08,64-.06,6.02,0,6.92,1.03,6.85,6.99-.06,5.12-.01,10.23-.01,15.98-4.91,0-9.35,0-13.8,0-18.16,0-36.33-.07-54.49.08-3.11.02-6.38.49-9.29,1.55-12.97,4.73-25.83,9.76-38.73,14.65-4.06,1.54-5.28,5.03-6.66,8.74-5.42,14.64-9.88,29.8-16.93,43.63-15.98,31.38-42.08,47.05-77.74,47.57-22.26.32-42.16-6.53-62.46-16.16-17.71,26.58-26.13,55.29-16.52,87.05,10.03,33.16,30.58,56.93,64.78,68.22,2.45-5.72,4.58-10.72,6.73-15.72,9.9-23.05,25.33-41.34,45.34-56.59,18.28-13.94,38.38-22.35,60.75-26.06,3.45-.57,5.05-2.43,6.29-5.49,7.58-18.65,15.49-37.16,22.9-55.87,2.67-6.74,6.36-9.68,14.09-9.45,21.98.67,43.98.42,65.97.53,2.98.01,5.95,0,9.35,0,0,5.9.41,12.32-.31,18.61-.16,1.42-4.24,3.37-6.55,3.4-19.33.27-38.66.26-57.99.06-3.74-.04-5.38,1.08-6.83,4.61-7.11,17.22-14.66,34.25-21.96,51.38-1.23,2.89-2.19,5.91-3.04,8.93-.93,3.3-2.79,5.03-6.35,5.19-34.62,1.55-62.28,17.04-83.7,43.51-17.32,21.4-26.68,46.21-27.71,73.98-1.07,28.78,7.07,54.33,23.24,78.42,22.15,33.01,53.15,48.62,91.54,50.23,21.19.89,40.92-6.45,58.95-17.67,14-8.71,26.12-19.5,35.21-33.41,3.17-4.85,6.14-9.84,9.47-15.21,6.79,3.03,13.7,6.11,19.99,8.92-11.75,29.56-35.88,47.36-60.24,65.46,10.69,20.26,25.25,36.23,46.15,45.39,8.46,3.7,17.65,7.54,26.64,7.88,24.72.93,47.84-3.71,67.03-21.97,20.96-19.94,29.36-44.05,29.09-72.2-.23-24.32-.39-48.66.08-72.97.27-13.82-2.74-26.84-7.54-39.46-7.36-19.34-9.61-39.17-8.73-59.72.69-16.1.14-32.26.14-48.71h22.17c0,1.95,0,3.72,0,5.5.11,20.16.23,40.32.34,60.48.09,15.52,6.15,29.62,11.2,43.8,4.62,12.96,6.41,25.96,6.19,39.56-.47,28.31,1.14,56.78-1.23,84.92-3.85,45.66-25.79,81.16-69.87,97.32-46.56,17.07-95.52,4.06-126.17-35.43-4.68-6.03-8.88-12.46-13.02-18.88-4.18-6.48-4.83-6.71-12.61-5.35-9.97,1.75-20,4.3-30.02,4.41-72.34.8-123.56-52.05-136.3-108.28-4.01-17.68-4.51-35.21-4.45-53,0-2.28.61-4.57,1-7.32-39.31-14.03-67.05-39.83-80.56-79.91-13.63-40.44-4.78-77.37,17.91-112.55ZM361.64,25.05c-7.89,4.04-14.77,7.31-21.4,11.02-19.83,11.09-32.79,27.68-39.12,49.51-.92,3.17-.47,5.6,2.42,7.28,15.25,8.88,28.13,20.56,40.25,33.28,2.67,2.8,7.51,4.77,11.42,4.9,14.63.47,29.28.07,43.93-.12,3.26-.04,6.51-.54,9.64-.82v-46.16h-47.14V25.05Z"/>
  <path class="cls-1" d="m361.57,541.91c0-49.5,0-99,0-148.49,0-15.4,6.07-21.45,21.54-21.45,87.33,0,174.66,0,261.99,0,10.33,0,20.66-.2,30.99-.14,15.72.1,22.47,6.98,22.47,22.65,0,97.66-.14,195.33.16,292.99.04,13.49-6.58,21.77-21.9,21.7-85.66-.39-171.33-.19-256.99-.18-12.83,0-25.66.07-38.49.17-5.75.05-10.77-1.51-14.92-5.71-3.34-3.38-4.94-7.15-4.93-12.03.12-49.83.07-99.66.07-149.49Zm22.34,144.89c2.25,0,3.56,0,4.87,0,93.47.06,186.93.11,280.4.16,6.81,0,7.22-.45,7.22-7.52,0-88.14.02-176.28-.03-264.41,0-5.48-.64-10.97-.74-16.45-.05-2.64-1.14-3.42-3.6-3.5-5.99-.2-11.97-.89-17.95-.9-87.14-.06-174.28-.04-261.41-.04-8.43,0-8.75.32-8.75,8.68,0,92.47,0,184.94,0,277.41v6.57Z"/>
  <path class="cls-1" d="m773.57,374.7h-57.58v-44.03h-36.04v-22.16h58.27v42.68c2.43.11,4.35.25,6.27.26,6.9.03,6.91.02,6.91-6.66,0-15,0-29.99,0-44.99,0-2.67-.12-5.34.03-8,.24-4.17-1.6-6.31-5.77-6.33-9.48-.05-18.97-.05-28.45-.08-18.99-.08-37.97-.18-56.96-.25-9.19-.03-9.34.13-9.34,9.08,0,19.33,0,38.66,0,57.98v5.85h-23.51v-5.97c0-55.98-.04-111.97.09-167.95,0-4.09-1.15-6.25-5.06-7.85-18.13-7.42-26.47-23.46-23.87-45.12,1.86-15.54,15.79-28.82,32.56-32.32,24.52-5.12,45.03,13.24,47.88,29.91,3.25,18.99-1.94,38.56-23.36,47.88-2.44,1.06-4.53,1.97-4.5,5.58.19,25.82.1,51.65.12,77.48,0,.81.17,1.62.29,2.76h152.62c0-8.72.35-17.35-.28-25.91-.13-1.81-3.57-4.04-5.92-4.93-18.69-7.12-30.92-20.07-34.96-39.71-5.71-27.69,11.32-55.7,37.4-62.29,36.64-9.26,61.98,14.55,67.15,38.38,6.36,29.31-8.28,55.01-35.16,63.14-4.41,1.34-5.9,4.18-5.86,8.59.12,14.98.05,29.96.05,45.47-2.07.1-3.83.26-5.58.26-13.33.02-26.66-.01-39.99.02-6.46.02-7.49,1.21-7.48,7.63.05,19.66.04,39.32.05,58.98,0,7.45,0,14.89,0,22.61Zm43.1-163.24c17.18-.09,29.7-13.26,29.55-31.08-.13-15.82-14.94-30.1-30.98-29.89-15.37.2-31.15,14.59-30.52,28.82.91,20.65,12.59,31.88,31.94,32.16Zm-177.87-54.49c9.93.04,18.55-8.13,18.6-17.61.04-8.84-9.86-18.82-18.68-18.85-8.31-.03-18.05,9.8-18.11,18.27-.07,9.48,8.61,18.16,18.2,18.19Z"/>
  <path class="cls-1" d="m824.91,639.11c0,1.75,0,3.38,0,5.01,0,34.66.02,69.32-.02,103.98,0,7.66-.27,15.32-.29,22.98-.02,4.25,1.09,7.53,5.86,9.23,23.64,8.42,36.7,28.37,35.43,53.59-1.38,27.5-22.9,48.96-50.19,50.05-28.64,1.14-52.53-18.45-56.12-46.04-3.2-24.58,10.66-47.66,35.3-57.66,4.97-2.02,6.28-4.47,6.13-9.45-.35-11.63-.11-23.28-.11-35.67h-56.44c0-6.63-.41-13.1.31-19.44.17-1.47,4.15-3.51,6.41-3.56,14.49-.32,28.99-.17,43.48-.17h5.98c.21-2.3.55-4.38.57-6.46.1-12.66.14-25.33.19-37.99.02-5.66-.84-6.54-6.74-6.54-25.33-.02-50.66,0-75.99,0h-5.76v-21.85h112Zm-12.57,160.87c-16.15.11-29.88,14.32-29.76,30.78.12,16.59,13.98,30.81,29.89,30.68,16.84-.13,30.91-13.94,30.89-30.3-.02-17.4-13.85-31.28-31.02-31.16Z"/>
  <path class="cls-1" d="m409.1,842.01v-118.72h22.88v141.67h-5.85c-41.98,0-83.97,0-125.95,0-7.91,0-7.81.33-10.87,7.45-13.63,31.72-41.18,42.75-71.54,30.59-21.45-8.59-34.57-29.08-31.44-56.31,2.45-21.35,18.82-39.69,40.69-44.62,28.24-6.37,54.84,8.74,63.73,36.35.88,2.72,1.84,4.11,5.05,4.1,36.48-.11,72.97-.07,109.45-.09,1.13,0,2.26-.24,3.85-.43Zm-139.69,11.87c.98-15.98-12.63-30.23-30.29-30.61-16.35-.35-29.81,13.56-29.87,29.98-.07,19.14,12.02,31.21,31.27,31.19,16.37-.02,28.9-13.27,28.9-30.56Z"/>
  <path class="cls-1" d="m160.5,547.67v-72.24h187.02v21.7h-8.66c-49.49,0-98.98,0-148.47,0-6.65,0-7.47.73-7.45,7.45.04,19.82.19,39.64.3,59.46,0,1.79,0,3.58,0,6.07h-24.35c-9.5,0-19,.13-28.49-.06-4.38-.09-7.08,1.5-9.03,5.51-7.03,14.43-19.25,20.25-34.71,19.47-14.42-.73-24.73-8.42-31.03-21.08-7.12-14.31-2.86-32.44,9.53-43.18,11.94-10.35,31.03-12.23,43.68-3.46,4.47,3.1,8.2,7.78,11.16,12.44,2.97,4.67,6.49,7.69,11.88,7.83,9.29.24,18.59.07,28.64.07Zm-71.65-2.17c-6.55,0-13.45,6.56-13.59,12.93-.15,6.7,7.37,14.01,14.39,13.97,7-.04,13.16-6.74,13.17-14.34.02-7.2-5.94-12.55-13.97-12.56Z"/>
  <path class="cls-1" d="m353.34,211.96v140.65h-21.77c0-2.07,0-4.01,0-5.96,0-34.64,0-69.29,0-103.93,0-8.32-.24-8.56-8.78-8.58-5.66-.02-11.33.18-16.99-.08-3.05-.14-4.25,1.15-5.44,3.76-2.74,6.03-5.27,12.34-9.12,17.64-12.43,17.12-35.88,25.01-55.98,19.52-20.72-5.66-36.76-24.49-39.03-45.83-3.15-29.52,14.7-54.48,43.14-58.64,28.19-4.13,51.05,8.74,59.89,34.97,1.69,5,4.45,6.66,9.54,6.58,14.64-.24,29.29-.08,44.53-.08Zm-135.1,11.36c-.28,14.44,15.01,30.2,29.58,30.47,17.08.32,31.5-13.55,31.75-30.53.22-15.59-14.15-30.6-29.48-30.79-17.72-.21-31.49,13.14-31.84,30.85Z"/>
  <path class="cls-1" d="m361.31,750.9v-27.63h22.34v49.66c-9.37,0-18.65.51-27.84-.15-8.52-.61-13.88,2.34-17.28,10.2-3.9,9-12.49,12.45-21.04,14.42-9.38,2.16-18.91.9-27.5-4.17-13.5-7.96-19.62-21.34-17.22-37.42,2.18-14.55,12.34-26.23,26.37-29.22,16.16-3.44,34.89,1.34,42.57,19.37,1.49,3.49,4.2,5.34,8.34,4.99,3.59-.3,7.22-.06,11.27-.06Zm-38.77,10.9c.06-6.28-7.03-13.54-13.47-13.79-6.18-.24-14.19,7.93-14.13,14.41.05,5.32,8.25,13.45,13.58,13.45,6.1,0,13.96-7.89,14.02-14.07Z"/>
  <path class="cls-1" d="m894.85,374.79v-23.13h61.84v-51.53h23.59v74.66h-85.43Z"/>
  <path class="cls-1" d="m437.21,896.15h21.9v78.55h-78.2v-21.81h56.3v-56.74Z"/>
  <path class="cls-1" d="m123.54,363.4h22.63v51.26h51.3v22.81h-73.93v-74.07Z"/>
  <path class="cls-1" d="m595.18,827.53h-21.29v-104.26h21.29v104.26Z"/>
  <path class="cls-1" d="m269.82,606.07v-21.63h77.35v21.63h-77.35Z"/>
  <path class="cls-1" d="m486.15,357.82h-21.2v-76.24h21.2v76.24Z"/>
  <path class="cls-1" d="m662.41,431.59c-.02,13.19-10.19,23.35-23.38,23.38-13.44.02-23.7-10.22-23.67-23.62.03-13.33,10.4-23.46,23.92-23.37,13.08.08,23.15,10.36,23.13,23.62Z"/>
</svg>