<?xml version="1.0" encoding="UTF-8"?>
<svg id="Layer_1" data-name="Layer 1" xmlns="http://www.w3.org/2000/svg" viewBox="0 0 1197.95 768">
  <defs>
    <style>
      .cls-1 {
        stroke-width: 0px;
        fill: inherit;
        color: inherit;
      }
    </style>
  </defs>
  <path class="cls-1" d="m6.96,768c1-82.46,2.05-164.91,2.98-247.37.32-28.82.4-57.65.51-86.48.25-65.99.39-131.98.71-197.97.22-46.32.62-92.64,1-138.96.08-9.82.25-19.65.69-29.46.33-7.26-1.55-13.45-6.94-18.49C.06,43.82-1.22,37.37,1.07,29.68c1.26-4.22,1.47-8.82,1.67-13.28C3.2,5.94,6.42,2.08,16.79.63,20.07.16,23.43-.05,26.74.01c8.88.17,14.43,4.62,16.21,13.29,1.27,6.19,2.08,12.47,2.94,18.74.62,4.51,2.78,7.79,6.12,10.98,10.03,9.59,22.38,12.4,35.56,13.83,58.61,6.33,117.22,12.63,175.78,19.4,38.04,4.4,75.95,9.82,113.98,14.3,13.54,1.6,27.26,2.69,40.86,2.39,23.54-.5,46.29,6.19,69.46,6.98,26.3.89,50.97,9.83,76.75,12.27,19.03,1.8,38.22,1.9,57.34,2.8,32.43,1.52,64.86,3.18,97.29,4.56,12.65.54,25.32.28,37.97.73,16.2.58,32.12,3.12,47.74,7.53,18.51,5.23,37.36,8.04,56.66,8.12,7.29.03,14.63,1.06,21.84,2.26,14.06,2.33,27.38.14,39.57-6.86,24.39-14.01,48.62-28.32,72.67-42.91,11.37-6.9,22.15-14.78,33.25-22.13,11.06-7.32,22.9-12.23,36.52-11.29,1.99.14,3.98.38,5.93.75,12.2,2.29,18.5,6.91,15.44,19.77-.53,2.23-.38,4.61-.56,7.16-1.59.37-3.12.72-4.98,1.15,3.39,9.76,6.89,18.88,14.4,26.11,9.45,9.1,17.38,19.27,19.87,32.75,1.6,8.67-.66,16.71-2.64,25.03-3.85,16.15-8.83,32.43-9.51,48.82-.52,12.56,5.4,24.85,19.08,30.76,10.35,4.47,16.16,13.02,18.76,23.82.81,3.39,1.53,6.83,1.99,10.29,4.31,32.37,9.28,64.58,20.15,95.57,5.37,15.3,12.37,29.65,21.17,43.37,5.68,8.85,10.06,18.89,12.99,28.99,1.67,5.77-.73,12.73-1.32,19.41-1.09-.15-1.78-.09-2.3-.34-18.41-9.06-37.67-9.27-57.09-4.7-20.88,4.91-41.45,11.21-62.41,15.69-35.31,7.55-70.59,15.76-106.3,20.7-39.03,5.41-78.39,11.4-117.89,9.39-42.21-2.15-84.32-6.69-126.36-11.3-17.05-1.87-33.62,0-50.18,2.35-5.03.71-9.98,5.69-13.91,9.74-7.29,7.52-13.91,15.7-20.59,23.79-6.91,8.36-15.01,13.26-26.42,13.67-20.62.73-41.19,3.04-61.81,3.92-13.17.56-25.7-3.31-37.57-8.88-14.09-6.6-28.97-9.31-44.33-10.99-10.51-1.15-20.71-4.95-31.19-6.6-27.61-4.34-55.23-8.89-83-12.02-53.17-5.99-106.46-3.19-159.71-.37-19.12,1.01-38.24,2.12-57.36,3.24-2.32.14-4.61.58-6.92.91-6.2.87-10.05,3.49-11,10.55-.73,5.47-3.32,10.77-5.54,15.95-2.33,5.42-7.46,7.46-12.75,8.57-6.79,1.42-12.73,3.81-18.11,8.6-9.17,8.17-20.87,10.69-32.69,12.36-9.16,1.3-9.25,1.22-9.16,10.22.53,57.31,1.08,114.62,1.68,171.93.05,4.3.52,8.6.8,12.9h-11c.16-1.97.49-3.95.47-5.92-.41-36.8-.86-73.6-1.3-110.4-.22-18.65-.5-37.31-.65-55.96-.1-12.76-.02-25.52-.02-38.28,2.65-.27,4.53-.47,7.53-.78-6.19-3.5-7.46-8.4-7.62-14-.27-8.98-1.19-17.96-1.17-26.94.1-75.79-.1-151.57-2.58-227.33-1.11-33.95-.56-67.96-.83-101.94-.12-14.32-.47-28.64-.63-42.96-.13-11.33-.24-22.66-.12-33.99.04-3.59,1.37-7.21,1.16-10.76-.66-11.23-2.12-22.42-2.6-33.65-.3-7.01.09-14.98,5.58-19.63,6.62-5.61,6.76-11.49,4.85-18.63-.38-1.43-.35-2.97-.58-4.45-2.05-12.91-3.82-14.02-16.82-11.87-3.6.59-4.64,2.2-4.85,5.54-.33,5.29-.43,10.73-1.85,15.76-1.32,4.68-.55,7.91,2.82,11.15,6.63,6.37,9.41,14.28,9.09,23.46-.37,10.31-.59,20.64-.68,30.96-.38,46.47-.74,92.95-1.01,139.42-.29,50.48-.47,100.96-.67,151.44-.18,44.65-.11,89.3-.56,133.95-.82,81.94-1.95,163.87-2.95,245.81H6.96Zm124.67-261.77c20.98-1.16,41.9-2.34,62.82-3.46,50.24-2.7,100.54-5.34,150.75-.56,29.3,2.79,58.46,7.32,87.59,11.7,12.3,1.85,24.23,6.47,36.55,7.81,17.39,1.89,34.12,5.24,50.03,12.68,10.03,4.69,20.7,7.78,31.85,7.18,21.45-1.17,42.85-3.01,64.29-4.33,4.65-.29,8.32-1.77,11.35-5.24,7.57-8.64,15.31-17.13,22.75-25.88,5.91-6.94,11.95-14.29,21.33-15.55,14.15-1.89,28.58-3.95,42.72-3.11,28.07,1.67,56,5.45,84.02,8.01,19.73,1.8,39.6,4.98,59.25,4.1,36.56-1.65,73.16-4.56,109.46-9.24,46.07-5.93,91.35-16.36,136.11-28.95,20.81-5.86,41.83-11.58,63.8-10.28,7.17.42,14.27,2.08,21.57,3.2,0-1.02.32-2.14-.05-2.94-4.06-8.91-7.37-18.31-12.57-26.51-8.26-13.02-15.06-26.58-20.31-41.04-11.9-32.78-17.47-66.91-21.81-101.29-1.63-12.9-6.57-22.69-19.2-28.63-15.28-7.19-21.29-22.39-20.95-37.21.42-18.22,4.11-36.67,10.7-54.14,4.38-11.61,2.8-22.7-4.55-32.66-3.84-5.21-8.11-10.16-12.65-14.77-11.22-11.39-13.45-26.95-20.5-40.85,3.02-.14,5.13.15,6.97-.43,1.52-.49,2.72-2,4.06-3.06-1.09-1.35-2.04-3.7-3.29-3.87-6.03-.8-12.24-1.92-18.19-1.23-11.28,1.3-19.91,8.64-29.25,14.42-32.84,20.29-65.73,40.52-98.95,60.19-13.7,8.11-28.97,10.39-44.88,7.9-7.06-1.11-14.23-2.24-21.34-2.24-21.68,0-42.62-4.12-63.51-9.48-10.9-2.8-22.21-4.72-33.43-5.44-20.59-1.33-41.27-1.38-61.9-2.13-35.61-1.29-71.23-2.45-106.82-4.2-15.1-.74-30.23-2.24-45.17-4.5-14.12-2.13-27.94-6.18-42.04-8.49-9.64-1.58-19.57-1.34-29.31-2.43-16.36-1.83-32.66-5.64-49.02-5.81-41.78-.45-83.02-5.95-124.33-11.04-28.58-3.52-57.06-7.87-85.65-11.33-34.38-4.17-68.82-7.87-103.25-11.63-13.38-1.46-26.81-2.52-40.41-3.79.13.88.1,1.38.27,1.8,9.54,23.15,17.35,46.83,20.88,71.69,1.19,8.35,5.04,16.74,1.14,24.12,1.74,1.86,3.5,2.94,4.06,4.47,2.53,6.87,4.84,13.82,7.01,20.81,8.31,26.7,14.12,53.77,11.86,82.02-.12,1.44.18,2.99.61,4.4,5.15,17.03,10.17,34.11,15.61,51.05,4.09,12.75,5.03,25.1.13,38.06-3.2,8.48-4.33,17.74-6.35,26.66-.14.61-.15,1.31-.01,1.93,1.66,7.43,3.7,14.78,5,22.27,3.18,18.41,5.87,36.92,2.51,55.61-2.12,11.76-4.81,23.43-7.35,35.68ZM55.23,63.93c-.33.02-.66.04-.99.07-.48,2.27-.94,4.55-1.43,6.82-2.04,9.45-3.65,19.17-11.1,26.22-4.38,4.15-5.84,9.02-5.76,14.8.34,24.15.5,48.3.87,72.45.95,61.29,2.24,122.57,2.91,183.86.52,48.16.24,96.32.47,144.48.05,9.98.86,19.96,1.26,29.93.1,2.47.65,4.16,3.71,3.93,16.58-1.23,33.2-2.16,49.75-3.67,6.37-.58,9.82-4.45,10.69-10.14,3.73-24.53,6.94-49.1,7.59-73.97.47-17.8,2.96-35.59,2.69-53.35-.38-24.77-2.32-49.53-3.96-74.27-1.11-16.78-1.77-33.69-4.52-50.22-6.07-36.44-12.18-72.94-20.49-108.91-6.8-29.44-16.8-58.15-25.4-87.18-2.06-6.97-4.19-13.91-6.29-20.87Zm71.52,360.04l-4.64,73.75c8.03-24.14,11-48.63,4.64-73.75Zm-3.12-103.8c.9,14.17,1.79,28.34,2.76,43.55,9.04-15.78,3.77-29.65-2.76-43.55ZM37.45,50.2c-1.17,5.53-2.24,10.57-3.3,15.61l1.38.29c6.37-9.99,6.92-12.67,1.92-15.9Z"/>
</svg>