<?xml version="1.0" encoding="UTF-8"?>
<svg id="Layer_1" data-name="Layer 1" xmlns="http://www.w3.org/2000/svg" viewBox="0 0 1147.9 815">
  <defs>
    <style>
      .cls-1 {
        stroke-width: 0px;
      }
    </style>
  </defs>
  <path class="cls-1" d="m108.94,150.12c0-14.49-.74-26.89.16-39.16,1.79-24.43,17.33-38.82,41.84-38.97,44.59-.27,89.18-.28,133.77-.04,25.49.14,41.72,16.31,42.4,41.73.31,11.36.05,22.74.05,36.23,26.19,0,51.69.34,77.15-.48,2.77-.09,6.58-6.44,7.79-10.51,7.59-25.59,14.57-51.37,21.79-77.07C445.04,22.18,474.32.04,515.8.03c103.05-.03,206.11-.04,309.16,0,41.13.02,71.55,24.11,81.53,64.3,5.95,23.99,12.93,47.78,17.6,72.02,2.38,12.36,8.13,14.26,19.08,14.18,42.1-.29,84.26-.99,126.28.97,44.04,2.06,77.97,37.99,78.1,82.01.46,166.05.48,332.09,0,498.14-.14,47.34-37.65,83.32-84.72,83.32-326.01.04-652.01.02-978.02-.04-46.99,0-84.41-36.33-84.51-83.52-.37-165.55-.41-331.1,0-496.65.12-49.14,37.77-83.59,90.18-84.63,5.35-.11,10.7-.01,18.45-.01Zm464.57,628.69c58.95,0,117.89,0,176.84,0,102.04,0,204.08.08,306.12-.06,33.15-.04,53.9-18.79,53.96-50.08.31-163.04.36-326.08.08-489.11-.06-33.38-19.93-52.06-53.35-52.13-46.56-.1-93.13-.21-139.69.1-12.94.09-20.07-5.12-23.09-17.89-7.51-31.76-15.69-63.37-23.65-95.02-6.13-24.37-21.87-38.2-46.24-38.28-103.03-.33-206.06-.32-309.09-.05-23.46.06-39.15,12.7-45.62,35.2-9.01,31.36-17.72,62.8-26.53,94.21-5.43,19.37-8.49,21.7-29.15,21.7-106.99.01-213.99-.02-320.98.02-37.05.01-55.84,18.64-55.85,55.71-.04,158.58-.02,317.16.09,475.74.03,42.89,17.43,59.94,60.63,59.94,158.51.01,317.02,0,475.53,0ZM146.63,148.89h142.35v-38.46h-142.35v38.46Z"/>
  <path class="cls-1" d="m664.39,154.68c151.19,2.7,272.71,113.42,289.22,265.7,15.48,142.74-85.68,280.79-229,310.33-80.3,16.55-155.36,1.75-223.83-44.25-9.31-6.26-14.15-13.86-10.17-25.05,4.34-12.2,17.53-14.86,30.85-5.85,47.56,32.16,99.9,46.36,157.23,43.89,111.84-4.83,212.09-91.27,233.94-202.34,31.88-162.02-95.43-310.34-260.38-303.36-187.27,7.92-301.41,216.37-207.24,378.49,2.98,5.14,6.38,10.05,9.11,15.31,5.35,10.31,3.77,19.79-6.45,25.6-9.95,5.66-19.08,3.16-25.61-6.8-22.28-34-37.2-71-43.71-111.09-24.39-150.33,67.47-291.78,214.52-329.4,23.27-5.95,47.65-7.55,71.52-11.17Z"/>
  <path class="cls-1" d="m664.1,664.51c-120.43-.23-217.69-98.11-217.5-218.89.19-119.8,98.84-217.04,219.73-216.58,118.5.45,216.66,99.17,216.14,217.35-.53,120.9-98.09,218.35-218.37,218.12Zm180.92-217.12c.06-99.63-80.55-181.04-179.48-181.26-99.91-.22-181.08,80.02-181.33,179.24-.25,100.72,80.01,181.98,179.99,182.23,98.84.25,180.76-81.4,180.83-180.21Z"/>
  <path class="cls-1" d="m217.83,303.38c-.69,40.55-33.06,71.99-73.48,71.37-40.19-.61-72.13-33.56-71.41-73.66.74-41.36,33.49-73.05,74.43-72.04,40.36,1,71.16,33.49,70.47,74.33Zm-107.9-2.28c-.33,19.94,15.35,36.15,35.24,36.44,19.59.28,36.33-16.18,36.25-35.66-.07-19.07-15.68-35.01-34.75-35.49-20.14-.5-36.41,14.87-36.74,34.71Z"/>
</svg>