<?xml version="1.0" encoding="UTF-8"?>
<svg id="Layer_1" data-name="Layer 1" xmlns="http://www.w3.org/2000/svg" viewBox="0 0 1034.27 940.16">
  <defs>
    <style>
      .cls-1 {
        stroke-width: 0px;
      }
    </style>
  </defs>
  <path class="cls-1" d="m571.03,940.16c.05-29.33.07-58.66.21-88,.02-4.26-2.93-5.25-5.94-6.21-10.07-3.21-19.62-7.34-27.72-14.37-12.16-10.55-20.58-23.41-24.81-39.02-.56-2.07-1.97-4.05-3.42-5.7-6.27-7.12-5.3-26.09,1.7-32.53.99-.91,1.69-2.33,2.12-3.65,9.04-27.61,27.47-45.46,55.5-53.17,3.68-1.01,5.58-2.91,5.6-6.5.08-15.47.03-30.95.03-46.18-.74-.37-1.04-.66-1.27-.61-9.88,2.13-10.94,1.3-11.18-8.88-.28-11.63-7.36-15.77-17.79-9.72-10.65,6.17-20.91,13.05-31.21,19.8-16.02,10.5-31.91,21.19-47.9,31.73-6.5,4.28-9.9,10.12-9.79,17.97.1,7.66.09,15.33.13,22.99.03,5.89-6.37,12.39-12.26,12.04-1.34-.08-2.93-1.38-3.84-2.56-6.49-8.42-12.78-17-19.31-25.39-.85-1.09-2.74-1.36-4.15-2.01-.59,1.38-1.63,2.75-1.7,4.16-.21,4.32.1,8.66-.08,12.98-.21,5.26.37,9.71,4.48,14.03,5.33,5.59,3.65,13.96-3.33,19.14-7.46,5.55-15.37,10.48-23.88,16.22-.28-9.05-1.25-17.03,4.9-24.16,2.26-2.62,3.56-6.84,3.69-10.39.54-13.95.35-27.92.65-41.88.1-4.78-2.84-5.37-6.3-5.29-3-11.56-.77-18.26,8.09-24.87,4.52-3.37,8.46-3.62,12.62.28,5.44,5.11,10.25,10.89,15.58,16.13,2.06,2.03,5.03,4.94,7.21,4.65,4.41-.58,5.37-4.99,5.26-9.02-.13-4.8-.64-9.59-.98-14.31-.34-.28-.61-.67-.84-.65-5.4.45-6.5-2.09-6.19-7.17.49-8.04,3.3-13.62,10.87-17.5,5.79-2.97,10.59-7.86,16.15-12.15,1.69,8.73,2.54,16.62-4.16,23.78-1.97,2.11-2.53,6.55-2.1,9.7.9,6.72,5.19,8.38,10.63,4.28,25.01-18.83,49.97-37.73,74.79-56.82,7.24-5.57,7.29-9.67,1.28-16.78-9.59-11.37-21.93-18.93-35.47-24.42-38.69-15.7-77.5-31.12-116.29-46.56-7.46-2.97-9.94-1.1-11.63,6.9-1.26,5.98-3.32,11.79-5.01,17.68-.36,1.27-.81,2.54-.97,3.84-.86,7.13-1.65,7.72-8.5,6.08-10-2.4-11.22-4.71-12.75-14.9-1.61-10.78-4.62-21.34-7.01-32-.82-.01-1.65-.03-2.47-.04-2.38,9.04-5.16,17.99-6.99,27.14-1.11,5.57-1.47,6.54-7.26,5.78-8.82-1.15-12.17-4.8-14.13-13.53-5.87-26.14-12-52.22-18.18-78.28-.51-2.13-1.74-4.6-3.43-5.86-7.93-5.94-8.84-7.85-6.77-17.41.17-.8.44-1.59.77-2.79,10.4,3.98,20.72,7.66,30.81,11.88,7.19,3.01,10.08,10,5.49,16.42-6.29,8.81-2.51,16.29.31,24.3.53.19,1.06.37,1.59.56,1.84-4.76,4.01-9.43,5.42-14.31,1.43-4.93,1.96-10.12,3.15-15.13.94-3.95,3.38-5.27,7.51-3.94,10.62,3.44,15.86,10.3,17.51,21.39,1.15,7.72,3.63,15.23,5.74,23.75,8.16-9.12,8.23-11.21,1.68-18.66-3.03-3.44-3.13-11.15.29-14.31,1.05-.97,3.73-1.13,5.22-.54,8.95,3.51,17.72,7.48,26.66,11.01,6,2.37,9.46,11.25,5.78,16.45-.87,1.23-3.11,2.02-4.75,2.07-3.62.12-5.56,1.95-6.49,5.12-.98,3.35-1.82,6.75-2.6,10.15-.8,3.48,1.94,4.09,4.26,4.94,19.68,7.21,39.36,14.42,59.05,21.6,19.7,7.18,39.45,14.2,59.09,21.54,9.95,3.72,19.94,3.51,29.98,1.21,7.46-1.7,9.88-5.54,9.06-13.03-.44-4.02-1.26-8.2,3.74-10.17,4.42-1.74,9.23.35,12.23,5.25.6.99.83,2.33,1.64,3.05,1.24,1.09,3.09,2.73,4.21,2.42,1.55-.42,3.21-2.23,3.81-3.83.66-1.75.16-3.94.16-5.93.04-19.33.16-38.66,0-57.98-.01-1.63-1.48-3.97-2.92-4.74-8.73-4.64-15.15-11.25-19.15-20.32-.84-1.9-2.3-3.62-3.77-5.14-6.72-6.94-6.65-14.27.2-20.99,1.5-1.47,2.93-3.21,3.82-5.1,4.64-9.8,11.97-16.6,21.89-20.9,1.82-.79,4.23-3,4.28-4.63.48-13.29.48-26.6.55-39.91,0-1.12-.49-2.25-.9-3.96-3.8,1.73-7.29,3.5-10.91,4.92-8.2,3.22-16.02,2.65-23.06-3.04-4.22-3.41-6.43-7.79-6.02-13.86,5.01,1.93,9.54,4.02,14.29,5.34,2.28.63,5.9.75,7.28-.58,3.03-2.94,3.46-7.44,1.24-11.07-1.1-1.8-4.02-2.93-6.33-3.44-3.97-.89-7.43.66-10.44,3.5-1.62,1.53-3.72,2.55-5.78,3.93-2.89-11.96,1.6-16.92,20.03-22.17-29.66-17.32-57.76-35.94-90.52-47.96.62,4.95,1.19,9.01,1.63,13.09,1.17,11.04-3.67,18.45-12.84,19.73-10.41,1.46-21.1-5.45-22.35-15.34-.84-6.66-.16-13.52-.16-20.73-5.25,0-10.19-.05-15.13,0-55.98.71-111.95,1.32-167.92,2.36-5.4.1-11.21,2.04-16.03,4.62-19.23,10.27-38.17,21.1-57.17,31.79-16.08,9.04-32.74,10.34-50.07,4.16-1.69-.6-3.65-1.47-5.25-1.13-13.95,2.92-27.5-.9-41.21-2.05-6.9-.58-13.95-.4-20.86.26-5.52.52-10.35.31-15.2-2.9-7.64-5.06-16.27-3.48-24.76-2.76-4.41.37-9.17.69-13.25-.6-3.27-1.03-6.42-4.08-8.42-7.05-3.09-4.58-1.7-8.38,3.07-11.35,1.55-.96,3.23-1.73,4.89-2.49,9.33-4.29,13.89-11.73,13.77-21.83-.12-9.98-4.45-17.55-13.82-21.87-7.08-3.27-7.54-5.48-2.61-11.45,4.95-5.98,11.21-7.95,18.77-6.34,5.04,1.07,10.18,2.78,15.19,2.52,4.72-.24,10.23-1.57,13.74-4.44,4.54-3.71,8.77-3.87,13.82-3.09,4.6.71,9.31,1.81,13.86,1.42,3.69-.32,8-1.75,10.64-4.2,4.44-4.12,9.09-5.22,14.63-4.21,3.27.6,6.52,1.96,9.77,1.94,4.86-.03,10.52.44,14.42-1.78,13.36-7.62,26.2-6.22,39.09.26,18.59,9.34,37.23,18.58,55.45,28.6,8.66,4.76,17.38,7.04,27.14,6.83,41.14-.86,82.28-1.55,123.42-2.28,16.66-.29,33.31-.51,49.97-.77,2.67-.04,5.35.03,7.99-.26,5.61-.6,7.89-3.19,7.97-8.9.08-5.64-.43-11.33.21-16.89.99-8.57,6.6-13.47,14.63-15.84,8.36-2.47,16.18-2.09,22.7,4.5,4.94,5,6.29,17.1,2.29,22.98-1.06,1.55-3.38,2.56-5.32,3.09-1.85.51-3.97.18-5.97.04-10.07-.7-11.41-2.6-8.96-12.87,3.48-.32,7.05-.64,10.62-.96.04-.82.08-1.64.13-2.46-3.87-.42-7.91-1.73-11.57-1.03-4.27.81-8.43,3-12.25,5.26-5.21,3.08-5.35,7.16-.33,10.56,11.01,7.46,22.6,9.36,34.8,2.66,20.86-11.47,41.74-22.89,62.61-34.34,4.64-2.55,9.26-5.14,14.93-8.29-4.4-1.4-7.8-2.41-11.14-3.57-5.13-1.78-8.69-4.76-8.41-10.86.1-2.13-.5-4.29-.71-6.45-1.51-15.5,9.93-25.23,24.95-20.92,4.25,1.22,8.18,3.63,12.2,5.6,3.37,1.65,5.68,1.11,5.72-3,.17-14.48.29-28.97.18-43.45-.05-6.01-2.59-9.99-8.59-13.07-5.81-2.98-10.67-8.26-15.15-13.24-3.4-3.77-5.59-8.64-8.26-13.05-4.39-7.26-3.61-13.79,2.1-20.07,1.99-2.18,3.86-4.55,5.38-7.07,14.59-24.13,49.55-24.58,64.84-.84,2.6,4.04,5.47,7.92,8.44,11.69,5.15,6.54,4.78,12.84-.98,18.68-2.17,2.2-4.14,4.75-5.59,7.46-4.8,8.93-11.94,14.94-21.26,18.76-1.7.7-3.79,3.14-3.82,4.8-.27,18.46-.17,36.92-.17,56.26,1.52-1.3,2.46-2.07,3.36-2.89,8.67-7.89,18.82-8.79,29.45-5.61,7.09,2.12,11.53,10.81,10.7,19.05-.96,9.58-6.06,16.72-13.81,23.04,22.39,12.67,44.43,25.13,67.03,37.91.57-2.4,1.07-4.1,1.35-5.83.16-.97-.07-1.99-.09-2.99-.43-18.21,13.39-27.01,30.03-19.12,6.1,2.89,8.62,8.06,9.04,14.45.29,4.32.19,8.66.48,12.98.46,6.94,2.25,8.87,9.32,8.85,11.82-.04,23.64-.52,35.46-.78,33.64-.73,67.28-1.42,100.92-2.17,2.65-.06,5.33-.27,7.93-.76,3.97-.73,4.76-3.04,2.91-6.57-2.28-4.35-4.56-8.72-6.5-13.23-.63-1.48-.91-4.12-.07-4.99,1.29-1.33,3.69-2.15,5.62-2.16,2.05,0,4.14,1.11,6.16,1.88,39.46,15.08,79.8,26.75,121.82,32.18,3.75.48,7.31,2.47,12.08,4.16-7.97,6.4-16.1,7.82-24.15,9.37-38.02,7.29-74.8,18.88-111.15,31.95-3.3,1.19-6.76,2.86-9.72-.34-3.05-3.29-1.58-6.86.21-10.18,2.12-3.93,4.42-7.76,7.07-12.39-2.16-.15-3.84-.38-5.53-.37-38.66.2-77.33.33-115.99.7-10.81.1-21.62.84-32.43,1.44-4.26.24-6.32,2.64-5.57,7.04.11.64.21,1.36.58,1.86,5.54,7.61,4.63,16.64-2.32,22.71-5.81,5.07-12.39,7.72-20.22,6.4-6.24-1.05-10-4.46-11.48-10.84-1.54-6.62-3.77-13.08-5.85-20.1-10.28,6.16-20.55,11.96-30.45,18.33-16.38,10.53-32.47,21.51-48.81,32.11-4.67,3.03-10.16,4.65-12.55,10.61-2.48,6.19,2.56,14.49,9.27,13.97,1.26-.1,3.21-2.69,3.31-4.22.29-4.62-.42-9.3-.2-13.93.07-1.47,1.52-3.61,2.86-4.16,7.62-3.12,14.42-1.4,18.36,4.22,5.75,8.19,5.8,19.23.23,26.17-5.03,6.26-11.72,7.6-18.91,5.64-6.51-1.78-12.74-4.57-20.4-7.41-.17,13.16-.34,26.03-.49,38.9,0,.67.17,1.35.08,1.99-.99,7.06.99,11.53,8.57,14.15,8.05,2.79,13.49,9.43,17.58,17.01,1.55,2.87,3.51,5.61,5.71,8.02,6.01,6.57,6.18,14.39.38,21.09-3.02,3.5-5.4,7.62-8.7,10.8-5.09,4.89-10.76,9.17-16.1,13.82-1.32,1.15-3.25,2.71-3.27,4.11-.22,16.66-.14,33.33-.1,50,0,.61.33,1.23.51,1.83.65.1,1.15.3,1.61.22,10.14-1.65,10.58-1.27,10.67,9.31.07,8.69,2.8,10.98,11.45,9.5,10.47-1.79,19.31-6.96,27.63-13.27,19.12-14.49,38.21-29.01,57.47-43.31,5.33-3.96,7.91-8.27,6.64-15.24-2.55-14.04,2.61-26.19,11.97-36.13,8.62-9.17,18.07-17.66,27.87-25.58,7.59-6.14,16.28-10.93,24.42-16.27.45.3.84.41.96.66,4.56,9.09,2.33,18.76.91,27.81-1.07,6.87-8.52,9.96-14.56,13.62-.73-1.4-1.16-2.28-1.63-3.13-2.45-4.43-4.28-5.04-8.3-2.23-5.59,3.92-11.12,7.93-16.48,12.16-4.9,3.86-8.18,8.92-8.33,15.29-.05,2.21.83,5.26,2.4,6.42,1.26.92,4.61.19,6.32-.91,5.73-3.7,11.34-7.63,16.6-11.96,5.13-4.22,10.85-5.48,17.21-5.22,4.74.2,7.34,2.48,7.82,7.29,2.51,24.8-4.33,45.88-24.87,61.19-12.55,9.36-25.46,18.22-38.22,27.29-.5.35-1.11.55-2.1,1.02-.72-12.46-1.42-24.5-2.18-37.54-3.73,1.98-7.06,3.2-9.74,5.27-21.9,16.87-43.72,33.84-65.44,50.93-3.38,2.66-6.29,5.97-9.17,9.19-4.98,5.58-5.03,9.7-.3,15.54,7.99,9.87,17.7,17.95,29.18,23.05,20.66,9.18,41.69,17.52,62.7,25.87,15.3,6.08,30.84,11.57,46.22,17.47,3.32,1.27,4.85.32,6.02-2.83,2.63-7.1,1.69-10.48-3.51-16.09-2.13-2.3-3.77-5.58-4.34-8.66-.74-3.97-.18-8.18-.18-12.89,9.31,3.45,18.17,6.73,27.02,10.01,16.54,6.12,33.08,12.23,49.6,18.38,6.69,2.49,7.61,3.88,7.63,11.08.02,6.45,0,12.9,0,19.76-9.31-1.58-17.9-2.82-19.87-13.94-.25-1.44-2.62-2.9-4.32-3.61-8.87-3.71-17.81-7.26-26.81-10.64-1.2-.45-3.52-.17-4.22.68-5.82,7.03-3.63,15.34,4.77,18.96,8.88,3.83,11.15,8.36,8.79,17.25-1.08,4.04-3.13,5.65-7.29,3.73-1.87-.87-3.96-1.26-5.83-1.83-.46.81-.72,1.08-.77,1.38-2.67,16.63-1.6,18.84,14.32,25.04,5.2,2.02,10.87,3.18,16.43,3.84,2.83.34,6.21-.73,8.79-2.15,4.15-2.28,7.76-2.17,10.89,1.11,6.27,6.59,9.24,14.59,8.54,23.69-.4,5.22-3,6.78-7.8,4.95-24.56-9.38-49.1-18.81-73.61-28.3-4.92-1.91-8.07-13.29-4.77-17.28.79-.96,2.63-1.51,3.96-1.46,4.25.15,4.67-2.16,4.04-5.47-.31-1.62-.68-3.26-.72-4.9-.26-9.95-.28-10-9.88-13.37-36.89-12.94-73.81-25.8-110.63-38.92-8.56-3.05-16.9-3.42-25.4-.49-6.02,2.07-8.23,5.43-8.14,11.61.05,3.53,1.36,7.58-3.36,9.41-4.66,1.81-8.06-.55-11.11-3.61-1.15-1.16-1.85-2.76-2.97-3.96-.99-1.07-2.28-1.87-3.44-2.79-.87,1.41-2.35,2.76-2.5,4.24-.43,4.46-.41,8.98-.45,13.47-.14,14.83-.16,29.66-.4,44.49-.06,3.66.78,5.54,4.79,6.62,25.9,7,43.64,23.24,53.47,48.21,1.09,2.76,2.44,5.49,4.08,7.96,7.01,10.57,7.55,21.25,1.2,32.33-1.47,2.57-2.55,5.45-3.31,8.31-6.95,26.38-24.18,42.56-49.78,50.55q-8.72,2.72-8.72,11.65c0,25.84-.01,51.67.02,77.51,0,1.98.31,3.95.47,5.93h-33.01Zm30.17-775.65c0,15.28-.02,29.41.01,43.54.02,6.61,1.29,7.87,7.88,7.88,23.13.02,46.25.04,69.38-.07,1.7,0,3.4-1.07,5.11-1.65-1.21-1.34-2.18-3.08-3.66-3.95-23.93-14.05-47.92-27.99-71.91-41.94-1.96-1.14-3.95-2.22-6.8-3.81Zm-19.2,135.17c.22-1.15.49-1.9.49-2.64.02-14.82.09-29.64-.02-44.46-.04-5.32-1.99-7.24-7.34-7.25-23.98-.08-47.97-.06-71.95.04-1.17,0-2.33,1.12-3.5,1.72.79,1.09,1.35,2.53,2.41,3.19,4.37,2.73,8.89,5.22,13.35,7.81,16.83,9.74,33.78,19.3,50.44,29.33,5.62,3.38,10.51,7.95,16.12,12.28Zm.19-134.12c-5.58,4.68-10.23,9.8-15.91,13.14-19.34,11.38-39.06,22.09-58.56,33.21-1.42.81-2.14,2.82-3.19,4.27,1.51.64,3.02,1.86,4.52,1.84,14.3-.13,28.6-.49,42.91-.74,8.15-.14,16.31-.15,24.46-.31,4.31-.09,6.82-2.05,6.8-6.74-.07-13.81,0-27.62-.07-41.43,0-1.23-.71-2.46-.95-3.25Zm93.69,80.64c-.21-.52-.42-1.03-.63-1.55-22.65,0-45.31,0-67.96,0-4.25,0-6.31,1.94-6.31,6.44,0,11.66-.39,23.32-.34,34.97.01,2.44,1.26,4.88,1.94,7.31,2.37-.99,4.75-1.96,7.11-2.97.3-.13.54-.38.82-.57,18.02-11.97,36.04-23.93,54.05-35.92,3.8-2.53,7.55-5.15,11.32-7.73Zm54.28,236.43c.65.56,1.3,1.11,1.95,1.67,1.78,1.64,3.76,3.12,5.3,4.97,3.72,4.46,5.78,5.45,10.5,1.92,7.27-5.43,14.03-11.6,20.66-17.83,1.76-1.66,2.97-4.67,3.04-7.11.07-2.31-1.09-5.47-2.82-6.77-1.24-.93-4.77-.06-6.5,1.13-9.16,6.35-18.05,13.1-27.1,19.61-1.49,1.07-3.34,1.61-5.03,2.4Zm-23.63-223.66c.82,1.47,1.7,2.3,1.62,3.03-.6,5.31,2.09,8.95,7.43,7.9,5.7-1.12,11.23-3.61,16.47-6.25,1.8-.91,2.85-3.95,3.5-6.22.34-1.19-.54-3.57-1.57-4.14-3.11-1.72-6.57-2.82-10.62-4.45-.75,11.32-8.53,10.68-16.81,10.14Zm-143.35-114.97c.15-3.85-1.68-6.47-5.97-6.65-5.05-.21-12.33,5.58-12.35,9.54,0,3.01,6.8,7.31,11.42,7.21,4.27-.1,6.92-3.85,6.89-10.09Zm142.9,52.11c2.82.35,4.78.89,6.69.77,4.6-.3,7.72.89,8.64,6.03.22,1.19,2.99,3.15,3.6,2.83,3-1.54,6.06-3.38,8.24-5.88.84-.96.1-4.8-1.15-5.83-5.99-4.94-18.77-4.07-26.02,2.08Zm-139.05-58.17c0,6.26,0,11.49,0,16.72,0,1.33-.07,2.67.1,3.97.43,3.38,2.1,4.08,5.15,2.49,9.09-4.73,9.94-11.87,2.01-18.3-2-1.62-4.28-2.9-7.26-4.89Zm53.96,8.13c1.22,1.91,2.42,5.41,3.68,5.43,4.31.07,8.74-.78,12.91-1.98.98-.28,2.08-4.49,1.55-4.92-2.68-2.15-5.88-3.64-8.91-5.35-.13-.08-.33-.05-.49-.08-6.62-1.19-7.61-.4-8.74,6.9Zm-2.99,1.44c.43-3.88.37-6.6-3.96-6.43-4.41.17-8.03,3.82-8.16,8.44-.14,4.85,4.7,10.33,9.66,9.18,7.81-1.81.44-8.18,2.46-11.19Zm-50.96,156.01c0,6.72-.11,12.33.09,17.92.04,1.24.92,3.11,1.89,3.49,1.04.41,2.91-.22,3.95-1.02,6.91-5.3,6.92-10.02.18-15.56-1.75-1.44-3.54-2.82-6.1-4.84Zm63.76,10.43c-.28.42-.55.84-.83,1.26-1.32,0-2.69-.2-3.97.04-3.54.67-5.02,3.1-4.65,6.5.38,3.43,2.88,4.12,5.83,3.8,1.31-.14,2.66-.31,3.89-.75,3.02-1.06,6.72-2.42,5.79-6.17-.48-1.95-3.95-3.15-6.07-4.69Zm-169.33-47.3c-3.99-.64-6.89-.94-9.71-1.6-5.29-1.22-.37-5.52-2.45-8.11-3.76-.92-7.07.9-8.11,4.21-.51,1.64,1.92,5.14,3.91,6.44,4.97,3.25,10.25,2.44,16.37-.95Z"/>
</svg>