<?xml version="1.0" encoding="UTF-8"?>
<svg id="Layer_1" data-name="Layer 1" xmlns="http://www.w3.org/2000/svg" viewBox="0 0 1175.86 771">
  <defs>
    <style>
      .cls-1 {
        stroke-width: 0px;
        fill: inherit;
        color: inherit;
      }
    </style>
  </defs>
  <path class="cls-1" d="m0,74.56C24.18,17.81,44.84,4.27,107.41,4.27c184.61-.01,369.21-.04,553.82.01,70.21.02,102.18,31.92,102.18,101.79.02,188.12.05,376.25-.02,564.37-.02,62.62-33.74,96.33-97,96.38-186.35.16-372.7-.95-559.04.69-54.17.48-89.95-19.43-107.36-70.93V74.56Zm705.52,310.58c0-94,.07-188-.04-281.99-.04-31.73-8.73-41.68-39.35-41.73-189.7-.3-379.4-.3-569.11.03-28.66.05-39.01,11.24-39.03,40-.15,188.87-.14,377.73-.01,566.6.02,31.89,9.84,41.72,42.56,41.76,187.96.19,375.92.22,563.89-.03,32.57-.04,41.05-9.43,41.07-42.64.08-94,.03-188,.03-281.99Z"/>
  <path class="cls-1" d="m1175.86,727.94c-24.72,49.36-54.78,56.12-99.08,21.13-64.83-51.2-129.68-102.41-193.55-154.81-38.19-31.33-58.5-72.68-58.76-122.72-.29-57.43-.35-114.87,0-172.3.3-50.03,20.75-91.15,59.16-122.42,64.06-52.16,128.88-103.38,193.62-154.69,44.36-35.16,73.87-28.65,98.61,21.06v684.74Zm-58.75-664.01c-71.48,57.53-140.18,109.39-204.16,166.54-17.67,15.78-27.97,46.79-29.94,71.75-4.39,55.34-1.77,111.28-1.2,166.97.35,34.18,14.87,61.77,41.79,83.14,53.12,42.17,105.93,84.72,158.93,127.04,10.46,8.35,21.17,16.38,34.59,26.74V63.93Z"/>
</svg>