<?xml version="1.0" encoding="UTF-8"?>
<svg id="Layer_1" data-name="Layer 1" xmlns="http://www.w3.org/2000/svg" viewBox="0 0 1179.93 732.36">
  <defs>
    <style>
      .cls-1, .cls-2 {
        stroke-width: 0px;
      }

      .cls-2 {
        fill: #fff;
      }

      .cls-3 {
        fill: none;
        stroke: #000;
        stroke-miterlimit: 10;
        stroke-width: 2px;
      }
    </style>
  </defs>
  <g>
    <g>
      <path class="cls-3" d="m917.33,494.19c-2.82-7.66-9.15-5.76-10.13-9.17-.71-2.52-2.19-1.47-3.53-1.08-.11-.28-.13-.56-.07-.83-.56-.04-.49-.02-.03.32.52.39-.19-.12.19.39-.58.61-1.47.99-2.04.64-5.86-3.55-12.13-3.31-18.28-3.95-11.37-1.44-19.89,6.33-30.94,5.47-.71-.16-2.02.41-2.39,1.01-2.62,4.19-7.74,3.75-12.23,4.75,2.58-2.65,9.33-1.06,2.93-5.47-3.03-1.86-1.54-7.76-5.41-8.29-3.66,2.29,2.79,12.86-6.13,10.04-3.18-.98-6.07,2-9.76,1.82-6.21-.3-11.93,2.46-17.83,3.67-4.05.83-4.74,1.86-5.81,4.5-1.88,1.88-7.52.26-6.75,4.79.45,2.3-4.92,1-4.31,3.51.27.6.7,1.1,1.87.46,2.51-1.38,1.56,2.98,4.02,2.13,2.62-1.1-1.8-5.66,4.41-6.47,2.05.09,1.7,2.87,2.66,4.38.64,1.01-1.19,2.98,1.38,3.77.72.22-.75,1.6-.89,1.46-3.05-2.84-3.51,1.01-4.12,1.92-1.48,2.22,2.81,1.07,2.38,3.09-2.37.84-5.52-1.88-6.7,1.78-.7,2.02,1.66,1.32,2.43,2,2.92,2.55,7.33,2.57,10.07,5.39.84.87,2.14.9,2.92.47,3.13-1.73,4.45,2.7,7.24,1.74-.87,1.53.23,3.01.11,4.56-.2,2.53-3.15,1.07-3.89,2.75-4.02-3.3-4,4.12-7.17,5.7,1.12-6.75.38-7.75-6.37-10.64-2.19-.94-3.92-2.82-6.73-1.96-.43.13-1.39-.13-1.41-.31-.69-6.83-6.97-3.86-11.12-5.94.45,1.09.56,1.82.79,1.83,3.26.26,4.13,2.18,2.87,4.83-1.29,2.73,1.95,7.42-4.23,8.32-4.29,1.92-.53-5.65-9.25-5.7-2.37.14-6,1.9-5.4,6.41.18,1.37-4.94,2.27-5.23,2.04-3.1-2.49-7.47-.42-10.65-2.05,1.86-4.26-3.48-3.55-4-6.14-1.5-4.37-6.18-5.6-10.5-3.45,1.24-3.46-5.71-3.23-2.51-7.57-2.72-.07-6.89,3.8-7.51-1.47-.06-.5-2.09-.38-2.75.57-1.5,2.14-5.35,1.37-5.9,4.91-.21,1.35,2.39,2.95-.18,3.67-2.87.8-5.36,3.49-8.66,2.64-7.7-1.98-15.68-3.29-23.19-5.43-5.05-1.44-10.44,1.14-15.63,1.57-1.78.15-3.9.51-5.86,1.01-1.33.34-4.01-1.03-3.5,2.46.18,1.19-1.1.86-1.46.83-8.52-.96-16.28,6.79-24.87,7.95-1.8-2.6-6.33,2.04-7.49-.93-.68-1.84,2.95-3.76,2.92-5.9-11.92,1.63-.07,10.37-7.08,15.58-4.58.55-6.19,5.46-7.85,4.55-4.08-1.02-4.83,3.48-6.6,5.29-6.98,7.11-14.7,12.19-23.61,15.11-4.05,4.03-8.09,3.25-12.16,4.54-2.97,1.33-5.86,2.97-8.95,4.03.53-7.16-6.27.4-8.8-.6-2.69-.18-3.94,4.78-.24,3.7.85,3.91-2,8.39-5.82,9.08-4.89-.56-9.26,1.01-12.53,7.49-1.99,5.27-7.34,5.03-10.83,8.43-7.55,1.31-9.23,11.38-17.44,10.1-.1,2.41,2.25,2.94,1.85,5.28-1.17,4.53-5.62,7.72-8.57,11.5-16.41,19.21-18.28,37.93-23.64,59.54l.28-.21c-5.54-3.53,8.77-40.15,12.94-47.54-5.99,5.77-10.9,12.14-14.87,18.94-3.18,5.44,2.18,7.56-1.7,13.74-.55.87.17,1.95-.34,2.91-11.46,18.68.29,41.34-10.18,40.23-1.79.08-4.64,1.18-6.51,2.88-16.11,13.44-2.81-13.79-29.11-6.51-3.27.74-6.51.93-7.66-.57-4.23-5.52-10-9.08-15.71-12.69-2.34-1.48-3.54-4.1-7.26-4.14-7.29-.07-6.81-6.36-4.37-14.04,2.81-9.33,4.3-17.39,3.23-24.81,8.91-8.87,3.09-14.26,10.18-22.74,3.26-3.89,4.32-7.97,1.06-9.86-3.48-2.02-4.83-5.96-3.21-11.46,1.29-4.38.06-7.54-.62-10.42-1.54-6.51-.72-13.29,1.78-21.5,1.78-5.82,1.14-11.17,2.95-17.17,1.82-6.06.3-10.05-1.16-14.4-1.49-4.46-6.56-6.74-5-12.86.76-2.99-.22-4.44-4.77-3.27-4.1,1.06-5.08-1.77-8.53-1.29-6.1.85-11.53,1.23-13.79-1.94-.18-.25-1.38-.15-1.39-.14-4.86,5.37-7.72,2.91-11.5,4.17-2.54.85-4.92,1.45-7.08,3.64-5.5,5.6-14.58,9.85-18.69,16.32-7.61.82-20.82,16.55-27.53,7.27-4.07-3.98-9.01-7.45-11.48-12.18-3.02-5.78-4.73-12.62.18-22.11,3.46-5.64,10.65-8.61,10.35-14.63.36-2.21,1.38-4.41,4.14-7.16,4.38-5-3.26-9.66-4.11-14.32-2.13-4.68,2.45-15.93-2.79-17.06-1.94-.58.19-3.33,1.38-5.39,2.01-3.5.56-4.81-3.79-4.98-11.9-.47-24.89-.02-35.13-1.88-1.94-.35-4.73-.04-6.87-.32-7.61.99-13.28,12.86-20.94,13.04-24.07-1.49-46.88-3.77-71.05-4.28-4.67-.2-8.36-.88-10.19-2.95-5.13-5.83-11.26-10.98-16.73-16.3-8.02-7.8-15.65-15.43-23.3-22.72-1.14-1.08,2.27-2.88,4.87-3.77,7.9-2.69,2.99-2.54,2.28-2.53-5.81.11-10.49-.46-15.69-.71-10.5-.51-21.62-.65-31.1-1.74-8.64.68-11.81-1.98,1.52-8.62,9.03-4.54,13.36-8.09,15.35-11.4,1.94-3.24,4.17-6.52,5.85-9.61.7-1.28,2.75-3.21-3.88-1.37-2.92.81-3.83.08-.06-1.89,9.14-4.77,9.26-5.58,3.27-6.04-11.26-1.36,8.37-8.86-3.18-10.72-3.41-.76-4.83-2.4-9.19-2.83-4.64-2.54,25.43-11.83,23.27-14.04-.78-.23-.99-.97.15-1.4,7.61-2.88,7.28-4.78,8.31-6.26,2.98-4.26,11.8-9.54,14.11-13.41,1.2-2.01,6.67-3.97,10.42-5.92.75-.39,2.06-.59,2.94-.62,1.5.18,11.28-3.3,8.8-4.36-3.4-.39-.68-2.41.83-4.1,6.87-3.17,9.53-6.31,18.27-9.39,2.26-.79,1.84-1.53,1.64-1.88-.42-.73,2.9-2.55-.41-2.45-.34.01,1.25-1.07,2.61-1.32,2.2-.4,3.26-1.15,3.48-1.44,2.58-2.05,5.39-4.15,7.25-6.66,1.93-3.04,10.72-7.42,16.52-9.92,8.5-2.89,15.97-7.28,16.55-9.63,3.91-4.52,19.32-6.7,24.99-9.82,12.22-3.01,19.94-10.51,31.09-14.39,5.17-1.52,2.83-2.99,7.7-3.8,26.2-7.21,49.17-18.6,74.38-26.16-.56-.04-1.26.2-1.73-.02.48-.22.89-.49.45-.53-2.73-.1,1.71-1.51,2.61-1.21-.32.27-.2.41.69.38.15-.6,2.36-1.5,3.22-1.7,3.39-.78.37-.55.65-.81.46-.62,1.59-1.12,3.72-1.43,2.5-2.63,6.44-4.06,9.69-6.13,2.15-2.12,4.84-3.59,8.12-4.45.45.02.86.15.81.3-.56,2.09,3.81,2.61,8.86,2.9,1.68.1,1.72.85,4.51.49-3.61,1.32-.39,1.97-3.51,3.2-2.77.41-3.3,1.44-5.74,2.38,3.97-2.26,10.07-3.09,13.82-5.87-.06-.01.28-.11-.01-.07-.77.43-1.92.56-2.2-.25,1.45-.95,9.25-1.58,8.04-3.43-.38-.24,1.39-.9.1-1.01,96.44,9.25,194.33,14.05,291.56,11.94,2.19-.03,2.2-.26,2.49-1.4.51-.42-.67-1.14,1.39-1.24,4.17-.32,3.3,1.39,3.5,3.83-.15.37.85.44,1.19.42,2.97.19,6.06.1,8.5,1.11.64.58,2.75,0,3.02-.14,4.2-1.56,10.2-.98,12.84,2.03.27-1.09,2.97-1.75,4-.86.21.92,2.76.35,3.67.9,3.01,2.42,8.6-2.3,10.66.04,4.92-.89,8.59.43,13.64.14-4.84,2.31-12.73,2.55-17.33,4.94-3.69,1.8-7.75,3.75-11.53,5.24-.11.12-1.31-.02-.89.51,4.86,1.46,10.86-2.64,15.81-1.99,1.34.57-3.86,2.94.93,2.11,6.45,1.59,8.85-2.29,14.23-2.28,7.41-.64,12.8-7.33,20.52-5.35.13.5-.81.35-1.29.44-3.74.71-6.63,2.78-6.3,4.59.86.14,1.05-.27,1.58-.4.81-.19.58-.89,1.61-.8,1.93.16,4.1-.08,5.79.48,2.06,1,2.92,2.71,5.89,2.14,2.72-.41,6.3.92,8.62-.54,2.4-1.63,6.53-1.67,10.12-2.07,2.18-.21,4.5-1.4,6.82-.6-.27.54,1.33,1.05.24,1.51,2.1-.02,4.34.5,6.34.19.51-.36,1.32-.76,2.18-.45,3.5,1.03.29,2.27,2.7,2.07,3,.05,2.23,1.65,5.97.98.36.24.01.35-.37.44-3.45.42-7.12.49-10.67.34,0,.48,0,.97.01,1.57-3.36-.38-7.83-2.51-11-.87-1.55,1.77-6.67.31-8.34,1.99-2.65,3.13-4.59-.34-6.28,1.05-.22.27-.35.58-.95.61-2.71.12-3.17,1.1-3.8,2.05-.29,1.3-3.43,1.96-2.81,3.55.25.36,0,1.24-1.93,1.39-1.54.12-.64.95-1.35,1.4-1.07.69-1.52,1.52-1.11,2.56,3.11-.94,2.74-2.66,5.86-3.33.83-.08.98-.64,1.18-.99.8-1.2,2.41-3.33,4.3-3.22.77.17.46.59.17.94-1.57,2.38-6,6.07-4.45,8.94.33.45-1.49,1.1-1.57,1.94-.07.78-.44,1.54.19,2.29.97,1.13-.69,2.12-.92,3.21-1.3,3.4,3,6.13,2.37,9.44-.15,1.34.08,2.89,1.59,3.71,2.06,1.12,2.27,2.58,3.86,3.71,2.91,2.35,11.34-.33,12.76-2.28,1.31-2.07,2.83-4.16,3.25-6.4.78-4.14-2.94-7.31-6.66-10.48-.45-.39-1.49-.79-.71-1.29,1.22-.78.98-1.47.06-2.26-2.11-2.08,3.35-3.84.96-6.17-.87-.88.65-1.16,1.61-1.28-.44-1.75,3.78-2.23,4.27-3.69,2.17-.27.41,1.85,2.45,3.02,4.12-3.47-3.56-4.16,5.25-5.89-2.2-.36-2.83-1.19-1.36-2.67,1.16-.79,2.98-.65,4.76-.37,1.43.69,3.82-.2,5.16.39,1.27,1.47,4.23.79,6.31,1.2,1.46.28,2.87.85,4.6.75.04.74,2.44,1.23,1.23,2.15-.56.42-1.32,1.06,1.2,1.1,2.23.15,2.39,3.21,2.55,4.72-2.69.26-1.08,1.37-1.57,2.06-.4.58-.53,1.36-2.08,1.51-3.59.34.25,3.45,2.62,3.19,1.04-.11,1.85-1.42,2.36-2.13,1.36-2.31,6.39-3.74,9.14-1.85,2.6,2.28,9.94,8.43,9.17,11.44-.41.86-1.49.36-2.49.22-2.53-.25.18,2.82-1.88,3.39-1.35.46-1.64,1.05-1.49,1.57-.18,7.71-7.6,3.22,6.87,6.8.07.15.13.29.2.44,5.96.36,10.12-1.7,16.18-2.42,3.88-.87,4.77-3.93,9-4.96,5.8-2.34,12.12-4.63,16.93-8.26,1.28-.91.62-2.38,2.75-3.04.06-.02-.1-.3-.24-.33-1.97-.43-.86-2.23-4.15-2.12-.68.02-1.54-1.87-.9-2.08,8.71-4.19,22.82.56,30.45-6.11,1.76-.63-3.9-2.3-2.14-3.55.64-.8-3.86-.56-2.62-1.53,2.81-1.87,1.81-4.39,4.75-5.99,5.2-4.47,17.98-3.58,25.02-5.63,1.7-.83,13.38-.7,12.08-2.83-1.08-1.53,1.74-.63,2.03-1.42-.27-.46-.17-.56,1.08-.36.98.16,2.18,0,.72-.58-1.47-.59.9-.54-.07-1.07-.74-.41-.91-.94.07-1.25,1.46-1.21-1.27-3.02-3.05-4.03-.73-.39-.51-.99,0-1.34.22-.15.43-.28.16-.44-3.34-2.23-1.57-4.15-2.22-6.8,0-.28-.22-.6.88-.63,2.22.07,4.08,2.14,5.62.69.67-.44,2.03-.67,2.1-1.3,0-.03.25-.02.37-.03,7.27-.37,12.78,4.46,18.76,7.81,1.37,1.25,2.89,1.83,5.63,1.67,1.81-.13,1.77,1.23,3.67,1.77,1.1.52,1.7,1.38,3.27.53,1.72-.54,3.42,1.3,5.36,1.69.48.07.99.54,1.5.84-1.07.11.49,1.1-1.46.94-1.06-.09-1.34.1-1.31.57.03.51-.2,1.08-1.8,1.14-.99.04.56.58-.18.86-.98.37-2.03.43-3.63.19,2.14.66,2.45,1.35,2.47,2.1-1.27-.12-1.98-.55-2.41-.97-.25-.24-.07-.49-1-.54-.92-.05-.37.33-.46.51.25.45,1.35.96-.18.87-1.4.05-2.88.35-4.05-.96.47,1.06,4.33,4.55,1.81,4.62-3.52-.9.27,1.14-2.16,1.4-1.02.05-.87-.45-1.48-.57-.22.19.04.45.36.61,1.52.78,1.02.83-.71.77-5.49-.43-.2,2.1-.93,5.33.03.43,1.63,1.24-.34,1.3,1.67.36,1.28.85,1.49,1.34.33.77,2.57,1.66,4.31,1.76.57-.23,2.37.51,1.07.91-2.25.35-.74,1.55-.96,2.35-.09.35,1.07.7,1.52.56,4.92-1.47,11.33,6.09,15.34,2.2-1.5-1.42,1.55-.57,1.74-.14,3.02,1.28-4.42,2.69-5.56,3.6-.62-.59-1.1-1.07-1.83-1.77-1.97,1.21-.39,3.57-4.89,3.58-.67-.61-1.38-2.25-2.68-1.92-1.07.31,1.23,1.14,1.51,1.51,4.57,3.43-13.78,4.32-14.85,6.13-.66,1.61-5.85,1.93-5.01,4.56,4.95-1.06,10-4.81,15.41-2.81l-.1-.03c.08.28.89.66.25.84-2.12.57-2.95,1.73-4.47,2.58-.9.5-2.61-.31-3.37.2-1.33.9-4.16,1.05-4.99,2.25-.08.11-.6.17-.91.12-3.39-.55-2.28,1.15-4.14,1.51,4.77.68,8.27.68,8.53,4.07.18.9.23,1.77,1.85,2.8,1.41.89,1.34,2.21.92,2.78-1.54,2.08.11,4.69-.17,7.01.06,1.35-2.99.5-2.53-.31.25-1.46-1.35-1.54-3.17-1.44-3.34.23-6.46-1.62-9.8-1.61.53.46,1.27,1.12,1.86,1.07,2.79-.25,3.43,1.1,4.57,1.95,1.63,1.22,4.23,1.84,5.92,3.01,3.63.65,4.22.76,6.2,3.22,2.72,2.52,2.27,3.62,2.82,6.7-.05.06-.11.12-.16.18-.15,2.05-.45,4.12,1.74,6.48.29.31,0,.27-.13.3-2.46.66-.72,2.07.11,3.34,1.26,3.13-6.18-2.72-4.71-4.78.2-.94-1.25-2.14-.12-2.89-1.09-.5-1.07-1.76-3.2-1.57-.34.03-1.1-.03-1.02-.26.49-1.41-2.51-1.29-3.43-2.11-.7-.63-1.55-.71-2.57-.27-.64.46-6.88-.91-6.51-2.05.17-.59.18-1.05-2.26-1.34,2-.12,3.16-.19,4.44-.27-1.19-.63-2.05-1.45-3.69-1.26-1.33-.62.04-1.05-.57-1.62-.25-.9-2.91-1.22-2.68-2.25-2.17-.16-2.89-1.06-2.58-1.77.31-.72-.6-1.66.82-2.24.84-.34-.66-1.21-2.31-1.64-.19,1,1.38,2.64-1.99,2.58-.64-.01-.45.42-.12.61,2.63,1.53.17,1.29-1.96,1.45,8.65,1.69,3.56,6.9,12.46,9.03,2.04.58-.63,1.57,2.68,1.8,1.46.24,1.84,1.13,1.81,1.64-.04.72-1.39.16-2.22,0-2.73-.91-5.82.05-8.12-1.75-.4.44.78,1.39-1.3.82-.09.05-.29-.01-.09.17,3.18,1.74,6.42-.18,9.57,1.78,1.33,1.27,6.72-.26,6.4,2.18-.02.87,4.45,2.93.54,2.8,3.6.23,2.65,1.87,4.01,2.74.12.07.12.53.24.83.4.94.63,1.73,3.07,1.68,1.04-.02,1.55,1.19,2.87,1.76.83.35-.83.77-1.64,1.03-1.13.34-3.36-.63-3.92-.62.66.14,2.13.41,3.46.98,2.13,1.98,4.16-3.17,10.36,1.15.77.5,1.54,1.09,1.75,1.61-.42,2.12,10.92,5.39,7.25,5.73-1.35.85-3.69-.08-5.72-.31.72.89,1.94,1.33,2.84,1.89-2.15.28-4.68,2.53-2.01,3.5,3.92.41-.36-2.6,8.56-.74,3.56-.54,4.85-.09,7.05,2.29.61.66.66,1.58.17,1.6-2.55.12-1.44,1.35-1.21,2.43.6,2.24-5.4,3.87-8.43,1.99-.44-.41.89-1.05-1.04-1.25-1.29-.13-1.13.55-1.33,1.11-.26,2.29-3.55.3-5.72.93,3.83,1.16,7.51,1.03,11.03,2.1.8.75-3.47.34.5,1.63,3.54,2.5-2.82,3.51-5.35,3.18,3.2,1.28,6.4,1.11,6.51.42.34-2.03,5.05-.32,5.43-2.02,2.19.25,3.63,3.76,2.94,5.2-.1.44.39,1.08-.53,1.28-1.12-.67.37-1.54-1.48-2.08-1.61-.47-.97.7-1.68.9-1.41.41-2.71,1.09-4.39,1.06-5.16.37-6.6,5.53-8.61,9.2-.28.66-.08,1.7.58,2.47,1.5,1.77.3,3.03.9,4.63.39,1.05-.77,1.36-2,1.48-7.41.9-13.29,4.92-10.36,12.3.28.68,1.48,1.65-.86,1.2-.78-.15-1.14.61-.66,1.34.14,1.75,5.46,1.26,2.75,3.16-.5.41-1.74.53-.82,1.56-4.56.91-1.85,5.55-5.36,7.09-.25.11-1.46-.1-.64.76,2.67,2.78,0,3.52-1.76,4.66-2.54,1.63-4.71,3.63-9.05,3.54,1.82.93,4.82.39,5.79,2.38.5,1.47-1.25,1.85-2.6,2-1.57.17-1.38.75-1.24,1.73.18,1.3.45,2.7-1.23,3.42-1.48.64.93,2.07.56,2.98-.72,1.77-.09,3.99-1.15,5.69-.28.45-.37,1.35.06,1.76,1.89,1.85-.22,3.76,2.59,5.67.45.3.21,1.72-.24,2.32-.63.85-1.66.69.93,1.66,1.84.69,1.64,3.29-.79,3.94-.97.26-1.74,1.14-.94,1.64,1.27.8,1.15,2.74,3.19,2.59,2.87-.22,3.26,1.24,3.14,2.65-.11,1.24,1.02,2.41,1.25,3.58,1.17,8.03,16.04,14.93,19.59,23.03,9.58,6.18,17.65,14.48,28.3,21.04,5.82,3.75,12.17,7.31,17.68,11.98,1,.84,3.13,1.82,2.73,3.12-2.14,6.88,6.74,11.92,12.19,15.94,13.31,9,24.24,21.75,37.68,30.73,8.99,6.75,13.93,14.99,19.83,23,6.59,8.94,12.99,18.77,16.12,28.36,2.17,6.65,6.15,13.05,10.22,19.81,1.8,1.17,2.75,3.22,1.66,4.98.6,3.54-3.14,2.84-4.46,4.54-.95,4.53-5.52,4.19-10.3,3.57-2.68-.91-5.35-5.35-7.87-4.98-6.13.1-11.27-5.42-16.56-9.9-4.32-3.3-1.93-9.74-11.59-10.77-3.81-.21-8.89-2.8-11.12.37-.56.79-2.45,1.04-3.1-.31-2.73-5.76-9.2-7.26-12.27-12.29-3.52-5.76-9.64-8.2-14.17-12.52-8.36,1.02-6.66-8.76-11.62-13.14-.92-.68-2.54-2.04-2.65-1.94-.71.71-1.08,1.73.07,3.23,1.28,2.34-.08,2.06-1.67,1.54-11.1-2.44-18.11-15.59-27.9-20.88-1.17-.74-3.72-2.8-1.91-3.81,3.29-1.84.37-6.82,2.74-9.08.89-.85-1.37-3.06-2.47-3.52-2.38-1,.09,1.3-.53,1.83-1.54,1.32-2.36-2.28-4.1-1.26-.43,1.02.7,2.71,1.55,4.05,1.94,3.05-2.76,1.41-1.94,3.86-9.51-3.95-12.19-16.8-13.98-24.16-1.72-7.72-9.94-23.16-19.43-25.04-2.34,2.36-5.12.6-7.57-1.5-4.2-3.61-9.79-4.43-13.69-8.2-6.6-7.18-22.03-13-29.62-11.22-1.69.4-3.79,1.13-2.1,3.22,2.06,2.55,1.29,2.77-1.29,3.15-2.16.31-3.5,1.96-5.07,3.34-4.67,4.12-10.88,6.81-17.65,8.61-.12.03-.46-.38-.7-.59.43-.92-.64-3.37-1.62-1.96Z"/>
      <path class="cls-3" d="m1026.72,325.54c.13-.16.25-.32.38-.48-.13-.57-1.07-.92-1.68-1.36-.02-.02-.24-.39-.39-.11-.04.08.05.23-.05.32-4.34-.88-5.54-2.18-7.29-5.72.99.65,16.88,9.26,13.34,8.84-1.84.29-3.25-.28-4.31-1.49Z"/>
      <path class="cls-3" d="m402.3,215.09c-5.42,4.53-9.77,1.25-2.83.21-.38.44.96-.16,1.06,0,.14.33,1.42-.43,1.77-.21Z"/>
      <path class="cls-3" d="m1156.98,637.96c.66.38,1.32.75,1.98,1.13-1.43,15.24-20.91-6.52-9.79-3.04,2.69.89,5.67,2.8,7.81,1.91Z"/>
      <path class="cls-3" d="m835.8,238.4c1.16-.97-.64-.62-.18-1.07.75-.34,1.8-.45,2.35.13.4.42,1.51.09,1.54.38.21,1.37-2.82.47-3.71.56Z"/>
      <path class="cls-3" d="m1024.91,257.8c-1.15-.64-.58-.99-.65-1.39-.07-.41-.09-.86,1.09-.71.74.1,1.36.5,1.79.87,1.07.79-1.77.62-2.23,1.23Z"/>
      <path class="cls-3" d="m1010.94,264.82c-.06-.97-.19-2,2.36-1.95,1.37,0,.79-1.16,2.02-.34-1.57.71-1.72,2.09-4.48,2.26,0,0,.1.03.1.03Z"/>
      <path class="cls-3" d="m1173.84,629.04c-.61-1.04-1.21-2.07-1.81-3.1.92-.3,1.84-.6,3-.98,2.28,6.52,5.14,13.33,3.32,18.83-3.06-3.8-.03-5.57-2.78-8.88-2.08.19-4.19.39-6.3.58,1.18-1.85,3.12-3.1,2.37-6.35,1.35,1.02,2.04.91,2.2-.11Z"/>
      <path class="cls-3" d="m1009.09,298.64c1.36-1.09-1.57-2.6-1.6-3.79,2.3,2.06,4.66,4.14,3.24,6.12-1.65-.46-.23-1.59-1.64-2.33Z"/>
      <path class="cls-3" d="m985.53,291.17c.5.44,1.01.89,1.52,1.33-1.57.14-2.19.71-2.34,1.6-.37-.84-2.66-3.01.15-2.19,1.47.46-.47-.81.68-.74Z"/>
      <path class="cls-3" d="m366.9,220.89c-.36.75-2.37,1.23-1.25,1.63-1.71.31-3.52.58-4.25,1.32.44-1.01,2.91-1.98,5.5-2.95Z"/>
      <path class="cls-3" d="m1070.22,575.27c4.86,3.74,4.3,9.35,9.02,13.29.76,1.1,1.53,2.2,2.3,3.3-2.71-3.63-10.64-4.31-8.49-10.75.37-1.11-1.83-3.87-2.83-5.84Z"/>
      <path class="cls-3" d="m769.54,227.26c.56.17.97.29,1.39.41-1.01.86-4.84,1.12-1.39-.41Z"/>
      <path class="cls-3" d="m404.05,213.73c-.98.27-1.85.91-3.01.62.94-.39,1.14-1.16,3.22-.93.14.02-.13.21-.21.32Z"/>
      <path class="cls-3" d="m988.22,293.42c1.26.61-.06,1.05.57,1.62-2.01-.4-.77.71-1.36.97-2.06-2,.15-1.13.79-2.59Z"/>
      <path class="cls-3" d="m1031.34,256.67c-.45-.46.3-.36.71-.39.71-.05-.66-.99,1.08-.57,1.73.45-.55,1.55-1.79.96Z"/>
      <path class="cls-3" d="m356.83,225.96c-.41.02-1.17.23-1.09,0,.93-.41,1.86-.82,2.91-1.28.36.43-.17.83-1.82,1.29Z"/>
      <path class="cls-3" d="m1007.32,317.05c-1.83-.67-4.49-.16-5.82-2.21,2.16,1.24,4.28,1.33,6.28,1.85-.15.12-.3.24-.46.36Z"/>
      <path class="cls-3" d="m399.21,213.09c-1.8-.36,2.76-1.63,1.54-.63-.19.26-.73.46-1.54.63Z"/>
      <path class="cls-3" d="m1021.55,250.39c.08-.62,2.51-.79,2.9-.04.23.42-.5.05-.77.05-.63,0-1.28,0-2.13-.01Z"/>
      <path class="cls-3" d="m399.07,215.31c-.69.23-.79.05-1.13.04.21-.42.84-.74,2.34-.82-.22.14-.43.29-.65.43.09.11-.09.23-.56.35Z"/>
      <path class="cls-3" d="m1045.08,335.55c2.35.61,1.99,1.71,2.62,2.59.43.61-2.68.07-1.81-.48,1.42-.55-.31-1.43-.78-2.17l-.04.06Z"/>
      <path class="cls-3" d="m1009.11,264.05c-.16.01-.33,0-.51-.04-.31-.55.21-.91.4-1.34,1.19,0,1.35,1.06.11,1.38Z"/>
      <path class="cls-3" d="m1045.12,335.49c-2.02-1.24-2.13-2.75-4.06-3.99,2.65,1.15,3.15,2.61,4.02,4.04,0,0,.03-.05.03-.05Z"/>
      <path class="cls-3" d="m1031.03,327.04c.41-.17.36-.45.14-.78,1.85.52,2.5,1.82,4.62,2.17-.15.14-.29.29-.44.43-1.45-.61-2.89-1.21-4.33-1.82Z"/>
      <path class="cls-3" d="m399.21,213.09c.52-.21,1.03-.42,1.54-.63.98.2-1.62,1.41-1.54.63Z"/>
      <path class="cls-3" d="m1010.73,300.97c.36.69,1.73,1.49.64,2.05-.84-.39-.86-.86-1.19-1.29,0,0-.08.02-.08.02.49-.15-.67-.97.75-.74l-.11-.04Z"/>
      <path class="cls-3" d="m816.88,247.31c-.24-.25-.63-.41-1.16-.49-.22-1.08,2.94-.23,1.16.49Z"/>
      <path class="cls-3" d="m1011.19,312.69c.53-.16.76-.44.74-.83,2.97.94.36,2.51-.74.83Z"/>
      <path class="cls-3" d="m868.61,277.45l-.15-.36c1.66-.97,3.86.47.15.36Z"/>
      <path class="cls-3" d="m773.9,225.99c.87.06,1.27.64.24.6-.94.13-1.02-.57-.24-.6Z"/>
      <path class="cls-3" d="m801.98,242.57c.38.08.75.15,1.13.23.34.9-2.82.39-1.13-.23Z"/>
      <path class="cls-3" d="m1009.88,262.98c-.29-.1-.59-.2-.88-.31-.23-.41-.29-.77,1.2-.82-.71.36.4.86-.32,1.12Z"/>
      <path class="cls-3" d="m353.14,228.09c-.57.2-1.06.24-1.53.25.89-.12.43-.99,2.16-.64,0,0,.05-.04.05-.04.14.13-.16.27-.68.43Z"/>
      <path class="cls-3" d="m818.74,233.66c-.43,0-.84-.03-1.08-.23.38-.46,2.78-.2,1.08.23Z"/>
      <path class="cls-3" d="m1043.14,340.46c-.79.32.43,1.1-.74,1.17-1.13-.2-1.42-1.46.74-1.17Z"/>
      <path class="cls-3" d="m1044.42,339.88c-.85-1.19.41-1.55,1.32-.82-.44.27-.88.55-1.32.82Z"/>
      <path class="cls-3" d="m1015.32,262.53c-.28-.1-.56-.19-.85-.29-.12-.79,1.8-.59.85.29Z"/>
      <path class="cls-3" d="m1011.71,230.45c.39-.09.57-.25.55-.46,1.74.35.44,1.03-.55.46Z"/>
      <path class="cls-3" d="m1065.97,578.1c.93-.14,1.71-.44,1.67-1.54,1.17,1.01,2.35,2.02,3.81,3.29-1.89.35-3.65-.39-5.48-1.74Z"/>
      <path class="cls-3" d="m982.31,301.56c.39-.05.66.08.9.28-.18.02-.37.03-.56.03-.1-.12-.19-.25-.29-.37l-.05.05Z"/>
      <path class="cls-3" d="m618.14,546.46c-.6-9.5-5.4-12.19,8.38-15.99q-.56,3.62-5.12,9.36c3.06-.88,5.89-1.7,8.63-2.49-.74,1.85-1.24,3.42-2.97,4.44-3.63-.46-6.57,6.92-8.92,4.68Z"/>
      <path class="cls-3" d="m530.38,602.62c1.37-3.46,2.73-6.89,4.31-10.89,2.22,1.21,2.74,4.48,7.21,1.33,1.73-1.22,1.52.69,1.03,2.04-4.05,2.88-7.97,6.49-12.55,7.52Z"/>
      <path class="cls-3" d="m727.2,528.27c-3.19.42-2.12,4.78-5.23,3.68-2.3-.82-5.49-1.07-5.52-4.23.26-4.07,7.83.08,10.76.55Z"/>
      <path class="cls-3" d="m741.44,532.72c2.53,1.21,7.72.61,4.02,6.16-4.44.68-9.71-2.83-4.02-6.16Z"/>
      <path class="cls-3" d="m68.78,386.94c-1.57-.47-7.07,1.06-3.52-1.37,2.02-1.91,11.28-3.01,3.52,1.37Z"/>
      <path class="cls-3" d="m618.14,546.46c2.5.58,2.81-2.32,4.42-3.22,1.54-.85,2.91-3.21,4.5-1.46-5.19,2.48-7.63,9.86-14.02,10.51-.12-3.07,4.71-2.97,5.1-5.83Z"/>
      <path class="cls-3" d="m76.76,385.31c1.26.38,6.25-.94,3.89,1.31-3.16.32-6.64,1.02-7.16,0,.94-.55,2-1.01,3.27-1.32Z"/>
      <path class="cls-3" d="m76.82,401.08c.07.16-.05.42.25.47,3.03.28-3.04,3.55-4.27,3.29-3,0,1.33-1.68,1.73-2.99.79-.4,1.55-.65,2.29-.77Z"/>
      <path class="cls-3" d="m566.77,578.82c4.11-4.19,8.13-1.02,12.18-4.56-4.54,5.02-10.36,7.22-12.18,4.56Z"/>
      <path class="cls-3" d="m76.76,385.31c-.96.53-1.98,1.02-3.27,1.32-3.85.43,2.37-2.34.1-2.57,3.44-.45,5.21-.42,3.17,1.25Z"/>
      <path class="cls-3" d="m518.27,614.14c-5.16,3.9-8.91,9.65-14.49,13.31,0,0-.01.19-.01.19-.46-3.2,3.05-5.97,4.98-8.87l-.25.22c2.96-2.15,5.4-5.39,8.76-6.56.84.16,1.19.72,1.01,1.71Z"/>
      <path class="cls-3" d="m471.66,697.91c.59,4.92-1.98,10.75-5.59,18.55-1.39-6.28,3.42-13.9,5.59-18.55Z"/>
      <path class="cls-3" d="m918.14,494.63c-.22-1.09-.45-2.18-.85-4.13,2.06,2.44,5.1,3.78,2.48,6.1-.55-.66-1.09-1.31-1.63-1.96Z"/>
      <path class="cls-3" d="m54.85,411.58c.7.56-2.43,1.76-3.46,2.61-.15.27-.64.55-1.45.82-1.57-.62,3.59-3.42,4.91-3.43Z"/>
      <path class="cls-3" d="m546.03,583.75c.19-1.17-1.62-2.18.75-3.42,1.64-.86,2.02.71,2.2,1.94-.69.29-2.8,2.99-2.95,1.48Z"/>
      <path class="cls-3" d="m546.03,583.75c.32.04.64.07.97.1.58.71,1.16,1.42,1.75,2.14-4.98,3.41-3.57.29-2.72-2.24Z"/>
      <path class="cls-3" d="m54.85,411.58c-.8.27-1.6.54-2.4.81-.28-.6,1.28-1.36,3.41-2.11.44-.16,1.79-.72,1.31-.25-.44.44-1.52,1.03-2.32,1.55Z"/>
      <path class="cls-3" d="m49.94,415.01c1.64-1.19,3.98-1.37,1.3.62-.78.75-1.44.5-1.91.56-1.71.22-.5-.5.61-1.18Z"/>
      <path class="cls-3" d="m518.27,614.14c-2.62-3.15,2.65-4.52,4.81-5.69-1.15,2.14-2.69,4.08-4.81,5.69Z"/>
      <path class="cls-3" d="m609.2,553.79c1.15-.65,2.9-2.71,3.93-1.35l-.09-.15c-.54,1.99-7.58,6.28-3.84,1.49Z"/>
      <path class="cls-3" d="m76.82,401.08c-.76.26-1.52.51-2.29.77-1.68-.78,2.84-2.55,2.29-.77Z"/>
      <path class="cls-3" d="m773.65,505.84c-3,.54-5.83.65-6.85-2.2-1.31-3.67,3.28-4.56,4.83-6.88,1.21-1.81,3.71-1.65,5.65-.39,2.42,1.58,5.07,2.79,8.13,3.13,1.73-.28,2.09,2.48.75,2.71-4.8-.74-7.83,4.78-12.51,3.63Z"/>
      <path class="cls-3" d="m183.61,311.77c-10.54,1.53-9.53,4.06-16.84,8.23-2.21-.62-.45-1.91,3.63-3.62,3.07-1.29,1.72-2.09,5.63-3.62,2.12-.83,3.79-1.72,6.08-2.08,2.36-.37.46.73,1.49,1.08Z"/>
      <path class="cls-3" d="m393.59,218.69c-1.29.78-4.03,1.52-4.32,2.37-.23.31-2.76.79-3.24.39-.17-.38.95-.25,1.47-.45,2.53-.98,3.44-2.49,6.09-2.3Z"/>
      <path class="cls-3" d="m381.52,222.45c-.54-.2-4.43.89-3.6-.19.1-.33,1.16-.71,1.94-.72.79-.02,4.78-1,1.57.44-.32.14.44.06.73.06.07.13-.1.26-.64.41Z"/>
      <path class="cls-3" d="m508.74,618.77c.81,3.17-4.39,5.78-4.98,8.87-1.46-1.91-7.96-5.38-3.66-7.72,1.12-.63,4.58-4.24,4.62-.74.04,3.23,2.77-.5,4.02-.41Z"/>
      <path class="cls-3" d="m519.68,610.03c-3.25,3.18-6.54,8.44-11.19,8.96,2.44-5.35,6.09-8.45,11.19-8.96Z"/>
      <path class="cls-3" d="m861.11,478.79c.94,1.31,3.88,1.88,1.87,3.81-.6.57-2.39,1.11-2.44,1.04-1.3-1.83,1.01-3.01.56-4.85Z"/>
      <path class="cls-3" d="m353.14,228.09l.68-.43c.36.25,4.11-.79,3.34.15-1.84.72-1.97-.33-4.03.28Z"/>
      <path class="cls-3" d="m1010.84,301.01c-.94-.04.15.75-.75.74-1.2-1.13-.76-2.09-1.01-3.11,2.28.73.52,1.6,1.75,2.38Z"/>
      <path class="cls-3" d="m365.65,222.52c-2.55.05-1.79-.35.7-.99-.22.33.18.57-.7.99Z"/>
      <path class="cls-3" d="m388.03,218.71c1.28-.24,1.73-.8,2.99-.79.13,0,1.04-.06.28.23-.97.36-1.98.79-3.27.57Z"/>
      <path class="cls-3" d="m381.52,222.45c.7-.52,2.31-1.48,2.73-.48-.28.33-2.23.52-2.73.48Z"/>
      <path class="cls-3" d="m879.07,479.18c2.5-1.43,5.76-.58,8.37-1.59-1.93,2.65-5.53,1.25-8.37,1.59Z"/>
      <path class="cls-3" d="m510.04,607.66c.2-.25.42-.63.54-.65,2.43-.52,8.17-6.02,8.09-1.29-3.14,1.67-6.23,3.05-8.62,1.94Z"/>
      <path class="cls-3" d="m1024.99,323.92c-.22-.63-1.94-1.04-1.71-1.9,1.36,1.09,3.68,1.71,3.83,3.04-.71-.38-1.41-.76-2.12-1.15Z"/>
      <path class="cls-3" d="m975.86,300.32c.71.34,1.32.72,2.04.96.46.15,1.18-.13,1.47.42-.52,1-3.87-.55-3.51-1.37Z"/>
      <path class="cls-3" d="m613.13,552.44c-.8.1-1.6.2-2.41.29,2.53-4.61,2.79-4.8,5.47-3.83-1.02,1.17-2.04,2.35-3.06,3.54Z"/>
      <path class="cls-3" d="m658.85,520.24c.7,1.79-.94,5.65-3.52,4.68.37-1.87,1.5-3.41,3.52-4.68Z"/>
      <path class="cls-3" d="m399.07,215.31c.37-.45,1.91-.52,1.46-.02-1.19.16-.97.56-1.94.76-.33-.18,1.21-.61.48-.74Z"/>
      <path class="cls-3" d="m485.7,646.9c-2.57.3-6.04,4.19-7.92,2.33.42-3.87,6.44-2.53,7.92-2.33Z"/>
      <path class="cls-3" d="m187.65,312.36c-1.73.05-3.02.09-4.73.14,2.65-.63,4.92-1.28,4.73-.14Z"/>
      <path class="cls-3" d="m1070.25,509.06c-1.38-.99-5.54-4.01-2.72-4.44,1.74,1.27,2.16,2.76,2.72,4.44Z"/>
      <path class="cls-3" d="m1015.92,330.21c1.06-.45,2.13.2,3.07.26-.55,1.24-1.98,0-3.07-.26Z"/>
      <path class="cls-3" d="m191.53,312.31c1.6.05-1.56,1.38-2.14,1.16-2.08.26,1.52-1.08,2.14-1.16Z"/>
      <path class="cls-3" d="m904.52,484.23c-1.4-.55-2.35-4.55.05-3.39.84.71.13,1.24-.01,1.85-.12.52-.08,1.09-.12,1.65,0,0,.08-.11.08-.11Z"/>
      <path class="cls-3" d="m1173.84,629.04c.58,1.38,3.14,3.7,1.49,3.98-2.37.4-2.56-2.44-3.69-3.87.73-.04,1.47-.07,2.2-.11Z"/>
      <path class="cls-3" d="m402.3,215.09c-.41.07-.82.13-1.23.2l1.5-.94c-.14.39-.2.56-.26.74Z"/>
      <path class="cls-3" d="m1031.06,539.14c.21.96-.66.73-1.18.78-3.18-.06-1.69-3.86,1.18-.78Z"/>
      <path class="cls-3" d="m383.17,219.7c.54-.04-.39.29-.2.07,0-.02.13-.05.2-.07Z"/>
      <path class="cls-3" d="m995.9,308.03c.46-.13.51.5-.02.13-.04-.03,0-.08.02-.13Z"/>
      <path class="cls-3" d="m982.36,301.51c-.23-.05-.45-.1-.68-.15.04-.04.07-.07.11-.11.17.11.34.21.52.32,0,0,.05-.05.05-.05Z"/>
    </g>
    <path id="path2431" class="cls-3" d="m456.03,196.49c-.02-.33,1.55-.36.81-.04-.21.06-.75.08-.81.04Zm2.58-.07c.24-.32,1.68-.45,2.21-.39-.39.47-1.99.39-2.21.39Zm10.23-.18c2.13-.18,4.03-1.36,6.19-1.16.55-.44,1.31-.64,1.97-.63.45-.1,2.17-.3,2.27.12-1.45.77-3.74.57-5.43,1.1-.98.29-2.3.4-3.22.44-.38.04-1.85.37-1.79.13Zm-23.52.23c-.2-.08-2.27.02-2.24-.2-.88-.26-1.5-.73-.13-.5.37.12,1.64-.04,1.9.32.22.07.47.1,1.49.19.28.02.36.11.17.18-.17.07-.65.07-1.19,0Zm17.67-.29c.11-.23.57-.3.91-.32.4.37-.8.38-.91.32Zm2.63-.08c-.6-.14-1.82-.17.06-.34,1.76-.27.17.6-.06.34Zm-7.96.04c.03-.07.23-.13.43-.14.5.05-.58.3-.43.14Zm-8.24-.02c.15-.25,2.51-.51,2.04-.09,0,.07-1.87.26-2.04.09Zm15.08-.42c-.02-.06.49-.18.56-.12.03.17-.58.2-.56.12Zm13.45-.28l-.18-.13c.79-.32,2.64-.3,3.56-.39,1.12-.08,2.21-.61,3.33-.68.36-.01.52-.01.09-.18-1.16-.61,5.35-1.07,2.57-.28.06.21,2.73-.48,2.19.11-.02.26-2.55.27-1.84.35.31,0,.35.02.42.19.25-.19,2.09-.53,1.11-.12-1.53.33-2.88.42-4.42.7-.97.29-2.47.16-3.37.22-.38.1-3.47.52-3.46.21Zm7.39-1.13s-.29-.05-.35,0c-.06.16.39.08.35,0Zm-18.58,1.31c.23-.28,1.3-.82,1.41-.52.3.21-1.4.6-1.41.52Zm-25.92.1c-.79-.1-1.84.04-3.11-.12-.36-.13-2.16,0-2.28-.21,1.44-.56,7.07.44,6.57-.5,4.98-1.1.32,1.23-1.18.83Zm-11.06-.27c-.13-.12.75-.44,1-.21.3.21-1.04.31-1,.21Zm-3.62-.01c.33-.24-.66.06-.83,0-1.24-.06,3.55-1.01,3.8-1.07.63.03.69.25.17.33-.82.16.07.25-.27.44-.95.17-1.63.37-2.86.31Zm2.62-.06c.08-.14,1.02-.43,1.27-.39.2.18-1.25.6-1.27.39Zm4.34-.12c-.13-.08,1.09-.24,1.17-.14.18.03-1.14.31-1.17.14Zm1.64-.06c.04-.08.55-.2.62-.15.14.06-.56.3-.62.15Zm-3.73,0c.1-.17.92-.16.83-.09-.2.12-.89.2-.83.09Zm1.52-.04c0-.06.35-.14.41-.09.08.04-.34.2-.41.09Zm-.84-.25c-1.23-.19,1.11-.75,1.41-.4.12.28-1.26.47-1.41.4Zm-18.94.19c-.02-.31,2.19-.42.69-.06-.42.08-.64.1-.69.06Zm11.55-.28c-.22-.09-.32-.1-1.14-.09-.65,0-.89,0-.86-.04.34-.17,1.47-.37,1.85-.19.53.34,2.71-.49,3.28-.29-.21.33-2.55.87-3.13.6Zm-10.09.15c-.13-.12,1.57-.72,1.09-.27-.28.19-.98.37-1.09.27Zm4.02-.06c0-.06.46-.19.69-.19.63.07-.77.33-.69.19Zm17.27-.19c-.17-.16,1.38-.28.57-.04-.28.07-.51.08-.57.04Zm-14.7,0c-.25-.62,1.35-.36,1.21-.59-.1-.07.16-.23.03-.31-.13-.15.24-.13.48-.26.47-.16.44-.16.93-.09,1.09.03-.35.52.42.6.76.11-2.92.76-3.07.64Zm75.23-.99c-.84-.12.67-.24.51-.06-.16.14-.25.05-.51.06Zm-1.33-.1c-.56-.1.61-.13.54-.06-.02.05-.28.08-.54.06Zm13.91-.29c-.6-.45,1.17-.4,1.22-.16.06.39-.98.33-1.22.16Zm-92.05,1.02c-.2-.21,1.34-.38.93-.09-.3.18-.91.24-.93.09Zm1.37.02c-.12-.17,1.06-.4.75-.07-.08.11-.65.15-.75.07Zm73.57-.9c-.37-.71,2.59-.66,1.45.05-.25,0-1.54.08-1.45-.05Zm6.16-.08c-.04-.22,1.28-.38.54-.04-.25.1-.56.12-.54.04Zm-72.35.78c.04-.06.41-.17.61-.17.44.05-.76.35-.61.17Zm68.46-.85c-.11-.08.5-.18.39-.29-.18-.16.89-.32.84-.12-.04.04.05.12.2.17.66.23-1.3.26-1.42.23Zm32.19-.55c-.14-.09.7-.39.77-.25.24.22-.72.33-.77.25Zm-26.09.03c-1.47.03-.45-.43.03-.64,1.27-.29,2.83-.83,3.99-.98,1.16.34,3.95-.84,5,0,.13.14-1.22.75-.9.82.12.05,1.47-.24.88.17-.81.4-3.22.17-3.89.09-1.72-.22-3.06.7-5.1.53Zm25.48-.28c-.06-.03.27-.12.45-.13.3.03-.37.2-.45.13Zm-106.75,1.09c-.01-.09.02-.11.3-.2,1.67-.42,0,.61-.3.2Zm109.48-1.23c0-.07.21-.16.44-.19.72-.05-.47.42-.44.19Zm-120.09,1.08s-.44-.02-.28-.14c.07-.04.09-.09.05-.11-.1-.06.1-.27.03-.34-.09-.07.57-.45.32-.5-.44-.16-.39-.37.28-.49.23-.11,1.06.46.52.63-.21.12-.27.2-.24.3.06.18.4.51.55.53.1.2-1.07.15-1.23.12Zm115.56-1.28c-.08-.05.07-.11.59-.26.72-.27,1.32-.67,2.1-.71.14.04,1.2-.38.86-.06-.1.41-.6.32-1.06.48-.7.21-1.8.57-2.5.55Zm4.49-.16c-.11-.12.73-.5.87-.29.32.21-.89.36-.87.29Zm-15.04.01c.54-.3-.12-.43.8-.49,1.77-.18-.79.74-.8.49Zm2.36-.07c.18-.11.59-.12.45-.02.01.05-.73.17-.45.02Zm11.83-.15c-.07-.04.13-.18.47-.32.57-.25.73-.31.94-.31.38.14-1.24.82-1.41.63Zm-14.99.1c-.13-.16.69-.25.37,0-.16.07-.3.07-.37,0Zm3.73-.25c-.07-.16.87-.16.28,0-.19.05-.23.05-.28,0Zm-7.06-.05c.42-.28,1.38-.34.42-.69,2.03-.41,3.57-.41,5.4-.73,1.77-.48,3.87-1.13,5.82-1.33,1.14-.14,3-.5,4.04-.42.06.04-1.28.2-.69.22.77,0,1.86-.04,2.57-.27,1.03.02-.65.29-.94.36-.3-.08-.88.78.02.72.73-.04-.39-.38.36-.5.05,0,1.49-.07,1.17.14-.16.19.23.14.32.23.14.07.15.07.37,0,.85-.19-.39-.44-.67-.56,3.36-1.63,7.63-1.67,11.14-2.47.17-.05.53-.09.68.02.33.16,1.53.2,1.26-.25-.43-.27,2.53-.81,2.93-1,1.1-.15,3.44-.87,4.27-.83.52.05.06-.41.83-.63.35-.15,2.4-1.33,2.4-1.19.83-.04.76.37,1.36,0,.4-.17-1.11-.06-1.03-.11.7-1.3,3.43-.94,4.53-1.8.3-.11.17-.12-.29-.03-.9.02-5.89,1.18-6,.38.11-.17-.79-.31-.45-.44.14-.08.13-.09-.08-.09-.44.11-1.55.43-1.73.92-.09.57-1.43.52-1.71.34-.63-.22.28-.85-.4-1.17-.28-.21-.2-.36-.49-.23-.11.07-1.55.55-1.45.12.01-.19-.66-.07-.65-.03-.19.14-.84.07-.33-.11,1.32-.95-.96-.21-1.61-.12-1.06.3-.59-.13-1.65.11-1.46.05-2.72.88-4.1.57.09-.18-1.76-.03-1.26-.28.88-.18,2.25.09,2.96-.99.3.01,1.14-.05,1.16-.12-.1-.24-1.81.34-.93-.48.53-.32,1.33-.38,1.98-.62.72-.14.71-.5.6-1-.27-.26.54-.84.74-.9.28-.1.27-.13-.04-.13-1.14-.42,3.01-.88,2.92-1.23-.6-.01-2.33.76-3.13.75-.63,1-1.52.75-2.63.99-1.41.2-3.26.44-4.64.25-.29-.06-.81-.1-.65-.44.08-.09.89-.26.34-.28-.28,0-.54-.17-.58-.38.17-.58,2.04-.76,2.61-1.04.51-.11.41-.12-.2-.04-.8.14-1.98.57-2.81.73l-.32-.17c-.99-.35,1.08-.52-.11-.51-1.61-.08.76-.43,1.09-.39.4.06.94-.4,1.36-.43.22.01,1.25-.39.39-.27-.48.05-.78,0-.63-.11.06-.21,1.66-.11,1.11-.28-.15,0-.35-.13-.48-.22-.22.09-1.51.34-.8-.16.41-.32.16-.28-.09-.07-.18.14-.23.17-.36.16-.31,0,.53-.45.55-.44.45-.16-.65,0-.37-.27.07-.12-.22-.29-.32-.35.67-.48,1.38-.58,1.88-.8.44,0,1.31,0,1.75,0,.76-.68.67-.61,2.79-1.12,2.46-.56,2.27-.52,2.73-.53.61-.07.25.22.75-.02.75-.23,1.38-.91,2.26-1.06.95-.45,1.4.28,2.06.24.5-.15-.64-.45-.6-.56,1.33-.59,2.45-.24,3.73.34,1.58-.05,3.74-.66,5.27-1.04.26-.06-2.01.12-.83-.26.32-.06.8-.12.91.12-.03.05,0,.08.11.09.49.02.29.26.72.26,2,.09,1.99.09,3.08-.18,1.31-.41,1.98-.31,2.22-.91-.07-.07-.05-.11.14-.23.75-.5.71-.46.56-.54-.21-.23.03-.33-.64-.33-.27,0-.28-.01-.17-.1.65-.5,1.34.08,2.07-.25.35-.21,1.11-.06,1.22-.5-.13-.31-.71-.33-1.14-.18-1.9.26-3.14.2-5.15.71-.71.12-1.47.5-1.35.01.23-.16-.17-.28-.11-.43.16-.2-.54.04-.21.18.42.18-.48.27-.68.34-.81-.91-3.23-.38-4.43-.44-.72.23-6.29-.52-3.45-1.24,0-.07,0-.29-.05-.32-.03-.05.15-.14.01-.21-.71-.35.77-.49.52-.37-.86.54,1.51.03,1.72-.06-.78-.29-2.47-.06-3.02-.73.1-.14-.54-.24-.68-.28.24-.15.44-.3.73-.36.4-.16.93.05.35.09-.34.03-.68.21.13.07.9.05,1.63-.31,2.48-.34.42.11.98,0,1.39-.15,1.62-.14,2.43-.48.09-.1-2.72.25,3.93-.67,2.67-.32-1,.07.85.09.86.25-.03.07.19.1.49.06.5-.12-.73-.17-.18-.35.94-.29,2.27-.35,3.42-.4,1.07.01-.43.11-.38.18.08.05.23.05.5-.02.39-.22,5.49-.51,3.67-.06-.04.06-.96.32-.54.3.12,0,.14.01.09.08-.3.15-1.04.26-1.39.32.52.57.91.33,2.02.4.84-.01,1.15.03,1.13.15.44,0,1.15-.04,1.61.02,1.03.3,1.7-.44,2.73-.45.36-.02.66.09.92.13.39-.34-.99-.29-1.22-.32-.16-.07-1.1.08-.53-.17.98-.49-1.22-.92-.12-1.19.26-.11.83-.07,1.21-.07-.63.39.34.32-.42.64-.22.1.05.12.01.26.13.36.67.29.98.25.63-.09-1.67-.39.66-1.02,1.87-.4-1.89-.29-2.3-.33-.1-.03-.93.08-.99-.06-.36-.18-1.55-.09-.9-.66.36-.35.02-.32.43-.72.06-.06-.15-.27-.37-.36-.16-.12.07-.16-.3-.3-.36-.29-1.65-.63-1.65-.75-.02-.4-.46-.43-.91-.52-.91-.17-.76-.22.94-.32.33-.02.37-.03.49-.11.63-.1,1.5-1.02,2.06-.72,3.73.42,6.95-.01,10.22-1.13.36-.25.51-.31.95-.43,1.06-.3-.8.14-.7-.01,0-.02.55-.15,1.22-.3,1.6-.46,2.38-.07,3.1-.61-.06,0-.35.07-.63.15-.29.06-.76.26-.55.04,1.37-.65,2.2.01,3.72-.21.23.02.33-.02.19-.07-.12-.22,1.28.02,2.07-.35.28-.09.92-.18.72.06-.2.09.08.14.15.18.26-.07.45-.1.33-.31-.12-.18.27-.29.48-.26.77-.15,2.21-.49,2.94-.36-.18.01-1.46.28-.67.2.57-.1.62.2,1.51.02,1.63-.11,2.91-.27,4.62-.87.32-.25,2.26-.4,1.37-.14-.33.04-.39.1-.11.1.43.06,1.88.31.85.59-.43.3-1.55-.13-1.04.34-.13.06.88.16.88-.06.34-.27,1.85-.64,2.44-.4,1,.06-1.43.73,1.16.46,1.25-.18,2.2-.09,3.45-.02,1.73.11.15.18-.02.51.06.07,1.67.1.52.17-1.2.14.66-.02.9.05.14.07-.67.16-.3.18.78.02.94.2,1.99-.05.13-.08,2.01-.13,1.05.09-.18.04-.34.09-.34.09,1-.05,3-.43,3.83-.33-.16.1.37.14.16.28-.05.05-.06.1-.01.1.3-.16.69-.29,1.21-.11.2.11.93.04.5.22-.24.09-.15.1.19.01.59-.18.19.11.67.02.52-.07.95.09,1.43.25.71-.26,1.83-.12,2.58-.2.24.01.32-.01.21-.06-.29-.11,1.21-.12.53.08,1.74.49,4.04.13,5.91-.15-.95-.07.75-.33.19-.08-.47.06.71.1.6-.02.03-.06.06-.07.21-.06.25.01.08.27.63.21.9.06,1.55.34,2.4.4.34.11.25-.01.41-.07.12-.02.67.07.64.11.12.15.21.12-.15.16-.24,0-.19.06.06.07.25-.09.66-.13.93-.05-1.05,4.41-3.53,11.76-4.76,16.22-.37,1.28-.97,3.18-1.38,4.5-.85,2.05.41,1.17,1.99,1.2,1.85-.13,3.28-.46,4.99-.58.16-.08,1.35,0,1.08.17-.9.42-.48.55.37.79,1.08.16,2.13.85,3.17.97.77.27,1.27.25,1.96.47.38.1-.04.49.16.67.08.41,2.56-.75,3.92-.84.36-.03.75-1.06,1.13-1.06.73-.29,2.24-.94,3.24-.85.88.12,2.03-.05,2.2.73-.11.17.12.28.75.32.97.18,1.83.08,2.25.69-.07.27,1.1.32,1.36.35.85.03,2.27.37,2.92.69.72.26,1.38.98,2.17,1.12.93.36,2.28,1.05,3.28,1.35.69.4,1.35.98,2.26,1.24,1.47.56,4.19.25,5.89.62,1.22.37,2.48-.05,3.48.45.61.64-1.17.3.77,1.89-.52,1.28-2.11,1.93-3.17,2.11-.12.04-1.39-.54-.88-.84.15-.11.11-.2-.06-.12-1.39.11.06-.59.7-.65,1.23-.43-1.31.33-.8-.49.32-.32-.56-.74-.5-.35.13.49-.38,1.75-1.18,1.34-.03-.13-1.05.01-.42.2.83.44-1.05.68-1.36.64.11-.32.56-.73.67-.83-.26-.14.85-.35.8-.53.16-.23-.27-.21-.31-.02-.11.34-.53.05-.75.1-.02.13.18.28-.25.4-.4.09-.66.87-1.14.4-.1-.13-.61-.25-.53-.42-.04-.19,1.4.05.66-.23-.22-.1-.23-.11-.04-.25.32-.19.06-.5.16-.71.05-.03,0-.08-.12-.13-.45-.18.1-.23.45-.25.41-.06,1.11-.45,1.57-.44.1-.09,1.52.66,1.75.5.01-.16-1.28-.47-1.42-.66.15-.24-1.01.2-1.13.16-.02,0-1.76.35-1.78.67.1.17.27.57-.1.62-.37.15-.26.55-.73.38-1.06-.2-1.19-.31-.33-.9.51-1.58.29-.85,1.66-1.19.75-.29-.35-.04-.73-.07-.35-.02-3.53-.39-2.78-.7.76-.43-1.25,0-.63-.29.12-.05.14-.07.06-.11-.69.05-1.97.14-2.39-.36.04-.07-.01-.09-.4-.12-.58-.01-.41-.24-.96-.1-2.37.03-1.24-.49.09-.6-.07-.08-.5.11-.72.07-.38-.02-.62-.3-.87-.47.05-.17-.62.07-.73-.1-.2-.14-.19-.39.12-.43.7-.19-1.25.04-.98-.46.07-.08.15-.11.33-.12.62-.03.12-.38-.09-.15-.27.32-1.16.1-1.55-.15.14-.22.57-.97.7-.99.16-.03.18-.11.03-.11-.26.02-1.01.27-.83.65.31.69-2.03-.16-2.59.06-.35-.15-1.07-.45-1.43-.6.43-.79-.43-.08-.78-.34-.1-.12-.14-.47-.06-.59.33-.15-1.08-.49-.94-.62-.25-.4-.74.26-.28.49.05.08.43.23.44.35.3.42,1.17.73,1.29,1.22.89.9-.11.8-.83.72-.35-.07-.75-.46-1.14-.15-.51.29-.43-.05-1.01-.06-.44-.02-.52-.02-.49-.32.03-.37-1.41-.58-.2-.84.81-.22.14-.18-.28-.12-.34.21-.67-.52-.84-.16.02.28.86.37.16.56-.72.24-.69,0-1.17-.05-.51-.03-.52-.17-.92-.29-.35-.25-.18.44-.95.13-.48-.16-.39.02-.78.14-.24.05-.36.17-.17.16.41-.09.18-.18.93-.16.98-.06.73.25,1.52.29.64.04.83.14.38.22-.23.04-.31.1-.12.09.36-.1,1.08-.38,1.32.03.05.2,1.12.44.29.58-.66.25-.99-.1-1.45-.01.85.46-.41.23-.97.3.05.05.49.16.24.23-.76.2-1.2-.4-2.18-.29-1.17-.02-2.18-.35-3.31-.59-.48-.05-.71-.14-.63-.25-.32-.42-1.35-.5-1.99-.56-1.58-.31-3.15-.37-4.69-.68-.2-.08-.21-.1-.05-.24.47-.41.54-.51.42-.56-.22-.15.61-.77.7-.53.06.07.52.2.51.31-.06.08.06.07.43-.04.76-.2-.38-.13-.6-.33-1.11-.48-1.28.57-2.54.72-1.56.38-2.61.46-4.09.24-.1-.03-.52-.06-1.35-.07-.46-.01-.79-.11-.19-.28,1.17-.53-.58-.18-.95,0-1.69,0-3.91-.25-5.65.02-1.31.08-3.97.44-5.12.36-.63-.11.9-.14.34-.27-.44-.03.54-.5.07-.52-.17-.11-1.03.09-.48.17.62.38-1.46.34-1.81.1-1.24-.37.9-.44.48-.52-.14,0-.18-.05-.19-.26-.21-.4-2.16.83-2.66.59-.77-.07-1.17-.34-2.07-.21.29-.24.23-.25-.54-.09-.56.12-.83.14-.94.07-.07-.33,1.93-.07,1.62-.57-.11,0-1.15.29-.96.06.04-.08-.12-.2-.27-.2-.32.22-2.44.35-.94-.06,0,0,.49-.12.49-.12-.65.1-1.28-.27-.42-.54-.19,0-1.57.37-1.58.26-.16-.02-1.02-.05-1.08.07-.09.11-.72.23-.63.06.04-.04-.02-.07-.15-.09-.42,0,.18-.19,0-.24-.3,0-.51.49-.94.48-.38.06-.17.02-.21.16-1.36.26-2.54.36-.44-.51.2-.18,2.29-.92.49-.48-.59.14-.52.41-.93.47-.15,0-.18.02-.22.11-.29.32-1.11.31-1.4.66-.25.33.32,0,.59.07.55-.02.15.24-.18.33-.95.31.96-.19.53.38-.21.35.47-.17.8-.22.89-.25.4.03.38.29.22.16-.49.32-.61.46-.25.23-1.04.38-.95,0,.47-.71-.57-.05-.92,0-.24.11-.38.06-.65.15-.23.06-.23.07,0,.06,1.12-.04,1.6.03,1.33.21-.12.08-.11.09.1.09.37,0,.3.08-.15.2-.3.05-1.76.33-1.64.05.41-.22.16-.27-.32-.06-.57.3-.45.04-.84.18-.17.06-.59.26-.73.09-.29-.18-1.53,0-1.34-.16-.17-.26-.84.49-1.12.32-.12-.05.32-.34.02-.29-.46-.13-2.16,1.56-1.78.42-.3.05-.74.89-.97.36-.68.15-1.38.55-2.09.69-.64.03.19-.32-.07-.34-.15-.02-.63.3-.77.33-.43.13-.09-.48-.44-.06-.49.46-1.43.27-2.08.7-.26.13-.5.16-.44.04.26-.13-.85-.13-.87-.08.93.25-1.26.07-1.47.26-.93.2-.93.04-1.77-.17-.37-.26,1-.48,1.32-.54,1.43-.03,2.83-.44,4.11-.97-.89.09-2.14.65-3.04.4-1.96-.81,4.33-1.52,3.62-2.73,1.37-.42,3.27-.66,4.89-1.01.75-.08.87.45,1.61.19.51-.15,1.23-.02,1.74,0-.38-.18-1.4-.27-1.89-.45,0-.11-.69.13-.76.08-.3-.25,1.22-.26,1.55-.38,1.45-.21,2.15-.81,3.54-.77.84-.08-.08-.1-.74-.02-.88.14-6.89,1.89-3.87-.03.66-.47-.77.09-1.02.49-1.16.62-2.61.67-3.98,1.02-1.7.1-1.32.61-2.49.82-.99.03-.52.19-1.62.4-1.24.27-1.52.95-2.93.9-.47,0-.6.02-.64.05-.06.07.81.11.78.18-.71.61-2.41.6-3.27.74,1.09.34-1.28.64-1.45.6-.27-.01-.28-.02-.16-.14.21-.25-.4-.03-.6-.05-.22,0-.45.07-.42.24.15.2-1.08.11-.89.33-.41.39-1.66.23-2.2.61-.35.13-.29.18-.77.3-.61.21-.57.11-.34.27-.2.14,1.76.03,2.08.05.34.23.56.22.95.31.71.55-2.24.95-2.7.97-.64-.13-1.76.82-2.53.78-.51.03-.8.11-.49.14.47.13-.61.49-1,.58-.52.16-.81-.17-1.23.12-.09.06-.18.07-.5.09-.85.09-1.82.04-2.56.35-.57.23-1.21.28-1.75.52-.26-.06-.92-.15-.96,0-1.4.77-3.35.63-4.94,1.08.34.23-.07.23-.14.43-.87.55-2.31.36-3.18.71-.2-.04-1.76.39-2.45.51-.32-.05-.8-.4-1.08-.08-.09.15-.87.22-.44.36.58.21-1.6.31-1.38.09-.02-.05-.05-.1-.08-.1-.08,0-.95.18-1.19.23,1.19.23-.62.31-1.2.36-.65.19-.64-.02-1.09-.08-.22,0-1.67.45-1.79.55,1.56.45.68.35-.41.72-.19.11-.63.2-.85.16-.55-.02,1.51-.62.72-.58-.38,0-1.01.29-1.38.55-1.05-.06-2.44.57-3.46.3-1.01-.39-1.86.85-2.84.96-1.32.21-1.13-.01-.15-.24,2.2-1.03-1.08-.52-1.63-.17-.91.28-1.28-.02-2.31.32-1.52.4-.17,0-.74-.06-.4-.06-.62.36-.99.39-.91.12-.4-.46-1.31-.1-.33.24-4.61.65-2.18-.21.58-.33,1.09.14,1.51-.07.09-.31-1.27-.39-1.62-.25-1.25.33-2.4,1.26-3.72,1.09-.41.08-.5.51-1.04.42-.12,0-.13-.04-.02-.14.42-.39-2.03.39-2.09.17-.42-.14.34-.23.45-.43.5-.49-1.16-.15-.66,0,.22.02.22-.01-.03.23-.43.44-1.18.38-1.74.45.68-.37.07-.22-.33-.12-1.28.31.8-.41-.48-.46-.52,0-.78.16-.61.36.1.12.08.16-.12.23-.18.03-1.58.45-1.31.1Zm33.16-4.41c.35-.06-.2-.03-.25,0-.13.04,0,.04.25,0Zm5.62-2.76s-.29-.04-.24,0c.03.05.2.04.24,0Zm8-.73c1.23-.89-2.68-.83-2.75-.64-.38.37,2.62.48,2.36.61-.11.18.08.19.39.03Zm101.84-4.25c.17-.07-1.03-.16-.71,0,.1.04.69.04.71,0Zm-107.62.59c.09-.06,1.61-.17.85-.23-.42-.04-2.36.58-.85.23Zm14.28-1c.93-.17,2.99-.1,3.54-.53.08-.17,2.55-.24,2.67-.5-1.14-.25-3.69.35-5.34.42-1.32.04-2.37.07-3.26.74.71-.02,1.93-.01,2.39-.14Zm19.53-1.17c.12-.06-.15-.02-.19,0-.12.06.15.02.19,0Zm11.2-1.18c.07-.08-.28.03-.13.03.05,0,.11-.01.13-.03Zm36.64-.46c.15-.27-.36.05-.17.11.05,0,.13-.05.17-.11Zm-36.67-.28c.36-.09,1.03-.04,1.27-.13-.03-.26-3,.31-1.27.13Zm11.61-.67c.47-.09-.22-.12-.33-.15-.55-.1.06.29.33.15Zm-2.13-.58c.15-.08-.8.04-.28.03.14,0,.26-.02.28-.03Zm-7.13-.26c.71-.14-.52-.09-.54.03.08.05.37-.03.54-.03Zm-60.29.34c.5,0,1.41-.25.63-.57-.29-.05-.27-.09.04-.09.65-.04,0-.23-.42-.06-.71.24-1.45-.02-2.16.02-.71.1-.16-.08-.39-.22-.32-.12-1.23-.05-.4.05.33.08.09.3.77.39.22.04.22.06.07.18s-.15.14.05.13c.55.05,1-.47,1.5-.23.24.28-1.1.6.3.39Zm-3.09-1.83c.68-.2-.59,0-.33.06.05,0,.19-.03.33-.06Zm37.42-12.09c.54-.2,1.72.12,2.2-.11.08-.07.06-.11-.11-.17-.5-.19.5-.16.57-.27-.15-.18-1.79.05-1.97.04-.77.12-1.7-.21-2.42.06-.66.14.25.2.39.27.3.23.85.31,1.35.18Zm-13.69-.55s-.7-.02-.69,0c-.03.04.7.02.69,0Zm55.73-7.4c1.17-.24.27-.13-.12-.08-.48.07-1,.33.12.08Zm-34.87-.11c1.21-.32-.62.05-.69.11-.04.04.3-.02.69-.11Zm29.19-.27c.26-.1-.3.03-.29-.06-.26-.15-.14.12-.2.23-.05.05.09,0,.49-.17Zm6.03.08c.22-.09-.09-.04-.16,0-.22.09.09.04.16,0Zm-5.48-.28s-.33.05-.37.09c-.1.08.44-.09.37-.09Zm-6.21-.3c.26-.04.48-.03.67-.05-.13-.2-1.15-.25-1.49-.24-.67.33.54.4.82.29Zm-1.26,0c.06-.19-.4-.27-.31-.06.05.06.26.1.31.06Zm-14.46,0c.1-.04-.13-.02-.12,0-.03.05.08,0,.12,0Zm-68.43,39.43c-.12-.07.74-.24.51-.05-.15.09-.52.13-.51.05Zm5.01-.13c-.23-.1-.58-.06-.85-.04.68-.77,1.74-.84,2.58-.78.16,0,.06.11-.19.21-.45.32-.87.96-1.54.61Zm-6.95.09c-.03-.05.35-.16.42-.11.09.06-.34.22-.42.11Zm.99-.15c-.28-.19.25-.29.77-.15.71.15-.76.34-.77.15Zm2.47-.19c-.03-.19.56-.21.64-.15.25.15-.69.24-.64.15Zm5.26-.2c-.08-.17,1.35-.23.63.02-.28.05-.63.04-.63-.02Zm-110.99,1.14c-.44-.37,1.88-.71,1.95-.47.65.54-1.58.68-1.95.47Zm104.47-1.09c-.12-.1,1.14-.26.98-.02-.06.05-.95.07-.98.02Zm8.38-.11c.05-.16.71-.16.56-.04-.11.09-.57.13-.56.04Zm-.3-.23c-1.21-.1.65-.29.73-.17.1.24-.47.19-.73.17Zm22.99-.68c-.46-.21,2.13-.73.94-.19-.38.16-.54.4-.94.19Zm-141.13,1.4c0-.2.9-.6.79-.19-.08.32-.66.32-.79.19Zm105.76-1.2c.1-.08.66-.16.75-.1.25.07-.81.2-.75.1Zm17.56-.4c.21-.12.95-.41,1.2-.35.48.09-1.45.53-1.2.35Zm-121.47,1.26c-.13-.18,1.6-.32,1.45-.16.06.13-1.47.3-1.45.16Zm102.61-1.1c.13-.12.46.03.09.05-.09,0-.13-.02-.09-.05Zm-102.76.83c-.1-.18.97-.28.6-.01-.21.07-.56.08-.6.01Zm135.58-1.7c.22-.31,1.29-.19.41.06-.45.09-.56.08-.41-.06Zm-135.78,1.44c-.1-.06.97-.26.66-.07-.19.09-.66.14-.66.07Zm252-2.84c-.64-.43-1.71-.42-2.16-.99-.3-.11.11-.45.28-.42.63.05.62.58,1.27.58.13-.03.17-.3.05-.36-.28-.34.81-.08.86,0,.21.15-.23.49-.59.46-.75-.12,1.19.57.97.66-.07.13-.46.17-.68.07Zm-255.27,2.64c.03-.24-1.47.25-1.24-.02.13-.12.36-.2.6-.2.6-.12,1.8-.06,2.38-.28.48-.15.56-.16.78-.08.17.3-2.21.9-2.51.59Zm119.48-1.38c0-.08.45-.19.54-.13.08.12-.64.25-.54.13Zm19.82-.27c.02-.17.36-.3.54-.27.44,0-.31.52-.54.27Zm116.82-1.34c-.27-.16-1.33-.17-.25-.39.41-.06.51-.12.48.12-.03.05.02.12.11.15.3.16-.18.29-.33.12Zm1.82-.13c-.2-.09-.63-.6-.82-.41-.15.08-1.48.14-.73-.26.45-.19-.28-.14-.26-.29.06-.09-.26-.22-.21-.3-.01-.13-.21.03-.22.16-.26.51-.64-.18-1.19.16-.91.26-.24-.2-1.26-.12-.58.05-1.46-.57-.21-.34.11.11.88.15.95.03.14-.23-1.53-.1-.53-.53.9-.48-1.91.34-1.52-.15-.06-.16,1.23-.52.7-.68-.32-.13-.07-.22-.29-.39-.12-.09-.41-.44-.45-.23.2.35.13.42-.42.45-.46,0-1.78.76-1.56.18-.05-.33,1.1-.3.74-.46-.5-.1,1.04-.17,1.04-.22-.27-.12-1.97.27-1.16-.49.67.09,3.04-.39,2.66.42-.39.32.47.13.4.34.24.12.19-.2.63-.19.55-.11.9.14,1.43.25.72.07,1.11.77,1.77.79.87.04.55.34-.14.19-.12-.06-.37.3-.11.23.7-.07.97-.09,1.08.19.26.15-1.36.45-.08.33.41,0,.54-.39.85-.3.27.11-.7,1-.2.79.39-.1.22.04.4.17.1.05.09.07-.02.11-.16.06-.12.12.07.12.22,0,.23.07.03.13-.17.06-.17.07-.07.1.36.41-1.2.37-1.32.21Zm-.6-.59s-.25-.14-.25-.06c-.05.12.24.1.25.06Zm1.2-.15c.06-.08-.25,0-.27.03-.06.08.25,0,.27-.03Zm-1.66-1.06c.04-.09-.28.04-.12.03.06,0,.11-.02.12-.03Zm-.46-.23c.25-.07,1.04-.09.33-.16-.16,0-.33-.03-.37-.05-.41-.22-.83.54.05.22Zm8.37,1.91c-.07-.13.49-.39.85-.4.58.14-.82.62-.85.4Zm-145.82,1.52c-.11-.15.66-.15.42-.03-.14.08-.34.1-.42.03Zm30.49-.63c.21-.29,2.33-.66,2.45-.62.81.17-3.06,1.05-2.45.62Zm114.94-1.11s.2-.08.2-.02c0,.02-.23.1-.2.02Zm-112.3.89c-.31-.4,2.22-.41,2.18-.16-.63.23-1.56.19-2.18.16Zm98.63-1.29c-.26-.26,1.34-.59.43-.03-.22.09-.32.1-.43.03Zm1.08,0c-.05-.04.27-.31.44-.36.17-.1.75.27.36.35-.2.04-.75.05-.79,0Zm10.46-.15c-.07-.04-.24-.06-.36-.06-.68-.01.97-.42,1-.26.65.25-.47.51-.64.32Zm-123.65,1.13c-.16-.1,1.87-.2,1.85-.04-.07.06-.15.07-1,.09-.87.02-.92.02-.85-.05Zm15.08-.25c.04-.16.67-.15.54-.04-.09.09-.54.12-.54.04Zm.15-.23c-.21-.04,2.8-.89,2-.75-.67.12-.34-.09.14-.19,1.87-.61-1.88.45-.77,0,.94-.33-.75-.3-.75-.24,1.46-.03-.54.89-1.01.96-.2-.08-.36-.48-.59-.65,1.57-1.02-.65-.56.16-1.05.85-.25,4.74-1.5,4.47-.46-.01.45-.6.36-.92.31-.13-.07-.35,0-.27.09.05.2-.44.52.17.23.29-.37,1.2.09,1.08-.12-.13-.08.09-.28.43-.39.67-.18.06-.17.12-.35.52-.17.96.16,1.44,0,.17-.08.16-.08-.12-.06-.43.03-.46-.1-.93-.14-1.38-.1,2.18-1.03,1.65-.45.09.05-.73.7-.18.49.3-.04.35-.26.61-.15.28.14.32-.21.56-.21.18.22,1.48,0,.96-.38-.12-.07-.18-.14-.12-.16.18-.04,2.3.06,1.39.34-1.24.68,1.15-.22,1.35-.17.22,0,.71.17.71.26-.09.14.64.04.58.14-.19.2-.61-.02-.93.09-.53.1-.32.32.26.37.3.02.34.04.25.1.01.07-1.6.49-.99.48.18,0,.49.09.09.15-.32.07-.52.05-.47-.04,0-.14-.95-.09-1.1-.2-.3-.21-2.78.1-1.18.05.51-.02.62-.02.82.04.73.31-1.43.5-1.35.35-.02-.13-1.31-.01-.78.11,1.09.17-1.39.24-.17.27,1.13.12-1.59.46-1.84.54-.51.03.16-.44.56-.48.99-.29-.57.08-.72.03-.27-.09-.44.28-.82.24-.48,0-.19.07-.25.27-.11.16-1.05.05-1.06.42-.41.21-2.07.43-2.49.34Zm96.07-1.02c-.04-.08.77-.29.93-.34.91.34-1.03.45-.93.34Zm1.41-.14c-.09-.16.66-.14.45.02-.13.04-.43.03-.45-.02Zm.67-.16c-.07-.06.16-.2.31-.2.43.11-.16.33-.31.2Zm-253.35,2.23c.06-.14.59-.36.85-.26.42.13-.73.36-.85.26Zm252.02-2.78c-.92-.28,1.18-.35,1.43-.21-.46.1-.87.44-1.43.21Zm-3.45.07c-.64-.36,1.6-.31.81-.15-.3.05-.54.31-.81.15Zm1.9-.27c-.21-.1-.11-.29.14-.29.64-.01.31.56-.14.29Zm2.88-.23c-.55-.33.65-.17.48.02-.12.08-.26.07-.48-.02Zm-4.12-.21c-.13-.13.16-.28-.18-.36-.23-.08-.24-.23-.02-.27.41-.12-.41-.01-.11-.25-.02-.25,1.01-.02.8-.28.02-.2.4-.29-.18-.19-.24.09-1.28-.02-.58-.29-.48-.16-1.51-.02-.6-.6.2-.24.84-.26,1.22-.33.92-.04.02.46.9.41.24.05.86.19.86.41-.07.09-.63.04-.64.17-.07.15-.72.21-.17.24.21,0,.25.02.21.12-.06.19.58.33.03.36-.43.01.26.13-.07.23-.28.17-.42.58-.8.2-.04-.03-.09-.04-.18-.01-.09.03-.09.06.02.12.37.23-.43.44-.55.32Zm.74-.64c.05-.16-.44-.02-.11.05.05,0,.1-.02.11-.05Zm7.82.31c-.05-.07.05-.18-.11-.25-.16-.06-.1-.26-.17-.31-.14,0-1.13.16-1.22.07-.38-.1.01-.5.37-.55.54-.25.88.2,1.19-.43.31-.39,1.22.03,1.74.06-.23.63-.53.46-1.04.35-.79.05.68.13.29.33-.1.09-.1.15,0,.24.45.23-.98.46-1.05.49Zm-11.45.01c-.33-.09-.32-.42-.68-.39-.25,0-.22-.03-.32-.17-.09-.19.31-.36-.2-.31-.34.01-.34,0,0-.33.34-.34-.48.1-.6.06-.2,0-.09-.16.16-.24.5-.17-.57-.1-.63,0-.09.08-.73.17-.59-.1.03-.09.01-.2-.03-.23-.07-.06-.05-.08.14-.14.49-.24-.8,0,.15-.66.15-.14.05-.15-.45-.07-1.24.09-.13.24-.86.71-.2.12-1.49.32-.72-.11.66-.22-.54-.24-.34-.54.28-.35.86.02,1.16-.23.82-.4-.22-.58.7-.66.95-.07-.04.32.65.17.18-.04.22-.03.27.02.07.13,1.36-.21,1.25.19-.26.24.53.15.47.33-.05.1.77.48.72.57-.07.11.19.45.24.65.02.19.52.19.28.43-.08.1-.09.21-.03.28.05.37.33.45.06.84-.27.01-.58.03-.82-.07Zm8.55-.31c-.2-.06.45-.12.4-.04-.07.05-.32.07-.4.04Zm.47-.21c-.05-.07.21-.11.23-.07.05.07-.21.11-.23.07Zm-.47-.2c-.3-.19.53-.13.31,0-.1.05-.2.05-.31,0Zm-262.21,2.27c-.34-.29.96-.6,1.09-.42.14.07.31.08.87.09.61,0,.68.01.59.07-.63.18-1.88.69-2.54.26Zm262.13-2.53c-1.08-.26,1.85-.87,1.48-.33-.36.42-.95.45-1.48.33Zm-3.16-.12c-.22-.16.16-.48-.25-.59-.09-.03-.1-.07-.02-.14.13-.11.03-.19-.21-.19-.65-.05.03-.22-.66-.3-3.01-.41,3.22-.63,3.59-.55.55.11,1.01.79.42,1.04-.04.08-1.54-.67-1.02-.18.15.34,1.12.2.76.51-.27.3-.27.23-.75.23-.48-.12-1.55.44-1.86.18Zm-165.32,1.44c-.55-.63,1.61-.26,1.39-.16-.13.14-1.27.27-1.39.16Zm75.83-.88c-.72-.4,1.1-.47.79-.08-.11.08-.19.11-.39.12-.14,0-.32,0-.4-.04Zm94.67-.92c-.19-.11.92-.16.4-.01-.16.05-.35.05-.4.01Zm-259.05,2.54c0-.2.99-.26.56-.03-.16.05-.51.08-.56.03Zm168.94-1.77c-.11-.19.62-.27.41-.03-.11.05-.34.07-.41.03Zm-1.5-.05c0-.07.4-.16.53-.11.17.07-.64.24-.53.11Zm89.93-.9c-.29-.29.94-.31.85-.02-.23.05-.76.06-.85.02Zm1.4-.06s.3-.08.28,0c0,.05-.3.08-.28,0Zm-258.91,2.48s.24-.18.38-.2c.48.02-.36.3-.38.2Zm166.58-1.69c-.27-.31-1.99.05-.84-.34.14-.06.42-.12.56-.04.26.06.34.04.18-.05-.35-.19.87-.19,1.38-.13-.34-.18-.7-.37.13-.37.33,0,.38-.01.39-.07,0-.12.66-.03.64-.18.14-.24,1.75-.14,1.47-.29-.2-.19,1.32-.49,1.4-.36-.02.18-1.17.29-1.3.6-.11.28-.02.16.26.1,1.04-.3-.23.28.75.05.35-.08.39-.06.25.08-.37.35,1.59-.29.37.29-.61.36-1.17-.15-1.75.19-.4.33-1.04-.08-1.46.18-.06.06-1.02.29-1.21.29-.12.03-.81-.24-.7-.03.09.11-.22.14-.52.07Zm91.9-1.01c-2.51-.17,1.05-.54,1.33-.24-.09.13-.33,0-.49,0-.33.1-.24.44-.83.25Zm-260.24,1.95c-.11-.31-1.41.11-1.19-.43.3-.16.39-.29.28-.43-.51-.41,1.79-.26,1.88-.18.17.05.29.12.25.17-.11.14.83.04.85.15.13.07.12.09-.09.14-.85.22-.99.32-.47.32,1.36.17-1.31.69-1.51.27Zm251.17-2.5c-.2-.21-.06-.63.24-.63.27-.05.32-.1.08-.1s-.39-.08-.23-.13c.02-.06,1.07.11.79-.05-.42.02-1.59-.25-1.63-.64.08-.13.02-.44-.09-.49-.15-.06.05-.22-.13-.24-.22-.03-.32-.2-.23-.42.27-.41-.8-.04-.58-.44.11-.39.81.07,1.1.15,0,0,.71,0,.71,0,1.08-.11,1.42-.07,2.35.35.26.05,1.11.61.82.74-.57-.04-.86-.2-1.28-.47-.33-.19-.73-.63-.89-.03.19.2,3.13,1.03,1.62,1-.32-.01-.46,0-.47.02-.12.17,1.48.08.84.36-.22.27-1.31-.13-.77.21.24.1.26.13.13.18-.23.18-.57.13-.82.2-.53.25-1.25.85-1.57.43Zm-5.96-.39c-.3-.09-.37-.17-.14-.17.54-.22-.66-.2-.74-.25-.12-.08-.78.01-.59-.22.05-.07.02-.11-.08-.13-.25-.06-1.25-.25-.38-.51,1-.28-1.26-.24-.21-.51,1.03-.34,2.4-.71,3.51-.51.42.05.05.41-.28.42-.35.05-.39.12-.21.26.3.15-.66.03-.63.18.12.21,1.16.01,1.56.13.59.08,1.05.3,1.68.11.48-.29,2.25.48.95.66-1.2.11-2.66-.38-3.85-.29-.07.09.71.17.71.33-.03.05.02.09.11.11.39.11-.26.21-.34.35-.17.22-.79.13-1.08.05Zm-1.07-1.81c-.02-.14-.43-.19-.32.02.08.04.29.02.32-.02Zm5.8,1.6c-.28-.29.74-.07.61-.02-.08.05-.5.07-.61.02Zm-158.45,1.4c-.29-.35,1.96-.29,1.75-.19-.2.08-1.39.54-1.75.19Zm80.52-.98c.11-.07.47-.14.53-.11.14.05-.63.23-.53.11Zm75.52-1.56c-2.05-.02-.43-.89.81-.79,1.08-.15,1.59.45.56.53-.31,0-.29.06.03.09.88.16-1.21.35-1.4.18Zm-110.79,1.09c-1.05-.15,2.53-.94,2.3-.62-.75.16-1.49.74-2.3.62Zm3.31-.17c.11-.19-.78.03-.37-.19.09-.06.2-.12.24-.14.94-.19.71.67.13.33Zm34.34-.3c-.1-.12,1.32-.26.55-.03-.31.07-.51.08-.55.03Zm1.42-.11s.27-.16.4-.16c.36.06-.43.27-.4.16Zm6.28-.97c-.01-.09.1-.16.4-.24,1.09-.23-.32.49-.4.24Zm-11.58-.1c-.27-.21,1.06-.41.99-.26.12.26-.95.34-.99.26Zm80.18-.87c-.27-.26,1.42-.09,1.27,0-.03.05-1.18.05-1.27,0Zm-55.53-.75c-.37-.2.55-.2.58-.36.92-.33,2.88-.86,3.47-1.34.98.16,1.19.28-.4.65-.93.14-.62.39-1.28.52-.29.04-.43.11-.29.15.17.2-.78.21-1.04.32-.5.09-.64.22-1.03.06Zm14.15-.64c-.03-.1.77-.39,1.07-.4.46.01-1.22.58-1.07.4Zm-8.16-.91c.33-.21-.44-.03-.03-.27.61-.46.99-.25,1.58-.2.07.08,1.06,0,.96.15.08.06-2.93.58-2.5.31Zm-78.91.07c-.41-.21-.94-.46-1.36-.62-.46-.08-.99-.29-.34-.68.72-.06,1.39.06,2.04.19.87.13,2.37-.23,3.46-.22.16.12.4.28.6.29,1.12.16-.9.42-.84.74-.75.57-.91.04-2.05.32-.62-.11-1.05.39-1.49,0Zm76.14-.82c-.12-.19.28-.23.63-.23,1.08-.06-.57.36-.63.23Zm-1.75-.09c-.1-.17.88-.25.53,0-.11.05-.52.05-.53,0Zm3.4-.63c-.13-.15.32-.16.48-.09.53.14-.4.2-.48.09Zm-96.96-1.68c-1.53-.77,1.25-1.28.2-.65,0,0-.38.24-.38.24.93.14,1.35.79.17.4Zm24.45-5.77c0-.35-.56-.6-.64-.87.04-.12-.2-.3-.3-.38-.62,0-3.19.11-3.17,0-.25-.18.68-.62.98-.68,1.01-.29,1.57-.36,1.31-.17-.44.27.73.35.81.47.63.23,2.73-.28,3.26-.16.07.03-.48.65-.39.69.89.29,1.51.56,2.59.67.35.04.31.08-.27.26-.99.32-1.72-.04-2.83.07-.38.03-1.2.5-1.35.1Zm19.4-5.92c-.04-.2,1.77-.33.66-.06-.33.08-.59.1-.66.06Zm14.41-.94c.07-.06.64-.17.69-.1.18.1-.92.22-.69.1Zm61.95-7.85c-.1-.1.94-.14.36-.01-.25.04-.32.05-.36.01Zm-6.13-.05c-.11-.03-.11-.03.02-.05.81-.08.61.18-.02.05Zm-.93-.06c-.37-.13.3-.11.38-.05.13.09-.13.12-.38.05Zm-1.48-.06s.14-.04.31-.04c.71,0-.44.16-.31.04Zm-2.97-.27c-.16-.17.64-.08.49.02-.12.03-.42.02-.49-.02Zm1.49.01c-.15-.07.28-.11.26-.03-.04.04-.2.06-.26.03Zm-32.18.04c-.52-.15.57-.03.49.01-.04.03-.28.02-.49-.01Zm28.6-.17c-.08-.07.32-.03.13.01-.05,0-.11,0-.13-.01Zm.59-.02c-.17-.15.81-.14.57-.01-.09.03-.5.04-.57.01Zm-1.52-.04c-.14-.07.47-.18.34-.03-.08.08-.28.1-.34.03Zm-11.01-1.23c-.04-.13.36-.08.38,0-.03.03-.32.02-.38,0Zm-.4-.11c-.26-.08.18-.12.24-.06.08.05-.08.09-.24.06Zm-.48-.21c-.51-.14.64-.17.38,0-.1.04-.16.04-.38,0Z"/>
  </g>
  <g>
    <path class="cls-1" d="m165.28,459.86c-13.74-19.24-27.22-37.98-40.55-56.82-28.99-40.94-58.11-81.79-86.79-122.95C14.25,246.12.79,208.54.03,166.78-1.38,89.36,53.64,18.78,129.4,3.8c106.59-21.08,180.68,49.08,197.28,124.92,8.25,37.72,3.41,74.16-10.96,109.65-8.46,20.88-20.88,39.41-33.84,57.64-38.02,53.5-76.02,107.03-114.03,160.54-.71.99-1.49,1.93-2.56,3.31Zm-8.41-216.94c1.57-.23,2.53-.28,3.44-.52,16.99-4.49,33.14-10.91,47.97-20.46,23.58-15.19,36.2-36.76,38.05-64.77,1.15-17.29-.36-34.39-2.8-51.46-.92-6.46-2.18-12.87-3.42-20.1-13.6,9.09-26.69,17.3-39.2,26.33-22.01,15.88-34.63,37.5-37.42,64.63-.84,8.16-.75,16.32.95,25.44,17.83-23.67,35.1-46.6,52.38-69.53.3.21.59.42.89.63-21.01,35.98-44.42,70.65-60.83,109.83Zm-9.79.16c.46-.91.69-1.22.78-1.57.24-.97.45-1.95.62-2.93,4.61-25.77.89-50.49-9.69-74.23-11.07-24.85-28.66-44.87-47.9-63.62-.32-.32-.79-.49-1.61-1-7.52,29.7-8.14,58.82,3.58,87.25,10.58,25.65,30.28,42.8,54.21,56.1Z"/>
    <path class="cls-2" d="m156.87,242.92c16.41-39.18,39.82-73.85,60.83-109.83-.3-.21-.59-.42-.89-.63-17.27,22.93-34.55,45.86-52.38,69.53-1.7-9.12-1.79-17.27-.95-25.44,2.8-27.13,15.41-48.74,37.42-64.63,12.51-9.02,25.6-17.23,39.2-26.33,1.24,7.23,2.5,13.64,3.42,20.1,2.44,17.06,3.95,34.17,2.8,51.46-1.86,28.01-14.47,49.58-38.05,64.77-14.83,9.55-30.99,15.98-47.97,20.46-.91.24-1.88.29-3.44.52Z"/>
    <path class="cls-2" d="m147.08,243.08c-23.93-13.29-43.63-30.45-54.21-56.1-11.72-28.42-11.1-57.55-3.58-87.25.83.5,1.29.68,1.61,1,19.23,18.75,36.82,38.77,47.9,63.62,10.58,23.75,14.3,48.47,9.69,74.23-.18.98-.38,1.96-.62,2.93-.09.35-.32.66-.78,1.57Z"/>
  </g>
</svg>