<?xml version="1.0" encoding="UTF-8"?>
<svg id="Layer_1" data-name="Layer 1" xmlns="http://www.w3.org/2000/svg" viewBox="0 0 1173.01 917.98">
  <defs>
    <style>
      .cls-1 {
        stroke-width: 0px;
      }
    </style>
  </defs>
  <path class="cls-1" d="m589.37,917.98c-17.6,0-35.09-.1-52.38-.19-11.31-.06-22.61-.12-33.92-.16-29.73-.1-61.65-1.01-97.58-2.78-31.34-1.54-64.26-3.81-100.67-6.93-25.03-2.15-51.03-4.8-77.27-7.87-30.77-3.62-60.49-8.05-88.35-13.17-35.94-6.61-74.28-14.8-111.21-29.82-8.17-3.32-14.57-7.66-19.56-13.26-5.93-6.68-8.53-13.25-8.18-20.67.21-4.36.06-8.88-.08-13.24-.24-7.64-.5-15.54,1.03-23.38,4.74-24.41,19.39-42.45,44.77-55.14,19.7-9.85,33.45-24.17,40.88-42.54,3.46-8.57,6-16.34,7.75-23.74,5.14-21.79,21.99-32.01,37.8-39.13,2.32-1.04,4.64-1.93,7.14-2.82-4.85-1.7-9.15-3.2-13.56-4.6-15-4.77-22.6-15.39-22.58-31.58.02-20.34,3.97-35.32,12.8-48.57,14.2-21.31,24.09-44.26,29.4-68.24,1.47-6.62,2.66-13.45,3.81-20.05,1.45-8.29,2.95-16.87,5.02-25.26,5.23-21.17,13.38-41,24.24-58.95,20.72-34.27,49.03-66.54,86.56-98.68,28.54-24.44,56.81-42.12,86.42-54.04,21.87-8.8,45.54-15.48,72.36-20.43,28.3-5.22,58.48-8.09,97.87-9.31.65-.02,1.07-.06,1.35-.1,0-.17-.01-.4-.04-.7-.29-2.75-.21-5.45-.15-8.07.02-.92.05-1.85.06-2.77,0-.27,0-.54-.02-.82-.07-1.77-.24-5.91,3.85-7.42q2.25-.84,1.21-4.22c-.26-.86-.54-1.75-.75-2.72-6.52-30.17.32-57.01,20.32-79.78,4.25-4.84,9.54-4.3,13.41-3.9.84.08,1.63.17,2.37.19,1.94.08,2.61-.13,2.79-.21.07-.18.27-.82.17-2.57-.46-8.05-.47-16.6-.02-26.14.05-1.06-.03-1.59-.09-1.82-.26-.07-.87-.18-2.28-.16-14.42.23-29.08.28-43.25.33-4.18.01-8.36.03-12.54.04-2.59.01-5.21-.03-7.8-.12-9.61-.32-12.75-5.7-13.69-10.16-1.56-7.34,1.12-12.96,7.74-16.26,10.25-5.1,21.56-8.72,35.6-11.41,28.35-5.42,57.1-5.07,83.93-3.88,21.08.94,45.4,2.9,67.23,14.31.4.21.82.41,1.23.62,3.14,1.54,8.4,4.13,7.43,10.31-.88,5.56-4.6,10.43-9.73,12.7-2.38,1.06-6.02,2.44-10.27,2.26-8.64-.37-17.5.18-26.07.71-9.61.6-19.56,1.21-29.47.57-1.19-.08-1.77,0-2.02.07-.07.24-.17.81-.12,1.98.33,8.2.22,16.51.12,24.54l-.04,3.52c0,.19,0,.36,0,.51,13.42-3.04,19.64,6.38,24.65,13.96l.71,1.07c16.18,24.36,19.55,47.73,10.31,71.46-1.17,3-.84,3.15.76,3.9,5.63,2.65,5.78,6.91,5.37,9.21-.35,1.97-.33,4.09-.3,6.33.04,3.03.08,6.34-.85,9.69,1.85.1,3.68.21,5.51.31,7.48.43,14.54.83,21.67.9,17.02.16,34.04,2.23,50.49,4.22,5.53.67,11.25,1.37,16.88,1.98,26.94,2.92,47.36,7.46,66.23,14.73,44.85,17.28,84.17,42.75,116.88,75.71,25.26,25.44,45.08,50.26,60.59,75.86,11.82,19.49,21.02,37.57,28.13,55.29,1.67,4.16,3.57,8.35,5.42,12.4,2.18,4.79,4.43,9.74,6.36,14.78,1.83,4.78,3.37,9.69,4.85,14.45,1.33,4.27,2.71,8.69,4.28,12.91,5.78,15.53,11.25,29.51,16.74,42.75,10.08,24.33,19.35,51.01,19,81.18-.19,16.14-5.76,24.55-19.2,29.05-4.78,1.6-9.56,3.27-14.59,5.02,1.05.53,2.09,1.04,3.13,1.55,5.3,2.61,10.78,5.31,15.65,9.06,10.24,7.89,16.38,18.05,18.77,31.07,5.17,28.27,18.64,47.86,41.17,59.89,12.88,6.88,24.29,16.04,33.97,24.08,14.87,12.36,17.37,29.03,17.86,43.71.15,4.62.09,9.28.03,13.78-.07,5.53-.15,11.25.18,16.78.44,7.41-2.24,13.28-8.45,18.5-10.07,8.44-21.62,13.66-35.85,18.89-35.64,13.1-71.99,19.79-99.68,24.15-24.25,3.81-50.14,7.32-79.15,10.73-14.15,1.66-28.58,2.76-42.52,3.81-9.43.71-19.17,1.45-28.72,2.36-29.73,2.82-59.99,4.16-89.26,5.45-6.65.29-13.29.59-19.94.9-16.7.78-33.68.98-50.1,1.17-13.28.16-27.01.32-40.47.79-29.71,1.03-59.72,1.31-89.44,1.31Zm-59.32-748.17c0,.27.01.6.02.85.02.4.03.8.03,1.18,0,.96-.03,1.92-.06,2.89-.07,2.5-.13,4.87.11,7.16.18,1.71.22,4.21-1.49,6.17-1.7,1.95-4.16,2.29-6.57,2.36-39.02,1.21-68.88,4.04-96.81,9.19-26.36,4.86-49.59,11.41-71.02,20.04-28.9,11.63-56.53,28.92-84.48,52.86-36.95,31.64-64.79,63.36-85.12,96.98-10.49,17.35-18.38,36.53-23.44,57.01-2.01,8.16-3.49,16.61-4.92,24.79-1.17,6.68-2.37,13.59-3.87,20.36-5.49,24.82-15.72,48.58-30.4,70.6-8.02,12.03-11.6,25.81-11.62,44.69-.02,13.14,5.61,21.06,17.7,24.9,4.98,1.58,10.01,3.35,15.34,5.22,2.46.86,5.02,1.76,7.75,2.71l2.36.81v4.95l-2.29.84c-2.16.8-4.17,1.5-6.07,2.16-3.69,1.29-6.88,2.41-9.91,3.77-14.97,6.74-29.44,15.57-33.86,34.35-1.83,7.76-4.47,15.85-8.07,24.76-8.09,20-22.97,35.54-44.24,46.18-23.31,11.66-36.73,28.09-41.03,50.22-1.37,7.07-1.14,14.24-.9,21.82.14,4.51.29,9.16.07,13.8-.26,5.56,1.72,10.4,6.42,15.69,4.26,4.78,9.81,8.52,16.97,11.43,36.34,14.79,74.27,22.88,109.84,29.42,27.71,5.1,57.28,9.51,87.9,13.11,26.17,3.07,52.09,5.71,77.05,7.85,36.32,3.11,69.16,5.38,100.41,6.91,35.82,1.77,67.63,2.68,97.26,2.78,11.31.04,22.62.1,33.93.16,46.4.26,94.38.52,141.54-1.11,13.55-.47,27.32-.63,40.64-.79,16.36-.19,33.27-.39,49.85-1.17,6.65-.31,13.3-.61,19.95-.9,29.18-1.29,59.36-2.63,88.91-5.43,9.62-.91,19.4-1.65,28.86-2.37,13.88-1.05,28.23-2.14,42.24-3.78,28.92-3.4,54.72-6.89,78.88-10.69,27.37-4.31,63.29-10.92,98.36-23.81,13.55-4.98,24.48-9.89,33.77-17.68,4.49-3.77,6.27-7.58,5.96-12.72-.35-5.79-.27-11.64-.19-17.29.06-4.43.12-9-.03-13.46-.46-13.78-2.63-28-15.34-38.55-9.42-7.83-20.49-16.72-32.79-23.29-24.53-13.11-39.17-34.31-44.75-64.81-2.09-11.4-7.22-19.91-16.15-26.79-4.32-3.33-9.25-5.76-14.47-8.33-3.41-1.68-6.94-3.42-10.47-5.5l-6.53-3.84,7.16-2.48c2.33-.81,4.59-1.6,6.79-2.37,5.32-1.86,10.34-3.61,15.39-5.3,10.62-3.55,14.26-9.23,14.42-22.49.34-28.91-8.67-54.78-18.46-78.42-5.52-13.31-11.03-27.38-16.84-42.99-1.64-4.4-3.04-8.91-4.4-13.27-1.45-4.65-2.95-9.46-4.7-14.03-1.86-4.84-4.07-9.7-6.2-14.39-1.87-4.12-3.81-8.38-5.54-12.69-6.97-17.36-16.01-35.11-27.62-54.27-15.22-25.12-34.71-49.51-59.57-74.56-32-32.25-70.5-57.19-114.42-74.11-18.28-7.04-38.16-11.46-64.47-14.31-5.67-.61-11.41-1.31-16.96-1.99-16.26-1.98-33.08-4.02-49.71-4.17-7.3-.07-14.44-.48-22.01-.91-3.45-.2-6.95-.4-10.51-.57l-6.08-.29,3.31-5.11c2.13-3.28,2.08-6.83,2.03-10.94-.03-2.48-.07-5.03.41-7.66.08-.45.16-.88-1.45-1.63-7.86-3.67-5.19-10.52-4.31-12.78,8.35-21.45,5.21-42.72-9.62-65.04l-.72-1.09c-5.38-8.15-9.12-13.04-17.71-10.88-2.84.71-4.66-.11-5.69-.92-2.46-1.94-2.42-5.33-2.41-6.6l.04-3.53c.1-7.94.21-16.15-.11-24.17-.09-2.13.05-5.22,2.19-7.31,2.11-2.06,5.06-2.15,7.39-2,9.47.62,19.19.01,28.59-.57,8.75-.54,17.79-1.1,26.81-.71,2.14.09,4.33-.42,7.13-1.66,2.98-1.32,5.14-4.15,5.66-7.39.12-.77-.17-1.26-3.61-2.95-.47-.23-.93-.46-1.38-.69-20.56-10.75-43.04-12.57-64.3-13.52-26.41-1.17-54.67-1.53-82.31,3.76-13.4,2.57-24.14,6-33.8,10.81-3.79,1.88-4.91,4.28-4,8.54.48,2.29,1.67,4.43,7.08,4.61,2.5.09,5.03.13,7.53.12,4.18-.02,8.36-.03,12.54-.04,14.15-.05,28.79-.09,43.16-.32,2.69-.05,5.47.2,7.46,2.25,2.02,2.08,2.12,5.02,2.02,7.06-.43,9.3-.43,17.61.02,25.41.14,2.5.03,5.66-2.15,7.89-2.17,2.21-5.3,2.4-8.07,2.29-.96-.04-1.9-.13-2.8-.23-3.66-.37-5.65-.47-7.44,1.56-18.45,21.01-24.76,45.8-18.74,73.68.15.67.37,1.39.6,2.14.94,3.06,2.87,9.34-4.78,12.57Z"/>
</svg>