<?xml version="1.0" encoding="utf-8"?>
<!-- Generator: Adobe Illustrator 27.9.3, SVG Export Plug-In . SVG Version: 9.03 Build 53313)  -->
<svg version="1.1" id="Layer_1" xmlns="http://www.w3.org/2000/svg" xmlns:xlink="http://www.w3.org/1999/xlink" x="0px" y="0px"
	 viewBox="0 0 783.3 776.7" style="enable-background:new 0 0 783.3 776.7;" xml:space="preserve">
<path d="M410.9,645l-1.9-1.7l0-1.3c0-5.6,0-11.2,0-16.8c0-18.8-0.1-38.3,0.3-57.5c0.1-4.3,5.3-9.7,9.2-10.6
	c77.1-17.2,125.2-65.8,142.9-144.5c0.2-0.9,0.7-1.5,1.1-2c0.2-0.2,0.3-0.4,0.6-0.8l0.9-1.3h84.9l-0.1,3.1
	c-1.3,29.5-9,58.8-23.1,87.2c-13.3,26.9-31.5,51.6-54.2,73.5c-45.8,44.2-103.8,70.6-159.4,72.6L410.9,645z M567.1,414.5
	c-9.1,40-25.9,72.7-50,97.2c-24.5,25-57.3,42.3-97.4,51.2c-1.6,0.4-4.4,3.6-4.5,4.9c-0.4,19.1-0.4,38.5-0.3,57.4c0,4.6,0,9.1,0,13.7
	c113.7-5.9,220.9-111.5,227.6-224.3H567.1z"/>
<path d="M648.9,360.2h-87l-0.4-2.5c-7.3-41.3-26.5-76.3-57.2-103.8c-23.9-21.5-51.5-35.4-82-41.3c-8.5-1.7-13.8-4.9-13.5-15.8
	c0.5-16.7,0.4-33.7,0.3-50.2c0-6.7-0.1-13.3-0.1-20v-3.1l3.1,0.1c55.7,2.1,113.8,28.7,159.4,72.8c22.6,21.8,40.7,46.5,54,73.4
	c14,28.4,21.8,57.7,23.2,87.2L648.9,360.2z M566.9,354.2h75.6C635.5,241.7,528.3,136,415,129.8c0,5.6,0,11.2,0.1,16.8
	c0.1,16.5,0.2,33.6-0.3,50.4c-0.2,6.9,1.8,8.4,8.6,9.7c31.5,6.1,60.1,20.4,84.8,42.7C539.4,277.3,559.1,312.6,566.9,354.2z"/>
<path d="M159,360.9c-5.6,0-11.1,0-16.7,0c-5.6,0-11.2,0-16.8,0h-3.1l0.1-3.1c1.9-53.1,27.5-109.2,70.3-154.2
	c45.7-48,104.6-76.5,165.9-80.2l1.3-0.1l1.8,1.8l0,1.3c0,5.6,0,11.1,0,16.6c0,19.3,0.1,39.3-0.4,59c-0.1,4.3-6.1,8.9-9.9,9.8
	c-76.1,17.7-122,63.2-140.4,139.1c-0.9,3.7-5.6,9.6-10,9.7C187.2,360.9,173,360.9,159,360.9z M128.6,354.9c4.6,0,9.1,0,13.7,0
	c19.3,0,39.2,0.1,58.8-0.4c1-0.2,3.9-3.1,4.3-5.1c9.4-38.6,26.3-70.2,50.4-94.1c24-23.8,55.8-40.4,94.5-49.5c2-0.5,4.9-3.1,5.2-4.2
	c0.4-19.6,0.4-39.5,0.4-58.7c0-4.5,0-9,0-13.5C227.4,139.2,133.9,254.7,128.6,354.9z M355.5,201.7L355.5,201.7
	C355.5,201.7,355.5,201.7,355.5,201.7z"/>
<path d="M362,645.1l-3.1-0.1c-55.2-2.1-112.9-28.4-158.4-72.2c-22.7-21.8-40.9-46.6-54.4-73.6c-14.2-28.6-22.1-58.3-23.7-88.2
	l-0.2-3.2h3.2c5.7,0,11.3,0,16.9,0c19.3,0,39.2-0.1,58.8,0.4c4.5,0.1,9.4,6.5,10.4,10.6c18.4,75.1,64.1,120.2,139.8,138.2
	c4,0.9,10.2,6.1,10.3,10.8c0.5,19.2,0.4,38.7,0.4,57.5c0,5.6,0,11.2,0,16.8V645.1z M128.6,413.7c7.6,113,114.7,219,227.4,225.1
	c0-4.6,0-9.1,0-13.7c0-18.8,0.1-38.3-0.4-57.4c-0.1-1.2-3.4-4.5-5.7-5.1c-38.4-9.1-70-25.7-93.9-49.2c-24-23.7-40.9-55.1-50.3-93.4
	c-0.6-2.4-3.6-5.8-4.8-6c-19.4-0.5-39.3-0.4-58.5-0.4C137.8,413.7,133.2,413.7,128.6,413.7z"/>
<path d="M384.4,288.9c-4.1,0-7.7-1.3-10.5-3.9c-4.6-4.1-7-11.1-7-20.3c-0.1-70.2-0.2-142.7,0.4-215.7c0-6.6,3.1-16,8.6-20.6
	c5-4.1,11-5,16.6-2.5c7,3.2,11.5,11.2,11.6,20.4c0.2,26.2,0.2,52.8,0.1,78.5c0,10.7,0,21.3,0,32l0.1,0v3c0,9,0,18,0,27
	c0,25.5-0.1,51.8,0.2,77.8c0.1,9.5-1.7,22.3-17.6,24.1C385.9,288.9,385.2,288.9,384.4,288.9z M386.1,30.5c-2.2,0-4.4,0.8-6.4,2.5
	c-3.5,2.9-6.4,10.2-6.5,16.1c-0.6,72.9-0.5,145.5-0.4,215.6c0,7.3,1.8,13,5,15.9c2.1,1.9,4.8,2.6,8.1,2.2c9-1,12.4-6.1,12.3-18.1
	c-0.2-25.9-0.2-52.3-0.2-77.8c0-9,0-18,0-27.1l-0.1-3c0-10.7,0-21.3,0-32c0-25.7,0.1-52.3-0.1-78.5c-0.1-6.9-3.2-12.8-8.1-15
	C388.7,30.8,387.4,30.5,386.1,30.5z"/>
<path d="M385.4,743.4c-5.3,0-9.5-1.5-12.6-4.5c-3.9-3.8-5.8-9.9-5.8-18.5c-0.1-64.5-0.2-140.7,0.1-217.4c0-8.5,2.3-15.1,6.6-19
	c3.3-3,7.7-4.4,12.8-3.9c16.2,1.4,18,14.3,17.9,23.9c-0.1,25.6-0.1,51.6-0.1,76.7c0,10.4,0,20.9,0,31.3v0c0,8.5,0,17,0,25.5
	c0,27-0.1,55,0.1,82.5c0,5.7,0.1,23.1-18.3,23.5C385.8,743.4,385.6,743.4,385.4,743.4z M384.5,486c-2.8,0-5.1,0.8-6.9,2.4
	c-3,2.7-4.6,7.8-4.6,14.6c-0.2,76.7-0.2,152.9-0.1,217.3c0,6.9,1.3,11.6,4,14.2c2,2,4.9,2.9,8.9,2.8c9-0.2,12.5-5.1,12.4-17.5
	c-0.1-27.5-0.1-55.5-0.1-82.5c0-8.5,0-17,0-25.5c0-10.4,0-20.9,0-31.3c0-25.1,0-51.2,0.1-76.7c0.1-12.2-3.3-17-12.5-17.9
	C385.4,486,384.9,486,384.5,486z"/>
<path d="M218.2,403c-10.5,0-20.9,0-31.1,0c-10.4,0-20.9,0-31.3,0h-3v-0.2c-9.1,0-18.2,0-27.4,0c-25.8,0-52.6,0-78.8,0.1
	c-0.1,0-0.2,0-0.3,0c-8.8,0-14.6-1.8-18.5-5.6c-3.1-3.1-4.7-7.4-4.7-12.8c0-5.5,1.6-9.8,4.7-12.9c3.8-3.8,9.7-5.6,18.4-5.6
	c0.1,0,0.1,0,0.2,0c63.7,0.2,133.5,0.1,219.8-0.1c5.2,0,21.1-0.1,22.9,17.4c0.5,5-0.8,9.4-3.9,12.8c-4,4.5-10.5,6.8-18.8,6.9
	C250.3,403,234.2,403,218.2,403z M155.8,397c10.4,0,20.9,0,31.3,0c26,0,52.8,0.1,79.2-0.1c6.4,0,11.5-1.8,14.3-4.9
	c1.9-2.2,2.7-4.9,2.4-8.2c-0.9-8.5-5.7-12-16.8-12c0,0-0.1,0-0.1,0c-86.3,0.2-156.1,0.3-219.8,0.1c0,0-0.1,0-0.1,0
	c-6.9,0-11.6,1.3-14.2,3.9c-1.9,1.9-2.9,4.8-2.9,8.6c0,3.8,0.9,6.6,2.9,8.5c2.7,2.6,7.4,3.9,14.5,3.9c26.3-0.1,53-0.1,78.9-0.1
	c10.1,0,20.2,0,30.4,0V397z"/>
<path d="M556.8,403c-17.2,0-34.3,0-51.4,0c-8.4,0-14.7-2.1-18.6-6.3c-3.1-3.3-4.5-7.7-4.2-13c1.1-17.9,17-17.8,23.8-17.8
	c26.3,0.1,53.1,0.1,79,0.1c10,0,20.1,0,30.1,0h3v0.1c9.1,0,18.3,0,27.4,0c25.8,0,52.5,0,78.7-0.1c6.4,0,23.2-0.1,23.5,18.2
	c0.1,5.5-1.5,9.9-4.6,13.1c-3.8,3.9-9.7,5.7-18.5,5.7c-28,0-56.1,0-84.1,0C613.3,403,585.1,403,556.8,403z M506.1,371.9
	c-12.5,0-16.9,3.1-17.5,12.2c-0.2,3.6,0.7,6.5,2.6,8.6c2.7,2.8,7.6,4.4,14.2,4.4c45.2,0.1,91.1,0,135.5,0c28,0,56.1,0,84.1,0
	c7,0,11.6-1.3,14.2-3.9c2-2,2.9-4.9,2.8-8.8c-0.1-8.8-4.9-12.2-17.1-12.2c-0.1,0-0.2,0-0.3,0c-26.2,0.1-52.9,0.1-78.7,0.1
	c-10.1,0-20.3,0-30.4,0h-3v-0.1c-9,0-18.1,0-27.1,0c-25.9,0-52.7,0-79.1-0.1C506.3,371.9,506.2,371.9,506.1,371.9z"/>
</svg>
