<?xml version="1.0" encoding="UTF-8"?>
<svg id="Layer_1" data-name="Layer 1" xmlns="http://www.w3.org/2000/svg" viewBox="0 0 783.3 776.67">
  <defs>
    <style>
      .cls-1 {
        fill: #000;
        stroke-width: 0px;
      }
    </style>
  </defs>
  <path class="cls-1" d="M420.31,669.36c0-26.97-.24-53.92.34-80.85.06-2.95,4.37-7.73,7.43-8.41,87.07-19.43,138.72-73.67,158.21-159.89.1-.44.52-.8,1.27-1.9h87.38c-5.57,130.64-131.27,246.67-254.62,251.06Z"/>
  <path class="cls-1" d="M420.39,108.01c123.91,4.76,248.53,120.53,254.63,251.13h-88.59c-8.08-45.81-29.04-84.13-63.38-114.97-26.15-23.49-56.37-39.07-90.85-45.72-8.65-1.67-12.31-4.34-12.05-13.86.7-25.5.24-51.02.24-76.57Z"/>
  <path class="cls-1" d="M362.48,107.7c0,27.48.24,54.89-.37,82.29-.06,2.67-4.94,6.84-8.22,7.6-83.44,19.46-135.19,70.6-155.4,153.94-.79,3.24-5.09,7.96-7.84,8.02-27.45.6-54.92.36-82.41.36,4-114.59,113.13-243.56,254.23-252.22Z"/>
  <path class="cls-1" d="M362.6,669.39c-122.01-4.57-247.71-118.9-254.44-251.92,27.51,0,54.96-.28,82.39.41,2.9.07,7.36,5.45,8.24,9.06,20.29,82.77,72.01,133.34,154.72,152.92,3.51.83,8.61,5.59,8.69,8.63.68,26.94.4,53.9.4,80.89Z"/>
  <path class="cls-1" d="M408.63,140.93c0,39.16-.22,78.31.13,117.47.11,12.16-2.98,21.45-16.33,22.98-11.2,1.28-17.93-7.42-17.95-22.96-.09-78.31-.17-156.63.43-234.93.05-6.84,3.27-15.87,8.24-20.01,10.92-9.09,25.19.69,25.32,17.09.32,40.12.1,80.25.1,120.37h.06Z"/>
  <path class="cls-1" d="M408.62,636.66c-.02,39.22-.13,78.45.05,117.67.05,11.98-2.82,22.02-16.74,22.33-14.17.31-17.43-10.24-17.44-21.84-.11-78.93-.15-157.86.09-236.8.05-14.96,6.66-22.73,17.57-21.76,13.76,1.22,16.64,10.7,16.57,22.73-.23,39.22-.09,78.45-.1,117.67Z"/>
  <path class="cls-1" d="M141.21,405.57c-39.66,0-79.32-.1-118.98.06C10.25,405.68,0,402.6,0,388.84c0-13.55,9.7-16.9,22.01-16.87,79.81.19,159.61.09,239.42-.12,11.6-.03,20.34,3.31,21.66,16.03,1.12,10.75-7.25,17.76-21.45,17.84-40.14.23-80.29.08-120.43.08,0-.08,0-.16,0-.24Z"/>
  <path class="cls-1" d="M642.11,372.05c39.64,0,79.28.12,118.92-.07,11.92-.06,22.11,2.57,22.27,16.56.16,13.95-9.95,17.14-21.88,17.14-79.76,0-159.52.18-239.28.07-14.76-.02-22.24-6.34-21.56-17.55.87-14.29,10.9-16.36,22.61-16.32,39.64.13,79.28.05,118.92.05v.12Z"/>
</svg>