<?xml version="1.0" encoding="utf-8"?>
<!-- Generator: Adobe Illustrator 27.9.3, SVG Export Plug-In . SVG Version: 9.03 Build 53313)  -->
<svg version="1.1" id="Layer_1" xmlns="http://www.w3.org/2000/svg" xmlns:xlink="http://www.w3.org/1999/xlink" x="0px" y="0px"
	 viewBox="0 0 1204 1200" style="enable-background:new 0 0 1204 1200;" xml:space="preserve">
<g>
	<path d="M20.3,992.6l-2.1-4.5l9.1-4.3c39.7-18.7,80.8-38.1,122-55.5c13.2-5.6,30.4-12.2,46.8-13.4c13.2-1,26.6-2.2,39.5-3.3
		c41.9-3.7,85.3-7.5,128.4-5.3c74.7,3.8,131.3-1.4,183.6-16.8c7.1-2.1,14.4-3.9,21.5-5.6c15.9-3.8,32.3-7.8,47.2-15.6
		c2.5-1.3,4.7-3,7.1-4.8c4.9-3.7,10-7.5,17-7.9c22.6-1.4,43.4-10.4,63.4-19.1c4.3-1.8,8.7-3.8,13-5.6c36.4-15.1,67.2-22.1,97-21.8
		c18.1,0.1,34.4-1.2,50-4.1c1.6-0.3,3.5-1,5.4-1.8c5-2,11.3-4.5,17.1,0.2c9.6,7.6,20,13,33.6,17.5c21.1,6.9,36.5-1.9,51.8-12.4
		c8.2-5.6,11.3-15.2,14.3-24.6l1.2-3.7l2.9,2.6c1.2,1.1,2.2,2,3.1,2.8c1.6,1.5,2.9,2.6,4.2,3.7c6.5,5.4,13.8,7.5,20.4,5.6
		c6.5-1.8,11.6-7.1,14.4-14.8c1.1-3,2-6.1,3-9.1c3.2-10.2,6.4-20.7,13.9-29c15.2-16.8,22.1-36.2,20.9-59.1c-0.1-2.2,1-4.2,2-5.9
		c0.2-0.3,0.3-0.6,0.5-0.9c7.3-13.7,9.7-29.3,12-44.4c2.2-14.4-2.1-28.2-6.2-41.6c-1.5-5-3.1-10.1-4.3-15.2
		c-5.3-21.8-18.5-40.1-31.2-57.7c-7.3-10.1-14.9-20.6-21-31.8l-4.9-4.1c-4.1-3.4-8.1-6.8-12.2-10.3c-11.4-9.7-25-12.6-39.5-15.6
		c-7.5-1.6-15.3-3.2-22.7-5.9c-7.6-2.8-15.1-3.8-21.1-2.9c-21.1,3.3-36.6-6.7-51.5-16.4c-5.9-3.8-11.9-7.7-18.1-10.6
		c-2.5-1.2-5.1-2.4-7.6-3.6c-15.1-7.2-30.7-14.6-46.2-20.7c-12.6-4.9-26.6-8.5-40.1-11.9c-1.8-0.5-3.6-0.9-5.4-1.4
		c-30.3-7.7-56.3-16.4-79.7-26.7c-22.7-9.9-45.8-8.1-67.6-5.4c-20.5,2.6-37.3,12-55.1,22.1c-6.8,3.8-13.7,7.8-20.9,11.2
		c-8.2,4-16.5,8.2-24.5,12.3c-27,13.8-54.9,28-84.7,36.2c-19.5,5.4-37.2,14.6-54.4,23.6c-5.5,2.9-11.2,5.8-16.8,8.6
		c-17.8,8.8-36.9,14.5-55.4,20c-6.6,2-13.5,4-20.2,6.2c-39.2,12.7-76.6,29.7-107.9,44.6c-4,1.9-8.5,3.6-13.4,3.2
		c-4.9,2.1-9.8,4.5-14.6,6.8c-17.8,8.4-36.2,17.2-57.3,17.7c-2,0-4.5,1.9-6.8,3.5c-0.5,0.3-0.9,0.6-1.3,0.9
		c-12.4,8.5-26.7,10.7-40.4,12.9c-3.2,0.5-6.5,1-9.7,1.6c-2.5,0.4-4.8,1.4-7.2,2.4c-3.2,1.3-6.5,2.7-10.3,2.9l-0.3-5
		c2.9-0.2,5.7-1.3,8.6-2.5c2.6-1.1,5.2-2.2,8.2-2.7c3.3-0.6,6.6-1.1,9.9-1.6c13.2-2,26.9-4.1,38.4-12c0.4-0.3,0.8-0.6,1.3-0.9
		c2.8-2,6-4.3,9.5-4.4c20.1-0.5,38-9,55.3-17.2c5-2.4,10.2-4.8,15.4-7.1l0.6-0.3l0.7,0.1c3.7,0.5,7.2-0.7,11.3-2.6
		c31.5-15,69-32.1,108.5-44.9c6.7-2.2,13.6-4.2,20.3-6.2c18.3-5.5,37.2-11.1,54.6-19.7c5.6-2.8,11.3-5.7,16.7-8.6
		c17.4-9.1,35.4-18.4,55.4-23.9c29.3-8.1,57-22.2,83.8-35.8c8-4.1,16.4-8.3,24.6-12.4c7-3.4,13.9-7.3,20.6-11.1
		c17.4-9.8,35.4-20,56.9-22.7c22.5-2.8,46.4-4.7,70.2,5.8c23.1,10.1,49,18.8,79,26.4c1.8,0.5,3.6,0.9,5.4,1.4
		c13.7,3.5,27.9,7,40.7,12.1c15.6,6.1,31.3,13.6,46.5,20.8c2.5,1.2,5.1,2.4,7.6,3.6c6.5,3.1,12.7,7.1,18.7,11
		c14.8,9.6,28.9,18.6,48.1,15.6c6.8-1.1,15.2,0,23.6,3.1c7,2.6,14.6,4.2,22,5.7c14.4,3,29.3,6.2,41.7,16.7c4,3.4,8.1,6.8,12.1,10.3
		l5.6,4.7l0.2,0.4c6,11,13.6,21.5,20.9,31.7c13,18,26.4,36.7,32,59.4c1.2,5,2.8,10,4.3,14.9c4.3,13.9,8.7,28.4,6.4,43.8
		c-2.4,15.5-4.8,31.5-12.5,46c-0.2,0.3-0.3,0.6-0.5,0.9c-0.6,1.1-1.4,2.4-1.3,3.2c1.2,24.3-6.1,44.9-22.2,62.7
		c-6.7,7.4-9.7,17-12.8,27.1c-1,3.1-1.9,6.2-3,9.3c-3.3,9.4-9.7,15.8-17.8,18c-8.2,2.3-17.1-0.1-24.9-6.6c-1.4-1.2-2.7-2.4-4.4-3.9
		c-0.1-0.1-0.2-0.2-0.3-0.2c-3,8.9-6.6,17.7-15,23.5c-15.7,10.8-32.9,20.6-56.2,13c-14-4.6-25.2-10.4-35.2-18.3
		c-3.3-2.6-6.8-1.5-12.2,0.6c-2.1,0.8-4.2,1.7-6.3,2c-16,3-32.6,4.4-51,4.2c-29.1-0.2-59.3,6.6-95,21.5c-4.3,1.8-8.7,3.7-13,5.5
		c-20.5,8.9-41.6,18-65.1,19.5c-5.5,0.3-9.8,3.6-14.3,6.9c-2.5,1.8-5,3.7-7.8,5.2c-15.4,8.1-32.2,12.2-48.3,16.1
		c-7,1.7-14.3,3.4-21.3,5.5c-52.9,15.5-110,20.7-185.3,16.9c-42.8-2.1-86,1.7-127.7,5.3c-13,1.1-26.4,2.3-39.6,3.3
		c-15.7,1.2-32.4,7.6-45.3,13c-41.1,17.4-82.1,36.8-121.8,55.5L20.3,992.6z M967.8,719.6c-0.7,0-1.6-0.3-2.5-1.5
		c-5.2-3.9-10.4-8.2-15.3-12.3c-9.8-8.2-20-16.6-31.9-23.3l-3.1-1.8l2.7-2.3c9.5-8,20-8.2,30.1-8.4c0.8,0,1.6,0,2.4-0.1
		c0.1,0,0.1,0,0.2,0c4.2,0,5.5,3.5,6.3,5.6c0.3,0.6,0.5,1.2,0.8,1.7c2.8,4.8,6.2,13.6,9.3,23.5c5.2,16.8,3.9,17.6,2.4,18.5
		C968.9,719.4,968.4,719.6,967.8,719.6z M923.8,680c10.8,6.6,20.2,14.4,29.3,21.9c3.7,3.1,7.6,6.3,11.5,9.3
		c-2.1-8.3-7.1-24-11.4-31.6c-0.4-0.8-0.8-1.6-1.1-2.4c-0.9-2.3-1.2-2.4-1.8-2.4c-0.8,0-1.6,0-2.4,0.1
		C939.3,675.1,931.2,675.3,923.8,680z"/>
	<path d="M4.9,552.3l-1.7-4.7c6.5-2.4,13.1-4.7,19.6-7c18.2-6.3,37-12.9,54.2-22.5c5.8-3.3,11.2-2,16.1-0.2c17,6.3,35,10.4,55,12.5
		c1.7,0.2,3,1.3,4,2.3c0.2,0.1,0.3,0.3,0.5,0.4c3.5,0.3,6.8-0.9,10.6-2.7c31.5-15,69-32.1,108.5-44.9c6.7-2.2,13.6-4.2,20.3-6.2
		c18.3-5.5,37.2-11.1,54.7-19.7c5.6-2.8,11.3-5.7,16.8-8.6c17.4-9.1,35.4-18.4,55.3-23.9c29.3-8.1,57-22.2,83.8-35.8
		c8-4.1,16.4-8.3,24.6-12.4c7-3.4,13.9-7.3,20.6-11.1c17.4-9.8,35.4-20,56.9-22.7c22.4-2.8,46.4-4.7,70.2,5.8
		c23.2,10.1,49,18.8,79,26.4l5.1,1.3c13.8,3.5,28.1,7.1,41,12.1c15.6,6.1,31.3,13.6,46.5,20.8c2.5,1.2,5.1,2.4,7.6,3.6
		c6.5,3.1,12.7,7.1,18.7,11c14.8,9.6,28.9,18.6,48,15.6c6.8-1.1,15.2,0,23.6,3.1c7,2.6,14.6,4.2,22,5.7c14.4,3,29.3,6.2,41.7,16.7
		c4,3.4,8,6.8,12.1,10.2l2.2,1.9c5.7-26.5,4.4-51.4-3.8-76c-15.2-45.6-40.1-85.6-76.1-122.1c-11.5-11.7-27.4-25.8-47.4-30.7
		c-48-11.7-91.4-21.2-136.6-18.4c-31.2,1.9-59.6,0.1-86.9-5.4c-30-6.1-61.7-5.6-99.6,1.7l-1.7,0.3c-34.5,6.6-70.2,13.5-106.2,13.1
		c-20-0.3-39.9,2.8-59.2,5.7c-7,1.1-14.3,2.2-21.5,3.1c-34.2,4.5-68.3,5.9-101.5,4.4c-5.1-0.2-10.5-1.1-14.8-6
		c-2.8-3.2-5.9-6.4-8.8-9.5c-7.1-7.5-14.5-15.2-20-24.2c-4-6.4-8.6-9.2-15.6-9.3c-9.8-0.1-19.7-0.4-29.3-0.7
		c-35.1-1.1-71.4-2.2-106.4,5.3c-13,2.8-30.9,6.7-38.1,23.7c-8.1,18.9-23.2,27.2-45,24.6l0.6-5c19.6,2.3,32.6-4.7,39.8-21.6
		c8.2-19.4,27.6-23.6,41.7-26.7c35.6-7.7,72.2-6.5,107.6-5.4c9.6,0.3,19.5,0.6,29.2,0.7c8.6,0.1,14.9,3.8,19.7,11.7
		c5.3,8.6,12.5,16.1,19.4,23.4c3,3.1,6,6.3,8.9,9.6c3,3.3,6.5,4.2,11.3,4.4c32.9,1.5,66.8,0,100.6-4.4c7.1-0.9,14.4-2,21.4-3.1
		c19.5-3,39.7-6.1,60.1-5.8c35.5,0.4,70.9-6.4,105.2-13l1.7-0.3c38.6-7.4,70.9-8,101.6-1.7c26.9,5.5,54.9,7.2,85.6,5.3
		c45.9-2.8,89.7,6.7,138.1,18.5c21.3,5.2,37.8,19.9,49.8,32.1c36.5,37.1,61.8,77.6,77.2,124c8.9,26.7,9.9,53.8,3,82.7l-0.9,3.9
		l-8.5-7.1c-4-3.4-8.1-6.8-12.1-10.2c-11.4-9.7-25-12.6-39.5-15.6c-7.5-1.6-15.3-3.2-22.7-5.9c-7.7-2.8-15.2-3.8-21.1-2.9
		c-21.1,3.3-36.6-6.7-51.5-16.3c-5.9-3.8-11.9-7.7-18.2-10.6c-2.5-1.2-5.1-2.4-7.6-3.6c-15.1-7.2-30.7-14.6-46.2-20.7
		c-12.7-5-26.8-8.5-40.4-12l-5.1-1.3c-30.3-7.7-56.3-16.4-79.7-26.7c-22.7-10-45.9-8.1-67.6-5.4c-20.5,2.6-37.3,12-55.1,22.1
		c-6.8,3.8-13.7,7.8-20.9,11.2c-8.2,4-16.5,8.2-24.5,12.3c-27,13.8-54.9,28-84.7,36.2c-19.4,5.4-37.2,14.6-54.3,23.5
		c-5.5,2.9-11.2,5.8-16.9,8.6c-17.8,8.8-37,14.5-55.4,20c-6.6,2-13.5,4-20.2,6.2c-39.3,12.7-76.6,29.7-107.9,44.6
		c-4.2,2-8.9,3.8-14.1,3.1l-0.6-0.1l-0.5-0.4c-0.5-0.4-0.9-0.8-1.4-1.2c-0.3-0.3-0.9-0.9-1.2-1c-20.4-2.2-38.7-6.3-56.1-12.7
		c-4.6-1.7-8.1-2.3-11.9-0.1c-17.5,9.8-36.5,16.5-55,22.9C17.9,547.6,11.3,549.9,4.9,552.3z M147.4,535.3
		C147.4,535.3,147.4,535.3,147.4,535.3C147.4,535.3,147.4,535.3,147.4,535.3z"/>
	<path d="M766.6,684c-8.7,0-17.3-1.6-25.6-4.8l-0.6-0.2l1.8-4.7l0.6,0.2c8.9,3.4,18.2,4.9,27.7,4.3c5.6-0.3,12-0.8,19.5-1.4
		c27.7-2,69.6-5.1,118.2-3.9l0.3,0l0.3,0.1c4.2,1,8.4,2.1,11.9,4.4l-2.8,4.2c-2.7-1.8-6.3-2.7-10.1-3.7
		c-48.3-1.2-89.9,1.8-117.4,3.9c-7.5,0.6-14,1-19.6,1.4C769.4,684,768,684,766.6,684z"/>
	<path d="M991.1,784.6h-5V775c0-18.2-5.6-35.6-16.1-50.4l-4.9-6.9l4.1-2.9l4.9,6.9c11.2,15.6,17.1,34.1,17.1,53.3V784.6z"/>
	<path d="M1070.2,683.3l-7.6-33.9c-1-4.2-2.3-8.4-4-12.2l-8.7-19.8c-1.3-3-2.9-5.9-4.7-8.8l-15.2-24.2c-2.5-3.9-5.3-7.7-8.3-11.3
		l-14.5-17.1c-2.3-2.7-5.2-4.8-8.5-6l-26.8-10c-3.5-1.3-7.2-2-11-2h-47.9c-5.8,0-11.6,0.4-17.4,1.2l-61.4,8.4
		c-2.4,0.3-4.7,0.8-7.1,1.3l-5.6,1.3c-5.5,1.3-11.2,2-16.9,2h-20.1c-1.8,0-3.4-0.3-4.9-0.8c-1.4-0.5-2.6-1.2-3.5-2.1l-6.2-6l3.5-3.6
		l6.2,6c0.4,0.4,1,0.7,1.7,1c0.9,0.3,2,0.5,3.2,0.5h20.1c5.3,0,10.6-0.6,15.8-1.8l5.6-1.3c2.5-0.6,5.1-1.1,7.6-1.4l61.4-8.4
		c6-0.8,12-1.2,18-1.2H961c4.4,0,8.6,0.8,12.7,2.3l26.8,10c4.1,1.5,7.8,4.1,10.6,7.4l14.5,17.1c3.1,3.7,6.1,7.7,8.7,11.8l15.2,24.2
		c1.9,3,3.6,6.2,5,9.4l8.7,19.8c1.8,4.2,3.3,8.6,4.3,13.2l7.6,33.9L1070.2,683.3z"/>
	<path d="M900.4,445.5l-124.8-2.7c-7.6-0.2-15.1-1.6-22.2-4.3l-26.6-10.1L687,411.5l2-4.6l39.8,16.9l26.5,10
		c6.6,2.5,13.5,3.8,20.5,4l124.8,2.7L900.4,445.5z"/>
	<path d="M942.1,449.2l-6.6-4.6l-13.4-34.2c-1.4-3.6-3.4-7.1-5.8-10.2l-13.3-17c-3.1-3.9-6-8-8.7-12.1l-16.7-25
		c-2.6-3.8-5.4-7.4-8.6-10.8l-9.2-9.7c-2.2-2.3-5-3.9-8.1-4.6l-22.9-5c-2.3-0.5-4.7-1.2-7-1.9l-50.9-16.8l-31.4-8.9
		c-7.1-2-14.4-3.6-21.7-4.6l-26.9-3.9c-2.4-0.3-4.7-1-6.9-1.9l-9.5-3.8l-32.6-15c-3.8-1.7-8-2.7-12.1-2.7h-3.1v-5h3.1
		c4.9,0,9.8,1.1,14.2,3.1l32.5,15l9.3,3.7c1.9,0.7,3.8,1.3,5.8,1.5l26.9,3.9c7.5,1.1,15,2.7,22.3,4.7l31.6,8.9l51,16.8
		c2.1,0.7,4.3,1.3,6.5,1.8l22.9,5c4.1,0.9,7.8,3,10.7,6l9.2,9.7c3.3,3.5,6.4,7.4,9.1,11.4l16.7,25c2.7,4,5.5,7.9,8.5,11.8l13.3,17
		c2.7,3.5,4.9,7.3,6.5,11.4l12.8,32.8l5.3,3.7L942.1,449.2z"/>
	<path d="M397.3,439.1l-10.3-3.5c-3.9-1.3-7.9-2-12.1-2h-5.9v-5h5.9c4.7,0,9.3,0.8,13.7,2.3l10.3,3.5L397.3,439.1z"/>
</g>
</svg>
