<?xml version="1.0" encoding="utf-8"?>
<!-- Generator: Adobe Illustrator 27.9.3, SVG Export Plug-In . SVG Version: 9.03 Build 53313)  -->
<svg version="1.1" id="Layer_1" xmlns="http://www.w3.org/2000/svg" xmlns:xlink="http://www.w3.org/1999/xlink" x="0px" y="0px"
	 viewBox="0 0 1200 1200" style="enable-background:new 0 0 1200 1200;" xml:space="preserve">
<style type="text/css">
	.st0{fill:#FFFFFF;}
</style>
<path d="M137.4,238.6c-0.1,0-0.3,0-0.4,0c-0.7,0-1.3-0.3-1.8-0.7c0.5,0.2,0.8,0.4,0.9,0.4C136.4,238.5,136.8,238.5,137.4,238.6
	L137.4,238.6z"/>
<g>
	<path d="M610.5,748.7h-28l0.7-3.1c3.5-14.6,7.2-29.5,10.8-44.4l2.4-9.9l2.4,9.9c3.1,12.8,6.2,25.6,9.3,38.1L610.5,748.7z
		 M588.8,743.7h15.3l-0.8-3.3c-2.3-9.3-4.5-18.7-6.9-28.2C593.9,722.8,591.3,733.3,588.8,743.7z"/>
	<path d="M610.5,748.7h-28l0.7-3.1c3.5-14.6,7.2-29.5,10.8-44.4l2.4-9.9l2.4,9.9c3.1,12.8,6.2,25.6,9.3,38.1L610.5,748.7z
		 M588.8,743.7h15.3l-0.8-3.3c-2.3-9.3-4.5-18.7-6.9-28.2C593.9,722.8,591.3,733.3,588.8,743.7z"/>
	<path d="M669.9,1071.8H525.6l0-5c9.9,0,19.8-1.2,29.3-3.6c14.4-3.5,28-9.6,40.3-18c34-23.2,54.3-61.6,54.3-102.7
		c0-2.4-1.7-12.7-9.8-48.4c-3.4-15.1-7.8-33.8-12.9-55.8c-6-25.6-13.4-56.3-22-91.5c-3.5-14.6-7.2-29.5-10.8-44.4
		c-33.4-136.5-69.3-279.9-70.8-286l-0.1-0.3v-17h146.7l0.4,14.5c1.9,7.6,42,167.7,76.4,308.6c4.6,18.8,9,37.2,13.3,54.7
		c23.1,95.9,35.3,149.4,37,162.8h0.2l0,2.5c0,35.6-14.1,68.7-39.8,93.3c-16.6,16-37.3,27.2-59.6,32.5c-9,2.1-18.3,3.3-27.7,3.5
		V1071.8z M560.9,1066.8h104v-0.2h2.8c9.7,0,19.4-1.1,28.7-3.3c21.5-5.1,41.3-15.9,57.3-31.3c24.3-23.3,37.8-54.5,38.3-88.1v-1.6
		c0-4.8-6.4-37.1-37.1-164.1c-4.2-17.6-8.7-36-13.3-54.7c-35-143.6-76-307.2-76.4-308.8l-0.1-0.3l-0.3-10.2H528.1v11.4
		c2.4,9.4,37.8,150.9,70.8,285.7c3.7,15,7.3,29.9,10.8,44.4c8.5,35.1,15.9,65.9,22,91.5c5.2,22,9.6,40.7,13,55.8
		c9.9,43.7,9.9,48.1,9.9,49.5c0,42.8-21.1,82.7-56.5,106.9C586.6,1057.1,574.1,1063,560.9,1066.8z"/>
	<path d="M438.6,1038.6l-4.3-4.2c-24.8-24.5-38.4-57.2-38.4-92c0-7.5,12.3-62.3,37.7-167.6l2.4,0.6l2.5,0V1038.6z M433.6,796.5
		c-26.9,111.9-32.7,141.4-32.7,146c0,31.4,11.6,61,32.7,84V796.5z"/>
	<path d="M525.2,1071.8c-10.5,0-20.9-1.3-30.9-3.7l-20-4.9h101.8l-20,4.9c-9.9,2.4-20.1,3.7-30.5,3.7H525.2z"/>
	<path d="M587.6,748.7H440l0.7-3.1c36.1-148.7,81.6-330.3,82.1-332.1l2.4-9.6l2.9,11.2c1.5,6.1,37.5,149.7,70.8,286l0.1,0.3v0.6
		l-0.1,0.3c-3,12.2-6,24.4-8.9,36.4L587.6,748.7z M446.3,743.7h137.3l1.5-6.1c2.9-11.8,5.8-23.8,8.7-35.8
		c-29.2-119.5-60.5-244.5-68.7-277.3C515.4,463.7,477.5,615.3,446.3,743.7z"/>
	<path d="M610.5,748.7h-28l0.7-3.1c3.5-14.6,7.2-29.5,10.8-44.4l2.4-9.9l2.4,9.9c3.1,12.8,6.2,25.6,9.3,38.1L610.5,748.7z
		 M588.8,743.7h15.3l-0.8-3.3c-2.3-9.3-4.5-18.7-6.9-28.2C593.9,722.8,591.3,733.3,588.8,743.7z"/>
	<g>
		<path d="M555.8,1068.1H433.6V743.7h175.7l0.5,1.9c8.7,36.1,15.9,66,22,91.5l0.3,1.4L595.4,875l-1.7-2.7
			c-7.9-12.8-18.8-23.7-31.6-31.6c-15-9.3-32.3-14.3-50.1-14.5l-25.5,26.9c25.8,1.4,49.6,12.2,67.8,30.9
			c17.3,17.8,27.3,40.8,28.7,65.4l60.7-61.1l1,4.4c8.9,39.3,9.9,47.1,9.9,49.5v0c0,42.8-21.1,82.7-56.5,106.9
			c-12.8,8.8-26.9,15.1-42,18.7L555.8,1068.1z M438.6,1063.1h116.6c14.3-3.6,27.8-9.6,40-17.9c34-23.2,54.3-61.6,54.3-102.7
			c0-2.3-1.6-11.8-8.8-44l-62.6,63v-6.1c0-25.5-9.8-49.6-27.5-67.8c-18.5-19-43.3-29.5-69.8-29.5H475l34.9-36.8h1.1
			c19.1,0,37.7,5.3,53.8,15.3c12.5,7.8,23.4,18.3,31.5,30.5l30.2-30.2c-5.9-24.7-12.8-53.6-21.2-88.2H438.6V1063.1z"/>
		<path d="M758,1068.1h-82.4l20.8-4.9c21.5-5.1,41.3-15.9,57.3-31.3l4.2-4.1V1068.1z M713.7,1063.1H753v-23.7
			C741.4,1049.6,728.1,1057.6,713.7,1063.1z"/>
		<path d="M578.1,961.5v-6.1c0-25.5-9.8-49.6-27.5-67.8c-18.5-19-43.3-29.5-69.8-29.5H475l34.9-36.8h1.1c19.1,0,37.7,5.3,53.8,15.3
			c12.5,7.8,23.4,18.3,31.5,30.5l34.4-34.4l1,4.4c5.2,22,9.6,40.7,13,55.8l0.3,1.3L578.1,961.5z M486.5,853.2
			c25.8,1.4,49.7,12.2,67.8,30.9c17.3,17.8,27.3,40.8,28.7,65.4l56.5-56.9c-3.1-13.8-7-30.6-11.6-50.1L595.4,875l-1.7-2.7
			c-7.9-12.8-18.8-23.7-31.6-31.6c-15-9.3-32.3-14.3-50.1-14.5L486.5,853.2z"/>
		<path d="M756,782.4l-1-4.4c-4.3-17.7-8.7-36.1-13.3-54.7l-0.3-1.4l108.7-108.7l36.1,36.1v2.1l-0.7,0.7L756,782.4z M746.9,723.5
			c4.1,16.7,8,33.1,11.9,49l121.4-122.1l-30.1-30.1L746.9,723.5z"/>
	</g>
	<g>
		<path class="st0" d="M846.3,309.9c0,0,0,0.1,0,0.1c0.5,0.2,7.4,1.8,10.5,2.3c8.2,1.4,16.4,2.8,24.6,4.1
			c11.6,1.8,23.2,3.4,34.8,5.2c8,1.2,16.1,2.6,24.1,3.9c9.7,1.5,19.5,3,29.2,4.6c7.9,1.2,15.8,2.6,23.7,3.8c3.7,0.6,7.4,1,11.1,1.5
			c0.3,0,0.6,0,0.8,0.2c0.5,0.4,1.3,0.9,1.4,1.4c0.1,0.4-0.7,1.1-1.2,1.4c-1.5,0.7-3,1.3-4.5,1.9c-2.5,1-5,2-7.5,2.9
			c-2.3,0.8-4.7,1.5-7.1,2.3c-8.7,2.6-17.6,3.9-26.6,3.9c-5.1,0-10.2-0.4-15.2-1.1c-5.8-0.8-11.4-2.1-17.1-3.3
			c-4.7-1-9.4-2.2-14.1-3.3c-4.7-1.1-9.4-2.1-14.1-3.1c-6-1.4-12-2.8-18.1-4.2c-7.4-1.7-14.8-3.3-22.2-5.1
			c-4.5-1.1-9.1-2.3-13.6-3.4c-4.9-1.1-9.8-2-14.7-3.1c-1-0.2-2-0.6-3-0.8c-1.9-0.3-3.7-0.5-5.6-0.8c-0.3,0-0.6,0.2-1.2,0.4
			c0.7,0.4,1.1,0.8,1.6,0.9c4,1.1,7.9,2.2,11.9,3.4c3.4,1,6.8,2.1,10.3,3.2c3.6,1,7.2,2,10.8,3c4.2,1.2,8.5,2.4,12.7,3.6
			c3.2,0.9,6.5,1.8,9.7,2.8c7.1,2,14.2,4.1,21.3,6.1c6.5,1.8,13,3.6,19.4,5.4c3.7,1,7.3,2.2,11,3.3c3.3,1,6.6,1.9,10,2.9
			c5.1,1.4,10.2,2.8,15.2,4.3c0.5,0.2,1,0.8,1.4,1.3c-0.5,0.4-0.8,1.1-1.4,1.3c-14,5-28.3,6.2-42.8,3.8c-4-0.7-7.9-2.1-11.8-3.2
			c-3.1-0.9-6.1-2-9.2-3.1c-2.9-1-5.7-2.1-8.6-3.1s-6-2.1-9-3.1c-3.2-1.2-6.5-2.4-9.7-3.5c-2.2-0.8-4.4-1.6-6.7-2.4
			c-2.9-1-5.8-2-8.6-3c-3.3-1.2-6.6-2.4-9.8-3.6c-2.2-0.8-4.3-1.6-6.5-2.4c-3-1.1-6.1-2.1-9.1-3.2c-2.9-1-5.8-2.1-8.7-3.2
			c-0.6-0.2-1.2-0.4-1.8-0.6c-1.5-0.5-3-1-4.5-1.5c-1-0.3-2.1-0.4-3.2-0.5c-0.1,0.2-0.2,0.4-0.2,0.7c0.5,0.3,1,0.6,1.5,0.9
			c2.7,1.3,5.5,2.5,8.2,3.8c2.1,1,4.2,2,6.3,2.8c2.5,1.1,5.2,2,7.7,3c1.9,0.7,3.8,1.5,5.7,2.3c4.2,1.8,8.3,3.6,12.5,5.4
			c4.1,1.8,8.3,3.4,12.5,5.2c2.6,1.1,5.2,2.3,7.9,3.4c2.5,1.1,5.1,2.1,7.7,3.2c2.5,1,5,2.1,7.5,3.1c2.9,1.2,5.9,2.4,8.8,3.7
			c2.5,1.1,5,2.2,7.5,3.3c2.3,1,4.7,2,7,3c2.2,0.9,4.5,1.6,6.8,2.5c0.5,0.2,1.2,1,1.1,1.2c-0.2,0.6-0.8,1.3-1.3,1.5
			c-2.4,0.7-4.8,1.3-7.3,1.7c-5,0.6-9.9,1.5-14.9,1.5c-7,0-14-1.1-20.8-3.3c-2.9-1-5.9-1.9-8.7-3c-2.2-0.9-4.3-2.1-6.5-3.2
			c-2.2-1.1-4.4-2.2-6.5-3.3c-1.8-0.9-3.5-1.8-5.3-2.7c-5.6-2.8-11.2-5.7-16.7-8.5c-3.5-1.8-6.9-3.7-10.3-5.5
			c-3.6-1.9-7.3-3.7-10.9-5.6c-2-1.1-4-2.2-6.1-3.3c-1.7-0.9-3.4-1.7-5.1-2.5c-0.2-0.1-0.5-0.2-0.8-0.2c-0.5,0-1,0.2-1.5,0.2
			c0.3,0.4,0.5,1,0.9,1.3c1.7,1.1,3.5,2.1,5.2,3.1c2.7,1.7,5.5,3.4,8.2,5c3.2,1.9,6.4,3.8,9.6,5.7c4.4,2.6,8.7,5.2,13.1,7.9
			c3,1.8,6,3.5,9,5.4c3.2,1.9,6.3,3.9,9.5,5.8c2.8,1.7,5.7,3.4,8.5,5.1c3.2,1.9,6.4,3.9,9.6,5.9c1.5,0.9,3.1,1.7,4.6,2.7
			c0.6,0.4,0.9,1.1,1.3,1.7c-0.6,0.4-1.2,1-1.9,1.1c-6.6,0.9-13.3,1.2-20,0.1c-5.7-0.9-11.1-2.8-16.3-5.2c-3.1-1.5-5.8-3.5-8.7-5.3
			c-2.7-1.7-5.3-3.5-8-5.2c-3.9-2.5-7.8-5-11.7-7.5c-4.3-2.8-8.5-5.6-12.7-8.4c-2.8-1.8-5.5-3.7-8.2-5.5c-2.3-1.5-4.6-2.9-7-4.3
			c-0.3-0.2-0.8-0.2-1.6-0.3c0.3,0.6,0.4,1,0.6,1.2c1.9,1.6,3.8,3.3,5.7,4.8c4.5,3.5,9,6.9,13.5,10.4c5.3,4.1,10.6,8.1,15.9,12.2
			c4.2,3.3,8.3,6.6,12.5,9.9c3.3,2.5,6.7,5,10,7.5c0.6,0.5,1.1,1.4,1.2,2.2c0,0.3-1.2,1-1.9,1.1c-5.6,0.5-11.1,0.5-16.7-0.6
			c-3.7-0.7-7.3-1.5-10.7-3c-3.6-1.6-7.2-3.5-10.5-5.6c-7.3-4.7-13-11.2-19.2-17.1c-4.2-4-8.4-8.1-12.6-12.1
			c-0.7-0.7-1.7-1.2-2.5-1.8c-0.1,0.1-0.3,0.2-0.4,0.3c0.6,1,1.1,2,1.8,2.8c4.6,5.6,9.3,11.1,14,16.7c3.3,4,6.5,8,9.8,12
			c3,3.7,6.1,7.3,9.2,11c0.4,0.5,0.9,1.5,0.7,1.9c-0.3,0.5-1.2,0.8-1.9,0.8c-5.3,0.3-10.5-0.6-15.4-2.5c-8.2-3.2-14.8-8.4-19.4-16
			c-2.3-3.7-4.5-7.5-6.8-11.3c-0.7-1.2-1.6-2.3-2.4-3.5c-0.2-0.2-0.5-0.3-0.8-0.5c-0.7,1-0.2,1.8,0.2,2.6c1.7,3.9,3.5,7.8,5.3,11.6
			c1.3,2.8,2.7,5.6,4,8.4c0.9,1.9,1.7,3.8,2.6,5.7c0.7,1.5,1.5,3,2.1,4.6c0.3,0.8,0.6,1.9,0.2,2.5c-0.3,0.5-1.6,0.8-2.4,0.7
			c-7.1-0.6-13-3.6-17.5-9.1c-1.8-2.2-2.9-4.9-4.4-7.3c-0.1-0.1-0.1-0.3-0.2-0.4c-0.4-0.4-0.8-0.8-1.3-1.2c-0.2,0.6-0.5,1.1-0.4,1.7
			c0.3,1.6,0.6,3.1,1.1,4.6c1,3.2,2,6.3,3,9.5c0.5,1.8-0.4,2.9-2.3,2.6c-6.4-0.9-11.1-4.2-14.5-9.6c-0.5-0.8-0.5-1.8-0.9-2.5
			c-0.3-0.6-1-1.6-1.4-1.5c-0.6,0.1-1.4,0.8-1.7,1.4c-0.8,1.9-1.5,3.7-3,5.3c-4.2,4.7-9.5,6.7-15.7,6.1c-7.2-0.7-14.4-1.4-21.6-2.1
			c-2.4-0.2-4.8-0.5-7.2-0.9c-0.6-0.1-1.4-0.6-1.5-1.1c-0.2-0.5,0.1-1.4,0.5-1.8c3.5-3.9,7-7.8,10.5-11.6c4.9-5.5,9.8-11,14.6-16.5
			c6.3-7.2,12.7-14.4,19-21.6c7.1-8,14.1-16,21.2-24c4.4-5,8.8-10.1,13.4-14.9c5.6-5.9,11.9-11.2,18.7-15.8c4.8-3.3,9.8-6.1,15-8.7
			c5.5-2.7,11.3-4.9,17.2-6.8c11-3.5,22.3-5.2,33.8-5.3c20.7-0.2,41.5-0.2,62.2-0.2c61.2,0,122.4,0,183.6,0c4.2,0,8.4,0,12.5,0
			c1.4,0,1.9,0.9,1.3,2.1c-0.3,0.6-0.8,1.2-1.3,1.7c-3.7,3.5-7.3,6.9-11.6,9.6c-6.5,4-13.5,6.9-21,7.9c-5.5,0.7-11.1,0.9-16.6,0.9
			c-36.3,0.1-72.6,0.1-108.8,0c-17.3,0-34.6-0.1-51.8-0.2c-2.8,0-5.6,0.2-8.5,0.3c-0.4,0-0.8,0.1-1.3,0.2c0,0.2,0,0.4,0,0.6
			c1.6,0.2,3.3,0.4,4.9,0.5c11.9,0.7,23.8,1.5,35.8,2.1c7.1,0.4,14.2,0.4,21.3,0.6c11.5,0.5,23,1,34.5,1.5c5.7,0.2,11.3,0.4,17,0.6
			c8.6,0.4,17.2,0.9,25.9,1.3c6.7,0.3,13.4,0.5,20.2,0.7c6.9,0.2,13.9,0.5,20.8,0.8c0.5,0,1.2,0.3,1.3,0.6c0.2,0.4-0.1,1.1-0.4,1.4
			c-0.4,0.5-0.9,0.9-1.4,1.2c-3.8,2-7.5,4-11.4,5.8c-2.4,1.1-4.8,2.1-7.3,3c-3.8,1.3-7.7,2.6-11.6,3.5c-5.2,1.1-10.4,2.1-15.7,2.6
			c-8.6,0.8-17.1,0.3-25.7-0.9c-10.1-1.3-20.2-2.1-30.4-3.2c-9.5-1-19-2.2-28.6-3.3c-10.6-1.2-21.2-2.3-31.9-3.5
			c-4.4-0.5-8.8-1.4-13.2-1.7c-8.5-0.6-16.8-2.4-25.2-2.5l-10.2-1.5l-0.1,0.6l0.1,0c0,0,0-0.1,0-0.1c0.6,0,1.2,0.1,1.8,0.1
			c0,0.1,0,0.1,0,0.2c0,0,0,0,0,0L846.3,309.9L846.3,309.9z"/>
		<path d="M1092,275.2c-4.2,0-8.3,0-12.5,0c-61.2,0-122.4,0-183.6,0c-20.7,0-41.5,0-62.2,0.2c-11.5,0.1-22.8,1.8-33.8,5.3
			c-5.9,1.9-11.7,4-17.2,6.8c-5.2,2.6-10.2,5.4-15,8.7c-6.8,4.6-13.1,9.8-18.7,15.8c-4.6,4.8-8.9,9.9-13.4,14.9
			c-7.1,8-14.2,16-21.2,24c-6.3,7.2-12.7,14.4-19,21.6c-4.9,5.5-9.7,11-14.6,16.5c-3.5,3.9-7,7.7-10.5,11.6
			c-0.4,0.5-0.7,1.3-0.5,1.8c0.2,0.5,1,1,1.5,1.1c2.4,0.4,4.8,0.7,7.2,0.9c7.2,0.7,14.4,1.4,21.6,2.1c6.3,0.6,11.5-1.4,15.7-6.1
			c1.4-1.6,2.2-3.4,3-5.3c0.3-0.6,1.1-1.4,1.7-1.4c0.4,0,1.1,0.9,1.4,1.5c0.4,0.8,0.5,1.8,0.9,2.5c3.4,5.4,8.1,8.7,14.5,9.6
			c1.9,0.2,2.8-0.8,2.3-2.6c-1-3.2-2-6.3-3-9.5c-0.5-1.5-0.8-3.1-1.1-4.6c-0.1-0.5,0.2-1.1,0.4-1.7c0.4,0.4,0.9,0.8,1.3,1.2
			c0.1,0.1,0.1,0.3,0.2,0.4c1.4,2.5,2.6,5.1,4.4,7.3c4.5,5.5,10.5,8.5,17.5,9.1c0.8,0.1,2-0.2,2.4-0.7c0.4-0.6,0.1-1.7-0.2-2.5
			c-0.6-1.6-1.4-3-2.1-4.6c-0.9-1.9-1.7-3.8-2.6-5.7c-1.3-2.8-2.7-5.6-4-8.4c-1.8-3.9-3.5-7.8-5.3-11.6c-0.3-0.8-0.9-1.6-0.2-2.6
			c0.3,0.2,0.6,0.3,0.8,0.5c0.8,1.1,1.7,2.3,2.4,3.5c2.3,3.8,4.5,7.5,6.8,11.3c4.7,7.5,11.3,12.8,19.4,16c4.9,1.9,10,2.9,15.4,2.5
			c0.7,0,1.6-0.3,1.9-0.8c0.2-0.3-0.3-1.4-0.7-1.9c-3-3.7-6.1-7.3-9.2-11c-3.3-4-6.5-8-9.8-12c-4.6-5.6-9.3-11.1-14-16.7
			c-0.7-0.9-1.2-1.9-1.8-2.8c0.1-0.1,0.3-0.2,0.4-0.3c0.8,0.6,1.8,1.1,2.5,1.8c4.2,4,8.4,8.1,12.6,12.1c6.2,5.9,11.9,12.5,19.2,17.1
			c3.3,2.1,6.9,4,10.5,5.6c3.4,1.5,7,2.3,10.7,3c5.6,1.1,11.1,1.2,16.7,0.6c0.7-0.1,1.9-0.8,1.9-1.1c-0.1-0.8-0.5-1.7-1.2-2.2
			c-3.3-2.6-6.7-5-10-7.5c-4.2-3.2-8.3-6.6-12.5-9.9c-5.3-4.1-10.6-8.2-15.9-12.2c-4.5-3.5-9-6.9-13.5-10.4c-2-1.5-3.8-3.2-5.7-4.8
			c-0.2-0.2-0.3-0.6-0.6-1.2c0.8,0.1,1.2,0.1,1.6,0.3c2.3,1.4,4.7,2.8,7,4.3c2.8,1.8,5.5,3.7,8.2,5.5c4.2,2.8,8.5,5.6,12.7,8.4
			c3.9,2.5,7.8,5,11.7,7.5c2.7,1.7,5.3,3.5,8,5.2c2.9,1.8,5.6,3.9,8.7,5.3c5.2,2.4,10.5,4.3,16.3,5.2c6.7,1.1,13.3,0.8,20-0.1
			c0.7-0.1,1.3-0.7,1.9-1.1c-0.4-0.6-0.8-1.3-1.3-1.7c-1.5-1-3.1-1.8-4.6-2.7c-3.2-1.9-6.4-3.9-9.6-5.9c-2.8-1.7-5.7-3.4-8.5-5.1
			c-3.2-1.9-6.3-3.9-9.5-5.8c-3-1.8-6-3.5-9-5.4c-4.4-2.6-8.7-5.2-13.1-7.9c-3.2-1.9-6.4-3.8-9.6-5.7c-2.8-1.6-5.5-3.3-8.2-5
			c-1.7-1-3.5-2-5.2-3.1c-0.4-0.2-0.6-0.8-0.9-1.3c0.5-0.1,1-0.2,1.5-0.2c0.3,0,0.5,0.1,0.8,0.2c1.7,0.8,3.4,1.6,5.1,2.5
			c2,1.1,4,2.2,6.1,3.3c3.6,1.9,7.3,3.7,10.9,5.6c3.5,1.8,6.8,3.7,10.3,5.5c5.6,2.9,11.2,5.7,16.7,8.5c1.8,0.9,3.5,1.8,5.3,2.7
			c2.2,1.1,4.4,2.2,6.5,3.3c2.2,1.1,4.2,2.3,6.5,3.2c2.8,1.1,5.8,2.1,8.7,3c6.8,2.2,13.7,3.3,20.8,3.3c5,0,9.9-0.8,14.9-1.5
			c2.5-0.3,4.9-1,7.3-1.7c0.6-0.2,1.1-0.9,1.3-1.5c0.1-0.3-0.6-1-1.1-1.2c-2.2-0.9-4.5-1.6-6.8-2.5c-2.4-0.9-4.7-2-7-3
			c-2.5-1.1-5-2.2-7.5-3.3c-2.9-1.2-5.8-2.5-8.8-3.7c-2.5-1.1-5-2.1-7.5-3.1c-2.5-1.1-5.1-2.1-7.7-3.2c-2.6-1.1-5.2-2.3-7.9-3.4
			c-4.2-1.7-20.8-8.8-25-10.5c-1.9-0.8-3.8-1.5-5.7-2.3c-2.6-1-5.2-2-7.7-3c-2.1-0.9-4.2-1.9-6.3-2.8c-2.8-1.2-5.5-2.5-8.2-3.8
			c-0.5-0.2-1-0.6-1.5-0.9c0.1-0.2,0.2-0.5,0.2-0.7c1.1,0.2,2.2,0.3,3.2,0.5c1.5,0.4,3,1,4.5,1.5c0.6,0.2,1.2,0.4,1.8,0.6
			c2.9,1.1,5.8,2.1,8.7,3.2c3,1.1,6.1,2.1,9.1,3.2c2.2,0.8,4.3,1.6,6.5,2.4c3.3,1.2,40.8,14.6,43.8,15.7c2.9,1,5.7,2.1,8.6,3.1
			c3,1.1,6.1,2.2,9.2,3.1c3.9,1.2,7.8,2.6,11.8,3.2c14.6,2.4,28.9,1.3,42.8-3.8c0.5-0.2,0.9-0.9,1.4-1.3c-0.5-0.4-0.9-1.1-1.4-1.3
			c-5-1.5-10.1-2.9-15.2-4.3c-3.3-0.9-6.6-1.9-10-2.9c-3.7-1.1-7.3-2.2-11-3.3c-6.5-1.8-13-3.6-19.4-5.4c-7.1-2-14.2-4.1-21.3-6.1
			c-3.2-0.9-6.5-1.9-9.7-2.8c-4.2-1.2-8.5-2.4-12.7-3.6c-3.6-1-7.2-2-10.8-3c-3.4-1-6.8-2.2-10.3-3.2c-4-1.2-7.9-2.2-11.9-3.4
			c-0.5-0.1-0.8-0.5-1.6-0.9c0.7-0.2,1-0.5,1.2-0.4c1.9,0.2,3.8,0.4,5.6,0.8c1,0.2,12.8,2.8,17.7,3.9c4.6,1,9.1,2.3,13.6,3.4
			c7.4,1.7,14.8,3.4,22.2,5.1c6,1.4,12,2.8,18.1,4.2c4.7,1.1,9.4,2.1,14.1,3.1c4.7,1.1,9.4,2.3,14.1,3.3c5.7,1.2,11.4,2.5,17.1,3.3
			c5,0.7,10.1,1.1,15.2,1.1c9,0,17.9-1.3,26.6-3.9c2.4-0.7,4.8-1.4,7.1-2.3c2.5-0.9,5-1.9,7.5-2.9c1.5-0.6,3-1.2,4.5-1.9
			c0.5-0.3,1.3-1,1.2-1.4c-0.1-0.5-0.8-1-1.4-1.4c-0.2-0.2-0.5-0.1-0.8-0.2c-3.7-0.5-7.4-1-11.1-1.5c-7.9-1.2-15.8-2.6-23.7-3.8
			c-9.7-1.5-19.5-3.1-29.2-4.6c-8-1.3-16-2.6-24.1-3.9c-11.6-1.8-23.2-3.4-34.8-5.2c-8.2-1.3-40.3-7.7-40.3-7.6l-0.1,0l0.1-0.6
			c0,0,27,3.4,35.4,4c4.4,0.3,8.8,1.2,13.2,1.7c10.6,1.2,21.2,2.3,31.9,3.5c9.5,1.1,19,2.3,28.6,3.3c10.1,1.1,20.3,1.9,30.4,3.2
			c8.6,1.1,17.1,1.7,25.7,0.9c5.3-0.5,10.5-1.5,15.7-2.6c3.9-0.9,7.8-2.2,11.6-3.5c2.5-0.9,4.9-1.8,7.3-3c3.8-1.9,7.6-3.9,11.4-5.8
			c0.5-0.3,1.1-0.7,1.4-1.2c0.3-0.4,0.5-1.1,0.4-1.4c-0.2-0.4-0.9-0.6-1.3-0.6c-6.9-0.3-13.9-0.5-20.8-0.8
			c-6.7-0.2-13.5-0.4-20.2-0.7c-8.6-0.4-17.2-0.9-25.9-1.3c-5.7-0.2-11.3-0.4-17-0.6c-11.5-0.5-23-1.1-34.5-1.5
			c-7.1-0.3-14.2-0.3-21.3-0.6c-11.9-0.6-23.9-1.4-35.8-2.1c-1.6-0.1-3.3-0.4-4.9-0.5c0-0.2,0-0.4,0-0.6c0.4-0.1,0.8-0.2,1.3-0.2
			c2.8-0.1,5.6-0.3,8.5-0.3c17.3,0,34.5,0.1,51.8,0.2c36.3,0,72.6,0,108.8,0c5.5,0,11.1-0.2,16.6-0.9c7.5-1,14.5-3.9,21-7.9
			c4.3-2.7,8-6.1,11.6-9.6c0.5-0.5,1-1.1,1.3-1.7C1094,276.1,1093.4,275.2,1092,275.2L1092,275.2z"/>
	</g>
	<g>
		<path class="st0" d="M658.1,250.5c0,0,0,0.1,0,0.1c0.5,0,7.6-0.9,10.6-1.6c8.2-1.6,16.3-3.2,24.5-4.9c11.5-2.4,22.9-5.1,34.4-7.5
			c8-1.7,15.9-3.3,23.9-4.9c9.7-2,19.3-4.1,29-6.1c7.8-1.6,15.7-3.2,23.5-4.8c3.6-0.8,7.3-1.6,10.9-2.5c0.3-0.1,0.6-0.2,0.8-0.1
			c0.6,0.2,1.5,0.4,1.8,0.8c0.2,0.3-0.2,1.3-0.6,1.7c-1.1,1.2-2.3,2.3-3.5,3.4c-2,1.8-3.9,3.6-6,5.3c-1.9,1.6-3.9,3.1-5.9,4.6
			c-7.2,5.5-15,9.9-23.5,13.1c-4.7,1.8-9.7,3.3-14.6,4.4c-5.7,1.3-11.4,2.1-17.2,3c-4.8,0.7-9.5,1.2-14.3,1.9
			c-4.8,0.7-9.5,1.4-14.3,2c-6.1,0.8-12.3,1.6-18.4,2.5c-7.5,1-15,2.1-22.5,3.1c-4.6,0.6-9.3,1-13.9,1.7c-4.9,0.7-9.8,1.6-14.8,2.3
			c-1,0.1-2.1,0.1-3.1,0.3c-1.8,0.4-3.7,0.8-5.5,1.3c-0.3,0.1-0.5,0.4-1,0.8c0.8,0.1,1.3,0.3,1.8,0.3c4.1-0.3,8.2-0.8,12.3-1.1
			c3.6-0.3,7.2-0.4,10.7-0.7c3.7-0.3,7.4-0.7,11.1-1c4.4-0.4,8.8-0.8,13.2-1.2c3.3-0.3,6.7-0.6,10-0.9c7.4-0.6,14.8-1.2,22.1-1.8
			c6.7-0.6,13.4-1.2,20.1-1.8c3.8-0.3,7.6-0.5,11.4-0.8c3.4-0.3,6.9-0.5,10.3-0.8c5.2-0.5,10.5-1,15.7-1.4c0.6,0,1.2,0.4,1.8,0.7
			c-0.3,0.6-0.4,1.3-0.8,1.7c-11.2,9.7-24.2,15.8-38.7,18.7c-4,0.8-8.1,0.9-12.2,1.1c-3.2,0.2-6.4,0.3-9.7,0.4c-3,0.1-6.1,0-9.1,0.1
			s-6.3,0.2-9.5,0.2c-3.4,0.1-6.9,0.1-10.3,0.2c-2.4,0-4.7,0.1-7.1,0.1c-3,0.1-6.1,0.2-9.1,0.2c-3.5,0.1-7,0.1-10.5,0.1
			c-2.3,0-4.6,0-6.9,0.1c-3.2,0.1-6.4,0.2-9.7,0.3c-3.1,0.1-6.2,0.1-9.2,0.1c-0.6,0-1.3,0-1.9,0c-1.6,0.1-3.1,0.1-4.7,0.2
			c-1.1,0.1-2.1,0.4-3.2,0.6c0,0.2,0,0.5,0,0.7c0.6,0.1,1.1,0.2,1.7,0.3c3,0.2,6,0.4,9,0.6c2.3,0.1,4.6,0.4,6.9,0.4
			c2.8,0.1,5.5,0,8.3,0.1c2,0,4.1,0,6.1,0.1c4.5,0.2,9.1,0.4,13.6,0.6c4.5,0.2,9,0.3,13.5,0.4c2.9,0.1,5.7,0.2,8.6,0.4
			c2.8,0.1,5.5,0.2,8.3,0.3c2.7,0.1,5.4,0.2,8.2,0.3c3.2,0.1,6.3,0.2,9.5,0.3c2.7,0.1,5.4,0.3,8.1,0.4c2.5,0.1,5.1,0.2,7.6,0.3
			c2.4,0,4.8-0.1,7.2,0c0.5,0,1.5,0.5,1.5,0.8c0,0.6-0.2,1.5-0.7,1.9c-2,1.5-4,3-6.2,4.1c-4.4,2.4-8.8,4.9-13.4,6.6
			c-6.6,2.5-13.5,4-20.6,4.3c-3.1,0.1-6.2,0.3-9.2,0.2c-2.4,0-4.8-0.4-7.2-0.7c-2.4-0.2-4.9-0.5-7.3-0.8c-2-0.2-4-0.4-6-0.7
			c-6.2-0.7-12.5-1.3-18.7-2c-3.9-0.5-7.7-1-11.6-1.5c-4-0.5-8.1-0.9-12.2-1.4c-2.3-0.3-4.6-0.6-6.9-0.9c-1.9-0.2-3.8-0.4-5.7-0.6
			c-0.3,0-0.6,0-0.8,0.1c-0.5,0.2-0.9,0.5-1.3,0.8c0.4,0.3,0.8,0.8,1.3,0.9c2,0.4,4,0.7,6,1.1c3.2,0.6,6.3,1.2,9.5,1.8
			c3.7,0.7,7.3,1.3,11,1.9c5,0.9,10,1.8,15,2.7c3.4,0.6,6.9,1.2,10.3,1.8c3.7,0.7,7.3,1.4,11,2c3.3,0.6,6.5,1.1,9.8,1.8
			c3.7,0.7,7.4,1.4,11.1,2.1c1.8,0.3,3.5,0.5,5.2,0.9c0.7,0.1,1.2,0.7,1.8,1.1c-0.5,0.6-0.8,1.4-1.4,1.7c-5.9,3.1-12,5.8-18.6,7.2
			c-5.7,1.2-11.4,1.4-17.1,0.9c-3.4-0.3-6.7-1.2-10-1.9c-3.1-0.6-6.2-1.3-9.3-2c-4.5-1-9-1.9-13.6-2.9c-5-1.1-9.9-2.2-14.9-3.4
			c-3.2-0.7-6.4-1.6-9.7-2.3c-2.7-0.6-5.3-1-8-1.5c-0.4-0.1-0.8,0.1-1.6,0.3c0.5,0.5,0.7,0.8,1,0.9c2.3,0.9,4.7,1.7,7,2.5
			c5.4,1.7,10.9,3.3,16.3,4.9c6.4,1.9,12.8,3.8,19.2,5.8c5.1,1.6,10.1,3.2,15.2,4.8c4,1.2,8,2.2,12,3.5c0.8,0.2,1.5,1,1.9,1.7
			c0.1,0.3-0.7,1.4-1.4,1.7c-5,2.5-10.2,4.4-15.8,5.3c-3.7,0.6-7.4,1.2-11.1,1c-4-0.2-8-0.7-11.8-1.5c-8.5-1.8-16.1-5.9-24-9.2
			c-5.4-2.2-10.7-4.6-16-6.8c-0.9-0.4-2-0.5-3-0.8c-0.1,0.1-0.2,0.3-0.3,0.4c0.9,0.7,1.7,1.5,2.7,2c6.3,3.6,12.7,7.1,19,10.7
			c4.5,2.5,9,5.2,13.4,7.8c4.2,2.4,8.3,4.6,12.5,7c0.6,0.3,1.4,1.1,1.3,1.5c-0.1,0.6-0.9,1.2-1.5,1.5c-4.8,2.2-10,3.1-15.3,3.1
			c-8.8-0.1-16.8-2.6-23.8-8c-3.5-2.7-6.9-5.5-10.4-8.1c-1.1-0.9-2.3-1.6-3.5-2.4c-0.2-0.2-0.6-0.1-0.9-0.2
			c-0.3,1.2,0.5,1.8,1.1,2.4c3,3,6,6,9.1,9c2.2,2.2,4.5,4.3,6.7,6.4c1.5,1.5,3,3,4.4,4.4c1.2,1.2,2.5,2.3,3.6,3.5
			c0.6,0.6,1.3,1.6,1.1,2.2c-0.1,0.6-1.2,1.3-2,1.5c-6.8,2-13.5,1.2-19.6-2.2c-2.4-1.4-4.5-3.5-6.7-5.3c-0.1-0.1-0.2-0.2-0.3-0.3
			c-0.5-0.2-1.1-0.5-1.6-0.7c0.1,0.6,0,1.2,0.2,1.7c0.8,1.4,1.7,2.7,2.6,3.9c2,2.6,4.1,5.2,6.1,7.8c1.2,1.5,0.7,2.8-1.2,3.2
			c-6.3,1.5-11.9,0-17-3.8c-0.7-0.5-1.1-1.5-1.8-2c-0.5-0.5-1.5-1.1-1.9-1c-0.6,0.3-1.1,1.2-1.1,1.9c-0.1,2-0.1,4-0.9,6
			c-2.3,5.9-6.5,9.6-12.6,11.2c-7,1.9-13.9,3.8-20.9,5.7c-2.3,0.6-4.7,1.2-7,1.7c-0.6,0.1-1.5,0-1.8-0.4c-0.3-0.4-0.4-1.3-0.2-1.9
			c1.8-4.9,3.8-9.7,5.7-14.6c2.6-6.9,5.2-13.8,7.8-20.6c3.4-9,6.7-18,10.1-26.9c3.8-10,7.5-20,11.3-30c2.4-6.2,4.6-12.5,7.2-18.7
			c3.2-7.5,7.2-14.7,11.9-21.4c3.3-4.8,7-9.2,11-13.5c4.2-4.5,8.8-8.6,13.7-12.4c9-7.2,19-12.8,29.7-16.9
			c19.3-7.5,38.7-14.9,58.1-22.2c57.2-21.7,114.4-43.4,171.7-65.1c3.9-1.5,7.8-2.9,11.7-4.4c1.3-0.5,2.1,0.1,1.9,1.5
			c-0.1,0.7-0.3,1.4-0.6,2.1c-2.2,4.5-4.4,9.1-7.5,13.1c-4.7,6.1-10.2,11.2-16.8,14.8c-4.8,2.6-10,4.8-15.2,6.7
			c-33.9,12.9-67.8,25.8-101.8,38.6c-16.2,6.1-32.4,12.1-48.5,18.2c-2.6,1-5.2,2.1-7.8,3.2c-0.4,0.2-0.8,0.4-1.1,0.7
			c0.1,0.2,0.1,0.4,0.2,0.5c1.6-0.4,3.2-0.8,4.8-1.2c11.4-3.6,22.8-7.1,34.2-10.7c6.7-2.2,13.4-4.7,20.1-6.9
			c10.9-3.6,21.8-7.2,32.8-10.8c5.4-1.8,10.8-3.7,16.2-5.4c8.2-2.7,16.4-5.3,24.6-8c6.4-2.1,12.7-4.3,19.1-6.5
			c6.6-2.2,13.2-4.5,19.8-6.7c0.5-0.1,1.2-0.1,1.5,0.1c0.3,0.3,0.3,1,0.2,1.5c-0.2,0.6-0.5,1.2-0.9,1.6c-2.8,3.2-5.6,6.4-8.6,9.5
			c-1.8,1.9-3.8,3.7-5.8,5.4c-3.1,2.6-6.2,5.2-9.6,7.4c-4.5,2.9-9,5.6-13.8,8c-7.7,3.8-15.9,6.3-24.3,8.3
			c-9.9,2.3-19.7,5.2-29.5,7.7c-9.3,2.4-18.6,4.6-27.9,7c-10.3,2.6-20.7,5.4-31,8.1c-4.3,1.1-8.7,1.8-13,3.1
			c-8.1,2.4-16.5,3.7-24.5,6.7l-10.1,2.2l0.1,0.6l0.1,0c0,0,0-0.1,0-0.1c0.6-0.2,1.2-0.4,1.8-0.5c0,0.1,0,0.1,0.1,0.2c0,0,0,0,0,0
			L658.1,250.5L658.1,250.5z"/>
		<path d="M875.6,130.9c-3.9,1.5-7.8,2.9-11.7,4.4c-57.2,21.7-114.4,43.4-171.7,65.1c-19.4,7.4-38.8,14.7-58.1,22.2
			c-10.7,4.2-20.7,9.7-29.7,16.9c-4.8,3.9-9.5,7.9-13.7,12.4c-4,4.3-7.6,8.7-11,13.5c-4.7,6.7-8.7,13.8-11.9,21.4
			c-2.6,6.2-4.8,12.5-7.2,18.7c-3.8,10-7.6,20-11.3,30c-3.4,9-6.7,18-10.1,26.9c-2.6,6.9-5.2,13.8-7.8,20.6
			c-1.9,4.9-3.8,9.7-5.7,14.6c-0.2,0.6-0.2,1.5,0.2,1.9c0.3,0.4,1.2,0.6,1.8,0.4c2.3-0.5,4.7-1.1,7-1.7c7-1.9,13.9-3.8,20.9-5.7
			c6.1-1.6,10.3-5.3,12.6-11.2c0.8-2,0.8-4,0.9-6c0-0.7,0.5-1.6,1.1-1.9c0.4-0.2,1.3,0.5,1.9,1c0.7,0.6,1.1,1.5,1.8,2
			c5.1,3.8,10.7,5.3,17,3.8c1.8-0.4,2.3-1.8,1.2-3.2c-2-2.6-4.1-5.2-6.1-7.8c-1-1.2-1.8-2.6-2.6-3.9c-0.3-0.4-0.2-1.1-0.2-1.7
			c0.5,0.2,1.1,0.5,1.6,0.7c0.1,0,0.2,0.2,0.3,0.3c2.2,1.8,4.2,3.9,6.7,5.3c6.2,3.5,12.8,4.2,19.6,2.2c0.8-0.2,1.8-0.9,2-1.5
			c0.1-0.6-0.5-1.6-1.1-2.2c-1.1-1.2-2.4-2.3-3.6-3.5c-1.5-1.5-2.9-3-4.4-4.4c-2.2-2.1-4.5-4.3-6.7-6.4c-3-3-6.1-6-9.1-9
			c-0.6-0.6-1.4-1.2-1.1-2.4c0.4,0.1,0.7,0.1,0.9,0.2c1.2,0.8,2.4,1.5,3.5,2.4c3.5,2.7,6.9,5.5,10.4,8.1c7,5.4,15.1,7.9,23.8,8
			c5.2,0.1,10.4-0.9,15.3-3.1c0.6-0.3,1.4-0.9,1.5-1.5c0.1-0.4-0.7-1.2-1.3-1.5c-4.1-2.4-8.3-4.7-12.5-7c-4.5-2.6-8.9-5.2-13.4-7.8
			c-6.3-3.6-12.7-7.1-19-10.7c-1-0.5-1.8-1.3-2.7-2c0.1-0.1,0.2-0.3,0.3-0.4c1,0.2,2,0.4,3,0.8c5.4,2.2,10.7,4.6,16,6.8
			c7.9,3.3,15.5,7.4,24,9.2c3.9,0.8,7.9,1.3,11.8,1.5c3.7,0.2,7.4-0.4,11.1-1c5.6-0.9,10.8-2.8,15.8-5.3c0.6-0.3,1.5-1.4,1.4-1.7
			c-0.3-0.7-1.1-1.4-1.9-1.7c-4-1.2-8-2.3-12-3.5c-5.1-1.5-10.1-3.2-15.2-4.8c-6.4-2-12.8-3.9-19.2-5.8c-5.4-1.6-10.9-3.2-16.3-4.9
			c-2.4-0.7-4.7-1.6-7-2.5c-0.3-0.1-0.5-0.4-1-0.9c0.8-0.2,1.2-0.4,1.6-0.3c2.7,0.5,5.4,1,8,1.5c3.2,0.7,6.4,1.5,9.7,2.3
			c5,1.1,9.9,2.2,14.9,3.4c4.5,1,9,2,13.6,2.9c3.1,0.7,6.2,1.4,9.3,2c3.3,0.7,6.6,1.6,10,1.9c5.7,0.5,11.4,0.3,17.1-0.9
			c6.6-1.4,12.7-4,18.6-7.2c0.6-0.3,0.9-1.1,1.4-1.7c-0.6-0.4-1.2-1-1.8-1.1c-1.7-0.4-3.5-0.5-5.2-0.9c-3.7-0.7-7.4-1.4-11.1-2.1
			c-3.3-0.6-6.5-1.2-9.8-1.8c-3.7-0.7-7.3-1.4-11-2c-3.4-0.6-6.9-1.2-10.3-1.8c-5-0.9-10-1.8-15-2.7c-3.7-0.6-7.3-1.3-11-1.9
			c-3.2-0.6-6.3-1.2-9.5-1.8c-2-0.4-4-0.6-6-1.1c-0.5-0.1-0.8-0.6-1.3-0.9c0.4-0.2,0.8-0.5,1.3-0.8c0.2-0.1,0.5-0.1,0.8-0.1
			c1.9,0.2,3.8,0.3,5.7,0.6c2.3,0.3,4.6,0.6,6.9,0.9c4,0.5,8.1,0.9,12.2,1.4c3.9,0.5,7.7,1.1,11.6,1.5c6.2,0.7,12.4,1.4,18.7,2
			c2,0.2,4,0.5,6,0.7c2.4,0.3,4.9,0.5,7.3,0.8c2.4,0.2,4.8,0.6,7.2,0.7c3.1,0.1,6.2-0.1,9.2-0.2c7.1-0.3,14-1.8,20.6-4.3
			c4.6-1.8,9-4.3,13.4-6.6c2.2-1.2,4.2-2.7,6.2-4.1c0.5-0.4,0.7-1.2,0.7-1.9c0-0.3-1-0.8-1.5-0.8c-2.4,0-4.8,0.1-7.2,0
			c-2.5,0-5.1-0.2-7.6-0.3c-2.7-0.1-5.4-0.3-8.1-0.4c-3.2-0.1-6.3-0.2-9.5-0.3c-2.7-0.1-5.4-0.2-8.2-0.3c-2.8-0.1-5.5-0.2-8.3-0.3
			c-2.9-0.1-5.7-0.3-8.6-0.4c-4.5-0.1-22.5-0.8-27.1-1c-2-0.1-4.1-0.1-6.1-0.1c-2.8,0-5.5,0-8.3-0.1c-2.3-0.1-4.6-0.3-6.9-0.4
			c-3-0.2-6-0.4-9-0.6c-0.6,0-1.1-0.2-1.7-0.3c0-0.2,0-0.5,0-0.7c1.1-0.2,2.1-0.5,3.2-0.6c1.6-0.1,3.1-0.1,4.7-0.2
			c0.6,0,1.3,0,1.9,0c3.1,0,6.2,0,9.2-0.1c3.2-0.1,6.4-0.2,9.7-0.3c2.3,0,4.6,0,6.9-0.1c3.5,0,43.4-0.8,46.5-0.9
			c3-0.1,6.1,0,9.1-0.1c3.2-0.1,6.5-0.1,9.7-0.4c4.1-0.3,8.2-0.3,12.2-1.1c14.5-2.9,27.5-9,38.7-18.7c0.4-0.4,0.5-1.1,0.8-1.7
			c-0.6-0.2-1.2-0.7-1.8-0.7c-5.2,0.4-10.5,0.9-15.7,1.4c-3.4,0.3-6.9,0.6-10.3,0.8c-3.8,0.3-7.6,0.5-11.4,0.8
			c-6.7,0.6-13.4,1.2-20.1,1.8c-7.4,0.6-14.8,1.2-22.1,1.8c-3.3,0.3-6.7,0.6-10,0.9c-4.4,0.4-8.8,0.8-13.2,1.2
			c-3.7,0.3-7.4,0.7-11.1,1c-3.6,0.3-7.2,0.4-10.7,0.7c-4.1,0.3-8.2,0.7-12.3,1.1c-0.5,0-1-0.1-1.8-0.3c0.6-0.5,0.8-0.8,1-0.8
			c1.8-0.5,3.7-0.9,5.5-1.3c1-0.2,13-1.9,17.9-2.6c4.6-0.6,9.3-1,13.9-1.7c7.5-1,15-2.1,22.5-3.1c6.1-0.8,12.2-1.6,18.4-2.5
			c4.8-0.7,9.5-1.4,14.3-2c4.8-0.7,9.6-1.2,14.3-1.9c5.7-0.9,11.5-1.7,17.2-3c4.9-1.1,9.8-2.6,14.6-4.4c8.4-3.2,16.3-7.6,23.5-13.1
			c2-1.5,4-3,5.9-4.6c2-1.7,4-3.5,6-5.3c1.2-1.1,2.4-2.2,3.5-3.4c0.4-0.4,0.8-1.4,0.6-1.7c-0.3-0.5-1.2-0.6-1.8-0.8
			c-0.2-0.1-0.5,0.1-0.8,0.1c-3.6,0.8-7.3,1.7-10.9,2.5c-7.8,1.6-15.7,3.2-23.5,4.8c-9.7,2-19.3,4.1-29,6.1c-8,1.6-16,3.2-23.9,4.9
			c-11.5,2.5-22.9,5.1-34.4,7.5c-8.1,1.7-40.4,7.1-40.4,7.1l-0.1,0l-0.1-0.6c0,0,26.4-6.4,34.5-8.9c4.3-1.3,8.7-2,13-3.1
			c10.3-2.6,20.7-5.4,31-8.1c9.3-2.4,18.6-4.6,27.9-7c9.9-2.5,19.6-5.4,29.5-7.7c8.4-2,16.6-4.5,24.3-8.3c4.7-2.4,9.3-5.1,13.8-8
			c3.4-2.2,6.5-4.8,9.6-7.4c2-1.7,4-3.5,5.8-5.4c2.9-3.1,5.7-6.3,8.6-9.5c0.4-0.4,0.8-1.1,0.9-1.6c0.1-0.5,0.1-1.2-0.2-1.5
			c-0.3-0.3-1-0.3-1.5-0.1c-6.6,2.2-13.2,4.4-19.8,6.7c-6.4,2.2-12.7,4.4-19.1,6.5c-8.2,2.7-16.4,5.3-24.6,8
			c-5.4,1.8-10.8,3.7-16.2,5.4c-10.9,3.6-21.9,7.1-32.8,10.8c-6.7,2.2-13.4,4.8-20.1,6.9c-11.4,3.7-22.8,7.2-34.2,10.7
			c-1.6,0.5-3.2,0.8-4.8,1.2c-0.1-0.2-0.1-0.4-0.2-0.5c0.4-0.2,0.7-0.5,1.1-0.7c2.6-1.1,5.2-2.3,7.8-3.2
			c16.2-6.1,32.4-12.1,48.5-18.2c33.9-12.8,67.9-25.7,101.8-38.6c5.2-2,10.3-4.1,15.2-6.7c6.7-3.6,12.2-8.7,16.8-14.8
			c3.1-4,5.3-8.6,7.5-13.1c0.3-0.6,0.5-1.4,0.6-2.1C877.7,131.1,876.9,130.5,875.6,130.9L875.6,130.9z"/>
	</g>
</g>
</svg>
