<?xml version="1.0" encoding="utf-8"?>
<!-- Generator: Adobe Illustrator 27.9.3, SVG Export Plug-In . SVG Version: 9.03 Build 53313)  -->
<svg version="1.1" id="Layer_1" xmlns="http://www.w3.org/2000/svg" xmlns:xlink="http://www.w3.org/1999/xlink" x="0px" y="0px"
	 viewBox="0 0 1200 1200" style="enable-background:new 0 0 1200 1200;" xml:space="preserve">
<style type="text/css">
	.st0{fill:#0B0B0B;}
	.st1{fill:#FFFFFF;}
	.st2{fill:#010101;}
</style>
<path d="M1135.8,927H2V230h1133.8V927z M7,922h1123.8V235H7V922z"/>
<path class="st0" d="M1164.5,982.6c-0.5-1.3-1.8-2.6-0.9-4.6c11.8,4.8,23.6,9.7,35.9,14.8c-0.4-2.5-1.8-3.2-2.7-4.2
	c-19.8-20-39.6-40-59.6-59.9c-1.4-1.4-2.3-2.7-2.8-4.3h-1v3.7c0.2,0.7,0.3,1.5,0.3,2.6c-0.2,29.6-0.1,59.2-0.1,88.8
	c0,1,0.1,2,0.2,2.9c0.2,0,0.4,0,0.6,0c5.3-12.6,10.5-25.3,16.2-38.9c4.7,11.2,8.8,21.4,13.1,31.5c3.8,9.2,3.8,9.1,13,5.3
	c2.3-1,2.9-1.8,1.8-4.3C1173.7,1005,1169.1,993.8,1164.5,982.6L1164.5,982.6z M1171.8,1017.4c-2.2,0.9-2.4-0.7-2.9-1.9
	c-5.6-13.4-11.1-26.8-16.7-40.2c-0.4-1-0.8-2-1.6-3.7c-4,9.7-7.8,18.7-12,28.7v-62.3c13.8,13.6,27.9,27.4,41.9,41.1
	c-0.1,0.2-0.2,0.4-0.3,0.6c-8.4-3.4-16.8-6.9-26.3-10.7c4.2,10,7.9,19,11.6,28c2.3,5.7,4.7,11.3,7,17
	C1173,1015.2,1174,1016.5,1171.8,1017.4L1171.8,1017.4z"/>
<polygon points="184.7,714.5 184.7,714.5 184.7,709.5 "/>
<path d="M910.9,524c-64.4,0-124.9-25.1-170.4-70.6c-45.5-45.5-70.6-106-70.6-170.4c0-1.6,0-3.2,0.1-4.8l5-0.1
	c0.2,2.6,0.5,5.3,0.9,8.3c11.6,85.7,49,116.6,73.8,137.1c1.9,1.5,3.6,3,5.3,4.4l8,6.6c24.7,21.8,70.7,43.2,117.9,41.9
	c34.5-0.9,53-20.9,61-32.8c11-16.5,15-36.6,9.8-50.2l-0.1-0.5c-0.2-1-1.9-9.5-9.6-17.2c-4.8-4.8-10.7-8.2-17.8-10.3
	c5.5,2.5,10.9,5.9,15.3,10.6c7.6,8.2,10.9,18.8,10,31.5c-1.2,16.4-17,34.7-37.5,43.5c-17.3,7.3-52.6,14.4-95.1-20.8
	c-24.2-20.1-34.3-51.7-26.8-84.4c8.6-37.8,38-67.3,76.7-76.9c40.5-10,126.1-6.5,243.7,130.3c1.8,2.1,3.4,4.1,4.9,6.2h3.2l-2.3,3.8
	c-21.2,34.4-50.9,63.1-86,83.1C994,513.1,952.8,524,910.9,524z M679,326.9C699.6,436.1,795.8,519,910.9,519
	c81.9,0,156.6-41.4,200.1-110.9c-1.3-1.8-2.8-3.7-4.4-5.5c-46.5-54-92.3-92.1-136.3-113.2c-36.7-17.6-72.2-23-102.4-15.5
	c-36.8,9.1-64.8,37.1-73,73.1c-7.1,30.9,2.3,60.6,25.1,79.5c40.5,33.6,73.7,27,90,20.1c21.4-9.1,33.6-26.6,34.5-39.2
	c0.8-11.3-2.1-20.7-8.7-27.8c-14.4-15.5-41.5-15.7-42.7-15.7l-0.3-5c29-3.5,44.6,5.4,52.7,13.4c8.3,8.3,10.5,17.4,10.9,19.6
	c5.6,15,1.4,36.9-10.4,54.5c-8.5,12.7-28.2,34-65,35c-48.6,1.3-95.9-20.7-121.3-43.1l-7.9-6.6c-1.7-1.4-3.5-2.9-5.3-4.4
	C725.5,409.9,695.4,385.1,679,326.9z"/>
<path d="M485.2,835.4l-4.3-0.2c-41.9-1.9-98.7-13.1-131.6-55.4c-8.5-10.9-11.4-17.9-14.1-24.1c-1.7-4-3.2-7.4-5.9-11.4
	c-1.1-1.6-2.3-3.2-3.8-4.9c-4-4.6-7.9-9-11.7-13.1c-78.9-85.7-135.2-86.3-161.7-79.1c-25.8,7-45.2,27.2-50.7,52.6
	c-4.7,21.8,2,42.7,18,56c29,24,52.7,19.3,64.3,14.4c15.2-6.5,23.8-18.9,24.5-27.7c0.6-8-1.4-14.6-6.1-19.5
	c-10.2-11-29.5-11.1-30.3-11.1l-0.3-5c39.5-4.7,46.1,21.5,46.7,24.3c4.1,10.9,1.1,27-7.6,40c-6.2,9.3-20.6,24.9-47.5,25.6
	c-12.6,0.3-25.6-1.4-38.6-5.2l-0.1,0C59.6,768,16,706,16,637c0-37.7,12.4-73.2,36-102.5c31.3-39.1,78-61.5,128-61.5
	c32.9,0,64.7,9.7,91.8,28.1c34.5,19.9,61.2,51,75.7,87.9c6.2-6.6,13.9-17.7,12.6-30.8c-1.2-12.7-10.5-24.8-27.7-35.8
	c-23.5-15-40.5-35.1-50.5-59.6c-10.7-26.1-9.9-48.9-8.6-60.2c1.3-11,4.5-22.3,9.4-33.7l0.1-0.2c14.2-27.5,34.6-52.3,59-71.7
	c39.2-31.1,86.4-47.5,136.5-47.5c58.7,0,113.9,22.9,155.4,64.4c41.5,41.5,64.4,96.7,64.4,155.4v1c4.8,72.3-26.5,140.1-79.7,172.8
	l-0.6,0.4c-4.7,2.9-9.8,5.6-15.5,8.3l-0.6,0.3l-0.7,0c-0.4,0-0.8,0-1.2-0.1c-2.2-0.1-4.4-0.2-6.5-0.2c-32.4,0-63,12.4-86.3,35
	c-24.1,23.5-37.4,55-37.4,88.6c0,19.8,4.5,38.6,13.4,56.1L485.2,835.4z M173.9,639.4c31.8,0,81,15.5,143.7,83.5
	c3.8,4.2,7.8,8.6,11.8,13.3c1.6,1.8,2.9,3.6,4.1,5.3c3,4.4,4.6,8.2,6.3,12.3c2.5,5.9,5.4,12.6,13.4,23
	c30.6,39.4,83.3,50.8,123.6,53.2c-8-17.1-12.1-35.4-12.1-54.5c0-35,13.8-67.8,38.9-92.2c24.2-23.5,56-36.4,89.7-36.4
	c2.2,0,4.4,0.1,6.7,0.2c0.2,0,0.4,0,0.6,0c5.5-2.6,10.5-5.3,15-8.1l0.6-0.4c51.3-31.9,81.4-97.7,76.7-167.9l0-0.2v-1
	c0-118.5-96.4-214.8-214.8-214.8c-49,0-95.1,16.1-133.4,46.4c-23.8,18.9-43.7,43.1-57.6,70c-4.7,10.9-7.7,21.8-9,32.3
	c-4.1,33.7,8.3,84,56.8,115.1c18.5,11.9,28.6,25.2,30,39.5c1.6,17.2-9.9,30.9-16.9,37.6l-2.8,2.6l-1.3-3.6
	c-13.7-37.4-40.3-69-74.9-89l-0.2-0.1C242.8,487.4,211.9,478,180,478c-48.5,0-93.7,21.7-124.1,59.6C33.1,566.1,21,600.4,21,637
	c0,66.8,42.2,127,105,149.6c12.5,3.6,25,5.3,37,5c24.6-0.6,37.8-14.9,43.5-23.4c7.8-11.7,10.7-26,7-35.6l-0.1-0.5
	c-0.2-1.4-1.8-8.3-8.6-13.9c0.4,0.4,0.7,0.7,1.1,1.1c5.6,6,8.1,13.9,7.4,23.3c-0.9,12.1-12.5,25.6-27.5,32
	c-12.6,5.4-38.4,10.5-69.4-15.1c-17.5-14.5-24.9-37.3-19.7-60.9c5.9-27.3,26.7-48.9,54.3-56.4C157,640.6,164.7,639.4,173.9,639.4z"
	/>
<g>
	<path class="st1" d="M737.7,798.3c-15.2-7.5-25.4-21.2-32.2-36C714.3,776,725.2,788.1,737.7,798.3z"/>
	<path d="M756.7,810.4l-20.1-9.9c-14-6.9-25.2-19.4-33.3-37.2l4.4-2.4c8.6,13.4,19.2,25.3,31.6,35.4L756.7,810.4z"/>
</g>
<path d="M696.3,909.5c-21.7,0-45.3-2.3-70-8.1c-35.8-8.5-80.2-19-106-50.3C496.6,831,483,801.7,483,770.6
	c0-58.1,47.3-105.4,105.4-105.4c58.1,0,105.4,47.3,105.4,105.4c0,22.5-7,44-20.2,62.1c10,23.8,39.3,29.9,55.2,29.7
	c37-0.5,68-10.8,88.1-29.1c-29.6-2.8-57.4-14.2-80.7-33c-12.9-10.4-23.9-22.7-32.7-36.5c-15.6-24.4-23.8-52.6-23.8-81.7
	c0-83.8,68.2-152,152-152s152,68.2,152,152l0,1c-0.3,41.8-17.1,80.6-47.5,109.3c-2.5,4.6-4.1,7.3-4.7,8.1
	c-37.4,54.8-89.6,75.5-120.8,87.8C791.4,895.9,749.6,909.5,696.3,909.5z M588.4,670.2c-55.3,0-100.4,45-100.4,100.4
	c0,29.6,13,57.6,35.7,76.8l0.3,0.3c24.7,30.2,68.3,40.5,103.4,48.8c84,19.9,154.7-2.4,181.2-12.9c30.7-12.1,82-32.5,118.5-86
	c0.5-0.8,2.3-3.7,4.6-8l0.2-0.4l0.3-0.3c29.8-28.1,46.2-66.1,46.2-107l0-1C978,600.4,912.3,535,831.6,535c-81,0-147,65.9-147,147
	c0,28.1,8,55.4,23,79c8.5,13.4,19.2,25.3,31.6,35.4c23.9,19.3,52.8,30.5,83.4,32.3l5.4,0.3l-3.7,3.9c-20.8,21.7-54.7,34-95.6,34.5
	c-0.3,0-0.6,0-0.9,0c-23.3,0-50.5-10.5-59.5-34.1l-0.5-1.3l0.8-1.1c13.1-17.5,20.1-38.3,20.1-60.2
	C688.7,715.3,643.7,670.2,588.4,670.2z"/>
<path d="M616,339.3v228.5c-4.7-1.2-9-2.3-13.2-3.5c-8.3-2.2-16.6-4.4-25.1-6c-6.2-1.2-12.5-2.9-18.5-5.3c-2.4-1-3-2.1-3-4.7
	c0.1-30.1,0.1-60.2,0.1-90.4c0-2.4,0.4-4.9-3.4-4.1c-1.3,0.3-1.6-0.5-1.6-1.7c0-1.3,0.6-1.8,1.7-1.6c3.4,0.6,3.3-1.4,3.3-3.8
	c-0.1-27.6,0-55.3-0.1-82.9c0-2.9,0.8-4.2,3.6-5.1c15.5-5.1,30.8-10.5,46.3-15.8c0.7-0.2,1.4-0.6,2.2-0.9c-1.6-1.7-3.5-2.1-5.6-2.1
	c-67.4,0-134.7,0-202.1,0c-1,0-2.2-0.5-3.3,0.8c1.3,1.4,3,1.9,4.7,2.5c14.7,4.9,29.3,10,44,14.8c3.4,1.1,4.6,2.7,4.5,6.4
	c-0.2,27.4-0.1,54.8-0.1,82.1c0,2.1-0.7,4.6,3,4c1.2-0.2,1.1,0.9,1.1,1.7c0,1-0.2,1.7-1.3,1.5c-3.5-0.6-2.8,1.9-2.8,3.8
	c0,30.3,0,60.5,0,90.8c0,3.1-0.5,4.2-4.1,4.7c-5.6,0.7-11,3-16.6,4.4c-13.1,3.5-26.3,6.9-39.7,10.3c0-1.9,0-3.4,0-4.9
	c0-72.8,0-145.5,0-218.3c0-1.4-0.3-2.9,0.2-4.1c0.7-1.6,0-1.5-1.1-1.5c-0.9,0-1.2-0.1-0.9,1.3c0.5,2.4,0.2,4.9,0.2,7.4
	c0,72.5,0,145,0.1,217.5c0,3.4-0.8,4.6-4.2,4.2c-3.1-0.4-7.3,1-9.2-0.6c-2.2-1.9-0.7-6.2-0.7-9.4c0-76.9,0-153.8-0.1-230.7
	c0-3.7,0.8-4.7,4.6-4.7c82.6,0.1,165.3,0.1,248,0c3.6,0,4.7,0.7,4.7,4.6c-0.1,78.8-0.1,157.6,0,236.5c0,3.3-0.5,4.8-4.1,4.3
	c-3.2-0.5-7.5,1.4-9.4-0.8c-1.6-1.8-0.5-6-0.5-9.1c0-71.9,0-143.9,0-215.8C617.5,342.3,617.9,340.6,616,339.3L616,339.3z"/>
<path class="st2" d="M878.8,686.7c0,6.5,0,12.9,0,19.4c0,13.4,0,26.8,0,40.2c0,13.2,0.1,26.4,0.1,39.7c0,7.5,0,15,0,22.5
	c0,1-0.4,1.4-1.4,1.4c-6,0-11.9,0-17.9,0c-13.6,0-27.2,0-40.8,0c-8.2,0-16.4,0-24.6,0c-2.8,0-5.7,0-8.5,0c-0.3,0-0.6,0-0.9-0.1
	c-0.6-0.2-0.8-0.6-0.8-1.3c0-9.8,0-19.7,0-29.5c0-13.9,0-27.7,0.1-41.6c0-6,0-11.9,0-17.8c0-5.7,0-11.3,0-16.9
	c0-11.2,0-22.5,0.1-33.8c0-10.8,0-21.6,0-32.3c0-10.9,0-21.8,0-32.8c0-6.6,0-13.1,0-19.7c0-5.7,0.1-11.4,0.1-17.1
	c0-0.8,0.1-1.6,0.1-2.4c0-0.5,0.3-0.6,0.7-0.6c6.7,0.2,13.5,0.1,20.2,0.1c7.3,0,14.5,0,21.8,0c6.8,0,13.7,0,20.5,0
	c3.9,0,7.8,0,11.7,0c5.2,0,10.3,0,15.5,0c1.1,0,2.2-0.1,3.4-0.1c0.5,0,0.7,0.2,0.7,0.8c0,9.3,0,18.6,0,27.9c0,5.5,0,11,0,16.5
	c0,5.5-0.1,11.1-0.1,16.6c0,9.9,0,19.8,0,29.7C878.8,665.9,878.8,676.3,878.8,686.7L878.8,686.7L878.8,686.7z M789.6,779.8
	c-0.2,0.5,0.2,1.1-0.4,1.5c0,0,0,0,0,0c0.4,0.2,0.1,0.4,0,0.6c-0.2,0.4-0.3,0.8-0.1,1.2c0.1,0.2,0.2,0.4,0,0.6
	c-0.3,0.2-0.3,0.5-0.3,0.7c0,6.3,0,12.6,0,19c0,0.6,0.2,0.7,0.7,0.7c3,0,6,0,9,0c4.5,0,9.1,0,13.7,0c13.2,0,26.4,0,39.6,0
	c7.1,0,14.2,0,21.4,0c0.8,0,0.8,0,0.8-0.8c0-7.8-0.1-15.6-0.1-23.4c0-13.6-0.1-27.2-0.1-40.7c0-13.7,0-27.5,0-41.2
	c0-20.1,0-40.3,0.1-60.4c0-7.1,0-14.2,0-21.2c0-9.9,0-19.8,0-29.7c0-5.5,0-10.9,0.1-16.4c0-0.8,0-0.8-0.8-0.8c-12.6,0-25.1,0-37.7,0
	c-12.3,0-24.5,0-36.8-0.1c-2.9,0-5.8,0-8.7,0c-0.8,0-0.8,0-0.8,0.8c0,0.8,0,1.6,0,2.4c0,4,0,8-0.1,12c0,0.2,0,0.4,0.2,0.6
	c0.3,0.5,0.3,1.1,0.6,1.6c0,0,0,0,0,0.1c-0.4,0.5,0.3,1.2-0.3,1.6c0,0,0,0.1,0,0.2c0.5,0.3,0.4,0.9,0.4,1.4c0,0.6,0,1.3,0,1.9
	c0.1-0.5,0.1-1,0.1-1.5c0-0.8,0.4-1.2,1.2-1.3c0.1,0,0.3,0,0.4,0c0.2,0,0.3-0.1,0.3-0.4c0-4.4,0-8.8,0-13.1c0-1.5,0-3.1,0-4.6
	c0-0.5,0.2-0.7,0.7-0.8c1.5-0.2,2.9-0.3,4.4,0.2c4.3,1.3,8.6,2.5,12.9,3.8c4.5,1.3,9.1,2.6,13.6,3.9c4.2,1.2,8.4,2.4,12.6,3.5
	c0.4,0.1,0.5,0.3,0.5,0.6c0,1.6,0.1,3.2,0.1,4.8c0,13.5,0.1,27,0.1,40.5c0,7.8,0,15.7,0,23.5c0,12.3,0,24.6,0,36.9
	c0,0.5,0,0.7,0.6,0.4c1.3-0.7,2.3-0.3,2.8,0.8c0.4,1,0.4,2.1-0.1,3.1c-0.5,1.2-1.4,1.5-2.6,0.9c-0.2-0.1-0.4-0.3-0.7-0.3
	c0,0.2,0,0.4,0,0.5c0,3.3,0,6.7,0,10c0,5.4,0,10.7,0,16.1c0,20.2,0,40.5-0.1,60.8c0,2.6,0,5.2,0,7.8c0,0.5-0.3,0.9-0.8,1
	c-1.7,0.6-3.3,1.2-4.9,1.8c-5.1,1.7-10.1,3.5-15.1,5.4c-6,2.1-11.9,4.3-17.8,6.4c-1.6,0.6-3.2,1.3-5,0.8c-1.7-0.5-1.6-0.1-1.6-1.8
	c0-6.6,0-13.3,0-19.9c0-0.6-0.2-0.8-0.8-0.9C789.7,780.8,789.8,780.8,789.6,779.8L789.6,779.8z M790.1,602.8c0,0.3-0.1,0.6-0.2,0.9
	c0,0.2-0.3,0.4-0.2,0.5c0.3,0.4,0.2,0.8-0.1,1.2c0,0,0,0.1,0,0.2c0.6,0.7-0.5,1.2-0.2,1.9c-0.4,0.1-0.3,0.5-0.3,0.7c0,5,0,10,0,14.9
	c0,9.5,0,19.1,0,28.7c0,12.4,0,24.8,0,37.3c0,24.5-0.1,49.1-0.2,73.7c0,0.3,0,0.6,0.3,0.8c0.2,0.1,0.2,0.3,0.1,0.5
	c-0.3,0.5-0.2,1,0.1,1.4c0.1,0.1,0.3,0.3,0,0.4c-0.1,0.1,0.3,0.8,0.4,0.7c0.5-0.2,0.9,0,1.4,0.1c0.3,0,0.5,0,0.4-0.3
	c0-0.7,0.1-1.4,0.1-2.1c0-2.8,0-5.6,0-8.4c0.1-23.2,0.2-46.5,0.2-69.7c0-12.3,0-24.6,0.1-36.9c0-14.9,0.1-29.7,0.1-44.6
	c0-1.3,0-1.3-1.3-1.2C790.3,603.4,790.1,603.3,790.1,602.8L790.1,602.8z"/>
</svg>
