<?xml version="1.0" encoding="utf-8"?>
<!-- Generator: Adobe Illustrator 27.9.3, SVG Export Plug-In . SVG Version: 9.03 Build 53313)  -->
<svg version="1.1" id="Layer_1" xmlns="http://www.w3.org/2000/svg" xmlns:xlink="http://www.w3.org/1999/xlink" x="0px" y="0px"
	 viewBox="0 0 1200 1200" style="enable-background:new 0 0 1200 1200;" xml:space="preserve">
<path d="M834.4,1079.5c-63.4,0-122.9-24.6-167.6-69.4c-36.3-36.3-59.4-82.5-66.8-132.5c-7.4,50-30.5,96.1-66.8,132.5
	c-44.7,44.7-104.3,69.4-167.6,69.4v-5c126,0,228.8-100.9,231.9-226.2c0-1.9-0.1-3.9-0.1-5.8V840h5.1v2.5c0,1.9,0,3.9-0.1,5.8
	c3.1,125.3,105.9,226.2,231.9,226.2V1079.5z"/>
<rect x="597.5" y="675" width="5" height="167"/>
<path d="M366,413L366,413l0,0.5C366,413.3,366,413.2,366,413L366,413z"/>
<path d="M465,413L465,413c0,0.2,0,0.3,0,0.5V413L465,413z"/>
<g>
	<path d="M452.5,442.5c1,1,2.6,3.5,4.2,8.7c1.9,6.5,3,15,3,23.8s-1.1,17.3-3,23.8c-1.5,5.2-3.2,7.7-4.2,8.7
		c3.3-7.4,5.3-18.4,5.5-30.5c0-0.6,0-1.3,0-2s0-1.3,0-2C457.9,460.9,455.8,449.9,452.5,442.5 M452.5,437h-11.6
		c1.9,0.2,3.8,1.7,5.4,4.2c3.9,6,6.6,18,6.8,31.9c0,0.6,0,1.3,0,1.9s0,1.3,0,1.9c-0.2,13.9-2.9,25.8-6.8,31.9
		c-1.5,2.4-3.3,3.9-5.1,4.2h11.6c0.1,0,0.2,0,0.3-0.1c6.5-1.6,11.6-17.9,11.6-37.9s-5.1-36.3-11.6-37.9
		C452.9,437.1,452.7,437.1,452.5,437L452.5,437L452.5,437z"/>
	<path d="M446.8,507.2h-11.6c1.8,3.3,3.8,5.3,6,5.7c0,0,0.1,0,0.1,0c0.2,0,0.4,0,0.6,0c0.1,0,0.2,0,0.4,0c0.1,0,0.1,0,0.2,0
		c0,0,0.1,0,0.1,0c1.8-0.3,3.6-1.8,5.1-4.2c-0.3-0.4-0.5-0.8-0.8-1.3C446.9,507.4,446.9,507.3,446.8,507.2L446.8,507.2L446.8,507.2z
		"/>
	<path d="M441.9,437c-0.2,0-0.4,0-0.6,0c-0.1,0-0.1,0-0.2,0c-2.1,0.4-4.2,2.5-5.9,5.7h11.6l0.1-0.2c0.2-0.5,0.5-0.9,0.8-1.3
		c-1.6-2.5-3.4-4-5.3-4.2c0,0-0.1,0-0.1,0c0,0,0,0-0.1,0C442.2,437,442.1,437,441.9,437L441.9,437L441.9,437z"/>
</g>
<path d="M600,676.5c-125.3,0-243.1-16.3-331.7-45.8c-89.5-29.8-138.8-69.8-138.8-112.7c0-48.8,64.2-93.8,176.5-124
	c-21-17.6-32.9-43.1-33-70.7c0-43.7,30.5-80.5,71.3-90.1c-40.8-9.6-71.2-46.3-71.3-89.9c0-50.4,40.4-91.4,90.5-92.5
	C364.7,26,385.3,6,410.5,6c25.2,0,45.8,20,47,44.9c50,1,90.5,42.1,90.5,92.3c0,50.1-40.1,91.1-89.9,92.5
	c-1.4,49.8-42.4,89.8-92.5,89.8l-0.7,0c-23.2,0.3-42,19.3-42,42.5c0,7.2,1.8,14.2,5.2,20.4c79.7-18.9,173.6-28.9,271.8-28.9
	c125.3,0,243.1,16.3,331.7,45.8c89.5,29.8,138.8,69.8,138.8,112.7s-49.3,82.9-138.8,112.7C843.1,660.2,725.3,676.5,600,676.5z
	 M365.5,55.9c-48.2,0-87.5,39.3-87.5,87.5c0.1,48.2,39.3,87.4,87.5,87.4h2.5v5l-2.5,0.1c-48.2,0-87.5,39.3-87.5,87.5
	c0,27.7,12.8,53.2,34.9,69.8l4.1,3.1l-5,1.3c-54.4,14.2-99.3,32.6-129.9,53.1c-31.6,21.2-47.6,43.8-47.6,67.3
	c0,20.3,12.1,40,35.8,58.8c23.3,18.4,56.8,34.9,99.5,49.2c88.1,29.4,205.4,45.6,330.1,45.6c124.7,0,242-16.2,330.1-45.6
	c42.7-14.2,76.2-30.8,99.5-49.2c23.8-18.7,35.8-38.5,35.8-58.8s-12.1-40-35.8-58.8c-23.3-18.4-56.8-34.9-99.5-49.2
	C842,380.7,724.7,364.5,600,364.5c-98.5,0-192.8,10.1-272.4,29.2l-1.8,0.4l-0.9-1.6c-4.5-7.4-6.8-15.9-6.9-24.5
	c0-26.2,21.3-47.5,47.5-47.5l0.7,0c47-0.3,85.5-38,86.9-84.8h-2.3l7.4-10.8v5.8c47-1.4,84.9-40.1,84.9-87.5
	c-0.1-48.2-39.3-87.4-87.5-87.4h-0.8l-2.2-1.5V53c0-23.2-18.8-42-42-42c-23.2,0-42,18.9-42,42v1.3l-2.2,1.5H365.5z M415.5,528.5
	c-23.8,0-49-5.9-51.8-17h-0.2l0-1.6c0-0.1,0-0.3,0-0.4c0-0.1,0-0.1,0-0.2l0-0.3v-98.5h0.6c3.9-10.5,28.1-16,51.4-16
	s47.5,5.5,51.4,16h0.5l0,2.5v98.5h-0.2C464.5,522.6,439.3,528.5,415.5,528.5z M368.5,506.5h0.3l-0.3,2.8c0,0.1,0,0.1,0,0.2
	c0,5.8,17.9,14,47,14s47-8.2,47-14c0-0.1,0-0.1,0-0.2l-0.3-2.8h0.3v-93.1l0-0.2c-0.6-6.5-20-13.7-47-13.7s-46.4,7.2-47,13.7l0,0.2
	V506.5z"/>
<path d="M415.5,432.5c-25.2,0-52-6.7-52-19c0-0.3,0-0.5,0-0.8c1-11.9,26.9-18.2,52-18.2s50.9,6.3,52,18.3c0,0.2,0,0.4,0,0.7
	C467.5,425.8,440.7,432.5,415.5,432.5z M415.5,399.5c-27,0-46.4,7.2-47,13.7c0,0.1,0,0.2,0,0.3c0,5.8,17.9,14,47,14s47-8.2,47-14
	c0-0.1,0-0.1,0-0.2C461.9,406.7,442.5,399.5,415.5,399.5z"/>
<path d="M365.5,415.5c-16.8,0-32-8.6-40.7-22.9l4.3-2.6c7.8,12.8,21.4,20.5,36.4,20.5V415.5z"/>
<path d="M365.5,415.7c-20.3,0-39.5-6.4-55.6-18.5l3-4c15.2,11.5,33.4,17.5,52.6,17.5V415.7z"/>
</svg>
