<?xml version="1.0" encoding="UTF-8"?>
<svg id="Layer_1" data-name="Layer 1" xmlns="http://www.w3.org/2000/svg" viewBox="0 0 457.81 441.43">
  <defs>
    <style>
      .cls-1 {
        fill: #000;
        stroke-width: 0px;
      }
    </style>
  </defs>
  <path class="cls-1" d="M254.08,441.43c-.19,0-.39-.03-.59-.09-2.89-.89-5.79-1.74-8.69-2.58-6.22-1.82-12.66-3.7-18.87-5.95-47.27-17.1-97.43-35.38-153.34-55.88-16.38-6.01-33-12.26-49.08-18.3-7.39-2.78-14.8-5.56-22.21-8.34-.79-.29-1.31-1.05-1.3-1.9L3.08,95.82c0-.78.48-1.49,1.19-1.81L217.12.17c.47-.21,1-.23,1.48-.05l237.05,84.29c.8.28,1.33,1.04,1.33,1.88,0,1.63-.03,3.19-.06,4.69-.06,3-.12,5.84.11,8.58,1.67,20.16-2.9,35.69-14.81,50.35-14.83,18.25-28.42,38.07-41.56,57.24-5.53,8.07-11.25,16.42-17,24.55-.64.9-1.88,1.12-2.79.48-.9-.64-1.12-1.88-.48-2.79,5.73-8.1,11.44-16.44,16.96-24.5,13.18-19.24,26.82-39.12,41.75-57.5,11.21-13.8,15.51-28.45,13.93-47.5-.24-2.94-.18-5.88-.12-8.99.02-1.04.04-2.1.05-3.2L218.01,4.15,7.07,97.15l-3.05,249.88c6.98,2.61,13.95,5.23,20.9,7.85,16.07,6.04,32.68,12.29,49.05,18.29,55.91,20.5,106.06,38.78,153.32,55.88,6.1,2.21,12.47,4.07,18.63,5.87,2.92.85,5.84,1.71,8.74,2.6,1.06.32,1.65,1.44,1.33,2.5-.26.86-1.06,1.41-1.91,1.41Z"/>
  <path class="cls-1" d="M254.08,182.96c-.17,0-.35-.02-.53-.07-1.22-.33-2.45-.64-3.68-.95-2.66-.67-5.4-1.37-8.07-2.28-67.56-23.17-128.52-44.08-190.33-65.42-9.98-3.45-20.04-7.17-29.76-10.77-4.54-1.68-9.08-3.36-13.63-5.03-1.04-.38-1.57-1.53-1.19-2.56.38-1.04,1.53-1.57,2.56-1.19,4.56,1.66,9.1,3.35,13.65,5.03,9.71,3.59,19.74,7.31,29.68,10.74,61.81,21.34,122.76,42.25,190.32,65.41,2.51.86,5.17,1.53,7.75,2.19,1.25.32,2.5.63,3.75.97,1.07.29,1.69,1.39,1.4,2.46-.24.89-1.05,1.48-1.93,1.48Z"/>
  <path class="cls-1" d="M256.19,440.38c-.72,0-1.42-.39-1.77-1.07-.51-.98-.13-2.19.85-2.7,5.62-2.94,11.25-5.86,16.87-8.79,16.32-8.49,33.19-17.27,49.63-26.17,2.89-1.57,5.85-4.53,8.79-8.79,2.66-3.85,5.14-7.95,7.55-11.92,2.68-4.42,5.45-8.99,8.5-13.3,18.16-25.67,36.69-51.71,54.61-76.9,16.03-22.54,32.61-45.84,48.86-68.79,1.68-2.37,2.73-5.14,2.73-7.23,0-9-.3-18.16-.59-27.02-.11-3.28-.22-6.56-.31-9.85-.03-1.1.84-2.02,1.94-2.06,1.08-.03,2.02.84,2.06,1.94.09,3.28.2,6.55.31,9.83.29,8.89.6,18.09.59,27.15,0,2.91-1.3,6.48-3.46,9.54-16.26,22.95-32.84,46.26-48.87,68.79-17.92,25.19-36.45,51.24-54.61,76.9-2.97,4.19-5.7,8.7-8.35,13.06-2.44,4.01-4.95,8.17-7.68,12.11-3.3,4.79-6.73,8.17-10.18,10.04-16.47,8.92-33.36,17.7-49.69,26.2-5.62,2.93-11.25,5.85-16.87,8.79-.3.15-.61.23-.92.23Z"/>
  <path class="cls-1" d="M257.25,326.44c-.46,0-.92-.16-1.3-.48-.84-.72-.93-1.98-.21-2.82.68-.79,1.39-1.58,2.09-2.36,1.49-1.65,2.9-3.22,4.12-4.92,5.55-7.72,11.12-15.42,16.68-23.13,16.45-22.78,33.45-46.34,49.89-69.71,18.29-26,36.66-52.58,54.42-78.3,7.59-10.98,15.18-21.96,22.78-32.93l-.12-.18c-39.91,18.97-81.68,39.35-124.2,60.59-.99.5-2.19.09-2.68-.9-.49-.99-.09-2.19.9-2.68,43.1-21.53,85.44-42.18,125.85-61.38.91-.43,1.99-.12,2.54.72l1.79,2.78c.44.68.42,1.56-.04,2.22-7.86,11.33-15.7,22.68-23.54,34.03-17.77,25.72-36.15,52.32-54.44,78.32-16.45,23.39-33.46,46.95-49.92,69.75-5.56,7.71-11.13,15.41-16.68,23.13-1.35,1.88-2.9,3.6-4.39,5.26-.68.76-1.36,1.51-2.03,2.28-.4.46-.96.7-1.52.7Z"/>
  <path class="cls-1" d="M255.13,407.67c-1.09,0-1.98-.87-2-1.96-.11-5.99-.23-11.98-.35-17.97-.29-13.83-.59-28.12-.63-42.2-.02-7.18.22-14.46.45-21.5.21-6.45.43-13.11.45-19.65.02-9.28,2.46-16.44,8.42-24.73,26.96-37.51,53.52-76.27,79.21-113.75,8.64-12.6,17.27-25.2,25.94-37.78.62-.91,1.87-1.14,2.78-.51.91.63,1.14,1.87.51,2.78-8.67,12.58-17.3,25.17-25.94,37.77-25.7,37.5-52.28,76.27-79.26,113.82-5.49,7.65-7.64,13.93-7.67,22.41-.02,6.6-.24,13.3-.45,19.77-.23,7.01-.47,14.25-.45,21.36.04,14.04.34,28.32.63,42.12.12,5.99.25,11.99.36,17.98.02,1.1-.86,2.02-1.96,2.04h-.04Z"/>
  <path class="cls-1" d="M359.81,220.94c-.39,0-.78-.11-1.12-.34-.92-.62-1.15-1.86-.54-2.78,2.75-4.06,5.48-8.13,8.21-12.2,5.93-8.84,12.05-17.98,18.29-26.84,11.22-15.95,22.71-32.11,33.81-47.74,8.45-11.88,16.89-23.77,25.31-35.67.23-.32.37-1.04.54-1.97-8.77,2.21-16.52,6.37-24.05,10.41-3.22,1.73-6.55,3.51-9.9,5.11-1,.47-2.19.05-2.67-.94-.48-1-.05-2.19.94-2.67,3.27-1.56,6.55-3.32,9.73-5.03,8.63-4.62,17.55-9.41,28.15-11.47.67-.13,1.36.09,1.83.59.47.5.66,1.2.49,1.86-.26,1.03-.42,1.9-.56,2.66-.28,1.51-.5,2.7-1.25,3.76-8.42,11.91-16.87,23.8-25.31,35.68-11.1,15.62-22.59,31.78-33.8,47.72-6.21,8.82-12.32,17.94-18.24,26.76-2.73,4.08-5.47,8.15-8.22,12.22-.39.57-1.02.88-1.66.88Z"/>
  <path class="cls-1" d="M257.25,361.25c-.65,0-1.28-.31-1.67-.89-.61-.92-.36-2.16.56-2.77.38-.26.8-.49,1.22-.71.55-.3,1.18-.64,1.39-.93,4.14-5.73,8.32-11.44,12.49-17.15,10.97-15,22.31-30.5,32.81-46.17,2.88-4.3,6.1-8.5,9.2-12.57,9.73-12.73,18.92-24.75,20.4-41.23.28-3.1,1.8-6.61,4.52-10.43,8.63-12.11,11.13-13.06,24.31-9.26.68.19,1.2.73,1.38,1.41s-.01,1.4-.5,1.91c-11.21,11.5-16.38,26.27-14.94,42.71.56,6.42,2.85,12.92,5.06,19.21,1.02,2.91,2.08,5.91,2.97,8.91.31,1.06-.29,2.17-1.35,2.49-1.06.32-2.17-.29-2.49-1.35-.86-2.9-1.9-5.86-2.91-8.72-2.29-6.53-4.66-13.27-5.27-20.19-1.44-16.49,3.33-31.43,13.81-43.41-8.28-2.21-9.82-1.19-16.81,8.62-2.27,3.19-3.59,6.12-3.79,8.47-1.57,17.64-11.55,30.68-21.2,43.3-3.07,4.01-6.24,8.16-9.06,12.36-10.54,15.73-21.91,31.27-32.9,46.3-4.17,5.7-8.34,11.41-12.48,17.13-.74,1.02-1.79,1.6-2.72,2.1-.32.17-.63.34-.92.53-.34.23-.73.33-1.11.33Z"/>
  <path class="cls-1" d="M373.56,374.97c-.73,0-1.44-.4-1.79-1.1-.09-.17-.22-.37-.34-.58-.56-.89-1.4-2.24-.49-3.53,6.5-9.25,13.04-18.71,19.36-27.87,16.56-23.99,33.68-48.79,51.96-72.11,10.97-14,11.84-27.72,9.67-45.32-.13-1.1.64-2.09,1.74-2.23,1.09-.13,2.09.64,2.23,1.74,2.29,18.62,1.33,33.19-10.5,48.28-18.21,23.22-35.29,47.97-51.82,71.91-6.12,8.87-12.45,18.04-18.76,27.01.2.31.39.62.52.89.5.99.1,2.19-.89,2.68-.29.14-.59.21-.89.21Z"/>
  <path class="cls-1" d="M254.08,441.43c-.3,0-.61-.07-.89-.21-.99-.5-1.39-1.7-.89-2.68.14-.29.33-.58.53-.88.07-.11.18-.27.24-.38-1.47-13.07-1.87-25.93,8.5-39.48,19.09-24.97,37.39-51.22,55.1-76.61,7-10.04,14.24-20.43,21.43-30.59.64-.9,1.89-1.12,2.79-.48.9.64,1.12,1.89.48,2.79-7.18,10.15-14.42,20.53-21.42,30.57-17.73,25.43-36.06,51.72-55.2,76.76-9.54,12.47-9.07,24.56-7.67,36.89.13,1.16-.47,2.08-.91,2.75-.11.16-.21.32-.29.48-.35.7-1.06,1.1-1.79,1.1ZM253.09,437.55h0s0,0,0,0Z"/>
  <path class="cls-1" d="M386.25,267.36c-.61,0-1.21-.28-1.6-.8-.66-.88-.48-2.14.4-2.8.96-.71,1.98-1.36,2.96-1.98,1.98-1.25,3.85-2.44,4.94-3.98,16.65-23.62,34.8-49.75,57.13-82.23,1.86-2.7,3.76-5.8,3.73-8.29-.1-8.11-.69-16.38-1.26-24.38-.22-3.1-.44-6.19-.63-9.29-.07-1.1.77-2.05,1.87-2.12,1.09-.07,2.05.77,2.12,1.87.19,3.08.41,6.17.63,9.25.57,8.05,1.16,16.38,1.27,24.61.04,3.59-2.1,7.22-4.43,10.6-22.34,32.49-40.5,58.63-57.16,82.27-1.55,2.19-3.85,3.65-6.07,5.06-.96.61-1.88,1.19-2.71,1.81-.36.27-.78.4-1.2.4Z"/>
  <path class="cls-1" d="M281.57,424.55c-.26,0-.53-.05-.79-.16-1.01-.44-1.48-1.61-1.05-2.63.31-.73.59-1.49.89-2.3.67-1.83,1.37-3.72,2.54-5.4,6.87-9.8,13.89-19.74,20.69-29.34,10.56-14.92,21.48-30.35,32.03-45.65,6.35-9.2,12.43-18.84,18.3-28.16,2.71-4.3,5.42-8.6,8.17-12.88.6-.93,1.83-1.2,2.76-.6.93.6,1.2,1.83.6,2.76-2.74,4.27-5.45,8.56-8.15,12.85-5.9,9.35-12,19.03-18.39,28.3-10.57,15.32-21.49,30.75-32.06,45.69-6.79,9.6-13.82,19.53-20.68,29.32-.88,1.25-1.45,2.82-2.06,4.49-.3.82-.61,1.67-.97,2.5-.33.76-1.06,1.21-1.84,1.21Z"/>
  <path class="cls-1" d="M231.83,97.37c-3.45,0-7.74-.87-13.17-2.33-.87-.23-1.48-1.03-1.48-1.93,0-4.61,0-9.25-.01-13.9-.01-10.9-.03-22.16.03-33.3.04-7.58,2.93-11.02,5.35-12.57,2.37-1.52,6.6-2.71,13.27.3,1.96.88,3.51,2.3,5.02,3.67.62.57,1.21,1.1,1.8,1.57.48.38.75.95.75,1.56,0,1.93-.01,3.84-.03,5.74-.03,4.25-.05,8.27.05,12.35.16,6.15.43,12.41.69,18.46.11,2.63.23,5.26.33,7.89,0,.21-.02.42-.07.61.1.37.1.77-.03,1.16-2.59,7.74-6.11,10.72-12.51,10.72ZM221.19,91.57c14.6,3.75,16.79,1.48,19.33-6.09-.04-.14-.06-.29-.07-.44-.11-2.63-.22-5.25-.33-7.88-.26-6.07-.53-12.34-.7-18.52-.11-4.15-.08-8.2-.06-12.48,0-1.58.02-3.17.02-4.78-.42-.37-.84-.74-1.24-1.11-1.33-1.21-2.58-2.35-3.97-2.98-2.78-1.25-6.67-2.37-9.46-.58-2.27,1.46-3.49,4.65-3.51,9.22-.06,11.12-.05,22.38-.03,33.27,0,4.14,0,8.26.01,12.36Z"/>
  <path class="cls-1" d="M153.54,323.75c-.19,0-.38-.03-.57-.08l-70.34-20.95c-.54-.16-.98-.54-1.23-1.04-.25-.5-.27-1.08-.07-1.61l17.56-44.94c.02-.05.04-.1.07-.15-.13-.27-.2-.57-.2-.88v-49.07c0-.64.3-1.24.82-1.61.52-.38,1.18-.48,1.79-.29l56.48,17.93c.91.29,1.48,1.17,1.38,2.12-1.77,16.6-1.87,33.61-1.97,50.06-.09,15.83-.19,32.2-1.73,48.7-.06.6-.38,1.14-.87,1.47-.33.23-.73.34-1.12.34ZM85.85,299.51l65.91,19.63c1.32-15.51,1.41-30.96,1.5-45.92,0-.9.01-1.79.02-2.69-.44.83-1.41,1.26-2.35.97l-48.37-14.75-16.71,42.76ZM102.76,252.63l49.34,15.04c.54.16.95.53,1.19.99.1-14.59.32-29.54,1.79-44.28l-52.32-16.61v44.86Z"/>
  <path class="cls-1" d="M257.25,249.43c-.4,0-.81-.12-1.16-.37-.9-.64-1.11-1.89-.47-2.79,4.47-6.29,8.96-12.57,13.45-18.84,10.89-15.22,22.14-30.96,32.96-46.61,4.46-6.45,8.53-13.36,12.46-20.05,1.8-3.06,3.66-6.23,5.55-9.32.57-.94,1.8-1.24,2.75-.67.94.57,1.24,1.8.67,2.75-1.87,3.07-3.72,6.22-5.51,9.27-3.97,6.75-8.08,13.74-12.62,20.3-10.84,15.67-22.1,31.42-33,46.66-4.49,6.27-8.97,12.55-13.45,18.83-.39.55-1.01.84-1.63.84Z"/>
  <path class="cls-1" d="M420.08,351.76c-1.1,0-2-.9-2-2,0-.33-.05-.74-.1-1.18-.15-1.26-.34-2.83.54-4.11,9.23-13.49,18.65-27.03,27.76-40.13l5.64-8.12v-36.13c0-1.1.9-2,2-2s2,.9,2,2v36.76c0,.41-.12.81-.36,1.14l-6,8.63c-9.08,13.06-18.48,26.57-27.69,40.03-.05.28.03,1.01.09,1.45.06.54.13,1.09.13,1.65,0,1.1-.9,2-2,2Z"/>
  <path class="cls-1" d="M336.48,398.47c-.78,0-1.55-.08-2.29-.16-.67-.07-1.31-.14-1.87-.14-1.1,0-2-.9-2-2s.9-2,2-2c.77,0,1.54.08,2.29.16,1.16.12,2.46.26,3.06-.06,8.34-4.34,16.72-8.99,24.81-13.48,1.96-1.09,3.91-2.17,5.87-3.25,5.1-2.82,10.19-5.66,15.27-8.51,10.57-5.91,21.5-12.02,32.37-17.81,8.01-4.27,16.16-8.25,24.78-12.46,3.62-1.77,7.32-3.57,11.13-5.46v-31.03c0-1.1.9-2,2-2s2,.9,2,2v32.27c0,.76-.43,1.45-1.11,1.79-4.21,2.09-8.29,4.08-12.26,6.02-8.59,4.19-16.71,8.15-24.66,12.39-10.84,5.78-21.75,11.88-32.3,17.77-5.09,2.85-10.18,5.69-15.29,8.52-1.96,1.08-3.91,2.17-5.86,3.25-8.12,4.51-16.52,9.17-24.91,13.54-.96.5-2,.64-3.04.64Z"/>
  <path class="cls-1" d="M232.47,110.71c-9.69,0-19.54-5.1-27.9-14.49-.71-.79-.67-2,.08-2.75l11-10.99c.78-.78,2.05-.78,2.83,0,.78.78.78,2.05,0,2.83l-9.64,9.63c7.69,8.05,16.5,12.2,24.96,11.72,7.48-.42,14.28-4.35,19.75-11.4l-11.26-8.74c-.87-.68-1.03-1.93-.35-2.81.68-.87,1.93-1.03,2.81-.35l12.81,9.94c.85.66,1.03,1.86.41,2.73-6.38,9.04-14.66,14.09-23.93,14.62-.51.03-1.03.04-1.55.04Z"/>
  <path class="cls-1" d="M138.83,318c-.13,0-.26-.01-.4-.04-1.08-.22-1.79-1.27-1.57-2.35.21-1.06.38-2.12.55-3.25.39-2.52.79-5.13,1.75-7.59,2.6-6.67,5.47-13.34,8.25-19.79,1.11-2.58,2.22-5.15,3.31-7.73.43-1.02,1.6-1.49,2.62-1.06,1.02.43,1.49,1.6,1.06,2.62-1.1,2.59-2.21,5.17-3.32,7.75-2.76,6.42-5.62,13.06-8.2,19.66-.8,2.06-1.15,4.33-1.53,6.75-.17,1.12-.35,2.28-.58,3.43-.19.95-1.03,1.61-1.96,1.61Z"/>
  <path class="cls-1" d="M256.19,255.76c-1.1,0-2-.9-2-2v-72.16c0-.92.63-1.73,1.53-1.94,3.43-.82,6.61-2.66,9.97-4.61,4.92-2.85,9.98-5.8,16.27-5.66.74.02,1.41.44,1.74,1.1l1.34,2.66c.34.67.27,1.48-.17,2.09l-26.02,35.4c-.18.25-.41.44-.67.58v42.54c0,1.1-.9,2-2,2ZM258.19,183.12v21.67l22.74-30.94-.22-.44c-4.64.26-8.71,2.62-13,5.1-3.02,1.75-6.12,3.54-9.51,4.61Z"/>
  <path class="cls-1" d="M365.6,299.62c-.08,0-.17,0-.26-.02l-19.78-2.55c-.27-.03-.53-.12-.76-.26-7.94-4.7-10.02-12.96-12.03-20.96-.91-3.63-1.85-7.38-3.34-10.71-.45-1.01,0-2.19,1.01-2.64,1.01-.45,2.19,0,2.64,1.01,1.62,3.65,2.61,7.57,3.56,11.36,1.86,7.4,3.62,14.39,9.84,18.28l18.45,2.38c16.83-15.1,20.04-24.84,17.19-51.04-1.92-17.67-3.37-19.28-19.43-21.44-1.09-.15-1.86-1.16-1.71-2.25.15-1.1,1.16-1.86,2.25-1.71,17.97,2.42,20.75,5.46,22.87,24.98,3,27.57-.95,38.89-19.19,55.07-.37.33-.84.5-1.33.5Z"/>
</svg>