<?xml version="1.0" encoding="UTF-8"?>
<svg id="Layer_1" data-name="Layer 1" xmlns="http://www.w3.org/2000/svg" viewBox="0 0 1698.74 1076.82">
  <defs>
    <style>
      .cls-1 {
        stroke-width: 0px;
      }
    </style>
  </defs>
  <g>
    <path class="cls-1" d="m425.01,628.32c-35.99,0-71.14-10.48-104.54-31.18-63.38-39.27-123.49-85.92-181.63-131.03-5.79-4.49-11.57-8.98-17.35-13.46-5.82-4.5-8.43-16.69-8.91-25.75-.24-4.68-.28-16.08,4.71-20.84,84.49-80.85,160.57-140.82,257.24-170.69,10.67-3.29,21.94-4.68,36.22-6.43,7.72-.95,16.48-2.02,26.62-3.57l.87-.13.83.29c7.83,2.76,16.91,5.31,26.53,8,24.08,6.75,51.38,14.4,74.45,29.38,46.8,30.38,91.54,65.49,134.81,99.45,14.77,11.59,30.04,23.58,45.16,35.19,12.04,9.25,18.4,19.59,18.38,29.91-.02,10.02-5.8,19.5-17.17,28.15-15.93,12.13-32.02,24.65-47.58,36.77-44.84,34.91-91.21,71-139.66,102.21-33.98,21.88-69.81,33.22-106.5,33.71-.82.01-1.65.02-2.47.02Zm12.55-395.9c-9.88,1.5-18.41,2.54-25.97,3.47-13.93,1.71-24.94,3.06-35.01,6.17-95.36,29.46-170.69,88.89-254.46,169.06-1.54,1.48-3,6.93-2.55,15.42.49,9.38,3.16,18.22,6.2,20.58,5.79,4.48,11.57,8.97,17.36,13.46,57.99,45,117.96,91.53,181.02,130.61,32.55,20.17,66.73,30.25,100.93,30.25,35.6,0,71.23-10.92,105.11-32.74,48.19-31.04,94.43-67.03,139.15-101.85,15.58-12.12,31.68-24.66,47.64-36.81,9.54-7.27,14.39-14.87,14.41-22.6.02-8.05-5.39-16.47-15.64-24.34-15.15-11.64-30.44-23.63-45.22-35.24-43.15-33.86-87.76-68.88-134.3-99.08-22.18-14.4-48.93-21.9-72.53-28.51-9.4-2.63-18.29-5.12-26.14-7.85Zm-12.17,349.23c-10.98,0-22.01-1.4-32.15-4.21-94.13-26.08-168.03-88.36-241.68-155.33l-3.42-3.11,3.93-2.45c22.48-14,44.38-27.9,65.56-41.34,49.9-31.66,97.02-61.56,145.8-89.17,19.56-11.07,41.43-16.81,63.17-16.56,21.73.24,43.52,6.41,63.03,17.87,46.66,27.4,91.58,56.72,139.14,87.77,20.07,13.1,40.82,26.65,61.98,40.22l3.66,2.35-3.07,3.07c-42.62,42.67-76.73,72.32-110.6,96.14-40.46,28.44-80.72,48.21-123.09,60.42-10.02,2.89-21.11,4.34-32.25,4.34Zm-265.69-161.61c71.87,65.19,144.22,125.38,235.42,150.65,18.94,5.25,42.16,5.21,60.59-.1,92.42-26.64,164.06-88.38,227.61-151.71-19.92-12.8-39.45-25.55-58.37-37.9-47.49-31-92.35-60.28-138.86-87.59-37.87-22.24-81.32-22.69-119.2-1.25-48.62,27.52-95.68,57.38-145.5,88.99-19.96,12.66-40.56,25.73-61.68,38.92Z"/>
    <path class="cls-1" d="m421.56,554.31c-.47,0-.95,0-1.42,0h0c-71.01-.73-126.42-56.91-126.13-127.9.14-34.1,13.38-66.1,37.28-90.1,23.91-24,55.8-37.31,89.81-37.48,34.59-.16,66.95,13.12,91.01,37.42,24.41,24.66,37.57,57.79,37.04,93.29-.51,34.33-14.04,66.04-38.08,89.29-23.7,22.92-55.44,35.49-89.5,35.49Zm-1.35-7.01c67.41.7,120.93-51.09,121.93-117.88.5-33.61-11.93-64.95-35.01-88.26-22.72-22.95-53.29-35.51-86-35.34-65.97.33-119.86,54.43-120.12,120.61-.27,67.09,52.09,120.18,119.2,120.87h0Zm-58.29-109.99l-2.63-4.37c-5.01-8.33-10.22-15.6-14.81-22.01-9.47-13.22-16.32-22.76-14.62-31.9,1.92-10.29,12.56-18.23,22.85-25.91,4.18-3.12,8.5-6.34,12-9.57l2.62-2.41,2.37,2.66c3.2,3.59,7.22,7.26,11.12,10.81,9.59,8.74,19.51,17.79,20.29,28.24.69,9.29-7.36,18.05-18.49,30.17-5.4,5.88-11.52,12.54-17.57,20.29l-3.13,4.02Zm4.93-86.32c-3.14,2.65-6.59,5.23-9.95,7.74-9.21,6.88-18.74,13.99-20.16,21.59-1.16,6.2,5.28,15.18,13.42,26.54,3.88,5.41,8.19,11.42,12.49,18.22,5.16-6.31,10.24-11.84,14.81-16.81,9.57-10.42,17.13-18.64,16.66-24.91-.57-7.67-9.44-15.76-18.02-23.58-3.14-2.86-6.36-5.79-9.25-8.78Z"/>
    <path class="cls-1" d="m361.92,437.32l-2.63-4.37c-5.01-8.33-10.22-15.6-14.81-22.01-9.47-13.22-16.32-22.76-14.62-31.9,1.92-10.29,12.56-18.23,22.85-25.91,4.18-3.12,8.5-6.34,12-9.57l2.62-2.41,2.37,2.66c3.2,3.59,7.22,7.26,11.12,10.81,9.59,8.74,19.51,17.79,20.29,28.23.69,9.29-7.36,18.05-18.49,30.17-5.4,5.88-11.52,12.54-17.57,20.29l-3.13,4.02Zm4.93-86.32c-3.14,2.65-6.59,5.23-9.95,7.74-9.21,6.88-18.74,13.99-20.16,21.59-1.16,6.2,5.28,15.18,13.42,26.54,3.88,5.41,8.19,11.42,12.49,18.22,5.16-6.31,10.24-11.84,14.81-16.81,9.57-10.42,17.13-18.64,16.66-24.91-.57-7.67-9.44-15.76-18.02-23.58-3.14-2.86-6.36-5.79-9.25-8.78Z"/>
  </g>
  <path class="cls-1" d="m1626.06,1076.82c-7.8,0-16.68-2.62-27.72-7.55-46.14-20.6-86.29-39.11-122.73-56.58-52.35-25.1-105.41-50.95-156.72-75.95-114.09-55.59-232.07-113.07-349.81-165.96-11.91-5.35-24.23-10.89-23.48-29.39.22-5.51-5.46-9.33-10.95-13.02-.82-.55-1.62-1.09-2.38-1.62-37.26-25.96-80.33-41.55-121.99-56.64-4.58-1.66-9.15-3.31-13.73-4.99-8.59-3.14-11.68,1.16-16.4,9.04-1.08,1.79-2.19,3.65-3.42,5.33-46.64,63.49-106.74,112.01-178.65,144.21-52.82,23.66-110,35.57-167.97,35.57-45,0-90.46-7.17-134.77-21.6-101.48-33.03-185.31-100.36-236.07-189.59C22.54,583.53,2.69,514.53.24,443.01c-2.3-67.28,11.61-135.03,40.21-195.92,28.54-60.77,71.68-114.61,124.74-155.68C221.6,47.74,287.16,19.05,360.05,6.13c55.95-9.92,112.8-7.8,168.98,6.27,53.98,13.53,104.59,37.35,150.42,70.79,46.18,33.7,84.63,75.07,114.27,122.94,30.84,49.82,50.4,104.02,58.13,161.08,1.99,14.68,3.35,29.67,4.34,40.62.38,4.21.72,7.93,1.03,10.95l.02.2v.2c-.51,46.36-4.5,80.01-13.32,112.52-5.15,18.97-.25,30.41,18.08,42.21,27.26,17.54,57.04,31.15,85.85,44.3,7.29,3.33,14.84,6.78,22.24,10.24,14.14,6.61,23.81,8.13,34.4-2.79,12.18-12.55,27.58-7.55,41.04-1,64.08,31.19,128.16,62.37,192.25,93.55,139.91,68.07,284.58,138.46,426.82,207.79,18.72,9.12,28.32,15.1,32.25,24.36,3.88,9.15,1.54,20.07-4.81,39.64-6.15,18.94-14.37,40.96-28.71,60.67-13.09,17.99-23.51,26.13-37.26,26.13Zm-834.64-419.74c2.23,0,4.72.45,7.54,1.48,4.56,1.67,9.13,3.32,13.71,4.98,42.08,15.24,85.6,30.99,123.61,57.47.73.51,1.5,1.02,2.28,1.55,6.43,4.32,14.43,9.69,14.04,19.11-.56,13.77,7.79,17.52,19.35,22.72,117.84,52.93,235.86,110.44,350,166.05,51.3,25,104.35,50.84,156.68,75.93,36.39,17.45,76.48,35.93,122.56,56.5,27.38,12.22,37.93,9.17,56.47-16.3,13.76-18.91,21.73-40.29,27.71-58.71,11.39-35.09,9.61-39.24-23.85-55.55-142.24-69.33-286.91-139.72-426.82-207.79-64.08-31.18-128.17-62.36-192.25-93.55-11.77-5.73-23.91-9.75-32.96-.42-14.84,15.29-29.66,10.21-42.39,4.26-7.37-3.45-14.9-6.89-22.18-10.21-29.03-13.26-59.04-26.97-86.73-44.78-20.92-13.46-27.02-27.93-21.05-49.93,8.65-31.85,12.56-64.93,13.07-110.56-.31-3.01-.64-6.68-1.02-10.83-.99-10.89-2.34-25.79-4.31-40.32-14.85-109.69-76.66-211.5-169.58-279.31C583.19,21.63,468.73-6.01,361.27,13.03,220.45,37.98,105.83,124.38,46.79,250.07c-59.18,125.99-52.41,269.8,18.56,394.56,102.49,180.17,340.19,257.63,529.87,172.69,70.79-31.7,129.96-79.47,175.87-141.97,1.04-1.41,2.02-3.05,3.06-4.78,3.52-5.87,8.09-13.49,17.27-13.49Zm-364.02,155.16c-49.3,0-97.21-9.28-142.51-27.62-45.71-18.5-86.84-45.4-122.25-79.95-73.26-71.47-114.15-168.09-115.12-272.05-.98-104.13,38.36-201.12,110.76-273.12,34.05-33.86,73.67-60.68,117.75-79.71,44.53-19.23,91.27-29.47,138.91-30.46,106.2-2.2,204.4,34.85,276.54,104.32,73.44,70.73,114.9,169.93,116.75,279.32.82,48.76-8.36,96.67-27.29,142.4-18.24,44.04-44.65,84.11-78.51,119.07-34.81,35.95-75.47,64.47-120.86,84.78-47.12,21.08-96.94,32.17-148.09,32.95-2.02.03-4.05.05-6.06.05Zm-3.55-755.99c-2.92,0-5.84.03-8.78.09C240,59.96,52.37,204.83,54.5,432.56c.96,102.08,41.09,196.94,113.01,267.1,71.34,69.59,165.74,107.09,265.83,105.53,98.13-1.51,194.36-43.64,264.03-115.6,68.55-70.8,105.43-161.89,103.83-256.49-1.82-107.52-42.52-204.97-114.61-274.4-68.79-66.25-161.82-102.45-262.76-102.45Z"/>
</svg>