<?xml version="1.0" encoding="UTF-8"?>
<svg id="Layer_1" data-name="Layer 1" xmlns="http://www.w3.org/2000/svg" viewBox="0 0 519.56 713.83">
  <defs>
    <style>
      .cls-1 {
        fill: #000;
      }

      .cls-1, .cls-2 {
        stroke-width: 0px;
      }

      .cls-2 {
        fill: #fff;
      }
    </style>
  </defs>
  <path class="cls-1" d="M203.55,415.58c11.54,18.65,15,30.52-1.14,43.01-7.5,5.8-7.87,20.07-13.24,29.49-38.26,67.03-77.08,133.74-115.49,200.69-8.74,15.23-20.04,26-38.73,25-29.22-1.57-44.29-31.89-28.69-59.57,29.5-52.37,59.9-104.24,90.02-156.26,16.84-29.09,32.87-58.73,51.5-86.64,4.9-7.34,18.1-9.14,28.76-14.08-106.21-101.83-128.25-213.48-28.38-330.3C209.23-4.53,315.97-18.58,399.8,23.89c82.26,41.67,135.96,136.57,115.34,223.95-39.07,165.57-150.92,209.69-311.59,167.74ZM299.13,394.8c98.21,2.02,179.71-76.66,181.71-175.42,1.97-97.37-78.27-179.58-176.55-180.87-96.7-1.27-177.44,76.13-179.82,172.38-2.5,100.88,74.39,181.85,174.66,183.91Z"/>
  <path class="cls-1" d="M309.94,113.88c14.31,5.05,35.81,8.54,52.53,19.4,32.82,21.3,63.08,46.57,94.19,70.47,11.13,8.55,12.38,18.57.64,27.51-32.38,24.65-63.87,50.76-98,72.74-35.11,22.61-74.48,23.28-109.92,1.32-36.38-22.54-70.2-49.34-104.11-75.6-4.13-3.2-5.48-18.36-2.06-21.64,39.28-37.59,80.73-72.54,134.07-89.02,8.38-2.59,17.49-2.86,32.67-5.18ZM161.13,213.8c41.13,37.4,78.15,67.75,125.9,80.98,10.21,2.83,22.59,2.87,32.75-.06,46.79-13.49,83.2-43.06,121.67-81.57-36.92-23.68-70.43-46.54-105.33-67.03-20.25-11.89-43.97-12.18-64.3-.67-36.48,20.65-71.48,43.93-110.69,68.35Z"/>
  <path class="cls-1" d="M300.65,282.6c-36.22-.37-64.43-28.97-64.28-65.18.14-35.94,28.94-64.85,64.77-65.03,36.77-.18,65.81,29.47,65.25,66.63-.54,36.18-29.26,63.95-65.75,63.58ZM270.32,219.89c9.38-12.03,18.97-18.98,18.51-25.18-.51-6.82-10.27-12.95-16-19.37-6.28,5.79-16.45,10.86-17.71,17.58-1.14,6.11,7.42,14.03,15.19,26.97Z"/>
  <path class="cls-2" d="M270.32,219.89c-7.77-12.94-16.33-20.86-15.19-26.97,1.25-6.73,11.42-11.79,17.71-17.58,5.73,6.43,15.49,12.56,16,19.37.46,6.2-9.13,13.15-18.51,25.18Z"/>
</svg>