<?xml version="1.0" encoding="UTF-8"?>
<svg id="Layer_1" xmlns="http://www.w3.org/2000/svg" viewBox="0 0 1227.5 1208.25">
    <defs>
        <style>.cls-1{fill:inherit;}</style>
    </defs>
    <g>
        <polygon class="cls-1" points="102.58 776.54 104.4 781.26 66.55 781.26 68.37 776.54 102.58 776.54"/><rect class="cls-1" x="276.18" y="774.37" width="32.91" height="6.89"/><path class="cls-1" d="M442.91,774.98c1.88,1.91,3.34,4.01,4.37,6.28h-38.42c1.01-2.33,2.51-4.47,4.43-6.4,3.16-3.17,6.82-5.12,11.01-5.82h7.52c4.2,.72,7.9,2.7,11.09,5.95Z"/><rect class="cls-1" x="677.73" y="776.54" width="97.97" height="4.71"/><rect class="cls-1" x="1111.33" y="772.09" width="32.65" height="9.17"/><polygon class="cls-1" points="109.19 793.72 113.89 805.94 57.02 805.94 61.74 793.72 109.19 793.72"/><rect class="cls-1" x="276.18" y="793.72" width="32.91" height="12.22"/><path class="cls-1" d="M407.5,793.72h41.33c-.68,4.36-2.63,8.17-5.86,11.44-.26,.27-.53,.53-.8,.78h-27.9c-.31-.28-.62-.58-.91-.89-3.17-3.25-5.12-7.02-5.85-11.33Z"/><rect class="cls-1" x="677.73" y="793.72" width="97.97" height="12.22"/><rect class="cls-1" x="1111.33" y="793.72" width="32.65" height="12.22"/><polygon class="cls-1" points="123.71 831.47 88.76 831.47 85.69 823.55 82.59 831.47 47.18 831.47 51.9 819.24 119.01 819.24 123.71 831.47"/><rect class="cls-1" x="185.55" y="822.7" width="28.2" height="8.77"/><path class="cls-1" d="M242.55,819.33c4.26,0,8.71,1.12,13.38,3.37l-3.17,8.77h-34.36c2.2-2.85,4.7-5.21,7.52-7.08,5.07-3.37,10.61-5.06,16.63-5.06Z"/><polygon class="cls-1" points="309.09 822.7 328.61 822.7 328.61 831.47 259.31 831.47 259.31 822.7 276.18 822.7 276.18 819.24 309.09 819.24 309.09 822.7"/><rect class="cls-1" x="411.62" y="822.7" width="32.9" height="8.77"/><rect class="cls-1" x="474.41" y="822.7" width="32.91" height="8.77"/><path class="cls-1" d="M546.18,819.33c12.27,0,22.79,4.05,31.55,12.14h-64.53c5.17-3.85,9.97-6.66,14.39-8.45,6.05-2.47,12.25-3.69,18.58-3.69Z"/><rect class="cls-1" x="709.18" y="819.24" width="34.22" height="12.23"/><path class="cls-1" d="M856.91,819.33c16.17,0,29.96,4.05,41.4,12.14h-81.04c11.2-8.1,24.41-12.14,39.64-12.14Z"/><path class="cls-1" d="M1056.11,827.1c2.63,1.32,5.15,2.78,7.53,4.37h-85.79c1.63-1.06,3.32-2.05,5.06-2.99,11.37-6.11,24.08-9.16,38.13-9.16,13.02,0,24.71,2.59,35.07,7.77Z"/><rect class="cls-1" x="1111.33" y="819.24" width="32.65" height="12.23"/><path class="cls-1" d="M1214.64,831.47h-65.03c4.57-3.36,9.17-6.02,13.78-7.98,6.5-2.78,13.09-4.16,19.76-4.16,12.34,0,22.83,4.05,31.49,12.14Z"/><polygon class="cls-1" points="77.39 844.77 72.61 856.99 37.34 856.99 42.06 844.77 77.39 844.77"/><polygon class="cls-1" points="133.52 856.99 98.69 856.99 93.93 844.77 128.83 844.77 133.52 856.99"/><path class="cls-1" d="M185.55,844.77h62.39l-2.26,6.24c-3.86-1.93-7.03-2.89-9.53-2.89-4.91,0-9.08,2.95-12.51,8.86h-38.09v-12.22Z"/><polygon class="cls-1" points="259.31 844.77 328.61 844.77 328.61 851.02 309.09 851.02 309.09 856.99 276.18 856.99 276.18 851.02 259.31 851.02 259.31 844.77"/><rect class="cls-1" x="411.62" y="844.77" width="32.9" height="12.22"/><path class="cls-1" d="M586.92,844.77c1.48,3.65,2.53,7.73,3.13,12.22h-37.86c-1.01-1.33-2.16-2.51-3.46-3.5-3.49-2.69-7.8-4.04-12.92-4.04-6.66,0-12.36,2.23-17.14,6.69-.3,.28-.59,.57-.88,.85h-43.39v-12.22h112.51Z"/><rect class="cls-1" x="709.18" y="844.77" width="34.22" height="12.22"/><path class="cls-1" d="M919.67,856.99h-35.24c-1.12-1.05-2.33-2.04-3.63-2.96-6.39-4.58-13.82-6.86-22.27-6.86-9.17,0-17.21,2.57-24.14,7.71-.83,.62-1.65,1.32-2.46,2.11h-36.08c2.06-4.32,4.6-8.39,7.61-12.22h108.73c2.94,3.78,5.43,7.85,7.48,12.22Z"/><path class="cls-1" d="M1081.54,849.22l-14.14,7.77h-21.55c-2.33-1.65-4.66-2.96-6.97-3.92-5.02-2.09-10.91-3.13-17.67-3.13-9.84,0-18.18,2.36-25.01,7.06h-41.71c.57-1.12,1.18-2.22,1.84-3.32,1.89-3.17,4-6.13,6.32-8.9h115.57c1.16,1.42,2.27,2.9,3.33,4.44Z"/><path class="cls-1" d="M1226.85,856.99h-37.85c-1.01-1.38-2.18-2.57-3.49-3.55-3.5-2.65-7.82-3.99-12.96-3.99-6.68,0-12.4,2.21-17.18,6.63-.32,.3-.63,.59-.94,.91h-43.1v-12.22h112.38c1.49,3.67,2.53,7.74,3.13,12.22Z"/><polygon class="cls-1" points="67.75 869.44 62.96 881.67 27.83 881.67 32.54 869.44 67.75 869.44"/><polygon class="cls-1" points="143.02 881.67 108.27 881.67 103.52 869.44 138.31 869.44 143.02 881.67"/><path class="cls-1" d="M185.55,869.44h34.16c-.59,3.52-1.01,7.6-1.28,12.23h-32.87v-12.23Z"/><rect class="cls-1" x="276.18" y="869.44" width="32.91" height="12.23"/><rect class="cls-1" x="411.62" y="869.44" width="32.9" height="12.23"/><path class="cls-1" d="M474.41,869.44h35.86c-.58,1.63-1.09,3.36-1.52,5.17-.38,1.62-.68,3.96-.9,7.06h-33.44v-12.23Z"/><path class="cls-1" d="M556.9,869.44h33.8v12.23h-32.8c-.21-5.01-.54-9.08-1-12.23Z"/><rect class="cls-1" x="709.18" y="869.44" width="34.22" height="12.23"/><path class="cls-1" d="M926.21,881.67h-136.85c.35-4.25,1.02-8.32,2-12.23h32.12c-.39,.79-.78,1.59-1.16,2.43h71.34c-.25-.83-.52-1.64-.83-2.43h31.26c.99,3.89,1.7,7.97,2.12,12.23Z"/><path class="cls-1" d="M949.49,869.44h35.27c-2.1,3.7-3.49,7.79-4.22,12.23h-33.39c.41-4.18,1.18-8.27,2.34-12.23Z"/><path class="cls-1" d="M1111.33,869.44h35.5c-.54,1.49-1.01,3.07-1.41,4.71-.39,1.63-.72,4.13-.95,7.52h-33.15v-12.23Z"/><path class="cls-1" d="M1227.5,869.44v12.23h-32.71c-.22-4.97-.58-9.06-1.09-12.23h33.8Z"/><polygon class="cls-1" points="147.81 894.13 152.51 906.35 18.3 906.35 23.01 894.13 147.81 894.13"/><polygon class="cls-1" points="218.09 894.41 218.2 900.79 218.2 906.35 185.55 906.35 185.55 894.13 218.09 894.13 218.09 894.41"/><rect class="cls-1" x="276.18" y="894.13" width="32.91" height="12.22"/><rect class="cls-1" x="411.62" y="894.13" width="32.9" height="12.22"/><path class="cls-1" d="M474.41,894.13h32.96c-.04,2.2-.05,4.55-.05,7.08v5.13h-32.91v-12.22Z"/><path class="cls-1" d="M558.16,894.13h32.54v12.22h-32.53v-9.96c0-.77,0-1.52-.01-2.26Z"/><rect class="cls-1" x="709.18" y="894.13" width="34.22" height="12.22"/><path class="cls-1" d="M926.56,897.78h-105.68c.51,3.07,1.28,5.92,2.33,8.58h-32.26c-.9-3.91-1.48-7.98-1.74-12.22h137.42l-.07,3.64Z"/><path class="cls-1" d="M980.21,894.13c.46,4.44,1.58,8.51,3.37,12.22h-34.58c-1.04-3.94-1.7-8.01-2-12.22h33.21Z"/><path class="cls-1" d="M1111.33,894.13h32.7c-.04,2.18-.05,4.52-.05,7.02v5.2h-32.65v-12.22Z"/><path class="cls-1" d="M1227.5,894.13v12.22h-32.42v-10.02c0-.74,0-1.48-.01-2.2h32.43Z"/><polygon class="cls-1" points="13.18 919.65 48.57 919.65 43.73 931.88 8.45 931.88 13.18 919.65"/><polygon class="cls-1" points="157.62 919.65 162.34 931.88 127.38 931.88 122.74 919.65 157.62 919.65"/><rect class="cls-1" x="185.55" y="919.65" width="32.65" height="12.23"/><rect class="cls-1" x="276.18" y="919.65" width="32.91" height="12.23"/><rect class="cls-1" x="411.62" y="919.65" width="32.9" height="12.23"/><rect class="cls-1" x="474.41" y="919.65" width="32.91" height="12.23"/><rect class="cls-1" x="558.18" y="919.65" width="32.53" height="12.23"/><rect class="cls-1" x="709.18" y="919.65" width="34.22" height="12.23"/><path class="cls-1" d="M899.29,919.65l18.6,8.74c-.85,1.21-1.72,2.37-2.6,3.49h-112.04c-3.04-3.83-5.59-7.91-7.66-12.23h37.12c.14,.14,.27,.25,.41,.36,6.63,5.5,15.08,8.26,25.36,8.26s18.95-2.88,26.69-8.61h14.13Z"/><path class="cls-1" d="M1080.1,929.76c-.56,.73-1.12,1.43-1.69,2.12h-116.27c-3.17-3.9-5.86-7.97-8.03-12.23h40.62c6.74,4.94,15.09,7.4,25.04,7.4s19.04-2.47,26.16-7.4h19.4l14.77,10.11Z"/><rect class="cls-1" x="1111.33" y="919.65" width="32.65" height="12.23"/><rect class="cls-1" x="1195.08" y="919.65" width="32.42" height="12.23"/><polygon class="cls-1" points="3.33 945.19 38.48 945.19 35.07 953.81 0 953.81 3.33 945.19"/><polygon class="cls-1" points="167.45 945.19 170.76 953.81 135.71 953.81 132.42 945.19 167.45 945.19"/><rect class="cls-1" x="185.55" y="945.19" width="32.65" height="8.63"/><rect class="cls-1" x="276.18" y="945.19" width="32.91" height="8.63"/><rect class="cls-1" x="411.62" y="945.19" width="32.9" height="8.63"/><rect class="cls-1" x="474.41" y="945.19" width="32.91" height="8.63"/><rect class="cls-1" x="558.18" y="945.19" width="32.53" height="8.63"/><rect class="cls-1" x="709.18" y="945.19" width="34.22" height="8.63"/><path class="cls-1" d="M817.32,945.19h84.09c-2.65,1.89-5.44,3.53-8.35,4.95-9.64,4.7-21.09,7.06-34.34,7.06-16.15,0-29.95-4-41.39-12.01Z"/><path class="cls-1" d="M976.4,945.19h87.42c-11.9,8.01-26.31,12.01-43.27,12.01s-32.37-4.01-44.15-12.01Z"/><rect class="cls-1" x="1111.33" y="945.19" width="32.65" height="8.63"/><rect class="cls-1" x="1195.08" y="945.19" width="32.42" height="8.63"/></g><g><path class="cls-1" d="M252.79,1047.47c1.1,.56,2.22,1.2,3.34,1.91h-51.41c7.27-4.93,15.77-7.39,25.49-7.39,7.9,0,15.43,1.83,22.58,5.49Z"/><path class="cls-1" d="M667.56,1049.37h-33.55c.88-1.76,2.08-3.41,3.58-4.92,3.65-3.66,8.04-5.49,13.2-5.49s9.57,1.86,13.25,5.59c1.45,1.48,2.63,3.09,3.52,4.82Z"/><path class="cls-1" d="M276.01,1067.49l-4.72,4.17h-36.05c-1.82-.56-3.65-.84-5.49-.84-2.03,0-3.87,.28-5.51,.84h-36.19c1.08-3.92,2.82-7.59,5.2-11.03h76.45c2.06,2.08,4.17,4.38,6.3,6.87Z"/><path class="cls-1" d="M669.42,1060.63c-.5,4.18-2.27,7.81-5.32,10.9l-.13,.13h-26.07l-.24-.24c-3-3.06-4.78-6.67-5.33-10.79h37.1Z"/><path class="cls-1" d="M224.8,1094.71h-35.79c-1.34-3.68-2.1-7.36-2.28-11.04h29.84c.37,1.74,1.18,3.42,2.4,5.01,1.05,1.34,2.99,3.36,5.83,6.03Z"/><path class="cls-1" d="M251.01,1083.67h6.67l-3.98,3.52c-.89-1.25-1.79-2.41-2.69-3.52Z"/><path class="cls-1" d="M359.43,1084.16c14.22,0,26.39,3.52,36.52,10.55h-71.49c9.92-7.03,21.57-10.55,34.97-10.55Z"/><rect class="cls-1" x="438.51" y="1087.18" width="25.18" height="7.53"/><path class="cls-1" d="M489.42,1084.16c3.8,0,7.79,1,11.95,3.02l-2.72,7.53h-30.54c1.9-2.41,4.06-4.42,6.47-6.03,4.52-3.01,9.47-4.52,14.84-4.52Z"/><polygon class="cls-1" points="533.29 1087.18 536.5 1094.71 506.55 1094.71 503.34 1087.18 533.29 1087.18"/><polygon class="cls-1" points="592.38 1087.18 622.16 1087.18 618.96 1094.71 589.16 1094.71 592.38 1087.18"/><rect class="cls-1" x="636.1" y="1087.18" width="29.38" height="7.53"/><path class="cls-1" d="M784.09,1091.11c2.18,1.09,4.26,2.29,6.26,3.6h-75.7c1.31-.83,2.67-1.62,4.07-2.37,10.15-5.44,21.5-8.18,34.06-8.18,11.62,0,22.05,2.31,31.31,6.94Z"/><path class="cls-1" d="M888.36,1084.16c14.23,0,26.4,3.52,36.52,10.55h-71.48c9.91-7.03,21.57-10.55,34.96-10.55Z"/><path class="cls-1" d="M1037.59,1094.71h-58.21c.24-.24,.48-.46,.73-.69,7.14-6.57,16.27-9.85,27.39-9.85,7.6,0,14.77,1.68,21.47,5,3.1,1.53,5.97,3.38,8.63,5.54Z"/><path class="cls-1" d="M241.08,1109.03c3.99,3.34,7.43,6.25,10.33,8.73h-46.05c-4.22-4.18-7.49-7.86-9.84-11.04h42.85c.87,.75,1.79,1.52,2.72,2.31Z"/><path class="cls-1" d="M415.46,1117.75h-31.51c-.98-.91-2.05-1.77-3.18-2.59-5.71-4.09-12.34-6.14-19.88-6.14-8.2,0-15.38,2.3-21.57,6.89-.73,.54-1.44,1.16-2.15,1.84h-32.23c1.87-3.91,4.18-7.59,6.91-11.04h96.8c2.69,3.42,4.95,7.1,6.81,11.04Z"/><path class="cls-1" d="M438.51,1106.71h55.78l-2.08,5.76c-3.44-1.73-6.28-2.59-8.5-2.59-4.37,0-8.1,2.62-11.15,7.87h-34.05v-11.04Z"/><polygon class="cls-1" points="541.65 1106.71 546.38 1117.75 516.38 1117.75 511.68 1106.71 541.65 1106.71"/><polygon class="cls-1" points="584.03 1106.71 613.85 1106.71 609.15 1117.75 579.32 1117.75 584.03 1106.71"/><rect class="cls-1" x="636.1" y="1106.71" width="29.38" height="11.04"/><path class="cls-1" d="M806.81,1110.85l-12.54,6.9h-19.41c-2.06-1.47-4.1-2.61-6.14-3.45-4.5-1.87-9.75-2.8-15.79-2.8-8.75,0-16.18,2.07-22.26,6.25h-37.3c.51-.98,1.05-1.96,1.62-2.92,1.72-2.89,3.65-5.6,5.79-8.12h102.92c1.09,1.32,2.13,2.71,3.12,4.14Z"/><path class="cls-1" d="M937.58,1106.71c2.68,3.42,4.95,7.1,6.81,11.04h-31.51c-.99-.91-2.05-1.77-3.18-2.59-5.71-4.09-12.34-6.14-19.89-6.14-8.19,0-15.37,2.3-21.56,6.89-.73,.54-1.44,1.16-2.15,1.84h-32.24c1.88-3.91,4.19-7.59,6.93-11.04h96.79Z"/><path class="cls-1" d="M1042.85,1106.71l-11.04,11.04h-8.34c-5.69-4.67-10.93-7.01-15.75-7.01-3.31,0-5.88,.71-7.75,2.1-1.77,1.33-2.7,2.96-2.78,4.9h-27.79c0-3.93,.64-7.6,1.93-11.04h71.52Z"/><path class="cls-1" d="M263.7,1128.98c3.56,3.78,6.45,7.46,8.64,11.03h-41.57c-.99-.83-2.03-1.69-3.12-2.58-3.63-2.95-6.99-5.77-10.07-8.45h46.12Z"/><path class="cls-1" d="M421.33,1140.01h-122.24c.31-3.82,.9-7.5,1.8-11.03h28.65c-.34,.68-.67,1.38-1,2.1h63.71c-.21-.72-.45-1.42-.72-2.1h27.9c.89,3.5,1.52,7.19,1.9,11.03Z"/><path class="cls-1" d="M438.51,1128.98h30.49c-.53,3.17-.9,6.85-1.15,11.03h-29.35v-11.03Z"/><polygon class="cls-1" points="551.18 1128.98 555.9 1140.01 525.88 1140.01 521.18 1128.98 551.18 1128.98"/><polygon class="cls-1" points="574.52 1128.98 604.38 1128.98 599.68 1140.01 569.81 1140.01 574.52 1128.98"/><rect class="cls-1" x="636.1" y="1128.98" width="29.38" height="11.03"/><path class="cls-1" d="M688.86,1128.98h31.48c-1.87,3.34-3.13,7.01-3.76,11.03h-29.81c.35-3.78,1.05-7.46,2.08-11.03Z"/><path class="cls-1" d="M948.37,1128.98c.89,3.5,1.52,7.19,1.9,11.03h-122.24c.3-3.82,.9-7.5,1.79-11.03h28.66c-.34,.68-.67,1.38-1,2.1h63.71c-.21-.72-.45-1.42-.72-2.1h27.9Z"/><path class="cls-1" d="M1030.37,1140.01h-51.67c-3.23-3.47-5.62-7.14-7.16-11.03h38.43l8.51,4.25c4.54,2.24,8.51,4.5,11.9,6.78Z"/><path class="cls-1" d="M204.59,1158.64c.69,1.29,1.41,2.51,2.13,3.67h-8.21l6.08-3.67Z"/><path class="cls-1" d="M277.26,1151.28c.95,3.49,1.47,7.17,1.54,11.03h-29.79c-.45-2.81-1.72-5.6-3.79-8.41-.57-.78-1.31-1.65-2.2-2.62h34.24Z"/><path class="cls-1" d="M299.01,1151.28h122.68l-.06,2.95h-94.38c.47,2.9,1.22,5.59,2.26,8.08h-28.86c-.86-3.53-1.4-7.21-1.64-11.03Z"/><polygon class="cls-1" points="467.57 1151.28 467.68 1156.92 467.68 1162.31 438.51 1162.31 438.51 1151.28 467.57 1151.28"/><polygon class="cls-1" points="594.89 1151.28 590.19 1162.31 535.39 1162.31 530.69 1151.28 560.73 1151.28 562.86 1156.27 565 1151.28 594.89 1151.28"/><rect class="cls-1" x="636.1" y="1151.28" width="29.38" height="11.03"/><path class="cls-1" d="M716.35,1151.28c.45,4.01,1.51,7.69,3.18,11.03h-30.98c-.96-3.56-1.59-7.24-1.87-11.03h29.67Z"/><path class="cls-1" d="M950.56,1154.23h-94.39c.47,2.9,1.23,5.59,2.27,8.08h-28.87c-.86-3.53-1.4-7.21-1.64-11.03h122.69l-.06,2.95Z"/><path class="cls-1" d="M1047.26,1162.31h-33.19c-1.75-1.27-3.87-2.53-6.35-3.78l-9.91-4.95c-1.49-.75-2.93-1.52-4.3-2.3h48.96c2.28,3.35,3.88,7.03,4.78,11.03Z"/><path class="cls-1" d="M277.62,1174.32c-.89,3.93-2.3,7.6-4.23,11.03h-87.3c-2.36-3.31-4.56-6.98-6.61-11.03h37.34c4.4,3.54,9.09,5.3,14.07,5.3s9.52-1.5,13.05-4.52c.3-.25,.58-.52,.85-.78h32.84Z"/><path class="cls-1" d="M413.88,1181.56c-.93,1.31-1.88,2.58-2.87,3.79h-98.96c-2.82-3.45-5.19-7.13-7.11-11.03h33.53c5.86,4.76,13.31,7.13,22.35,7.13s16.31-2.37,23.03-7.13h14.6l15.42,7.24Z"/><rect class="cls-1" x="438.51" y="1174.32" width="29.17" height="11.03"/><polygon class="cls-1" points="540.52 1174.32 585.08 1174.32 580.39 1185.35 545.22 1185.35 540.52 1174.32"/><rect class="cls-1" x="636.1" y="1174.32" width="29.38" height="11.03"/><path class="cls-1" d="M805.52,1182.78c-.67,.88-1.37,1.73-2.08,2.57h-102.71c-2.93-3.52-5.41-7.19-7.44-11.03h36.77c5.88,4.04,13.07,6.06,21.58,6.06s16.33-2.02,22.53-6.06h18.99l12.36,8.46Z"/><path class="cls-1" d="M927.4,1174.32l15.42,7.24c-.93,1.31-1.88,2.58-2.88,3.79h-98.96c-2.82-3.45-5.19-7.13-7.11-11.03h33.55c5.87,4.76,13.31,7.13,22.34,7.13s16.31-2.37,23.04-7.13h14.6Z"/><path class="cls-1" d="M1048.03,1174.32c-.34,3.95-1.28,7.61-2.81,11.03h-78.35l10.12-11.03h13.52c1.52,1.1,3.11,2.09,4.78,2.99,4.63,2.48,8.73,3.71,12.32,3.71,3.88,0,7-.93,9.37-2.8,1.5-1.18,2.52-2.48,3.06-3.9h27.99Z"/><path class="cls-1" d="M197.22,1197.36h66.08c-8.68,7.26-19.7,10.89-33.07,10.89-11.28,0-21.1-2.77-29.47-8.29-1.2-.79-2.38-1.65-3.54-2.6Z"/><path class="cls-1" d="M325.26,1197.36h72.77c-2.03,1.36-4.12,2.57-6.3,3.63-8.62,4.2-18.83,6.29-30.68,6.29-13.86,0-25.8-3.31-35.78-9.92Z"/><rect class="cls-1" x="438.51" y="1197.36" width="29.17" height="6.91"/><polygon class="cls-1" points="550.35 1197.36 575.27 1197.36 572.33 1204.27 553.29 1204.27 550.35 1197.36"/><rect class="cls-1" x="636.1" y="1197.36" width="29.38" height="6.91"/><path class="cls-1" d="M714.14,1197.36h75.62c-10.38,6.61-22.86,9.92-37.41,9.92s-27.89-3.31-38.21-9.92Z"/><path class="cls-1" d="M854.19,1197.36h72.76c-2.03,1.36-4.12,2.57-6.3,3.63-8.61,4.2-18.83,6.29-30.67,6.29-13.87,0-25.8-3.31-35.78-9.92Z"/><path class="cls-1" d="M1036.12,1197.36c-7.58,6.61-17.62,9.92-30.14,9.92s-22.33-3.31-30.92-9.92h61.06Z"/></g><g><path class="cls-1" d="M.46,153.99v137.64H550.55V153.99H.46ZM.46,390.18v137.69H550.55v-137.69H.46Z"/><path class="cls-1" d="M1128.77,229.43l-119.59-60.78-109.89-55.82-119.59-60.78L677.25,0V137.24l60.61,31.41,117.28,60.78,107.86,55.88,106.85,55.37-2.82,1.47-107.81,55.88-109.89,56.95-107.81,55.88-64.28,33.32v137.69l106.85-54.41,109.61-55.82,119.37-60.78,109.72-55.88,104.54-53.23v-122.24l-98.56-50.07Z"/>
    </g>
</svg>