<?xml version="1.0" encoding="utf-8"?>
<!-- Generator: Adobe Illustrator 27.9.3, SVG Export Plug-In . SVG Version: 9.03 Build 53313)  -->
<svg version="1.1" id="Layer_1" xmlns="http://www.w3.org/2000/svg" xmlns:xlink="http://www.w3.org/1999/xlink" x="0px" y="0px"
	 viewBox="0 0 1068.1 1013.5" style="enable-background:new 0 0 1068.1 1013.5;" xml:space="preserve">
<style type="text/css">
	.st0{fill:#FFECEC;}
</style>
<path class="st0" d="M300,392c0,0.2,0,0.3,0,0.5L300,392L300,392z"/>
<path class="st0" d="M399,392.5c0-0.2,0-0.3,0-0.5h0V392.5z"/>
<path class="st0" d="M468.1,282.7c-3.5-5-3.5-5.7,0.6-11c1.9,3.2,2.9,6.4,3.2,9.7c0.1,1.3-0.1,2.8-1.6,3.2
	C469.1,285,468.7,283.6,468.1,282.7L468.1,282.7z"/>
<path class="st0" d="M759.5,385.4c-0.2-5.2,0.2-10.5-0.5-15.9c3.3,8.3,8.4,15.8,11.7,24.1c0.8,2,1.6,4,2.8,5.8c3,4.6,5,9.5,4.3,15.1
	c0,0.2,0.1,0.4,0,0.6c-0.3,1.7,2.2,3.6,0.3,5c-1.2,0.9-3.3,0.8-4.9,1.2c-0.1,0-0.2,0-0.3,0.1c-8.9,1.7-9.2,1.6-10.7-7.5
	C760.6,404.4,759.8,394.9,759.5,385.4L759.5,385.4z"/>
<g>
	<path d="M768.5,1013.5c-63.4,0-122.9-24.6-167.6-69.4c-36.3-36.3-59.4-82.5-66.8-132.5c-7.4,50-30.5,96.1-66.8,132.5
		c-44.7,44.7-104.3,69.4-167.6,69.4v-5c126,0,228.8-100.9,231.9-226.2c0-1.9-0.1-3.9-0.1-5.8V774h5.1v2.5c0,1.9,0,3.9-0.1,5.8
		c3.1,125.3,105.9,226.2,231.9,226.2V1013.5z"/>
	<rect x="531.6" y="609" width="5" height="167"/>
</g>
<path d="M300,392L300,392l0,0.5C299.9,392.3,300,392.2,300,392L300,392z"/>
<path d="M399,392L399,392c0,0.2,0,0.3,0,0.5V392L399,392z"/>
<g>
	<g>
		<g>
			<path d="M178.3,433c0,0,0.1,0,0.1,0c3.9,1,9.3,14.8,9.3,35v0.7c-0.1,20.5-5.5,33.1-9.2,34.2H175c0.2-0.4,0.4-0.7,0.6-1
				c3.8-6.9,6.2-18.6,6.4-31.5c0-0.2,0-0.3,0-0.5c0-0.3,0-0.6,0-0.9c0-0.3,0-0.7,0-1s0-0.7,0-1c0-0.3,0-0.6,0-1
				c-0.2-13-2.6-25-6.5-32c-0.2-0.4-0.4-0.7-0.6-1H178.3 M178.5,430h-11.6c0.1,0,0.2,0,0.2,0h0c1.8,0.3,3.6,1.8,5.1,4.2
				c0.3,0.4,0.5,0.8,0.8,1.3c3.5,6.4,5.9,17.6,6.1,30.6c0,0.6,0,1.3,0,1.9s0,1.3,0,1.9c0,0.1,0,0.2,0,0.4
				c-0.2,12.8-2.6,23.9-6.1,30.2c-0.2,0.5-0.5,0.9-0.8,1.3c-1.5,2.4-3.2,3.8-5,4.1c0,0-0.1,0-0.1,0h11.6l0.3-0.1
				c6.4-1.5,11.5-17.5,11.6-37.1V468c0-20-5.1-36.3-11.6-37.9C178.9,430.1,178.7,430.1,178.5,430L178.5,430L178.5,430z"/>
			<path d="M172.8,500.2h-11.6c1.8,3.3,3.8,5.4,6,5.7c0,0,0.1,0,0.1,0c0.2,0,0.4,0,0.6,0c0.1,0,0.2,0,0.4,0c0.1,0,0.1,0,0.2,0
				c0.1,0,0.1,0,0.1,0c1.8-0.3,3.6-1.8,5.1-4.2c-0.3-0.4-0.5-0.8-0.8-1.3c0,0,0,0,0,0C172.9,500.4,172.9,500.3,172.8,500.2
				L172.8,500.2L172.8,500.2z"/>
			<path d="M167.9,430c-0.2,0-0.4,0-0.6,0c-0.1,0-0.1,0-0.2,0h0c-2.1,0.4-4.2,2.5-5.9,5.7h11.6c0-0.1,0.1-0.2,0.1-0.2c0,0,0,0,0,0
				c0.3-0.5,0.5-0.9,0.8-1.3c-1.6-2.5-3.4-3.9-5.3-4.2c0,0-0.1,0-0.1,0h-0.1C168.2,430,168.1,430,167.9,430L167.9,430L167.9,430z"/>
		</g>
		<path d="M167.9,508.5c-0.3,0-0.6,0-0.8,0l0,0c-0.1,0-0.1,0-0.2,0l0.2-1.2v-0.8l-0.3,1.9c-3-0.5-5.6-2.9-7.8-7l-1.9-3.7h14.5
			c2.9-6.3,4.7-16.4,5-27.4l0-0.1c0-0.1,0-0.1,0-0.2l0-1.9l0-1.9c-0.2-11.2-2-21.4-5-27.8h-14.5l1.9-3.7c2.2-4.1,4.7-6.4,7.6-7
			l0.2,0.9l0.1-1h0.3c0.5-0.1,1-0.1,1.4,0c0.1,0,0.1,0,0.2,0h1.8v-1.8l1,1.8l7.3,0c0.3,0,0.5,0.1,0.8,0.1l0.1,0
			c9.3,2.2,13.5,22.5,13.5,40.3v0.8c-0.1,17.5-4.4,37.4-13.5,39.6l-0.7,0.1l-10.4,0C168.3,508.5,168.1,508.5,167.9,508.5z
			 M167.7,503.5c0.1,0,0.2,0,0.3,0c0.2,0,0.3,0,0.5,0l10,0c4-1.1,9.5-13.6,9.7-34.7V468c0-21.2-5.7-34.4-9.7-35.4
			c-0.1,0-0.1,0-0.2,0h-4.1l1,1.8c3.8,6.9,6.2,18.8,6.4,31.7l0,2l0,1.9c0,0.2,0,0.3,0,0.5c-0.3,12.8-2.6,24.4-6.4,31.3l-0.7,1.3h-4
			l0-0.3h-4.3C166.7,503.1,167.2,503.4,167.7,503.5L167.7,503.5z M166.1,433.3h4.3v-0.8l-2.5,0c-0.1,0-0.2,0-0.2,0l-0.1,0
			C167.1,432.6,166.6,432.9,166.1,433.3z M166.6,432l-0.1,0.5c0,0,0.1,0,0.1,0L166.6,432z M141.5,425.5c-24.6,0-45.5-5.9-50.6-14.4
			l-0.4-0.6v-6h0.6c3.9-10.5,28.1-16,51.4-16c21.5,0,40.4,4.5,48.1,11.4l0.2,0.2c1.6,1.8,2.5,3.7,2.7,5.6c0,0.3,0,0.5,0,0.8
			C193.5,418.8,166.7,425.5,141.5,425.5z M95.5,409c4.3,5.7,21.4,11.5,46,11.5c29.1,0,47-8.2,47-14c0-0.1,0-0.1,0-0.2l0-0.1
			c-0.1-0.9-0.5-1.8-1.3-2.7c-6.8-6-24.7-10-44.6-10c-27,0-46.4,7.2-47,13.7l0,0.2V409z M36.9,391.2C13.5,373.6,0,346.6,0,317.3
			c0-43.7,30.5-80.5,71.3-90.1C30.5,217.7,0.1,181,0,137.4C0,87,40.4,45.9,90.5,44.9C91.7,20,112.3,0,137.5,0
			c25.2,0,45.8,20,47,44.9c50,1,90.5,42.1,90.5,92.3c0,50.1-40.1,91.1-89.9,92.5c-1.4,49.8-42.4,89.8-92.5,89.8l-0.7,0
			c-23.2,0.3-42,19.3-42,42.5c0,7.8,2.1,15.4,6.1,22l-4.3,2.6c-4.5-7.4-6.8-15.9-6.9-24.5c0-26.2,21.3-47.5,47.5-47.5l0.7,0
			c47-0.3,85.5-38,86.9-84.8h-2.3l7.4-10.8v5.8c47-1.4,84.9-40.1,84.9-87.5c-0.1-48.2-39.3-87.4-87.5-87.4h-0.8l-2.2-1.5V47
			c0-23.2-18.8-42-42-42c-23.2,0-42,18.9-42,42v1.3l-2.2,1.5h-0.8C44.3,49.9,5,89.1,5,137.4c0.1,48.2,39.3,87.4,87.5,87.4H95v5
			l-2.5,0.1C44.3,229.8,5,269.1,5,317.3c0,27.7,12.8,53.2,34.9,69.8L36.9,391.2z"/>
		<path d="M142.5,522.5c-23.8,0-49-5.9-51.8-17h-0.2l0-1.6c0-0.1,0-0.3,0-0.4c0-0.1,0-0.1,0-0.2l0-0.3V400.9l4.6,7.6
			c3.5,5.8,21,12,46.4,12c29.1,0,47-8.2,47-14c0-0.1,0-0.1,0-0.2c-0.1-1-0.6-1.9-1.4-2.8l3.5-3.5c1.6,1.4,2.7,3,3.4,4.6h0.6v101
			h-0.2C191.5,516.6,166.3,522.5,142.5,522.5z M95.5,500.5h0.3l-0.3,2.8c0,0.1,0,0.1,0,0.2c0,5.8,17.9,14,47,14s47-8.2,47-14
			c0-0.1,0-0.1,0-0.2l-0.3-2.8h0.3v-5.2c-2.2,6.9-5.5,12-9.9,13.1l-0.7,0.1h-7.5l-1,1.8v-1.8l-2.2,0c-0.4,0-0.8,0-1.2,0l0,0
			c-0.1,0-0.1,0-0.2,0l0.1-0.7l-0.1-0.6l-0.2,1.3c-3-0.5-5.6-2.9-7.8-7l-1.9-3.7h14.5c2.9-6.3,4.7-16.4,5-27.4l0-0.1
			c0-0.1,0-0.1,0-0.2l0-1.9l0-1.9c-0.2-11.2-2-21.4-5-27.8h-14.5l1.9-3.7c2.2-4.1,4.7-6.4,7.6-7l0.2,0.9l0.1-1h0.3
			c0.5-0.1,0.9-0.1,1.4,0l2,0v-1.8l1,1.8l7.3,0c0.3,0,0.5,0.1,0.8,0.1l0.1,0c4.4,1.1,7.6,6.1,9.9,13v-26.5
			c-8.4,7.4-28.7,11.3-48,11.3c-19.9,0-37.3-3.9-46-9.8V500.5z M167.7,503.5c0.1,0,0.2,0,0.2,0c0.1,0,0.1,0,0.2,0c0.1,0,0.3,0,0.4,0
			h2v-0.8h-4.3C166.7,503.1,167.2,503.4,167.7,503.5L167.7,503.5z M174.2,503.5l4.3,0c4-1.1,9.5-13.6,9.7-34.7V468
			c0-21.2-5.7-34.4-9.7-35.4c-0.1,0-0.1,0-0.2,0h-4.1l1,1.8c3.8,6.9,6.2,18.8,6.4,31.7l0,2l0,1.9c0,0.2,0,0.3,0,0.5
			c-0.3,12.8-2.6,24.4-6.4,31.3L174.2,503.5z M166.1,433.3h4.3v-0.8l-2.5,0c-0.1,0-0.1,0-0.2,0l-0.1,0
			C167.1,432.6,166.6,432.9,166.1,433.3z M166.6,432l-0.1,0.5c0,0,0.1,0,0.1,0L166.6,432z"/>
		<path d="M141.5,425.5c-24.6,0-45.5-5.9-50.6-14.4c-0.9-1.5-1.4-3-1.4-4.6c0-0.3,0-0.5,0-0.8c1-11.9,26.9-18.2,52-18.2
			c22.7,0,42.6,5.1,49.3,12.6c1.6,1.8,2.5,3.7,2.7,5.7c0,0.2,0,0.5,0,0.7C193.5,418.8,166.7,425.5,141.5,425.5z M141.5,392.5
			c-27,0-46.4,7.2-47,13.7c0,0.1,0,0.2,0,0.3c0,0.7,0.2,1.3,0.6,2c3.6,5.8,21,12,46.4,12c29.1,0,47-8.2,47-14c0-0.1,0-0.1,0-0.2
			c-0.1-1-0.6-1.9-1.4-2.8C182.4,398.2,166.1,392.5,141.5,392.5z"/>
		<path d="M91.5,408.5c-16.8,0-32-8.6-40.7-22.9l4.3-2.6c7.8,12.8,21.4,20.5,36.4,20.5V408.5z"/>
		<path d="M91.5,408.7c-20.3,0-39.5-6.4-55.6-18.5l3-4c15.2,11.5,33.4,17.5,52.6,17.5V408.7z"/>
	</g>
	<path d="M500.5,531.1c-1.4,0-2.6-0.4-3.5-1.2c-1.5-1.4-1.7-3.5-1.7-4.9c0.1-9.8,0.1-19.8,0-29.4c0-3.5,0-7,0-10.5
		c0-0.1,0-0.2,0-0.3c0,0,0,0-0.1,0c-3.1,1.8-6.1,1.8-9,0.1c-1.4-0.9-2.9-1.7-4.2-2.4c-2.8,3.7-7.3,3.3-9.2,3.1
		c-2.7-0.3-5.5-0.4-8.3-0.5c-3.8-0.1-7.8-0.3-11.8-0.8c-4.8-0.7-8.6,0.4-11.4,3.1c-4,3.9-8.3,4.8-13.1,2.8l-0.8-0.3
		c-6.7-2.7-13.7-5.5-19.5-10.3c-6.8-5.6-14.7-7.2-24.4-7.9c-24.2-1.7-48.8-1.5-72.6-1.3c-12.2,0.1-24.8,0.2-37.1,0.1
		c-19.2-0.2-38.4-0.1-56.4,0c-1.4,0-5.5,0-6.5-3.9c-0.2-0.8-0.3-1.8-0.2-3c0.4-4.7,0-7.7-2.9-10.3c-1.6-1.4-2.4-3.4-2.3-5.7
		c0.2-2.7,1.7-5.3,4-6.9c1.9-1.4,3.9-2.6,5.9-3.8c1.1-0.7,2.3-1.4,3.4-2.1c7-4.5,10.9-10.2,12-17.6c1.6-10.7,3.6-22,8.9-32.6
		c1.3-2.7,1.3-6,1.2-9.3l0-0.9c-0.1-10.1,1.7-20.1,3.5-29.7c0.3-1.8,0.6-3.5,1-5.3c2.1-11.5,5.6-22.3,8.8-31.4
		c0.7-2.1,1.2-4.2,1.6-6.5c0.5-2.7,1.1-5.5,2.2-8.2c2.8-7.2,7.6-12.9,11.8-18c1.3-1.5,2.7-2.8,4.1-4l0.1-0.1c3-2.7,6.4-4.3,9.9-4.7
		c4.6-0.6,9-1.7,13.7-3c2.6-0.7,5.3-1.4,8-2c0.2,0,0.3-0.1,0.4-0.1c-0.1-0.2-0.3-0.4-0.4-0.6c-0.8-1.1-1.7-2.3-2.5-3.7
		c-0.6-1.1-0.8-2.3-0.6-3.3c0.3-0.9,0.9-1.7,1.8-2.2c1.4-0.7,3.5-0.7,5.1,1.6l0.5,0.8c1.6,2.4,2.7,3.9,4.7,4.3
		c4,0.8,8.2,0.4,13.2-1.3c2.5-0.9,2.4-1.7,2.3-2.4c-0.2-1.1-1.5-1.9-3.2-1.8c-2.3,0.1-4.6-0.3-7-1.3c-3-1.2-4.4-4.2-3.3-7.1
		c0.6-1.6,1.6-2.3,2.3-2.6c1.6-0.7,3.2-0.2,4.4,0.3c-0.2-0.9-0.2-1.8-0.3-2.7c-0.1-0.9-0.1-1.8-0.3-2.6c-0.8-3.7-1.8-7.3-4.1-10.2
		c-0.7-0.9-1.3-1.9-1.8-3.1c-0.1-0.2-0.2-0.5-0.4-0.7c-0.6-1.1-2.3-4.4,0.7-6.4c1.2-0.8,2.3-0.8,3-0.6c1.7,0.4,2.6,1.8,3.2,2.7
		c0.1,0.2,0.3,0.5,0.4,0.6c0.8,0.8,1.2,1.3,1.4,1.5c0.3-0.2,0.8-0.6,1.7-1.4c2.4-2.1,3.6-4.6,3.9-7.6c0.2-3.4,1.2-6.6,2.8-9.3
		c5.8-10,9.9-21.5,13.6-37.3c1-4.4,2.6-7.9,4.9-10.9c1.5-2,2.9-4.1,4.3-6.4c2.5-3.9,5-8,8.8-11.3c1.5-1.3,3.3-2.7,5.9-3.5
		c6.7-2,13.9-3.8,21.6-3c1.4,0.1,2.6,0,3.6-0.4c8.4-3.4,16.2-0.9,22.9,1.7c4.4,1.7,8.3,3.2,12.3,3.7c13.4,1.7,20.6,11,26.9,20.3
		c2.4,3.5,4.5,7.3,6.6,10.9c3.3,5.7,6.7,11.5,10.9,16.6c3.5,4.3,6.4,8.9,9.2,13.3c0.6,1,1.2,1.9,1.8,2.9c3.1,4.9,3,10.1-0.2,15.1
		c-3.8,5.8-3.5,12.1-2.9,18.5c0.1,1.1,0.2,2.1,0.3,3.2c0.5,4.8,1.1,9.8,0.7,14.9c-0.2,2.3-0.7,4.6-1.8,7.3c-0.2,0.6-0.2,0.8-0.2,0.8
		c0,0,0,0,0,0c0,0,0.2,0.3,1.1,0.6c1.5,0.5,3.1,0.5,5.1-0.1c0.9-0.3,1.7-0.7,2.7-1.1c0.5-0.2,1-0.5,1.6-0.7c0.1,0,0.2-0.1,0.2-0.1
		c3.4-1.6,4.8,0.7,5.2,1.5c0.7,1.3,0.9,3.3-1.9,5.2c-0.3,0.2-0.6,0.4-0.9,0.6c0.2,0.1,0.3,0.3,0.4,0.4c0.6,0.7,1.9,2.7-0.4,5.3
		c-2.1,2.4-4.8,2.4-6.7,2.4l-0.5,0c-1.7,0-3.3,0.1-4.1,0.2c0,0.8,0.2,2.5,0.5,4.1c1.4,9.2-0.9,17.7-3,24c-0.9,2.7-3.1,3.9-4.6,4.7
		c-0.2,0.1-0.4,0.2-0.4,0.3c0,0,0.1,0.1,0.1,0.2c5.1,8.1,4,16.6,3,24.7c-0.1,1-0.2,1.9-0.3,2.9c-1.2,10.2-4.3,19.9-7.2,29.2
		c-1.2,3.9-2.5,7.9-3.6,11.9c-3,10.5-6.1,23.1-6.9,36.4c-0.1,1.4,0.1,1.7,0.2,1.7l0,0c0,0,0.3,0.2,1.3,0.2c6.8-0.2,8.1,4.1,8.2,6.8
		c0,0,0.1,0,0.2,0c0.1-0.2,0.2-0.4,0.2-0.6l0.4-1.1c1.6-4.4,3.2-8.8,4.8-13.2c0.1-0.3,0.2-0.6,0.3-0.9c0.4-1.2,0.8-2.5,1.8-3.7
		c3.6-4.3,4.1-9.7,4.6-15.4c0.1-1,0.2-2.1,0.3-3.1l0.1-0.7c0.8-7.6,1.7-15.5,7.1-22.2c0,0,0,0,0-0.1c0.2-3.7,1.3-7.2,2.3-10.5
		c1-3.2,1.9-6.1,2.1-9.2c0.2-3,0.8-5.7,1.8-8.2c2-5.2,2.8-11.1,2.7-18.4c-0.1-3.2,0.8-6,1.6-8.8c0.7-2.4,1.4-4.7,1.4-7
		c0-2.7,0.7-5.4,1.4-7.9c1.5-5.5,1.7-10.9,0.7-16.4c-1.7-9.6,0.9-18.7,3.8-27.1c1-3.1,3.7-4.4,5.5-5.2c10.2-4.9,21.1-8.3,31.6-11.5
		c2.2-0.7,4.5-1.4,6.7-2.1c0.8-0.2,1.5-0.5,2.3-0.7c2.2-0.7,4.4-1.3,6.5-2.1c8-2.9,16.5-5.8,25.6-6.5c0.9-0.1,1.3-0.2,1.5-0.2
		c0-0.2,0.1-0.8-0.1-1.9c-0.4-3.5-1.4-6.4-3.1-9.2c-3.8-6.3-3.2-13.4-2.4-19.5l0.2-1.4c0.7-5.6,1.5-11.3,5.2-16.4c0-0.1,0-0.3,0-0.4
		c-1.1-6.3-0.4-12.5,0.2-18.5l0.2-1.4c0-0.2,0.1-0.4,0.1-0.6c0-0.1,0-0.1,0-0.2c-2.5-4.9,0.8-8.3,2.8-10.4l0.4-0.4
		c1.3-1.4,2.6-2.7,4-4.1c2.6-2.6,5.3-5.4,7.7-8.2c2.7-3.2,6.2-5.6,10.2-7.1c1.8-0.7,2.2-1.4,2.3-2.5c0.7-5.3,4.1-8.8,9.5-9.8
		c2.7-0.5,4.6-1.9,6-4.2c1.1-1.8,2.4-2.9,4-3.2c1.7-0.4,3.4,0.1,5.3,1.4l0.2,0.1c3.2,2.1,6,2,9.1-0.4c0.6-0.4,1.1-1,1.7-1.5
		c0.6-0.6,1.2-1.1,1.9-1.7c4-3.2,8.3-3.9,12.7-2.2c1.6,0.6,3.1,1.4,4.6,2.1c2.9,1.4,5.6,2.8,8.5,3.1c2.2,0.2,3.9,1.9,4.3,2.5
		c4.1,4.5,9.6,7.7,14.4,10.5c8,4.6,11.9,12.1,15.2,19.3c4.1,8.9,3.3,18,1.9,26.4c-2,11.6-4.2,24.8-11.7,36.2
		c-0.1,0.2-0.2,0.3,0.1,0.9c3.1,6.8,3,13.9-0.3,21.1c-1.3,2.9-2.9,5.7-4.3,8.4c-0.5,0.8-0.9,1.7-1.4,2.5c7.9,0.4,15.7,2.1,21.7,3.5
		c8.1,1.9,16.4,3.3,24.4,4.7c7.1,1.2,14.5,2.5,21.8,4.1c0.3,0.1,0.6,0.1,0.8,0.2c0.5,0.1,1,0.3,1.5,0.3
		c19.6,2.4,26.3,17.4,29.6,28.4c1.4,4.5,0.9,9.2,0.1,13.9c-0.2,1.5,0,2.5,1,3.9c2.8,4.1,4.4,8.7,6,13.2c0.5,1.5,1.1,3,1.6,4.4
		c1.4,3.6,2.6,7.3,3.7,11c0.4,1.2,0.7,2.4,1.1,3.6c0.4,1.4,0.7,1.9,1.3,2.2c2.2,1.2,3.7,3.3,4.6,6c3.6,11.4,9.5,22.4,18.7,34.5
		c4.5,5.8,7.7,12.6,10.3,18c5.4,11.3,11.2,22.3,17.3,32.5c4.7,7.9,6.8,15.6,6.6,23.7v0c-0.1,2,0,4.1,0,6.2c0.1,4.4,0.1,8.9-0.6,13.5
		c-0.6,3.4-2.4,5.2-5.5,5.4c-6.2,0.4-12,1.8-17.8,4.3c-1.9,0.8-4.3,1.2-7,1.2c-2.5,0-5,0.1-7.4,0.5c-5,0.7-9.8,2.4-14.3,4.8
		c-2.7,1.5-5.6,2.1-8.8,2c-6.9-0.4-13.4,2.1-20,4.9c-2.4,1-5.3,1.9-8.8,0.2c-4-1.9-6.5-1.9-8.9,0.3c-2.5,2.2-5.7,1.6-6.7,1.4
		c-2.2-0.4-4.4-0.6-6.7-0.9c-3.5-0.4-7.2-0.8-10.7-1.8c-0.6-0.2-0.8-0.1-0.9-0.1c0,0-0.2,0.3-0.4,1.3c-2.8,14.1-5,28.7-6.5,44.6
		c-0.1,0.7-0.2,1.4-0.3,2c-0.1,0.5-0.2,1-0.2,1.5c-0.4,3.4-2.7,5.3-6,5.2c-0.6,0-1.1,0-1.7,0c-0.4,0-0.7,0-1.1,0H503.6
		c-0.3,0-0.5,0-0.8,0c-0.4,0-0.8,0-1.1,0C501.2,531.1,500.9,531.1,500.5,531.1z M500.4,526.1c0.1,0,0.3,0,0.6,0
		c0.7-0.1,1.3-0.1,1.9,0c0.2,0,0.4,0,0.6,0H730c0.3,0,0.7,0,1,0c0.7,0,1.3,0,2,0c0.5,0,0.7-0.1,0.7-0.1c0,0,0.1-0.2,0.2-0.7
		c0.1-0.6,0.2-1.3,0.3-1.9c0.1-0.6,0.2-1.1,0.2-1.6c1.6-16.1,3.8-30.9,6.6-45.1c0.2-0.8,0.7-3.4,2.8-4.6c1.3-0.8,2.9-0.9,4.8-0.4
		c3.2,0.9,6.4,1.2,9.9,1.6c2.3,0.2,4.7,0.5,7.1,0.9c1.6,0.3,2.2,0,2.5-0.3c5.2-4.6,10.7-2.8,14.4-1c1.4,0.7,2.6,0.6,4.7-0.3
		c7.1-3,14.2-5.7,22.2-5.3c2.2,0.1,4.2-0.3,6.1-1.3c5-2.8,10.3-4.6,15.9-5.4c2.6-0.4,5.4-0.6,8.2-0.6c2,0,3.7-0.3,5-0.8
		c6.2-2.8,12.8-4.4,19.5-4.8c0.4,0,0.6-0.1,0.6-0.1c0,0,0.2-0.2,0.3-1.1c0.7-4.1,0.6-8.2,0.5-12.6c0-2.1-0.1-4.2,0-6.4
		c0.2-7.1-1.8-13.9-5.9-21c-6.1-10.4-12-21.5-17.5-32.9c-3.2-6.6-5.9-12.1-9.7-17.2c-9.5-12.6-15.8-24-19.5-36
		c-0.5-1.5-1.2-2.5-2.3-3.1c-2.4-1.4-3.2-3.8-3.6-5.1c-0.4-1.2-0.7-2.4-1.1-3.6c-1.1-3.5-2.2-7.2-3.5-10.6c-0.6-1.5-1.1-3.1-1.7-4.6
		c-1.5-4.3-3-8.5-5.4-12.1c-1.6-2.4-2.2-4.7-1.8-7.4c0.6-4.3,1.1-8.2,0-11.7c-4.7-15.6-12.6-23.3-25.4-24.9
		c-0.8-0.1-1.4-0.3-2.1-0.4c-0.2-0.1-0.5-0.1-0.7-0.2c-7.1-1.6-14.4-2.8-21.5-4.1c-8.1-1.4-16.5-2.9-24.7-4.8
		c-6.2-1.4-13.5-3-21.2-3.4c-2.1-0.1-3.6-0.8-4.3-2.2c-0.8-1.3-0.6-3,0.4-4.8c0.5-1,1-1.9,1.6-2.9c1.4-2.6,2.9-5.4,4.2-8.1
		c2.6-5.8,2.7-11.5,0.3-16.9c-1-2.1-0.9-4,0.3-5.7c6.9-10.5,9-22.7,11-34.4c1.5-8.8,1.8-16.2-1.5-23.5c-3.1-6.8-6.5-13.2-13.2-17.1
		c-5.1-3-11-6.4-15.6-11.5c-0.4-0.5-1-0.8-1.1-0.8c-3.9-0.4-7.1-2-10.2-3.6c-1.4-0.7-2.8-1.4-4.2-1.9c-2.7-1.1-5.1-0.6-7.7,1.5
		c-0.5,0.4-1,0.9-1.6,1.4c-0.6,0.6-1.3,1.2-2,1.8c-4.7,3.7-9.9,3.9-14.9,0.6l-0.3-0.2c-0.8-0.6-1.3-0.7-1.4-0.7
		c-0.1,0-0.4,0.2-0.8,0.9c-2.1,3.6-5.2,5.8-9.3,6.6c-3.3,0.6-5.1,2.4-5.5,5.6c-0.4,3.2-2.2,5.3-5.6,6.5c-3.3,1.2-6,3.1-8.1,5.6
		c-2.5,3-5.3,5.8-7.9,8.5c-1.3,1.3-2.6,2.7-3.9,4l-0.4,0.5c-2.3,2.4-2.8,3.2-1.8,4.9c0.6,1.1,0.5,2.3,0.3,3.1c0,0.1,0,0.2-0.1,0.3
		l-0.2,1.4c-0.7,5.9-1.3,11.5-0.3,17.1c0.2,1.2,0.1,2.8-0.8,4.1c-3,4.1-3.6,9-4.3,14.3l-0.2,1.4c-0.8,5.6-1.3,11.4,1.7,16.3
		c2.1,3.4,3.3,7,3.8,11.2c0.2,1.9,0.3,4.1-1,5.7c-1.3,1.5-3.2,1.9-5,2c-8.4,0.7-16.3,3.3-24.2,6.2c-2.2,0.8-4.5,1.5-6.8,2.2
		c-0.8,0.2-1.5,0.5-2.3,0.7c-2.2,0.7-4.5,1.4-6.8,2.1c-10.3,3.1-21,6.4-30.9,11.2c-1.7,0.8-2.6,1.4-2.9,2.3
		c-2.8,8.2-5.2,16.2-3.6,24.6c1.1,6.2,0.9,12.3-0.8,18.6c-0.6,2.3-1.2,4.5-1.2,6.7c0,3-0.8,5.7-1.6,8.3c-0.7,2.5-1.4,4.9-1.4,7.3
		c0.1,8-0.8,14.4-3,20.2c-0.8,2.1-1.3,4.3-1.5,6.8c-0.3,3.6-1.3,7-2.3,10.3c-1,3.3-2,6.4-2.1,9.7c-0.1,0.9-0.4,1.7-1.1,2.6
		c-4.5,5.5-5.2,12.4-6,19.6l-0.1,0.7c-0.1,1-0.2,2-0.3,3c-0.6,6.2-1.2,12.6-5.8,18.1c-0.3,0.4-0.6,1.2-0.9,2
		c-0.1,0.4-0.2,0.7-0.4,1.1c-1.6,4.4-3.2,8.8-4.8,13.2l-0.4,1.1c-0.4,1.2-1.6,4.3-5.2,3.9c-2.9-0.3-4.7-2.1-4.9-4.7
		c-0.1-1.4-0.3-2.3-3.1-2.2c-2.2,0.1-3.9-0.5-5.1-1.7c-1.6-1.6-1.6-3.9-1.5-5.5c0.8-13.8,4-26.7,7.1-37.5c1.1-4.1,2.4-8.1,3.7-12
		c2.9-9.1,5.9-18.6,7-28.3c0.1-1,0.2-1.9,0.4-2.9c0.9-7.6,1.8-14.8-2.3-21.4c-1.1-1.7-1-3.2-0.8-4.1c0.3-1,1-2.4,3-3.4
		c1.3-0.7,2-1.2,2.2-1.8c1.9-5.8,4-13.6,2.8-21.6c-0.6-4.2-1-6.5,0.5-8.3c0.8-1,1.8-1.4,3.3-1.6l-2.4-1.2l1.7-2.4
		c-0.4-0.1-0.7-0.2-1.1-0.3c-2-0.7-3.3-1.8-3.9-3.2c-0.6-1.4-0.6-3,0.1-4.7c0.9-2.2,1.3-4.1,1.5-5.8c0.4-4.6-0.1-9.2-0.6-14
		c-0.1-1.1-0.2-2.2-0.3-3.2c-0.7-7.1-1-14.6,3.7-21.7c2.2-3.3,2.2-6.5,0.2-9.7c-0.6-1-1.2-1.9-1.8-2.9c-2.8-4.5-5.5-8.8-8.8-12.8
		c-4.5-5.4-8-11.4-11.4-17.3c-2-3.5-4.2-7.2-6.4-10.6c-5.9-8.8-12-16.8-23.4-18.2c-4.5-0.6-8.8-2.1-13.5-4
		c-7.4-2.9-13.1-4.2-19.1-1.7c-1.7,0.7-3.7,1-5.9,0.8c-6.8-0.7-13.4,1-19.7,2.8c-1.3,0.4-2.4,1.1-4,2.4c-3.2,2.8-5.5,6.4-7.9,10.2
		c-1.4,2.2-2.9,4.6-4.6,6.8c-1.9,2.4-3.2,5.3-4,9c-3.7,16.3-8.1,28.2-14.1,38.7c-1.2,2.1-1.9,4.5-2.1,7.2c-0.3,4.3-2.2,7.9-5.5,10.9
		c-1.8,1.6-3.4,2.9-5.3,2.8c-0.3,0-0.7-0.1-1-0.2c2,3.3,3,6.9,3.7,10.3c0.3,1.2,0.3,2.3,0.4,3.4c0.1,1.5,0.2,2.8,0.7,3.9
		c0.7,1.3,0.6,2.7-0.3,3.8c-0.4,0.5-1,0.9-1.6,1.1c4.3-0.1,7.7,2.4,8.2,6c0.4,2.6-0.3,6.1-5.6,7.9c-5.8,2-11,2.5-15.9,1.5
		c-0.8-0.2-1.5-0.4-2.1-0.7c0,0.3-0.1,0.5-0.2,0.8c-0.8,2.2-3.4,2.7-4.6,3c-2.6,0.6-5.2,1.3-7.8,1.9c-4.6,1.2-9.4,2.5-14.4,3.1
		c-2.6,0.3-5,1.5-7.2,3.5l-0.1,0.1c-1.3,1.2-2.5,2.3-3.6,3.5c-4.2,5-8.5,10.2-11,16.6c-0.9,2.3-1.4,4.8-1.9,7.4
		c-0.5,2.4-1,4.8-1.8,7.2c-3.1,8.9-6.6,19.4-8.6,30.6c-0.3,1.8-0.6,3.5-1,5.3c-1.7,9.4-3.5,19-3.4,28.7l0,0.9
		c0.1,3.7,0.1,7.9-1.8,11.6c-5,10-6.9,20.8-8.4,31.1c-1.3,8.9-6,15.7-14.2,21c-1.2,0.7-2.3,1.5-3.5,2.2c-1.9,1.2-3.8,2.4-5.6,3.6
		c-1.1,0.8-1.8,2-1.9,3.1c0,0.7,0.2,1.2,0.6,1.6c4.9,4.4,4.9,9.7,4.5,14.4c-0.1,0.8,0,1.2,0,1.3l0,0c0.2,0.1,0.6,0.2,1.6,0.2
		c18-0.1,37.2-0.3,56.5,0c12.3,0.1,24.9,0,37-0.1c23.9-0.2,48.7-0.4,73,1.3c9.3,0.6,19,2.2,27.3,9c5.2,4.3,11.5,6.9,18.2,9.5
		l0.8,0.3c3.1,1.2,5.2,0.8,7.8-1.8c3.9-3.8,9.3-5.3,15.6-4.5c3.7,0.5,7.6,0.7,11.3,0.8c2.8,0.1,5.7,0.2,8.5,0.5c3,0.3,4.2-0.1,5-1.5
		c0.7-1.2,2.4-2.9,5.9-1.1c1.4,0.7,3,1.6,4.6,2.6c1.3,0.8,2.3,0.7,3.8-0.1c2.4-1.5,4.1-2.4,5.8-1.4c1.8,1,1.8,2.9,1.8,6
		c0,3.5,0,7,0,10.5c0,9.7,0,19.6,0,29.5C500.4,525.6,500.4,525.9,500.4,526.1z M321.9,246.8c0.1,0,0.1,0.1,0.2,0.1
		c0.1,0.1,0.2,0.1,0.4,0.1c-0.1-0.1-0.3-0.1-0.4-0.2C322,246.8,321.9,246.8,321.9,246.8z M698,227.4L698,227.4L698,227.4z
		 M697.4,226.3L697.4,226.3L697.4,226.3z M588.9,168.8L588.9,168.8L588.9,168.8z M770.9,424.7c-1.4,0-2.6-0.3-3.6-1
		c-2.3-1.6-2.8-4.7-3.6-9.5c-1.4-9-2.3-18.4-2.7-28.8c-0.1-1.8-0.1-3.6-0.1-5.4c0-3.4,0-6.8-0.4-10.3l-2.6-19.5l7.4,18.2
		c1.6,4,3.7,7.9,5.7,11.8c2.1,3.9,4.3,8,6,12.3l0,0c0.8,1.9,1.5,3.8,2.6,5.4c2.6,4.1,5.5,9.6,4.7,16.5c0,0.2,0.1,0.5,0,0.9
		c0,0.2,0.2,0.5,0.3,0.7c0.5,1.1,1.7,3.9-1,5.9c-1.4,1-3,1.2-4.5,1.4c-0.5,0.1-1,0.1-1.4,0.2l-0.4,0.1
		C774.7,424.3,772.6,424.7,770.9,424.7z M766,381.4c0,1.3,0,2.6,0.1,3.9c0.4,10.1,1.2,19.3,2.6,28.2c0.3,2.2,0.9,5.7,1.5,6.2
		c0.6,0.4,3.8-0.2,6.2-0.7l0.4-0.1c0.5-0.1,1.2-0.2,1.8-0.3c0.5-0.1,1.1-0.1,1.6-0.2c0,0,0-0.1,0-0.1c-0.4-0.8-0.9-1.9-0.7-3.2
		c0-0.2,0-0.5,0-0.9c0.5-4.2-0.7-8.4-3.9-13.4c-1.3-2-2.2-4.1-3-6.2l0,0c-1.6-4-3.7-8-5.8-11.8C766.4,382.2,766.2,381.8,766,381.4z
		 M784.3,414.7C784.3,414.7,784.3,414.8,784.3,414.7C784.3,414.8,784.3,414.7,784.3,414.7z M779.4,414.6
		C779.4,414.7,779.4,414.7,779.4,414.6C779.4,414.7,779.4,414.7,779.4,414.6z M474,287.2c-2.2,0-3.3-1.9-3.7-2.6
		c-0.1-0.1-0.1-0.3-0.2-0.4c-4.2-6-4.1-7.8,0.7-14l2.3-2.9l1.9,3.2c2,3.5,3.1,7,3.5,10.7c0.3,2.9-1,5.2-3.4,5.9
		C474.8,287.1,474.4,287.2,474,287.2z M472.4,276.7c-0.1,0.3-0.2,0.6-0.2,0.8c0,0.5,0.4,1.4,1.1,2.4
		C473.1,278.8,472.8,277.7,472.4,276.7z"/>
	<path d="M536.1,611c-141.6,0-274.7-8.3-374.8-23.3C89.6,577,4.1,558,4.1,529c0-17.1,29.7-32.6,88.3-46l3.1-0.7v18.1h0.3l-0.3,2.8
		c0,0.1,0,0.1,0,0.2c0,5.8,17.9,14,47,14s47-8.2,47-14c0-0.1,0-0.1,0-0.2l-0.3-2.8h0.3v-34.1l2.2-0.3c6.8-0.9,13.8-1.7,21.5-2.6
		l2.2-0.3l0.5,2.1c0.2,0.1,0.6,0.2,1.6,0.2c18-0.1,37.2-0.3,56.5,0c12.3,0.1,24.9,0,37-0.1c23.9-0.2,48.7-0.4,73,1.3
		c9.3,0.6,19,2.2,27.3,9c5.2,4.3,11.5,6.9,18.2,9.5l0.8,0.3c3.1,1.2,5.2,0.8,7.8-1.8c3.9-3.8,9.3-5.3,15.6-4.5
		c3.7,0.5,7.6,0.7,11.3,0.8c2.8,0.1,5.7,0.2,8.5,0.5c3,0.3,4.2-0.1,5-1.5c0.7-1.2,2.4-2.9,5.9-1.1c1.4,0.7,3,1.6,4.6,2.6
		c1.3,0.8,2.4,0.7,3.8-0.1c2.4-1.5,4.1-2.4,5.8-1.4c1.8,1,1.8,2.9,1.8,6c0,3.5,0,7,0,10.5c0,9.7,0,19.6,0,29.5c0,0.5,0,0.9,0.1,1.1
		c0.1,0,0.3,0,0.6,0c0.7-0.1,1.3-0.1,1.9,0c0.2,0,0.4,0,0.6,0H730c0.3,0,0.7,0,1,0c0.7,0,1.3,0,1.9,0c0.5,0,0.7-0.1,0.7-0.1
		c0,0,0.1-0.2,0.2-0.7c0.1-0.6,0.2-1.3,0.3-1.9c0.1-0.6,0.2-1.1,0.2-1.6c1.6-16.1,3.8-30.9,6.6-45.1c0.2-0.8,0.7-3.4,2.8-4.6
		c1.3-0.8,2.9-0.9,4.8-0.4c3.2,0.9,6.4,1.2,9.9,1.6c2.3,0.2,4.7,0.5,7.1,0.9c1.6,0.3,2.2,0,2.5-0.3c5.2-4.6,10.7-2.8,14.4-1
		c1.4,0.7,2.6,0.6,4.7-0.3c7.1-3,14.2-5.7,22.2-5.3c2.2,0.1,4.2-0.3,6.1-1.3c5-2.8,10.3-4.6,15.9-5.4l0.3,0l0.3,0
		c71,7.2,236.1,28.2,236.1,68.4c0,29-85.5,47.9-157.2,58.7C810.8,602.8,677.7,611,536.1,611z M90.5,488.6
		C19.8,505.2,9.1,521,9.1,529c0,19.3,57.2,39.4,153,53.7c99.9,15,232.7,23.3,374,23.3c141.3,0,274.2-8.3,374-23.3
		c95.8-14.4,153-34.5,153-53.7c0-19.3-60.8-46.2-231.3-63.4c-4.9,0.8-9.6,2.4-13.9,4.8c-2.7,1.5-5.6,2.1-8.8,2
		c-6.9-0.4-13.4,2.1-20,4.9c-2.4,1-5.3,1.9-8.8,0.2c-4-1.9-6.5-1.9-8.9,0.3c-2.5,2.2-5.7,1.6-6.7,1.4c-2.2-0.4-4.4-0.6-6.7-0.9
		c-3.5-0.4-7.2-0.8-10.7-1.8c-0.6-0.2-0.8-0.1-0.9-0.1c0,0-0.2,0.3-0.4,1.3c-2.8,14.1-5,28.7-6.5,44.6c-0.1,0.7-0.2,1.4-0.3,2
		c-0.1,0.5-0.2,1-0.2,1.5c-0.4,3.4-2.6,5.3-6,5.2c-0.6,0-1.1,0-1.7,0c-0.4,0-0.7,0-1.1,0H503.6c-0.3,0-0.5,0-0.8,0
		c-0.4,0-0.8,0-1.1,0c-2,0.2-3.5-0.1-4.6-1.1c-1.5-1.4-1.7-3.5-1.7-4.9c0.1-9.8,0.1-19.8,0-29.4c0-3.5,0-7,0-10.5c0-0.1,0-0.2,0-0.3
		c0,0,0,0-0.1,0c-3.1,1.8-6.1,1.8-8.9,0.1c-1.4-0.9-2.9-1.7-4.2-2.4c-2.8,3.7-7.2,3.3-9.2,3.1c-2.7-0.3-5.5-0.4-8.3-0.5
		c-3.8-0.1-7.8-0.3-11.8-0.8c-4.8-0.7-8.6,0.4-11.4,3.1c-4,3.9-8.3,4.8-13.1,2.8l-0.8-0.3c-6.7-2.7-13.7-5.5-19.5-10.3
		c-6.8-5.6-14.7-7.2-24.4-7.9c-24.2-1.7-48.8-1.5-72.6-1.3c-12.2,0.1-24.8,0.2-37.1,0.1c-19.2-0.2-38.4-0.1-56.4,0
		c-1.1,0-3.8,0-5.4-1.8c-6.2,0.7-12,1.4-17.6,2.1v34.7h-0.2c-2.7,11.1-27.9,17-51.8,17s-49-5.9-51.8-17h-0.2l0-1.6
		c0-0.1,0-0.3,0-0.4c0-0.1,0-0.1,0-0.2l0-0.3V488.6z"/>
</g>
</svg>
