<?xml version="1.0" encoding="UTF-8"?>
<svg id="Layer_1" data-name="Layer 1" xmlns="http://www.w3.org/2000/svg" viewBox="0 0 1068.11 1013.5">
  <defs>
    <style>
      .cls-1 {
        stroke-width: 0px;
      }
    </style>
  </defs>
  <path class="cls-1" d="m849.86,462.48c4.7-1.73,9.46-2.71,14.47-2.99,3.12-.18,4.98-1.98,5.54-5.35.73-4.55.66-9.08.6-13.46-.03-2.03-.05-4.14,0-6.18h0c.2-8.04-1.97-15.78-6.62-23.68-6.05-10.27-11.86-21.22-17.26-32.54-2.6-5.43-5.82-12.2-10.28-18.04-9.19-12.09-15.14-23.03-18.73-34.46-.83-2.66-2.41-4.71-4.58-5.96-.54-.31-.84-.83-1.28-2.21-.37-1.19-.74-2.39-1.1-3.58-1.11-3.62-2.25-7.36-3.67-10.97-.56-1.44-1.1-2.95-1.61-4.41-1.58-4.46-3.21-9.07-6.02-13.2-.95-1.39-1.21-2.4-.99-3.88.71-4.73,1.24-9.35-.14-13.88-3.33-11.04-10.02-26-29.58-28.41-.45-.06-.95-.18-1.48-.31-.27-.07-.54-.14-.82-.2-7.23-1.59-14.62-2.88-21.77-4.12-8.04-1.4-16.36-2.84-24.42-4.72-5.94-1.4-13.76-3.04-21.69-3.49.45-.85.91-1.69,1.37-2.54,1.49-2.73,3.02-5.54,4.34-8.44,3.26-7.18,3.35-14.26.27-21.06-.29-.64-.23-.73-.11-.92,7.46-11.41,9.71-24.61,11.7-36.25,1.46-8.44,2.23-17.48-1.87-26.39-3.32-7.24-7.24-14.69-15.2-19.31-4.83-2.81-10.3-5.99-14.4-10.52-.45-.52-2.12-2.24-4.32-2.47-2.99-.32-5.68-1.65-8.54-3.07-1.46-.73-2.98-1.48-4.57-2.1-4.4-1.74-8.67-1.01-12.69,2.19-.69.55-1.31,1.13-1.91,1.7-.57.54-1.12,1.06-1.67,1.49-3.05,2.4-5.85,2.52-9.06.39l-.2-.13c-1.82-1.3-3.58-1.79-5.25-1.43-1.62.34-2.98,1.43-4.03,3.23-1.35,2.32-3.24,3.65-5.95,4.17-5.43,1.05-8.81,4.55-9.51,9.85-.15,1.12-.56,1.85-2.35,2.5-4.09,1.49-7.53,3.88-10.24,7.09-2.4,2.85-5.08,5.58-7.68,8.22-1.33,1.35-2.66,2.7-3.97,4.09l-.41.43c-1.99,2.09-5.27,5.55-2.76,10.43-.01.06-.03.13-.04.2-.03.21-.06.41-.09.61l-.15,1.42c-.67,6-1.36,12.21-.22,18.54.02.12.01.28-.01.38-3.64,5.09-4.41,10.85-5.16,16.41l-.19,1.41c-.84,6.17-1.43,13.28,2.37,19.54,1.68,2.77,2.65,5.7,3.07,9.21.13,1.15.11,1.68.07,1.9-.19.07-.61.18-1.5.25-9.05.71-17.59,3.59-25.55,6.48-2.12.77-4.35,1.45-6.51,2.11-.76.23-1.52.47-2.29.7-2.23.7-4.47,1.38-6.71,2.07-10.52,3.2-21.39,6.51-31.59,11.45-1.76.84-4.41,2.12-5.46,5.19-2.88,8.46-5.56,17.52-3.82,27.11.99,5.5.76,10.87-.72,16.42-.68,2.5-1.34,5.17-1.37,7.9-.03,2.31-.7,4.57-1.41,6.97-.82,2.76-1.66,5.62-1.61,8.8.11,7.34-.75,13.19-2.72,18.39-.95,2.52-1.55,5.29-1.77,8.24-.24,3.08-1.14,6.06-2.1,9.22-1.02,3.36-2.08,6.83-2.33,10.51-.01.02-.02.03-.04.05-5.39,6.69-6.25,14.55-7.08,22.16l-.07.65c-.12,1.02-.21,2.05-.31,3.08-.52,5.68-1.02,11.04-4.64,15.38-.97,1.14-1.4,2.49-1.78,3.68-.1.3-.2.61-.3.89-1.64,4.4-3.25,8.82-4.85,13.24l-.4,1.11c-.06.16-.14.37-.21.55-.07-.01-.13-.03-.17-.05-.17-2.67-1.47-6.98-8.24-6.8h-.22c-.83,0-1.09-.15-1.1-.15-.01-.02-.24-.37-.15-1.75.8-13.33,3.93-25.89,6.89-36.42,1.11-3.98,2.4-8,3.64-11.88,2.99-9.38,6.08-19.07,7.24-29.24.11-.96.23-1.91.35-2.87,1-8.14,2.04-16.57-3.04-24.7-.05-.07-.07-.12-.1-.17.09-.06.22-.16.44-.28,1.48-.79,3.71-1.98,4.6-4.67,2.11-6.36,4.35-14.84,2.97-24.04-.25-1.65-.5-3.35-.49-4.15.78-.14,2.46-.18,4.12-.21h.53c1.95-.03,4.63-.06,6.7-2.42,2.23-2.58.99-4.55.36-5.27-.11-.12-.25-.27-.44-.42.3-.18.59-.37.87-.56,2.72-1.9,2.52-3.88,1.86-5.21-.36-.75-1.82-3.06-5.19-1.48-.08.04-.16.08-.25.11-.52.23-1.05.47-1.57.7-.93.43-1.8.83-2.65,1.1-1.91.6-3.56.63-5.06.1-.86-.31-1.07-.57-1.07-.57h-.01s-.04-.26.19-.85c1.04-2.69,1.6-4.99,1.78-7.25.4-5.08-.13-10.07-.66-14.89-.11-1.07-.23-2.13-.33-3.19-.63-6.44-.88-12.69,2.9-18.5,3.25-5,3.33-10.24.22-15.14-.61-.95-1.2-1.91-1.8-2.86-2.8-4.46-5.69-9.07-9.23-13.33-4.2-5.05-7.6-10.91-10.88-16.58-2.09-3.6-4.25-7.32-6.61-10.86-6.27-9.38-13.51-18.68-26.92-20.34-3.97-.49-7.92-1.95-12.31-3.66-6.67-2.61-14.5-5.1-22.86-1.7-1,.41-2.16.54-3.55.4-7.66-.79-14.85,1.05-21.56,3-2.53.74-4.38,2.17-5.87,3.48-3.75,3.31-6.31,7.37-8.79,11.3-1.42,2.25-2.76,4.37-4.3,6.35-2.32,2.98-3.93,6.55-4.93,10.91-3.62,15.79-7.81,27.3-13.57,37.32-1.59,2.77-2.52,5.92-2.76,9.34-.23,2.96-1.49,5.44-3.87,7.57-.92.82-1.42,1.21-1.71,1.38-.24-.2-.68-.61-1.43-1.46-.08-.09-.27-.39-.39-.58-.59-.93-1.47-2.33-3.16-2.69-.7-.15-1.78-.16-2.98.64-3.03,2.02-1.29,5.31-.72,6.4.13.24.26.47.36.71.5,1.21,1.11,2.25,1.79,3.1,2.35,2.94,3.29,6.51,4.12,10.21.18.8.24,1.69.3,2.62.05.86.11,1.77.27,2.71-1.17-.47-2.77-.97-4.37-.27-.73.32-1.73,1.04-2.32,2.63-1.06,2.91.32,5.83,3.33,7.07,2.4,1.01,4.7,1.45,7.05,1.34,1.68-.09,3.06.69,3.23,1.77.1.74.23,1.57-2.27,2.43-5.02,1.74-9.22,2.17-13.23,1.33-1.97-.41-3.05-1.89-4.65-4.26l-.53-.78c-1.59-2.31-3.74-2.32-5.13-1.61-.88.47-1.52,1.24-1.78,2.16-.29,1.05-.09,2.23.56,3.31.78,1.32,1.68,2.54,2.53,3.66.17.22.3.41.42.58-.13.03-.27.06-.43.1-2.7.58-5.4,1.29-8,1.98-4.69,1.23-9.11,2.4-13.72,2.96-3.59.44-6.93,2.02-9.95,4.72l-.09.08c-1.38,1.24-2.81,2.52-4.07,4.02-4.24,5.08-9.04,10.84-11.84,18.01-1.07,2.74-1.63,5.51-2.18,8.19-.46,2.29-.9,4.45-1.63,6.52-3.19,9.05-6.72,19.86-8.78,31.37-.31,1.75-.64,3.5-.96,5.25-1.78,9.6-3.62,19.52-3.51,29.66l.02.95c.05,3.27.11,6.66-1.23,9.32-5.36,10.64-7.35,21.95-8.93,32.63-1.09,7.34-5,13.09-11.97,17.57-1.13.73-2.28,1.43-3.43,2.14-1.95,1.2-3.97,2.44-5.9,3.8-2.35,1.65-3.85,4.24-4,6.91-.13,2.22.67,4.23,2.27,5.66,2.91,2.61,3.26,5.64,2.89,10.32,0,.06-.01.12-.01.18-5.76.67-11.17,1.33-16.38,1.99v-61.26h-.57c-.6-1.59-1.69-3.11-3.27-4.53.04.04.07.08.11.12l-.18-.18h-.01c-6.88-7.43-26.53-12.41-49.08-12.41s-44.69,4.86-50.54,14.15l.82,1.34c-.1.17-.19.34-.27.51-.04.07-.08.14-.11.21-.13.26-.24.52-.34.79h-.56v-.8c-.18,0-.35,0-.52-.01.02-.07.05-.14.08-.21-13.98-.47-26.6-7.6-34.2-19.33l.27-.17c-4-6.59-6.12-14.19-6.13-21.95,0-23.26,18.76-42.22,41.95-42.53l.68.05c50.08,0,91.05-40.08,92.46-89.85,49.8-1.38,89.91-42.35,89.91-92.46-.07-50.28-40.51-91.31-90.55-92.35C183.33,19.97,162.7.02,137.5,0c-25.2.02-45.83,19.97-46.95,44.89C40.44,45.94,0,87.02,0,137.37c.06,43.65,30.54,80.32,71.31,89.92C30.48,236.89,0,273.62,0,317.34c.04,29.31,13.49,56.22,36.91,73.84l.13-.17c15.43,11.25,33.6,17.34,52.76,17.68-.02-.07-.04-.15-.06-.22.25.01.51.01.76.02.33.01.67.01,1,.01v.21c-.33,0-.67,0-1-.01v1.75c.06.11.12.22.18.33l-.18-.28v73.01c-57.33,13.31-86.39,28.62-86.39,45.52,0,29,85.5,47.92,157.22,58.69,99.05,14.87,230.37,23.13,370.23,23.3v-2.02h5v2.03c141.39-.02,274.32-8.3,374.33-23.31,71.72-10.77,157.22-29.69,157.22-58.69,0-37.14-140.78-57.93-218.25-66.55Zm-377.44-185.78c.38,1.04.67,2.09.87,3.18-.67-1.04-1.14-1.93-1.12-2.42.02-.21.1-.46.25-.76Zm-3.62-4.97c.14.24.27.49.4.73,1.6,2.99,2.48,5.9,2.79,8.97.13,1.3-.13,2.79-1.57,3.2-1.29.36-1.69-1.07-2.27-1.9-3.49-5.05-3.45-5.74.65-11Zm-146.74-24.84c-.07-.03-.13-.05-.18-.08.04.02.09.03.13.05.14.06.27.12.41.18l-.36-.15Zm-106.15,218.44v-.02.02s0,0,0,0Zm183.04-72.83c0-.17-.01-.33-.03-.5h.03v.5Zm379.78,26.02c-.08.01-.15.02-.22.03-.6.07-1.23.15-1.78.27l-.36.07c-2.39.46-5.66,1.09-6.21.71-.59-.41-1.16-4-1.5-6.16-1.42-8.82-2.28-18.04-2.64-28.17-.02-.5-.03-1.01-.04-1.53-.02-.78-.02-1.56-.02-2.34.23.42.45.85.68,1.27,2.04,3.83,4.14,7.79,5.77,11.83h.01c.84,2.08,1.7,4.23,2.99,6.21,3.25,5.02,4.45,9.16,3.91,13.38-.06.36-.03.66-.01.89-.13,1.31.36,2.41.73,3.23.02.03.03.06.05.1-.4.09-.91.16-1.36.21Zm52.64,42.08l.31-.05h.04c-.12.02-.24.03-.35.05Z"/>
  <path class="cls-1" d="m768.48,1008.5v5c-63.36,0-122.89-24.64-167.63-69.38-36.34-36.34-59.42-82.45-66.8-132.45-7.38,50-30.46,96.11-66.8,132.45-44.74,44.74-104.27,69.38-167.63,69.38v-5c125.99,0,228.84-100.95,231.93-226.21-.05-1.92-.07-3.86-.07-5.79v-2.5h.08v-165h5v165h.06v2.5c0,1.93-.02,3.87-.07,5.79,3.09,125.26,105.94,226.21,231.93,226.21Z"/>
</svg>