<?xml version="1.0" encoding="UTF-8"?>
<svg id="Layer_1" data-name="Layer 1" xmlns="http://www.w3.org/2000/svg" viewBox="0 0 1173.01 917.99">
  <defs>
    <style>
      .cls-1 {
        stroke-width: 0px;
      }
    </style>
  </defs>
  <path class="cls-1" d="m1164.51,848.43c-10.07,8.44-21.62,13.66-35.85,18.89-35.64,13.1-71.99,19.78-99.69,24.15-24.24,3.81-50.13,7.32-79.14,10.73-14.16,1.66-28.58,2.75-42.53,3.81-9.42.71-19.17,1.45-28.72,2.35-29.73,2.82-59.99,4.16-89.26,5.46-6.65.29-13.29.59-19.94.9-16.7.78-33.67.98-50.09,1.17-13.28.16-27.01.32-40.48.79-29.7,1.03-59.72,1.31-89.44,1.31-17.6,0-35.09-.1-52.38-.2-11.3-.06-22.61-.12-33.91-.16-29.74-.1-61.66-1.01-97.58-2.78-31.34-1.55-64.27-3.81-100.67-6.93-25.03-2.15-51.03-4.8-77.27-7.87-30.76-3.62-60.49-8.05-88.34-13.18-35.94-6.61-74.28-14.79-111.21-29.82-8.17-3.32-14.57-7.66-19.56-13.26-5.94-6.68-8.53-13.25-8.19-20.67.21-4.36.07-8.88-.07-13.25-.25-7.64-.5-15.53,1.02-23.38,4.75-24.41,19.39-42.44,44.77-55.14,19.7-9.85,33.46-24.17,40.89-42.54,3.46-8.57,5.99-16.34,7.74-23.74,5.14-21.79,21.99-32.01,37.8-39.13,2.32-1.05,4.64-1.93,7.14-2.82-4.84-1.7-9.15-3.2-13.56-4.61-15.01-4.76-22.6-15.39-22.58-31.57.02-20.35,3.97-35.33,12.8-48.57,14.2-21.31,24.09-44.26,29.39-68.24,1.47-6.62,2.66-13.44,3.82-20.05,1.44-8.29,2.94-16.86,5.01-25.26,5.23-21.17,13.39-41,24.25-58.95,20.72-34.27,49.03-66.54,86.55-98.68,28.54-24.44,56.81-42.12,86.42-54.04,21.87-8.8,45.54-15.48,72.37-20.42,28.29-5.22,58.48-8.09,97.86-9.31.65-.02,1.08-.06,1.35-.1,0-.18-.01-.41-.04-.71-.29-2.74-.22-5.45-.15-8.07.03-.92.05-1.85.06-2.77,0-.27,0-.54-.02-.82-.07-1.77-.24-5.92,3.85-7.42q2.25-.84,1.21-4.23c-.27-.86-.54-1.75-.75-2.72-6.52-30.17.32-57.01,20.32-79.78,4.25-4.84,9.54-4.3,13.41-3.9.84.08,1.63.16,2.37.19,1.93.08,2.6-.13,2.79-.21.07-.17.27-.82.17-2.57-.46-8.04-.47-16.6-.03-26.14.05-1.06-.03-1.59-.09-1.82-.26-.07-.87-.18-2.28-.16-14.43.23-29.08.28-43.26.33-4.18.01-8.36.02-12.53.04-2.6.01-5.22-.03-7.8-.12-9.62-.32-12.76-5.7-13.69-10.16-1.56-7.34,1.11-12.96,7.73-16.25,10.25-5.1,21.56-8.73,35.6-11.42,28.35-5.42,57.1-5.07,83.94-3.88,21.08.94,45.4,2.9,67.22,14.31.4.21.82.41,1.24.62,3.13,1.54,8.39,4.12,7.43,10.31-.88,5.56-4.61,10.43-9.73,12.7-2.38,1.06-6.02,2.44-10.28,2.26-8.63-.38-17.5.17-26.06.7-9.62.6-19.56,1.22-29.48.57-1.19-.07-1.77.01-2.01.07-.07.24-.17.81-.12,1.98.32,8.2.22,16.51.11,24.54l-.04,3.52v.51c13.43-3.04,19.64,6.38,24.65,13.96l.71,1.07c16.18,24.36,19.55,47.74,10.31,71.46-1.17,3-.83,3.15.76,3.9,5.63,2.65,5.78,6.9,5.37,9.21-.36,1.96-.33,4.08-.3,6.33.04,3.03.08,6.34-.85,9.69,1.85.1,3.69.21,5.51.31,7.48.43,14.54.83,21.67.9,17.03.16,34.04,2.23,50.49,4.22,5.53.68,11.25,1.37,16.88,1.98,26.94,2.92,47.36,7.46,66.23,14.73,44.85,17.28,84.17,42.76,116.87,75.71,25.26,25.45,45.08,50.26,60.59,75.87,11.82,19.49,21.02,37.57,28.14,55.29,1.67,4.15,3.57,8.34,5.41,12.39,2.18,4.79,4.43,9.75,6.37,14.79,1.83,4.77,3.37,9.69,4.85,14.45,1.33,4.27,2.71,8.69,4.28,12.91,5.78,15.53,11.25,29.51,16.74,42.75,10.08,24.33,19.36,51.01,19,81.18-.19,16.14-5.76,24.56-19.2,29.05-4.78,1.6-9.56,3.27-14.59,5.02,1.04.53,2.09,1.04,3.12,1.55,5.3,2.61,10.78,5.31,15.66,9.07,10.24,7.89,16.38,18.05,18.76,31.07,5.18,28.27,18.64,47.86,41.17,59.89,12.88,6.88,24.29,16.04,33.97,24.09,14.87,12.36,17.37,29.03,17.86,43.7.15,4.62.09,9.28.03,13.79-.07,5.53-.15,11.24.18,16.78.45,7.41-2.24,13.28-8.45,18.5Z"/>
</svg>