<?xml version="1.0" encoding="UTF-8"?>
<svg id="Layer_1" data-name="Layer 1" xmlns="http://www.w3.org/2000/svg" viewBox="0 0 1168.4 1026.59">
  <defs>
    <style>
      .cls-1 {
        stroke-width: 0px;
      }
    </style>
  </defs>
  <path class="cls-1" d="m1168.28,691.92c-.02-69.92-.03-141.02-.08-212.42-.04-71.4-.1-143.1-.22-214.2-.01-9.29-2.79-19.65-7.61-28.39-8.54-15.57-23.64-23.75-44.86-24.31-8.37-.22-16.86-.18-25.06-.14-5.61.02-11.4.05-17.1-.01-.77,0-1.89-.23-2.63-.46-1.47-5.51-6.21-5.38-8.57-5.31-.61.01-1.18.03-1.66-.01-.88-.07-1.95-.13-3.06-.19-1.14-.06-2.79-.15-3.97-.26-.41-1.26-1.07-2.23-1.98-2.95-1.95-1.52-4.26-1.2-5.78-.98-.44.06-.93.12-1.18.11-5.16-.26-10.26-.16-15.47-.03-1.8.05-5.15.14-6.8,2.36-.93,1.27-1.58,1.91-1.96,2.22-.41-.63-1.05-2.07-2-5.29l-1.33-4.49-3.52,3.08c-.74.65-1.41,1.26-2.03,1.84-1.24,1.16-2.22,2.08-3.21,2.65-.18.09-.59.18-.95.23-1.34-1.61-3.23-3.29-5.77-3.21-2.33.07-4.05,1.68-5.09,2.98-.2-.04-.39-.08-.55-.11-.57-.13-1.13-.25-1.6-.33-.72-.11-1.7-.32-2.65-.52-3.61-.77-6.21-1.33-7.31,1.31-1,2.44-1.66,2.49-5.29,1.65-1.3-.3-2.71-.63-4.15-.64-.41-.81-.91-1.91-1.29-2.74-.58-1.26-1.17-2.56-1.75-3.69l-.84-1.63h-40.59l.8,3.65c.84,3.8.15,4.68.12,4.72-.45.54-2.96.43-4.46.37-1.79-.07-3.64-.15-5.43.21l-1.82.36-1.41,5.18c-4.95,0-9.88.02-14.79.03-16.98.04-33.03.08-49.41-.24-2.81-.05-6.48-1.67-8.53-3.76l-1.2-1.22c-8.5-8.66-17.29-17.61-24.36-27.42-5.65-7.85-12.01-8.79-17.51-7.95l-.95-10.82c-.72-8.18-1.44-16.33-2.17-24.48-2.34-26.33-9.49-50.51-21.23-71.87-11.96-21.8-28.85-38.55-50.2-49.78-23.05-12.14-47.91-13.73-71.39-14.32-39.35-1-77.92-.74-110.46-.36l-5.09.06c-21.82.24-44.38.49-66.36,3.23-31.48,3.94-58.01,20.71-76.73,48.5-20.87,30.99-31.43,67.46-31.4,108.4.01,3.14.01,6.28,0,9.48v1.85c-6.62-.29-13.41-.38-18.42,7.64-4.51,7.19-10.34,14.34-18.93,23.17-2.89,2.97-8.9,9.14-13.46,9.37-16.27.84-32.29.71-49.25.58-5.23-.04-10.61-.09-15.99-.1-.39-1.91-1.16-3.37-2.33-4.42-2.37-2.12-5.48-1.83-7.98-1.6-.87.08-1.76.16-2.52.13.28-2.53-.2-4.54-1.46-6.1-2.45-3.07-6.85-3.11-11.13-2.89-5.28.27-10.89.27-17.13.01l-.57-.02c-4.21-.19-8.98-.4-11.93,2.88-1.36,1.52-2.11,3.56-2.24,6.16-1.63-.11-3.2.07-4.6.24-3.89.46-5.06.46-6.3-2.43l-.73-1.68-1.77-.21c-1.04-.13-6.13.54-8.29,2.85-1.02-2.06-3.8-4.77-6.53-4.19-2,.43-3.36,1.94-4.45,3.15-.16.19-.32.37-.49.55-1.25-3.13-3.84-4.35-6.04-4.41-2.82-.07-5.4,1.53-6.04,3.74-.28,1.01-.54,1.75-.76,2.31-.35-.55-.8-1.31-1.38-2.38-1.09-1.96-3.32-1.92-4.81-1.89-.19.01-.37.01-.55.01h-1.53c-6.17-.02-12.56-.04-18.84.04-.06,0-6.07.1-6.07,3.95,0,.21-.01.39-.02.52-.3-.02-.67-.06-.95-.1-.79-.1-1.68-.21-2.59-.11-1.83.18-3.71.14-5.71.09-.89-.02-1.79-.04-2.69-.04h-3.14l.18,3.93c-.21.11-.4.23-.6.34-1.14.67-2.42,1.42-3.19,1.44-15.15.3-28.83.51-42.68.06-13.61-.44-26.57,4.61-36.51,14.24C5.8,236.53-.02,250.33,0,264.54c.25,166.73.24,336.25.24,500.18,0,70.02,0,140.03.02,210.04,0,4.2.18,9.08,1.52,13.54,7.62,25.61,24.3,38.06,51,38.07,87.36,0,174.72,0,262.08,0,57.05,0,114.09-.01,171.14-.01,206.37-.02,419.77-.05,629.66.23h.07c13.61,0,27.2-5.77,37.28-15.84,9.93-9.92,15.4-22.94,15.39-36.66-.08-94.06-.1-189.69-.12-282.17ZM735.05,167.75v44.4h-301.1v-44.27l-19.11,2.22c-.1-1.9-.15-3.79-.15-5.66,0-27.05,10.21-51.11,30.4-71.58,15.92-16.11,34.57-23.19,55.45-21.02,5.84.61,11.79,1.6,17.54,2.56,7.26,1.2,14.77,2.45,22.28,2.98,17.31,1.23,35.76,2.34,54.33,1.35,12.44-.67,24.99-2.17,37.12-3.62,9.85-1.18,20.03-2.39,30.04-3.15,21.46-1.63,37.92,2.63,51.78,13.38,14.56,11.29,24.83,24.51,31.4,40.45,5.84,14.14,8.72,29.01,8.55,44.3l-18.53-2.34Z"/>
</svg>